<svg width="305" height="281" viewBox="0 0 305 281" fill="none" xmlns="http://www.w3.org/2000/svg">
<g clip-path="url(#clip0_1_375)">
<g clip-path="url(#clip1_1_375)">
<g clip-path="url(#clip2_1_375)">
<path d="M258.467 0H46.5325C26.3593 0 10.0057 16.3536 10.0057 36.5269V243.632C10.0057 263.805 26.3593 280.158 46.5325 280.158H258.467C278.641 280.158 294.994 263.805 294.994 243.632V36.5269C294.994 16.3536 278.641 0 258.467 0Z" fill="#F7D3CF"/>
<path d="M61.8833 185.213C60.9007 186.208 59.7259 186.993 58.4305 187.519C57.135 188.046 55.746 188.303 54.348 188.276C51.3822 188.276 48.8704 187.252 46.8127 185.213C45.8127 184.226 45.0245 183.045 44.4963 181.743C43.9681 180.441 43.7109 179.044 43.7406 177.639C43.7093 176.241 43.9649 174.851 44.4916 173.555C45.0183 172.259 45.8049 171.084 46.803 170.104C47.7815 169.102 48.9548 168.31 50.2508 167.779C51.5467 167.247 52.9378 166.986 54.3383 167.013C57.3041 167.013 59.8159 168.037 61.8736 170.104C62.8823 171.079 63.6791 172.251 64.2144 173.548C64.7496 174.844 65.0117 176.237 64.9843 177.639C64.9843 180.625 63.9506 183.146 61.8833 185.213ZM49.6432 182.46C50.2602 183.074 50.9952 183.557 51.8038 183.879C52.6124 184.201 53.4779 184.356 54.348 184.334C55.2286 184.356 56.1044 184.197 56.9212 183.867C57.738 183.537 58.4785 183.043 59.0969 182.416C59.7152 181.788 60.1984 181.041 60.5165 180.219C60.8345 179.398 60.9808 178.52 60.9462 177.639C60.9709 176.761 60.8181 175.886 60.4967 175.068C60.1754 174.25 59.6922 173.505 59.0761 172.878C58.4599 172.251 57.7236 171.755 56.9112 171.42C56.0987 171.084 55.2269 170.916 54.348 170.925C53.476 170.902 52.6085 171.059 51.7993 171.384C50.99 171.71 50.2562 172.198 49.6432 172.819C49.0126 173.451 48.5184 174.206 48.1911 175.037C47.8637 175.868 47.7102 176.757 47.7401 177.649C47.7401 179.581 48.3777 181.195 49.6432 182.46ZM82.7116 170.336C80.6539 170.181 79.6202 171.012 79.6202 172.819V173.263H82.7116V176.886H79.6202V187.87H75.8526V176.886H71.5246V187.87H67.7569V176.886H65.6509V173.263H67.7569V173.109C67.7569 171.051 68.3366 169.476 69.4765 168.404C70.6358 167.341 72.3457 166.868 74.6256 167.003V170.626C72.5583 170.471 71.5246 171.302 71.5246 173.109V173.263H75.8526V172.819C75.8526 170.751 76.4322 169.186 77.5721 168.114C78.7411 167.051 80.4607 166.568 82.7116 166.713V170.336ZM86.2184 182.112C86.7304 183.948 88.1022 184.856 90.3435 184.856C91.7829 184.856 92.8746 184.373 93.6088 183.407L96.6519 185.146C95.2028 187.232 93.0871 188.276 90.2759 188.276C87.8607 188.276 85.9286 187.551 84.4698 186.083C83.7476 185.361 83.1804 184.5 82.8033 183.551C82.4262 182.603 82.247 181.587 82.2769 180.567C82.2476 179.546 82.4269 178.53 82.8038 177.581C83.1807 176.632 83.7473 175.769 84.469 175.047C85.1907 174.324 86.0522 173.757 87.0008 173.378C87.9494 173 88.9652 172.82 89.9861 172.848C92.1307 172.848 93.8986 173.592 95.2801 175.07C95.9753 175.803 96.5192 176.665 96.8806 177.608C97.242 178.552 97.4138 179.557 97.3861 180.567C97.3861 181.05 97.3378 181.571 97.2315 182.112H86.2281H86.2184ZM86.1604 179.195H93.6088C93.4619 178.31 92.9813 177.514 92.266 176.973C91.6067 176.485 90.8059 176.227 89.9861 176.239C89.0986 176.178 88.2195 176.444 87.5147 176.987C86.81 177.53 86.3283 178.312 86.1604 179.185V179.195ZM102.902 175.775C103.212 174.891 103.824 174.144 104.632 173.669C105.458 173.198 106.395 172.955 107.346 172.964V177.176C106.265 177.024 105.166 177.271 104.255 177.871C103.356 178.48 102.902 179.485 102.902 180.885V187.87H99.1347V173.254H102.902V175.765V175.775ZM126.184 167.419H129.952V187.87H126.184V186.141C125.624 186.849 124.901 187.413 124.077 187.784C123.254 188.156 122.353 188.324 121.451 188.276C120.498 188.286 119.553 188.093 118.68 187.71C117.808 187.327 117.026 186.762 116.389 186.054C115.009 184.565 114.264 182.596 114.312 180.567C114.312 178.403 115.007 176.577 116.389 175.099C117.021 174.384 117.799 173.814 118.671 173.425C119.542 173.037 120.487 172.84 121.441 172.848C123.489 172.848 125.073 173.563 126.175 174.983V167.419H126.184ZM119.229 183.552C120.002 184.305 120.977 184.682 122.146 184.682C123.315 184.682 124.272 184.296 125.044 183.542C125.422 183.147 125.717 182.68 125.911 182.169C126.105 181.658 126.195 181.113 126.175 180.567C126.175 179.359 125.798 178.374 125.035 177.611C124.66 177.228 124.21 176.927 123.712 176.727C123.215 176.528 122.682 176.434 122.146 176.451C121.607 176.435 121.07 176.53 120.568 176.729C120.066 176.929 119.61 177.229 119.229 177.611C118.847 178 118.55 178.463 118.354 178.971C118.158 179.479 118.067 180.022 118.089 180.567C118.068 181.114 118.159 181.66 118.355 182.171C118.55 182.682 118.848 183.149 119.229 183.542V183.552ZM134.396 171.505C134.091 171.509 133.789 171.452 133.506 171.337C133.224 171.223 132.967 171.053 132.751 170.838C132.535 170.623 132.365 170.367 132.249 170.085C132.133 169.803 132.075 169.501 132.077 169.196C132.077 168.578 132.3 168.037 132.754 167.554C132.965 167.332 133.22 167.155 133.503 167.036C133.785 166.916 134.089 166.856 134.396 166.858C135.034 166.858 135.575 167.09 136.029 167.563C136.253 167.773 136.432 168.027 136.554 168.308C136.676 168.59 136.74 168.894 136.74 169.201C136.74 169.508 136.676 169.812 136.554 170.094C136.432 170.375 136.253 170.629 136.029 170.838C135.816 171.058 135.561 171.231 135.278 171.348C134.995 171.464 134.692 171.521 134.386 171.515L134.396 171.505ZM132.522 187.87V173.254H136.289V187.87H132.522ZM142.221 177.408C142.221 177.794 142.482 178.123 142.984 178.374C143.506 178.606 144.144 178.818 144.887 179.011C145.622 179.195 146.366 179.427 147.109 179.717C147.844 179.987 148.462 180.46 148.974 181.117C149.517 181.828 149.797 182.706 149.766 183.6C149.795 184.276 149.654 184.947 149.357 185.555C149.06 186.162 148.616 186.686 148.066 187.078C146.838 187.911 145.376 188.331 143.892 188.276C140.898 188.276 138.85 187.117 137.758 184.798L141.023 182.963C141.458 184.218 142.414 184.856 143.892 184.856C145.235 184.856 145.911 184.441 145.911 183.6C145.911 183.214 145.641 182.905 145.119 182.663C144.517 182.379 143.89 182.153 143.245 181.987C142.511 181.794 141.767 181.562 141.023 181.262C140.287 180.971 139.636 180.499 139.13 179.89C138.607 179.204 138.337 178.357 138.366 177.495C138.366 176.045 138.888 174.925 139.941 174.113C141.085 173.252 142.49 172.808 143.921 172.857C145.11 172.857 146.192 173.118 147.158 173.669C148.133 174.192 148.937 174.983 149.476 175.949L146.259 177.697C146.071 177.239 145.745 176.849 145.326 176.583C144.908 176.317 144.417 176.186 143.921 176.21C143.438 176.21 143.023 176.316 142.694 176.529C142.385 176.751 142.221 177.041 142.221 177.408ZM158.065 188.276C157.045 188.302 156.031 188.121 155.083 187.743C154.136 187.365 153.275 186.798 152.554 186.077C151.833 185.356 151.266 184.495 150.888 183.548C150.51 182.601 150.329 181.586 150.355 180.567C150.327 179.546 150.508 178.531 150.885 177.582C151.263 176.634 151.829 175.772 152.551 175.05C153.272 174.328 154.133 173.76 155.081 173.381C156.029 173.003 157.044 172.821 158.065 172.848C159.427 172.836 160.768 173.19 161.948 173.872C163.081 174.512 164.007 175.464 164.614 176.615L161.368 178.519C161.074 177.915 160.602 177.416 160.016 177.089C159.419 176.728 158.733 176.543 158.036 176.557C157.513 176.552 156.994 176.652 156.512 176.853C156.029 177.053 155.591 177.349 155.226 177.722C154.86 178.096 154.574 178.54 154.384 179.027C154.195 179.514 154.106 180.035 154.123 180.557C154.099 181.08 154.183 181.602 154.37 182.091C154.557 182.58 154.844 183.025 155.211 183.398C155.579 183.77 156.019 184.063 156.505 184.258C156.991 184.452 157.512 184.544 158.036 184.528C158.74 184.549 159.437 184.382 160.055 184.044C160.639 183.713 161.108 183.211 161.397 182.605L164.672 184.479C164.016 185.649 163.055 186.62 161.892 187.288C160.728 187.956 159.406 188.298 158.065 188.276ZM178.004 186.054C177.286 186.777 176.429 187.347 175.484 187.729C174.539 188.111 173.526 188.297 172.507 188.276C171.49 188.296 170.479 188.109 169.536 187.727C168.593 187.345 167.737 186.776 167.02 186.054C166.298 185.337 165.729 184.481 165.347 183.538C164.965 182.595 164.778 181.584 164.798 180.567C164.776 179.552 164.961 178.543 165.343 177.603C165.726 176.663 166.296 175.81 167.02 175.099C167.733 174.367 168.589 173.79 169.535 173.403C170.48 173.016 171.495 172.827 172.517 172.848C174.671 172.848 176.507 173.601 178.004 175.099C178.736 175.806 179.314 176.656 179.701 177.597C180.088 178.538 180.277 179.549 180.255 180.567C180.255 182.731 179.501 184.557 178.004 186.054ZM169.677 183.455C170.047 183.829 170.49 184.123 170.979 184.319C171.467 184.515 171.991 184.609 172.517 184.595C173.045 184.602 173.569 184.502 174.058 184.301C174.546 184.1 174.989 183.803 175.36 183.427C175.731 183.05 176.022 182.603 176.216 182.112C176.409 181.62 176.502 181.095 176.487 180.567C176.504 180.037 176.414 179.509 176.22 179.015C176.027 178.521 175.736 178.072 175.363 177.694C174.991 177.316 174.546 177.018 174.055 176.818C173.564 176.618 173.037 176.519 172.507 176.529C171.978 176.515 171.451 176.61 170.96 176.809C170.469 177.009 170.024 177.307 169.654 177.686C169.284 178.066 168.996 178.517 168.809 179.013C168.622 179.508 168.539 180.037 168.566 180.567C168.566 181.726 168.933 182.692 169.677 183.465V183.455ZM191.674 173.254H195.442V187.87H191.674V186.228C190.756 187.6 189.307 188.276 187.327 188.276C186.588 188.299 185.853 188.168 185.168 187.892C184.483 187.616 183.863 187.201 183.346 186.672C182.313 185.6 181.801 184.122 181.801 182.228V173.263H185.568V181.765C185.568 182.731 185.829 183.484 186.351 184.016C186.634 184.274 186.967 184.474 187.328 184.604C187.69 184.733 188.073 184.789 188.457 184.769C189.433 184.769 190.215 184.47 190.795 183.861C191.374 183.262 191.674 182.354 191.674 181.156V173.254ZM206.146 172.848C207.74 172.848 209.053 173.389 210.087 174.461C211.14 175.524 211.662 177.012 211.662 178.905V187.87H207.894V179.369C207.894 178.393 207.633 177.649 207.102 177.147C206.824 176.879 206.496 176.671 206.135 176.535C205.775 176.399 205.39 176.338 205.006 176.355C204.03 176.355 203.247 176.654 202.668 177.263C202.088 177.862 201.789 178.77 201.789 179.977V187.87H198.021V173.254H201.789V174.896C202.706 173.534 204.155 172.848 206.136 172.848H206.146ZM222.366 176.886H219.062V182.963C219.062 183.465 219.187 183.832 219.448 184.073C219.69 184.305 220.066 184.441 220.55 184.479C221.033 184.499 221.641 184.489 222.366 184.45V187.87C219.777 188.16 217.941 187.918 216.869 187.136C215.816 186.363 215.294 184.962 215.294 182.963V176.876H212.753V173.254H215.294V170.307L219.062 169.167V173.254H222.366V176.886ZM227.312 177.408C227.312 177.794 227.563 178.123 228.065 178.374C228.597 178.606 229.225 178.818 229.969 179.011C230.703 179.195 231.447 179.427 232.191 179.717C232.978 180.014 233.655 180.545 234.13 181.24C234.606 181.935 234.856 182.759 234.847 183.6C234.877 184.275 234.738 184.946 234.443 185.553C234.148 186.161 233.706 186.685 233.157 187.078C231.926 187.913 230.46 188.333 228.974 188.276C225.979 188.276 223.931 187.117 222.839 184.798L226.104 182.963C226.539 184.218 227.496 184.856 228.974 184.856C230.326 184.856 230.993 184.441 230.993 183.6C230.993 183.214 230.722 182.905 230.2 182.663C229.599 182.378 228.971 182.151 228.326 181.987C227.592 181.794 226.848 181.562 226.104 181.262C225.368 180.971 224.717 180.499 224.211 179.89C223.688 179.204 223.419 178.357 223.448 177.495C223.448 176.045 223.979 174.925 225.032 174.113C226.173 173.254 227.575 172.811 229.003 172.857C230.137 172.839 231.256 173.119 232.249 173.669C233.215 174.191 233.987 174.954 234.557 175.949L231.34 177.697C231.152 177.239 230.826 176.849 230.407 176.583C229.989 176.317 229.498 176.186 229.003 176.21C228.52 176.21 228.104 176.316 227.776 176.529C227.467 176.751 227.312 177.041 227.312 177.408Z" fill="#141414"/>
</g>
</g>
</g>
<g clip-path="url(#clip3_1_375)">
<mask id="mask0_1_375" style="mask-type:luminance" maskUnits="userSpaceOnUse" x="30" y="30" width="117" height="117">
<path d="M146.01 30.002H30.002V146.01H146.01V30.002Z" fill="white"/>
</mask>
<g mask="url(#mask0_1_375)">
<path d="M78.695 125.014C80.0644 124.752 81.4836 125.035 82.6396 125.803L87.9685 129.331C89.7331 130.522 92.0612 130.363 93.6433 128.944L98.6258 124.544C99.5552 123.719 100.77 123.297 102.006 123.382L108.642 123.817C110.752 123.928 112.691 122.653 113.365 120.621L115.479 114.343C115.873 113.174 116.719 112.187 117.833 111.645L123.777 108.703C125.676 107.769 126.7 105.668 126.283 103.582L125.019 97.3241C124.743 95.949 125.023 94.5337 125.795 93.3804L129.333 88.0216C130.505 86.2917 130.344 83.9359 128.949 82.3811L124.553 77.3937C123.73 76.4336 123.314 75.2353 123.395 74.0031L123.815 67.3785C123.945 65.255 122.645 63.3132 120.637 62.6448L114.348 60.5376C113.168 60.1101 112.199 59.2879 111.65 58.1833L108.701 52.2097C107.765 50.328 105.663 49.286 103.591 49.7246L97.0724 51.0137C95.8587 51.2657 94.6013 51.056 93.5727 50.364L88.0392 46.6812C86.2745 45.4903 83.9465 45.649 82.364 47.0682L77.3815 51.4679C76.4521 52.2933 75.2345 52.6718 74.0008 52.63L67.3606 52.1947C65.2555 52.0841 63.3163 53.3584 62.6427 55.3911L60.533 61.6683C60.1346 62.8375 59.2881 63.8248 58.179 64.367L52.2341 67.3083C50.3353 68.2431 49.3115 70.3432 49.7285 72.4294L51.0433 78.9358C51.2865 80.1459 51.0372 81.3896 50.3567 82.4521L46.6785 87.9899C45.5065 89.7198 45.6671 92.0757 47.0631 93.6305L51.4589 98.6179C52.2814 99.5779 52.6973 100.776 52.6163 102.008L52.1968 108.633C52.0668 110.757 53.3661 112.698 55.3742 113.367L61.6633 115.474C62.8403 115.86 63.8127 116.724 64.3618 117.828L67.3109 123.802C68.2468 125.684 70.3482 126.726 72.4205 126.287L78.695 125.014Z" fill="#ED4D6E"/>
<path d="M78.695 125.014C80.0644 124.752 81.4836 125.035 82.6396 125.803L87.9685 129.331C89.7331 130.522 92.0612 130.363 93.6433 128.944L98.6258 124.544C99.5552 123.719 100.77 123.297 102.006 123.382L108.642 123.817C110.752 123.928 112.691 122.653 113.365 120.621L115.479 114.343C115.873 113.174 116.719 112.187 117.833 111.645L123.777 108.703C125.676 107.769 126.7 105.668 126.283 103.582L125.019 97.3241C124.743 95.949 125.023 94.5337 125.795 93.3804L129.333 88.0216C130.505 86.2917 130.344 83.9359 128.949 82.3811L124.553 77.3937C123.73 76.4336 123.314 75.2353 123.395 74.0031L123.815 67.3785C123.945 65.255 122.645 63.3132 120.637 62.6448L114.348 60.5376C113.168 60.1101 112.199 59.2879 111.65 58.1833L108.701 52.2097C107.765 50.328 105.663 49.286 103.591 49.7246L97.0724 51.0137C95.8587 51.2657 94.6013 51.056 93.5727 50.364L88.0392 46.6812C86.2745 45.4903 83.9465 45.649 82.364 47.0682L77.3815 51.4679C76.4521 52.2933 75.2345 52.6718 74.0008 52.63L67.3606 52.1947C65.2555 52.0841 63.3163 53.3584 62.6427 55.3911L60.533 61.6683C60.1346 62.8375 59.2881 63.8248 58.179 64.367L52.2341 67.3083C50.3353 68.2431 49.3115 70.3432 49.7285 72.4294L51.0433 78.9358C51.2865 80.1459 51.0372 81.3896 50.3567 82.4521L46.6785 87.9899C45.5065 89.7198 45.6671 92.0757 47.0631 93.6305L51.4589 98.6179C52.2814 99.5779 52.6973 100.776 52.6163 102.008L52.1968 108.633C52.0668 110.757 53.3661 112.698 55.3742 113.367L61.6633 115.474C62.8403 115.86 63.8127 116.724 64.3618 117.828L67.3109 123.802C68.2468 125.684 70.3482 126.726 72.4205 126.287L78.695 125.014Z" stroke="#060808" stroke-width="8.83221" stroke-linecap="round" stroke-linejoin="round"/>
<path d="M75.9281 74.7906L75.9703 74.7925M100.083 101.221L100.126 101.223M105.626 71.902L70.3856 104.109M78.0358 74.8854C77.9827 76.0648 76.9968 76.9505 75.8334 76.8982C74.6699 76.8459 73.7672 75.8753 73.8202 74.6958C73.8733 73.5163 74.8595 72.6303 76.0229 72.6827C77.1864 72.735 78.0888 73.7059 78.0358 74.8854ZM102.191 101.315C102.138 102.495 101.152 103.381 99.9886 103.329C98.8251 103.276 97.9227 102.305 97.9758 101.126C98.0288 99.9464 99.0147 99.0607 100.178 99.113C101.342 99.1653 102.244 100.136 102.191 101.315Z" stroke="#060808" stroke-width="8.83226" stroke-linecap="round" stroke-linejoin="round"/>
</g>
</g>
<defs>
<clipPath id="clip0_1_375">
<rect width="284.98" height="280.14" fill="white" transform="translate(10.0007)"/>
</clipPath>
<clipPath id="clip1_1_375">
<rect width="284.98" height="280.14" fill="white" transform="translate(10.0007)"/>
</clipPath>
<clipPath id="clip2_1_375">
<rect width="284.97" height="280.14" fill="white" transform="translate(10.0057)"/>
</clipPath>
<clipPath id="clip3_1_375">
<rect width="116" height="116" fill="white" transform="translate(30.002 30.002)"/>
</clipPath>
</defs>
</svg>
