<svg width="790" height="293" viewBox="0 0 790 293" fill="none" xmlns="http://www.w3.org/2000/svg">
<path d="M0 35.9047C0 26.3822 3.78281 17.2497 10.5162 10.5162C17.2497 3.78281 26.3822 0 35.9047 0H754.095C763.618 0 772.75 3.78281 779.484 10.5162C786.217 17.2497 790 26.3822 790 35.9047V257.023C790 261.738 789.071 266.407 787.267 270.764C785.463 275.12 782.818 279.078 779.484 282.412C776.15 285.746 772.192 288.391 767.835 290.195C763.479 291.999 758.81 292.928 754.095 292.928H35.9047C31.1896 292.928 26.5207 291.999 22.1646 290.195C17.8084 288.391 13.8503 285.746 10.5162 282.412C7.18218 279.078 4.53746 275.12 2.73308 270.764C0.928702 266.407 0 261.738 0 257.023V35.9047Z" fill="#F8F7F2"/>
</svg>
