<svg width="40" height="60" viewBox="0 0 40 60" fill="none" xmlns="http://www.w3.org/2000/svg">
<g clip-path="url(#clip0_1_573)">
<path d="M20 12C24.7739 12 29.3523 13.8964 32.7279 17.2721C36.1036 20.6477 38 25.2261 38 30C38 34.7739 36.1036 39.3523 32.7279 42.7279C29.3523 46.1036 24.7739 48 20 48C15.2261 48 10.6477 46.1036 7.27208 42.7279C3.89642 39.3523 2 34.7739 2 30C2 25.2261 3.89642 20.6477 7.27208 17.2721C10.6477 13.8964 15.2261 12 20 12ZM12.125 28.875C11.8266 28.875 11.5405 28.9935 11.3295 29.2045C11.1185 29.4155 11 29.7016 11 30C11 30.2984 11.1185 30.5845 11.3295 30.7955C11.5405 31.0065 11.8266 31.125 12.125 31.125H25.1593L20.3285 35.9535C20.2239 36.0581 20.1409 36.1823 20.0843 36.3189C20.0277 36.4556 19.9986 36.6021 19.9986 36.75C19.9986 36.8979 20.0277 37.0444 20.0843 37.1811C20.1409 37.3177 20.2239 37.4419 20.3285 37.5465C20.4331 37.6511 20.5573 37.7341 20.6939 37.7907C20.8306 37.8473 20.9771 37.8764 21.125 37.8764C21.2729 37.8764 21.4194 37.8473 21.5561 37.7907C21.6927 37.7341 21.8169 37.6511 21.9215 37.5465L28.6715 30.7965C28.7763 30.692 28.8594 30.5679 28.9161 30.4312C28.9728 30.2945 29.002 30.148 29.002 30C29.002 29.852 28.9728 29.7055 28.9161 29.5688C28.8594 29.4321 28.7763 29.308 28.6715 29.2035L21.9215 22.4535C21.8169 22.3489 21.6927 22.2659 21.5561 22.2093C21.4194 22.1527 21.2729 22.1236 21.125 22.1236C20.9771 22.1236 20.8306 22.1527 20.6939 22.2093C20.5573 22.2659 20.4331 22.3489 20.3285 22.4535C20.2239 22.5581 20.1409 22.6823 20.0843 22.8189C20.0277 22.9556 19.9986 23.1021 19.9986 23.25C19.9986 23.3979 20.0277 23.5444 20.0843 23.6811C20.1409 23.8177 20.2239 23.9419 20.3285 24.0465L25.1593 28.875H12.125Z" fill="black" fill-opacity="0.88"/>
</g>
<defs>
<clipPath id="clip0_1_573">
<rect width="40" height="36" fill="white" transform="translate(0 12)"/>
</clipPath>
</defs>
</svg>
