<svg width="380" height="298" viewBox="0 0 380 298" fill="none" xmlns="http://www.w3.org/2000/svg">
<g clip-path="url(#clip0_1_639)">
<g clip-path="url(#clip1_1_639)">
<g clip-path="url(#clip2_1_639)">
<path d="M0.670029 42.4757C0.670029 33.0575 4.41139 24.0251 11.0711 17.3654C17.7307 10.7057 26.7632 6.96436 36.1814 6.96436H343.675C353.093 6.96436 362.126 10.7057 368.785 17.3654C375.445 24.0251 379.186 33.0575 379.186 42.4757V255.572C379.186 264.991 375.445 274.023 368.785 280.683C362.126 287.342 353.093 291.084 343.675 291.084H36.1909C26.7727 291.084 17.7403 287.342 11.0806 280.683C4.42096 274.023 0.6796 264.991 0.6796 255.572V42.4757H0.670029Z" fill="#7FC2EB"/>
<path d="M33.463 168.977H37.5788V189.91H33.463V168.977ZM48.7013 174.538C50.3285 174.538 51.6781 175.083 52.7405 176.184C53.8126 177.285 54.3486 178.797 54.3486 180.731V189.92H50.4912V181.209C50.4912 180.214 50.2232 179.458 49.6871 178.931C49.4016 178.658 49.0634 178.446 48.6931 178.308C48.3228 178.169 47.9283 178.108 47.5335 178.127C47.0919 178.106 46.6507 178.177 46.2385 178.337C45.8263 178.497 45.4522 178.742 45.1405 179.056C44.5375 179.678 44.2408 180.597 44.2408 181.831V189.91H40.3929V174.959H44.2504V176.634C45.1884 175.237 46.672 174.538 48.7108 174.538H48.7013ZM60.3023 179.209C60.3023 179.601 60.5607 179.936 61.068 180.195C61.6136 180.434 62.2645 180.654 63.0206 180.855C63.7864 181.027 64.533 181.267 65.2892 181.573C66.1012 181.868 66.8006 182.41 67.2898 183.122C67.7789 183.834 68.0332 184.681 68.0171 185.545C68.0171 187.077 67.4428 188.264 66.2846 189.106C65.0254 189.96 63.5263 190.389 62.006 190.331C58.9335 190.331 56.8373 189.144 55.7269 186.771L59.0771 184.885C59.5078 186.187 60.4841 186.828 62.006 186.828C63.3748 186.828 64.064 186.407 64.064 185.545C64.064 185.143 63.796 184.827 63.2599 184.588C62.6468 184.294 62.0054 184.063 61.3456 183.899C60.5798 183.708 59.8332 183.449 59.0771 183.152C58.3113 182.856 57.67 182.387 57.1244 181.745C56.5955 181.041 56.3251 180.175 56.3587 179.295C56.3587 177.821 56.8851 176.663 57.9667 175.82C59.1367 174.941 60.5721 174.489 62.0348 174.538C63.2504 174.538 64.3607 174.825 65.3562 175.38C66.3467 175.915 67.1637 176.722 67.7108 177.706L64.4277 179.506C64.2362 179.034 63.9032 178.634 63.4747 178.359C63.0461 178.085 62.543 177.95 62.0348 177.974C61.537 177.974 61.1159 178.089 60.7809 178.309C60.4554 178.529 60.3023 178.826 60.3023 179.209ZM77.7229 178.663H74.3345V184.885C74.3345 185.402 74.4685 185.785 74.7174 186.024C74.9854 186.263 75.3587 186.407 75.866 186.445C76.3542 186.464 76.9763 186.445 77.7133 186.416V189.91C75.062 190.207 73.1859 189.958 72.0947 189.163C71.0131 188.369 70.4675 186.943 70.4675 184.885V178.673H67.8831V174.969H70.4675V171.944L74.3345 170.776V174.969H77.7133V178.673L77.7229 178.663ZM90.4343 174.959H94.2917V189.91H90.4534V188.149C89.8703 188.873 89.1238 189.448 88.2752 189.827C87.4266 190.207 86.5001 190.379 85.5718 190.331C83.5809 190.331 81.8675 189.565 80.4317 188.053C79.0198 186.528 78.2576 184.512 78.3068 182.434C78.3068 180.223 79.0151 178.357 80.4317 176.845C81.0757 176.115 81.8686 175.533 82.757 175.137C83.6455 174.74 84.6086 174.539 85.5814 174.547C87.668 174.547 89.2952 175.265 90.463 176.72V174.959H90.4343ZM83.3128 185.488C83.7016 185.875 84.1654 186.178 84.6757 186.379C85.186 186.579 85.732 186.674 86.2801 186.656C86.8357 186.675 87.3892 186.579 87.9057 186.373C88.4223 186.167 88.8905 185.857 89.2809 185.461C89.6713 185.065 89.9754 184.593 90.1739 184.073C90.3724 183.554 90.4611 182.999 90.4343 182.444C90.4343 181.2 90.0322 180.195 89.2378 179.419C88.8535 179.025 88.3912 178.714 87.8803 178.508C87.3694 178.302 86.8211 178.205 86.2705 178.223C85.0836 178.223 84.0977 178.615 83.3128 179.419C82.9251 179.817 82.6224 180.289 82.4233 180.808C82.2242 181.326 82.1327 181.88 82.1547 182.434C82.1547 183.679 82.5375 184.684 83.3128 185.488ZM105.213 174.538C106.84 174.538 108.19 175.083 109.243 176.184C110.324 177.285 110.87 178.797 110.87 180.731V189.92H107.003V181.209C107.003 180.214 106.735 179.458 106.199 178.931C105.913 178.658 105.575 178.446 105.205 178.308C104.835 178.169 104.44 178.108 104.045 178.127C103.604 178.106 103.163 178.177 102.75 178.337C102.338 178.497 101.964 178.742 101.652 179.056C101.049 179.678 100.753 180.597 100.753 181.831V189.91H96.8952V174.959H100.753V176.634C101.691 175.237 103.174 174.538 105.213 174.538ZM121.811 178.663H118.432V184.885C118.432 185.402 118.566 185.785 118.815 186.024C119.083 186.263 119.456 186.407 119.963 186.445C120.461 186.464 121.074 186.445 121.811 186.416V189.91C119.159 190.207 117.283 189.958 116.192 189.163C115.11 188.369 114.574 186.943 114.574 184.885V178.673H111.971V174.969H114.574V171.944L118.432 170.776V174.969H121.811V178.673V178.663ZM139.155 174.547C141.165 174.547 142.888 175.313 144.295 176.845C145.003 177.589 145.558 178.466 145.928 179.425C146.298 180.384 146.474 181.407 146.448 182.434C146.448 184.646 145.73 186.522 144.295 188.063C143.65 188.786 142.858 189.363 141.971 189.755C141.084 190.146 140.124 190.343 139.155 190.331C137.058 190.331 135.441 189.604 134.311 188.149V195.902H130.444V174.959H134.302V176.72C134.879 175.997 135.62 175.421 136.464 175.042C137.308 174.662 138.231 174.489 139.155 174.538V174.547ZM135.47 185.488C135.858 185.875 136.322 186.178 136.832 186.379C137.343 186.579 137.889 186.674 138.437 186.656C138.983 186.672 139.527 186.577 140.036 186.377C140.545 186.176 141.007 185.873 141.394 185.488C141.792 185.087 142.103 184.61 142.308 184.085C142.514 183.56 142.61 182.998 142.591 182.434C142.591 181.19 142.189 180.195 141.394 179.41C141.01 179.015 140.548 178.705 140.037 178.499C139.526 178.293 138.978 178.196 138.427 178.213C137.24 178.213 136.254 178.615 135.47 179.41C135.079 179.808 134.774 180.281 134.573 180.801C134.372 181.322 134.28 181.877 134.302 182.434C134.302 183.679 134.694 184.684 135.47 185.488ZM159.638 174.959H163.496V189.91H159.638V188.149C159.056 188.873 158.309 189.449 157.461 189.828C156.612 190.208 155.685 190.38 154.757 190.331C152.766 190.331 151.052 189.565 149.617 188.053C148.205 186.528 147.442 184.512 147.492 182.434C147.492 180.223 148.2 178.357 149.617 176.845C150.261 176.115 151.054 175.533 151.942 175.137C152.83 174.74 153.793 174.539 154.766 174.547C156.853 174.547 158.48 175.265 159.638 176.72V174.959ZM152.517 185.488C152.906 185.875 153.369 186.178 153.88 186.379C154.39 186.579 154.936 186.674 155.484 186.656C156.04 186.675 156.593 186.579 157.11 186.373C157.626 186.167 158.095 185.857 158.485 185.461C158.875 185.065 159.179 184.593 159.378 184.073C159.576 183.554 159.665 182.999 159.638 182.444C159.638 181.2 159.236 180.195 158.442 179.419C158.058 179.025 157.595 178.714 157.084 178.508C156.573 178.302 156.025 178.205 155.475 178.223C154.288 178.223 153.292 178.615 152.517 179.419C152.127 179.816 151.823 180.288 151.622 180.807C151.421 181.325 151.328 181.879 151.349 182.434C151.349 183.679 151.742 184.684 152.517 185.488ZM175.843 174.959H179.978L174.522 189.91C173.757 192.064 172.713 193.624 171.421 194.581C170.039 195.587 168.337 196.053 166.635 195.892V192.303C167.669 192.322 168.492 192.112 169.086 191.643C169.782 191.071 170.292 190.304 170.55 189.441L164.424 174.959H168.636L172.531 185.009L175.843 174.959ZM193.073 188.063C192.337 188.802 191.459 189.384 190.491 189.774C189.524 190.164 188.487 190.354 187.444 190.331C185.243 190.331 183.357 189.565 181.826 188.053C181.086 187.319 180.502 186.443 180.111 185.477C179.719 184.512 179.528 183.476 179.548 182.434C179.548 180.223 180.313 178.357 181.826 176.845C182.556 176.099 183.431 175.51 184.398 175.115C185.364 174.72 186.401 174.527 187.444 174.547C188.49 174.526 189.528 174.718 190.496 175.114C191.464 175.509 192.341 176.098 193.073 176.845C193.82 177.568 194.409 178.438 194.805 179.4C195.2 180.362 195.392 181.395 195.37 182.434C195.391 183.48 195.199 184.518 194.804 185.486C194.409 186.454 193.819 187.331 193.073 188.063ZM184.554 185.392C184.931 185.773 185.382 186.073 185.879 186.274C186.376 186.475 186.908 186.572 187.444 186.56C187.985 186.567 188.522 186.464 189.022 186.258C189.523 186.053 189.976 185.748 190.356 185.363C190.736 184.978 191.034 184.52 191.233 184.017C191.431 183.513 191.527 182.975 191.512 182.434C191.527 181.894 191.431 181.356 191.233 180.852C191.034 180.349 190.736 179.891 190.356 179.506C189.976 179.121 189.523 178.816 189.022 178.611C188.522 178.405 187.985 178.302 187.444 178.309C186.903 178.295 186.364 178.393 185.862 178.597C185.36 178.801 184.906 179.105 184.527 179.492C184.148 179.879 183.852 180.34 183.659 180.847C183.466 181.353 183.38 181.893 183.405 182.434C183.405 183.631 183.788 184.617 184.554 185.402V185.392ZM207.057 174.959H210.914V189.91H207.057V188.245C206.119 189.642 204.635 190.341 202.606 190.341C201.851 190.363 201.099 190.228 200.399 189.945C199.699 189.661 199.065 189.236 198.538 188.694C197.485 187.594 196.949 186.081 196.949 184.148V174.959H200.807V183.669C200.807 184.665 201.075 185.43 201.62 185.966C201.909 186.234 202.248 186.441 202.618 186.575C202.988 186.71 203.381 186.77 203.774 186.751C204.769 186.751 205.564 186.445 206.167 185.823C206.76 185.21 207.057 184.282 207.057 183.047V174.969V174.959ZM222.104 178.663H218.725V184.885C218.725 185.402 218.859 185.785 219.108 186.024C219.376 186.263 219.759 186.407 220.256 186.445C220.754 186.464 221.367 186.445 222.104 186.416V189.91C219.452 190.207 217.576 189.958 216.485 189.163C215.404 188.369 214.867 186.943 214.867 184.885V178.673H212.264V174.969H214.867V171.944L218.725 170.776V174.969H222.104V178.673V178.663ZM227.177 179.209C227.177 179.601 227.426 179.936 227.943 180.195C228.488 180.434 229.129 180.654 229.886 180.855C230.651 181.027 231.408 181.267 232.164 181.573C232.974 181.87 233.671 182.412 234.159 183.124C234.646 183.836 234.899 184.683 234.882 185.545C234.882 187.077 234.308 188.264 233.15 189.106C231.89 189.96 230.391 190.389 228.871 190.331C225.808 190.331 223.702 189.144 222.592 186.771L225.942 184.885C226.382 186.187 227.359 186.828 228.871 186.828C230.249 186.828 230.939 186.407 230.939 185.545C230.939 185.143 230.671 184.827 230.125 184.588C229.512 184.294 228.87 184.063 228.211 183.899C227.454 183.708 226.698 183.449 225.942 183.152C225.176 182.856 224.535 182.387 223.999 181.745C223.466 181.042 223.192 180.177 223.224 179.295C223.224 177.821 223.76 176.663 224.832 175.82C226.001 174.941 227.437 174.488 228.9 174.538C230.115 174.538 231.226 174.825 232.221 175.38C233.215 175.914 234.036 176.721 234.585 177.706L231.293 179.506C231.101 179.034 230.768 178.634 230.34 178.359C229.911 178.085 229.408 177.95 228.9 177.974C228.402 177.974 227.981 178.089 227.655 178.309C227.33 178.529 227.177 178.826 227.177 179.209Z" fill="#232720"/>
<path d="M38.67 209.628H39.9718V219.439H38.9189L33.8746 212.107V219.439H32.5632V209.628H33.6161L38.6605 216.94V209.628H38.67ZM47.8589 218.558C47.5166 218.904 47.1076 219.176 46.6567 219.359C46.2059 219.541 45.7226 219.63 45.2363 219.62C44.7499 219.63 44.2667 219.541 43.8158 219.359C43.365 219.176 42.956 218.904 42.6136 218.558C42.2667 218.217 41.9934 217.808 41.8107 217.357C41.6279 216.906 41.5396 216.422 41.5511 215.935C41.5511 214.892 41.9053 214.021 42.6136 213.313C42.956 212.967 43.365 212.695 43.8158 212.512C44.2667 212.329 44.7499 212.24 45.2363 212.25C45.7216 212.242 46.2036 212.331 46.654 212.511C47.1045 212.692 47.5141 212.961 47.8589 213.303C48.2115 213.643 48.4896 214.053 48.6758 214.506C48.8619 214.959 48.9521 215.446 48.9406 215.935C48.9406 216.969 48.5768 217.85 47.8589 218.558ZM45.2363 218.434C45.5649 218.442 45.8918 218.383 46.1964 218.259C46.5011 218.136 46.777 217.951 47.0071 217.716C47.4856 217.237 47.7154 216.644 47.7154 215.935C47.7154 215.227 47.4761 214.634 47.0071 214.155C46.777 213.92 46.5011 213.735 46.1964 213.612C45.8918 213.488 45.5649 213.429 45.2363 213.437C44.5471 213.437 43.9632 213.676 43.4846 214.155C43.006 214.634 42.7668 215.227 42.7668 215.935C42.7668 216.644 43.006 217.237 43.4846 217.716C43.9632 218.194 44.5375 218.434 45.2363 218.434ZM57.7466 212.25C58.7325 212.25 59.5652 212.604 60.2544 213.322C60.5949 213.665 60.8628 214.074 61.042 214.523C61.2213 214.972 61.3082 215.452 61.2977 215.935C61.3074 216.42 61.22 216.902 61.0408 217.352C60.8617 217.802 60.5943 218.212 60.2544 218.558C59.9334 218.9 59.5445 219.171 59.1126 219.354C58.6808 219.537 58.2155 219.628 57.7466 219.62C57.2213 219.645 56.699 219.529 56.2331 219.285C55.7672 219.041 55.3745 218.678 55.0952 218.233V222.243H53.8892V212.432H55.1048V213.638C55.3841 213.193 55.7768 212.829 56.2427 212.585C56.7086 212.342 57.2309 212.226 57.7562 212.25H57.7466ZM57.5935 218.443C57.9221 218.452 58.2489 218.392 58.5536 218.269C58.8583 218.145 59.1342 217.96 59.3642 217.725C59.8428 217.247 60.0725 216.644 60.0725 215.935C60.0725 215.227 59.8428 214.634 59.3642 214.155C59.1354 213.918 58.8599 213.731 58.5551 213.606C58.2503 213.48 57.9229 213.42 57.5935 213.428C57.2625 213.419 56.9334 213.479 56.627 213.605C56.3205 213.73 56.0434 213.917 55.8131 214.155C55.3345 214.634 55.0952 215.227 55.0952 215.935C55.0874 216.266 55.1466 216.595 55.2693 216.902C55.3919 217.209 55.5755 217.488 55.8089 217.723C56.0423 217.957 56.3208 218.142 56.6275 218.265C56.9342 218.389 57.2628 218.45 57.5935 218.443ZM68.5532 212.432H69.7783V219.439H68.5532V218.233C68.2738 218.678 67.8811 219.041 67.4152 219.285C66.9494 219.529 66.427 219.645 65.9018 219.62C64.9254 219.62 64.0831 219.266 63.394 218.558C63.0558 218.212 62.7902 217.801 62.6127 217.351C62.4352 216.901 62.3493 216.419 62.3602 215.935C62.3602 214.902 62.7048 214.04 63.394 213.322C63.7134 212.978 64.1018 212.704 64.5338 212.519C64.9659 212.335 65.4319 212.243 65.9018 212.25C66.427 212.226 66.9494 212.342 67.4152 212.585C67.8811 212.829 68.2738 213.193 68.5532 213.638V212.432ZM66.0645 218.443C66.394 218.447 66.721 218.385 67.0259 218.26C67.3309 218.135 67.6076 217.95 67.8398 217.716C68.0719 217.482 68.2547 217.204 68.3772 216.898C68.4998 216.592 68.5596 216.265 68.5532 215.935C68.5532 215.227 68.3139 214.634 67.8448 214.155C67.6145 213.917 67.3374 213.73 67.031 213.605C66.7245 213.479 66.3954 213.419 66.0645 213.428C65.3562 213.428 64.7723 213.667 64.2937 214.155C63.8151 214.634 63.5758 215.227 63.5758 215.935C63.568 216.265 63.627 216.593 63.749 216.9C63.8711 217.206 64.0538 217.485 64.2862 217.719C64.5186 217.953 64.7959 218.138 65.1015 218.263C65.4071 218.387 65.7346 218.448 66.0645 218.443ZM76.5169 212.432H77.8186L74.9567 219.869C74.721 220.583 74.2859 221.214 73.7028 221.688C73.1668 222.1 72.5542 222.291 71.8458 222.243V221.104C72.7073 221.171 73.339 220.692 73.7411 219.668L73.8655 219.41L70.8025 212.422H72.1138L74.4972 217.926L76.5073 212.432H76.5169ZM86.4045 212.241C87.1894 212.241 87.8307 212.509 88.3189 213.016C88.7975 213.523 89.0463 214.212 89.0463 215.083V219.439H87.8212V215.122C87.8212 214.576 87.6872 214.165 87.4 213.858C87.256 213.708 87.0817 213.59 86.8885 213.513C86.6954 213.435 86.488 213.399 86.2801 213.408C85.7632 213.408 85.3421 213.59 85.0166 213.944C84.7103 214.289 84.5572 214.825 84.5572 215.543V219.439H83.3416V215.122C83.3416 214.576 83.2076 214.165 82.93 213.858C82.7946 213.707 82.6273 213.589 82.4401 213.511C82.253 213.433 82.0508 213.398 81.8484 213.408C81.3411 213.408 80.9103 213.59 80.5657 213.944C80.2307 214.299 80.0584 214.835 80.0584 215.543V219.439H78.8428V212.432H80.0584V213.37C80.2741 213.014 80.5815 212.722 80.9486 212.525C81.3156 212.328 81.7289 212.233 82.1451 212.25C83.0927 212.25 83.7723 212.643 84.203 213.437C84.4264 213.057 84.7498 212.745 85.1379 212.536C85.5261 212.327 85.9641 212.228 86.4045 212.25V212.241ZM91.5924 216.49C91.7169 217.122 91.9945 217.61 92.4539 217.955C92.9385 218.31 93.5285 218.492 94.129 218.472C95.0574 218.472 95.7275 218.127 96.139 217.448L97.1919 218.041C96.864 218.556 96.4044 218.974 95.8609 219.251C95.3174 219.529 94.7095 219.656 94.1003 219.62C93.601 219.639 93.1032 219.557 92.6362 219.379C92.1693 219.202 91.7428 218.932 91.3819 218.587C91.0376 218.238 90.7676 217.824 90.5882 217.368C90.4089 216.912 90.3239 216.425 90.3385 215.935C90.3169 215.446 90.3971 214.958 90.574 214.502C90.7509 214.046 91.0207 213.631 91.3663 213.285C91.7119 212.938 92.1257 212.667 92.5815 212.489C93.0373 212.311 93.5252 212.23 94.0141 212.25C95.0479 212.25 95.8806 212.614 96.5219 213.341C96.9095 213.761 97.1957 214.264 97.3583 214.812C97.5209 215.359 97.5557 215.937 97.46 216.5H91.602L91.5924 216.49ZM94.0141 213.399C93.3632 213.399 92.8176 213.59 92.3869 213.954C91.9562 214.318 91.6977 214.815 91.5924 215.428H96.273C96.1773 214.758 95.9093 214.26 95.4882 213.916C95.0743 213.573 94.5514 213.389 94.0141 213.399ZM102.399 212.25C103.222 212.25 103.883 212.509 104.38 213.035C104.869 213.542 105.117 214.251 105.117 215.141V219.439H103.902V215.208C103.902 214.634 103.749 214.193 103.433 213.887C103.126 213.571 102.705 213.408 102.16 213.408C101.557 213.408 101.059 213.6 100.686 213.983C100.312 214.366 100.13 214.94 100.13 215.725V219.439H98.9053V212.432H100.13V213.437C100.366 213.052 100.701 212.739 101.1 212.53C101.5 212.32 101.949 212.224 102.399 212.25ZM110.631 213.609H108.774V217.409C108.774 217.754 108.831 218.003 108.965 218.146C109.109 218.29 109.319 218.367 109.597 218.376L110.631 218.347V219.439C109.578 219.582 108.793 219.496 108.295 219.19C107.797 218.864 107.549 218.271 107.549 217.409V213.609H106.161V212.432H107.549V210.834L108.774 210.47V212.432H110.631V213.609ZM118.92 219.62C118.432 219.635 117.946 219.55 117.493 219.37C117.039 219.19 116.627 218.919 116.282 218.574C115.937 218.228 115.666 217.816 115.486 217.363C115.306 216.909 115.22 216.423 115.235 215.935C115.235 214.882 115.579 214.021 116.288 213.313C116.63 212.964 117.04 212.69 117.493 212.507C117.946 212.324 118.432 212.237 118.92 212.25C119.609 212.25 120.231 212.413 120.786 212.748C121.332 213.073 121.744 213.514 122.021 214.088L120.997 214.672C120.815 214.289 120.538 214.002 120.164 213.772C119.789 213.545 119.358 213.429 118.92 213.437C118.591 213.429 118.264 213.488 117.96 213.612C117.655 213.735 117.379 213.92 117.149 214.155C116.69 214.634 116.45 215.227 116.45 215.935C116.441 216.263 116.499 216.589 116.619 216.894C116.74 217.199 116.921 217.476 117.152 217.709C117.383 217.941 117.659 218.125 117.963 218.248C118.266 218.371 118.592 218.431 118.92 218.424C119.389 218.424 119.81 218.309 120.183 218.089C120.557 217.869 120.844 217.572 121.045 217.199L122.079 217.802C121.774 218.369 121.317 218.84 120.759 219.161C120.2 219.483 119.564 219.642 118.92 219.62ZM128.185 212.432H129.487L126.625 219.869C126.39 220.583 125.955 221.214 125.371 221.688C124.835 222.1 124.223 222.291 123.514 222.243V221.104C124.376 221.171 125.008 220.692 125.41 219.668L125.534 219.41L122.471 212.422H123.782L126.166 217.926L128.176 212.432H128.185ZM133.526 219.62C133.038 219.636 132.552 219.552 132.098 219.372C131.643 219.193 131.231 218.922 130.885 218.577C130.54 218.231 130.269 217.819 130.089 217.364C129.91 216.91 129.825 216.424 129.841 215.935C129.841 214.882 130.186 214.021 130.894 213.313C131.236 212.964 131.646 212.689 132.099 212.506C132.552 212.323 133.038 212.236 133.526 212.25C134.216 212.25 134.838 212.413 135.393 212.748C135.948 213.073 136.35 213.514 136.628 214.088L135.604 214.672C135.422 214.289 135.154 214.002 134.78 213.772C134.405 213.545 133.974 213.429 133.536 213.437C133.207 213.429 132.881 213.488 132.576 213.612C132.271 213.735 131.995 213.92 131.765 214.155C131.287 214.634 131.057 215.227 131.057 215.935C131.048 216.263 131.105 216.589 131.226 216.894C131.347 217.199 131.528 217.476 131.759 217.709C131.99 217.941 132.265 218.125 132.569 218.248C132.873 218.371 133.199 218.431 133.526 218.424C133.995 218.424 134.417 218.309 134.79 218.089C135.163 217.869 135.45 217.572 135.651 217.199L136.685 217.802C136.38 218.368 135.922 218.839 135.364 219.16C134.806 219.481 134.17 219.641 133.526 219.62ZM137.891 219.439V209.197H139.107V219.439H137.882H137.891ZM141.816 216.49C141.94 217.122 142.227 217.61 142.677 217.955C143.137 218.3 143.692 218.472 144.362 218.472C145.281 218.472 145.96 218.127 146.372 217.448L147.425 218.041C147.097 218.556 146.637 218.974 146.094 219.251C145.55 219.529 144.942 219.656 144.333 219.62C143.834 219.64 143.336 219.558 142.868 219.381C142.401 219.203 141.975 218.933 141.615 218.587C141.27 218.238 141 217.824 140.821 217.368C140.642 216.912 140.557 216.425 140.571 215.935C140.551 215.447 140.632 214.959 140.81 214.504C140.987 214.048 141.257 213.634 141.602 213.288C141.948 212.942 142.361 212.671 142.816 212.492C143.271 212.314 143.758 212.231 144.247 212.25C145.271 212.25 146.113 212.614 146.755 213.341C147.142 213.761 147.428 214.264 147.591 214.812C147.754 215.359 147.788 215.937 147.693 216.5H141.825L141.816 216.49ZM144.247 213.399C143.596 213.399 143.05 213.59 142.62 213.954C142.189 214.318 141.921 214.815 141.825 215.428H146.506C146.41 214.758 146.142 214.26 145.721 213.916C145.307 213.573 144.784 213.389 144.247 213.399ZM150.402 217.993L149.492 221.401H148.439L148.994 217.993H150.402ZM159.112 212.25C159.945 212.25 160.605 212.509 161.093 213.035C161.591 213.542 161.84 214.251 161.84 215.141V219.439H160.624V215.208C160.624 214.634 160.471 214.193 160.155 213.887C159.849 213.571 159.428 213.408 158.882 213.408C158.27 213.408 157.781 213.6 157.408 213.983C157.035 214.366 156.853 214.94 156.853 215.725V219.439H155.628V212.432H156.853V213.437C157.088 213.052 157.423 212.739 157.823 212.53C158.222 212.32 158.671 212.224 159.121 212.25H159.112ZM169.459 218.558C169.117 218.904 168.708 219.176 168.257 219.359C167.806 219.541 167.323 219.63 166.836 219.62C166.35 219.63 165.867 219.541 165.416 219.359C164.965 219.176 164.556 218.904 164.214 218.558C163.867 218.217 163.593 217.808 163.411 217.357C163.228 216.906 163.14 216.422 163.151 215.935C163.151 214.892 163.505 214.021 164.214 213.313C164.556 212.967 164.965 212.695 165.416 212.512C165.867 212.329 166.35 212.24 166.836 212.25C167.322 212.242 167.804 212.331 168.254 212.511C168.704 212.692 169.114 212.961 169.459 213.303C169.811 213.643 170.09 214.053 170.276 214.506C170.462 214.959 170.552 215.446 170.541 215.935C170.541 216.969 170.177 217.85 169.459 218.558ZM166.836 218.434C167.165 218.442 167.492 218.383 167.796 218.259C168.101 218.136 168.377 217.951 168.607 217.716C169.086 217.237 169.315 216.644 169.315 215.935C169.315 215.227 169.086 214.634 168.607 214.155C168.377 213.92 168.101 213.735 167.796 213.612C167.492 213.488 167.165 213.429 166.836 213.437C166.511 213.431 166.188 213.492 165.886 213.615C165.585 213.739 165.312 213.922 165.085 214.155C164.606 214.634 164.367 215.227 164.367 215.935C164.367 216.644 164.606 217.237 165.085 217.716C165.563 218.194 166.138 218.434 166.836 218.434ZM179.088 210.623C177.844 210.518 177.231 211.054 177.231 212.221V212.432H179.088V213.609H177.231V219.439H176.016V213.6H174.896V212.432H176.016V212.221C176.016 211.274 176.274 210.556 176.801 210.077C177.327 209.589 178.093 209.379 179.088 209.446V210.623ZM184.85 212.432H186.066V219.439H184.85V218.424C184.616 218.811 184.282 219.126 183.882 219.337C183.482 219.548 183.033 219.646 182.582 219.62C181.759 219.62 181.098 219.362 180.6 218.855C180.081 218.273 179.813 217.509 179.854 216.73V212.422H181.079V216.663C181.079 217.237 181.232 217.677 181.539 218.003C181.854 218.3 182.276 218.453 182.821 218.453C183.424 218.453 183.912 218.261 184.286 217.898C184.669 217.515 184.85 216.931 184.85 216.146V212.432ZM188.966 214.318C188.966 214.595 189.1 214.815 189.368 214.988C189.636 215.141 189.971 215.275 190.354 215.371C190.737 215.466 191.12 215.581 191.503 215.706C191.886 215.83 192.211 216.041 192.479 216.356C192.757 216.653 192.891 217.046 192.891 217.515C192.891 218.156 192.642 218.663 192.144 219.046C191.666 219.429 191.034 219.62 190.268 219.62C189.588 219.62 189.005 219.467 188.516 219.171C188.038 218.874 187.684 218.472 187.483 217.984L188.536 217.381C188.641 217.716 188.851 217.984 189.158 218.175C189.464 218.367 189.837 218.462 190.268 218.462C190.67 218.462 191.005 218.395 191.263 218.252C191.391 218.177 191.495 218.069 191.564 217.939C191.634 217.809 191.665 217.662 191.656 217.515C191.656 217.247 191.522 217.036 191.254 216.873C190.948 216.691 190.615 216.559 190.268 216.481C189.885 216.385 189.502 216.261 189.119 216.127C188.741 216.002 188.401 215.781 188.134 215.485C187.858 215.168 187.714 214.757 187.731 214.337C187.731 213.724 187.961 213.227 188.43 212.834C188.909 212.451 189.502 212.25 190.211 212.25C190.785 212.25 191.283 212.375 191.723 212.633C192.173 212.891 192.508 213.246 192.738 213.705L191.713 214.279C191.455 213.676 190.957 213.38 190.211 213.38C189.866 213.38 189.569 213.466 189.33 213.638C189.215 213.709 189.12 213.809 189.056 213.929C188.992 214.048 188.961 214.182 188.966 214.318ZM194.949 214.318C194.949 214.595 195.083 214.815 195.351 214.988C195.628 215.141 195.954 215.275 196.337 215.371C196.719 215.466 197.102 215.581 197.485 215.706C197.868 215.83 198.193 216.041 198.461 216.356C198.739 216.653 198.873 217.046 198.873 217.515C198.873 218.156 198.624 218.663 198.126 219.046C197.648 219.429 197.016 219.62 196.25 219.62C195.571 219.62 194.987 219.467 194.499 219.171C194.02 218.874 193.666 218.472 193.465 217.984L194.518 217.381C194.623 217.716 194.834 217.984 195.14 218.175C195.446 218.367 195.82 218.462 196.25 218.462C196.652 218.462 196.987 218.395 197.246 218.252C197.373 218.177 197.477 218.069 197.547 217.939C197.616 217.809 197.648 217.662 197.638 217.515C197.638 217.247 197.504 217.036 197.236 216.873C196.93 216.691 196.598 216.559 196.25 216.481C195.868 216.385 195.485 216.261 195.102 216.127C194.719 216.002 194.393 215.782 194.116 215.485C193.84 215.168 193.696 214.757 193.714 214.337C193.714 213.724 193.944 213.227 194.413 212.834C194.891 212.451 195.485 212.25 196.193 212.25C196.767 212.25 197.265 212.375 197.705 212.633C198.155 212.891 198.49 213.246 198.72 213.705L197.696 214.279C197.447 213.676 196.94 213.38 196.193 213.38C195.848 213.38 195.552 213.466 195.312 213.638C195.197 213.709 195.103 213.809 195.039 213.929C194.975 214.048 194.944 214.182 194.949 214.318ZM201.984 217.993L201.075 221.401H200.022L200.586 217.993H201.984ZM215.48 212.432H216.753L214.58 219.439H213.336L211.69 214.251L210.043 219.439H208.799L206.626 212.432H207.899L209.45 217.754L211.096 212.432H212.274L213.929 217.773L215.471 212.432H215.48ZM218.62 211.149C218.511 211.151 218.404 211.131 218.303 211.089C218.203 211.048 218.112 210.987 218.036 210.91C217.959 210.836 217.898 210.746 217.857 210.648C217.816 210.549 217.795 210.443 217.796 210.336C217.796 210.116 217.873 209.924 218.036 209.762C218.11 209.681 218.2 209.617 218.301 209.575C218.402 209.532 218.51 209.511 218.62 209.513C218.727 209.511 218.834 209.533 218.933 209.576C219.032 209.619 219.121 209.682 219.194 209.762C219.357 209.924 219.433 210.116 219.433 210.336C219.433 210.566 219.357 210.757 219.194 210.91C219.12 210.987 219.03 211.048 218.932 211.089C218.833 211.13 218.727 211.151 218.62 211.149ZM218.007 219.439V212.432H219.223V219.439H218.007ZM224.899 213.6H223.023V217.409C223.023 217.754 223.09 218.003 223.214 218.146C223.358 218.29 223.568 218.367 223.855 218.376L224.889 218.347V219.439C223.827 219.582 223.042 219.496 222.544 219.19C222.056 218.864 221.807 218.271 221.807 217.409V213.609H220.419V212.432H221.807V210.834L223.023 210.47V212.432H224.889V213.609L224.899 213.6ZM229.838 212.25C230.651 212.25 231.312 212.509 231.81 213.035C232.307 213.542 232.556 214.251 232.556 215.141V219.439H231.331V215.208C231.331 214.634 231.178 214.193 230.872 213.887C230.565 213.571 230.134 213.408 229.598 213.408C228.986 213.408 228.498 213.6 228.124 213.983C227.742 214.366 227.56 214.94 227.56 215.725V219.439H226.344V209.628H227.56V213.437C227.796 213.051 228.132 212.736 228.534 212.527C228.935 212.318 229.386 212.222 229.838 212.25ZM240.06 209.628H241.276V219.439H240.06V218.233C239.781 218.678 239.388 219.041 238.923 219.285C238.457 219.529 237.934 219.645 237.409 219.62C236.433 219.62 235.59 219.266 234.901 218.558C234.562 218.212 234.295 217.802 234.116 217.352C233.936 216.901 233.849 216.42 233.858 215.935C233.858 214.902 234.212 214.04 234.901 213.322C235.221 212.978 235.609 212.704 236.041 212.519C236.473 212.335 236.939 212.243 237.409 212.25C237.934 212.226 238.457 212.342 238.923 212.585C239.388 212.829 239.781 213.193 240.06 213.638V209.618V209.628ZM237.572 218.443C237.901 218.447 238.228 218.385 238.533 218.26C238.838 218.135 239.115 217.95 239.347 217.716C239.579 217.482 239.762 217.204 239.884 216.898C240.007 216.592 240.067 216.265 240.06 215.935C240.06 215.227 239.821 214.634 239.343 214.155C239.112 213.917 238.835 213.73 238.529 213.605C238.222 213.479 237.893 213.419 237.562 213.428C236.863 213.428 236.27 213.667 235.801 214.155C235.322 214.634 235.083 215.227 235.083 215.935C235.075 216.264 235.134 216.592 235.256 216.897C235.377 217.203 235.559 217.482 235.79 217.716C236.022 217.95 236.298 218.135 236.602 218.26C236.907 218.385 237.233 218.447 237.562 218.443H237.572ZM244.349 213.609C244.751 212.738 245.478 212.298 246.531 212.298V213.581C245.978 213.542 245.432 213.713 245 214.059C244.559 214.404 244.349 214.959 244.349 215.725V219.439H243.123V212.432H244.349V213.609ZM253.155 212.432H254.37V219.439H253.145V218.233C252.866 218.678 252.473 219.041 252.007 219.285C251.541 219.529 251.019 219.645 250.494 219.62C249.517 219.62 248.675 219.266 247.986 218.558C247.648 218.212 247.382 217.801 247.205 217.351C247.027 216.901 246.941 216.419 246.952 215.935C246.952 214.902 247.297 214.04 247.986 213.322C248.306 212.976 248.696 212.702 249.13 212.517C249.564 212.333 250.032 212.242 250.503 212.25C251.027 212.228 251.547 212.344 252.011 212.588C252.475 212.832 252.867 213.194 253.145 213.638V212.432H253.155ZM250.656 218.443C250.986 218.447 251.313 218.385 251.618 218.26C251.923 218.135 252.2 217.95 252.432 217.716C252.664 217.482 252.847 217.204 252.969 216.898C253.092 216.592 253.152 216.265 253.145 215.935C253.145 215.227 252.906 214.634 252.437 214.155C252.206 213.917 251.929 213.73 251.623 213.605C251.316 213.479 250.987 213.419 250.656 213.428C249.948 213.428 249.364 213.667 248.886 214.155C248.407 214.634 248.168 215.227 248.168 215.935C248.16 216.265 248.219 216.593 248.341 216.9C248.463 217.206 248.646 217.485 248.878 217.719C249.111 217.953 249.388 218.138 249.693 218.263C249.999 218.387 250.327 218.448 250.656 218.443ZM264.478 212.432H265.751L263.578 219.439H262.334L260.688 214.251L259.051 219.439H257.807L255.624 212.432H256.897L258.448 217.754L260.104 212.432H261.272L262.927 217.773L264.478 212.432ZM276.309 209.628H277.534V219.439H276.309V218.233C276.03 218.677 275.639 219.039 275.175 219.283C274.711 219.527 274.191 219.643 273.667 219.62C272.681 219.62 271.848 219.266 271.15 218.558C270.811 218.212 270.546 217.801 270.368 217.351C270.191 216.901 270.105 216.419 270.116 215.935C270.116 214.902 270.46 214.04 271.15 213.322C271.47 212.976 271.86 212.702 272.294 212.517C272.728 212.333 273.196 212.242 273.667 212.25C274.191 212.228 274.711 212.344 275.175 212.588C275.639 212.832 276.03 213.194 276.309 213.638V209.618V209.628ZM273.82 218.443C274.15 218.447 274.477 218.385 274.782 218.26C275.087 218.135 275.363 217.95 275.595 217.716C275.828 217.482 276.01 217.204 276.133 216.898C276.255 216.592 276.315 216.265 276.309 215.935C276.309 215.227 276.07 214.634 275.6 214.155C275.37 213.917 275.093 213.73 274.787 213.605C274.48 213.479 274.151 213.419 273.82 213.428C273.112 213.428 272.528 213.667 272.049 214.155C271.571 214.634 271.331 215.227 271.331 215.935C271.324 216.265 271.383 216.593 271.505 216.9C271.627 217.206 271.809 217.485 272.042 217.719C272.274 217.953 272.552 218.138 272.857 218.263C273.163 218.387 273.49 218.448 273.82 218.443ZM279.994 211.149C279.886 211.151 279.778 211.131 279.678 211.089C279.577 211.048 279.486 210.987 279.41 210.91C279.333 210.836 279.272 210.746 279.231 210.648C279.19 210.549 279.169 210.443 279.171 210.336C279.171 210.116 279.247 209.924 279.41 209.762C279.484 209.681 279.575 209.617 279.675 209.575C279.776 209.532 279.885 209.511 279.994 209.513C280.102 209.511 280.209 209.533 280.308 209.576C280.407 209.619 280.495 209.682 280.568 209.762C280.731 209.924 280.808 210.116 280.808 210.336C280.808 210.566 280.731 210.757 280.568 210.91C280.494 210.987 280.405 211.048 280.306 211.089C280.207 211.13 280.101 211.151 279.994 211.149ZM279.381 219.439V212.432H280.597V219.439H279.381ZM283.689 213.6C284.081 212.738 284.809 212.298 285.871 212.298V213.581C285.312 213.537 284.757 213.708 284.32 214.059C283.899 214.404 283.679 214.959 283.679 215.725V219.439H282.463V212.432H283.679V213.609L283.689 213.6ZM287.537 216.49C287.651 217.122 287.939 217.61 288.388 217.955C288.848 218.3 289.403 218.472 290.073 218.472C290.992 218.472 291.672 218.127 292.083 217.448L293.126 218.041C292.799 218.554 292.341 218.971 291.8 219.249C291.258 219.526 290.652 219.655 290.044 219.62C289.545 219.64 289.047 219.559 288.579 219.382C288.112 219.204 287.686 218.933 287.326 218.587C286.982 218.238 286.712 217.824 286.532 217.368C286.353 216.912 286.268 216.425 286.283 215.935C286.262 215.447 286.344 214.959 286.521 214.504C286.698 214.048 286.968 213.634 287.314 213.288C287.659 212.942 288.072 212.671 288.527 212.492C288.982 212.314 289.47 212.231 289.958 212.25C290.982 212.25 291.825 212.614 292.466 213.341C292.854 213.761 293.14 214.264 293.302 214.812C293.465 215.359 293.5 215.937 293.404 216.5H287.537V216.49ZM289.958 213.399C289.307 213.399 288.762 213.59 288.331 213.954C287.9 214.318 287.632 214.815 287.537 215.428H292.217C292.156 214.843 291.876 214.302 291.432 213.916C291.018 213.573 290.495 213.389 289.958 213.399ZM298.132 219.62C297.644 219.636 297.158 219.552 296.704 219.372C296.249 219.193 295.837 218.922 295.491 218.577C295.146 218.231 294.875 217.819 294.695 217.364C294.516 216.91 294.431 216.424 294.447 215.935C294.447 214.882 294.792 214.021 295.5 213.313C295.842 212.964 296.252 212.689 296.705 212.506C297.158 212.323 297.644 212.236 298.132 212.25C298.822 212.25 299.444 212.413 299.999 212.748C300.545 213.073 300.956 213.514 301.234 214.088L300.21 214.672C300.028 214.289 299.75 214.002 299.377 213.772C299.002 213.545 298.571 213.429 298.132 213.437C297.805 213.433 297.481 213.495 297.178 213.619C296.876 213.743 296.601 213.926 296.371 214.158C296.14 214.391 295.959 214.667 295.837 214.97C295.716 215.274 295.657 215.599 295.663 215.926C295.654 216.253 295.711 216.58 295.832 216.884C295.953 217.189 296.134 217.466 296.365 217.699C296.596 217.932 296.871 218.115 297.175 218.238C297.479 218.361 297.805 218.421 298.132 218.414C298.602 218.414 299.023 218.309 299.396 218.089C299.769 217.869 300.056 217.572 300.257 217.199L301.282 217.802C300.976 218.368 300.519 218.839 299.961 219.16C299.403 219.481 298.766 219.641 298.123 219.62H298.132ZM306.307 213.609H304.44V217.409C304.44 217.754 304.507 218.003 304.632 218.146C304.775 218.29 304.986 218.367 305.263 218.376L306.307 218.347V219.439C305.235 219.582 304.459 219.496 303.962 219.19C303.464 218.864 303.215 218.271 303.215 217.409V213.609H301.827V212.432H303.215V210.834L304.44 210.47V212.432H306.297V213.609H306.307ZM307.743 219.439V209.197H308.968V219.439H307.743ZM315.725 212.432H317.027L314.156 219.869C313.923 220.582 313.491 221.213 312.911 221.688C312.383 222.098 311.721 222.296 311.054 222.243V221.104C311.916 221.171 312.538 220.692 312.94 219.668L313.074 219.41L310.011 212.422H311.322L313.706 217.926L315.716 212.432H315.725ZM325.364 213.609H323.498V217.409C323.498 217.754 323.565 218.003 323.689 218.146C323.833 218.29 324.043 218.367 324.321 218.376L325.364 218.347V219.439C324.292 219.582 323.517 219.496 323.019 219.19C322.521 218.864 322.273 218.271 322.273 217.409V213.609H320.885V212.432H322.273V210.834L323.498 210.47V212.432H325.364V213.609ZM332.361 218.558C332.019 218.904 331.61 219.176 331.159 219.359C330.708 219.541 330.225 219.63 329.739 219.62C329.254 219.629 328.772 219.539 328.323 219.357C327.874 219.174 327.467 218.902 327.125 218.558C326.777 218.217 326.502 217.809 326.317 217.358C326.133 216.907 326.043 216.423 326.053 215.935C326.053 214.892 326.408 214.021 327.125 213.313C327.468 212.967 327.877 212.695 328.328 212.512C328.778 212.329 329.262 212.24 329.748 212.25C330.772 212.25 331.643 212.604 332.361 213.303C332.714 213.643 332.992 214.053 333.178 214.506C333.364 214.959 333.454 215.446 333.443 215.935C333.443 216.969 333.089 217.85 332.361 218.558ZM329.739 218.434C330.067 218.442 330.394 218.383 330.699 218.259C331.003 218.136 331.279 217.951 331.509 217.716C331.988 217.237 332.227 216.644 332.227 215.935C332.227 215.227 331.988 214.634 331.509 214.155C331.28 213.921 331.006 213.737 330.703 213.614C330.4 213.49 330.075 213.43 329.748 213.437C329.421 213.43 329.096 213.49 328.793 213.614C328.49 213.737 328.216 213.921 327.987 214.155C327.508 214.634 327.279 215.227 327.279 215.935C327.272 216.262 327.331 216.587 327.452 216.89C327.573 217.193 327.753 217.47 327.982 217.702C328.212 217.935 328.485 218.12 328.787 218.245C329.088 218.371 329.412 218.435 329.739 218.434ZM37.33 230.609H38.6413L35.7698 238.046C35.5346 238.76 35.0994 239.391 34.5159 239.865C33.9799 240.276 33.3673 240.468 32.6685 240.42V239.281C33.53 239.348 34.1521 238.869 34.5542 237.845L34.6786 237.587L31.6252 230.599H32.927L35.3199 236.103L37.33 230.609ZM45.2937 236.735C44.9525 237.079 44.545 237.351 44.0959 237.533C43.6468 237.716 43.1653 237.806 42.6806 237.797C42.1943 237.807 41.711 237.718 41.2602 237.535C40.8093 237.353 40.4003 237.08 40.0579 236.735C39.7093 236.394 39.4342 235.986 39.2498 235.535C39.0654 235.084 38.9756 234.599 38.9859 234.112C38.9859 233.069 39.34 232.198 40.0579 231.489C40.4003 231.144 40.8093 230.872 41.2602 230.689C41.711 230.506 42.1943 230.417 42.6806 230.427C43.7048 230.427 44.5758 230.781 45.2937 231.48C45.6462 231.82 45.9244 232.23 46.1105 232.683C46.2967 233.136 46.3869 233.622 46.3753 234.112C46.3753 235.146 46.0212 236.027 45.2937 236.735ZM42.6806 236.61C43.0076 236.617 43.3327 236.557 43.6356 236.434C43.9385 236.31 44.2129 236.126 44.4418 235.892C44.9204 235.414 45.1597 234.82 45.1597 234.112C45.1597 233.404 44.9204 232.81 44.4418 232.332C44.2129 232.098 43.9385 231.914 43.6356 231.79C43.3327 231.667 43.0076 231.607 42.6806 231.614C41.9819 231.614 41.398 231.853 40.9194 232.332C40.4408 232.81 40.2111 233.404 40.2111 234.112C40.2047 234.44 40.264 234.765 40.3854 235.069C40.5069 235.373 40.6881 235.65 40.9183 235.883C41.1485 236.116 41.4231 236.3 41.7258 236.425C42.0285 236.55 42.3531 236.613 42.6806 236.61ZM52.6448 230.609H53.8605V237.615H52.6448V236.601C52.4102 236.989 52.0739 237.305 51.6724 237.516C51.2709 237.727 50.8194 237.824 50.3668 237.797C49.5436 237.797 48.8927 237.539 48.395 237.032C47.8756 236.449 47.6072 235.686 47.6484 234.907V230.599H48.8736V234.84C48.8736 235.414 49.0267 235.854 49.333 236.18C49.6393 236.476 50.07 236.63 50.606 236.63C51.2186 236.63 51.7068 236.438 52.0801 236.074C52.463 235.691 52.6448 235.108 52.6448 234.323V230.609ZM56.9426 231.786C57.3446 230.915 58.072 230.475 59.1249 230.475V231.757C58.5692 231.716 58.0185 231.887 57.5839 232.236C57.1531 232.581 56.9426 233.136 56.9426 233.902V237.615H55.7174V230.609H56.9426V231.786ZM69.6252 230.609H70.8504V237.615H69.6252V236.409C69.3459 236.855 68.9532 237.218 68.4873 237.462C68.0214 237.706 67.4991 237.822 66.9738 237.797C65.9975 237.797 65.1552 237.443 64.466 236.735C64.1278 236.388 63.8622 235.978 63.6847 235.528C63.5072 235.077 63.4214 234.596 63.4322 234.112C63.4322 233.078 63.7768 232.217 64.466 231.499C64.7854 231.154 65.1738 230.881 65.6059 230.696C66.0379 230.512 66.504 230.42 66.9738 230.427C67.4991 230.403 68.0214 230.518 68.4873 230.762C68.9532 231.006 69.3459 231.369 69.6252 231.815V230.609ZM67.1365 236.62C67.4657 236.623 67.792 236.559 68.0964 236.434C68.4008 236.309 68.677 236.124 68.9089 235.89C69.1407 235.656 69.3235 235.379 69.4465 235.073C69.5696 234.768 69.6303 234.441 69.6252 234.112C69.6252 233.404 69.3859 232.81 68.9169 232.332C68.6866 232.094 68.4094 231.907 68.103 231.781C67.7966 231.656 67.4675 231.596 67.1365 231.604C66.4282 231.604 65.8443 231.844 65.3657 232.332C64.8872 232.81 64.6479 233.404 64.6479 234.112C64.6401 234.442 64.699 234.77 64.8211 235.077C64.9431 235.383 65.1259 235.662 65.3583 235.896C65.5907 236.13 65.8679 236.315 66.1735 236.439C66.4791 236.564 66.8066 236.625 67.1365 236.62ZM75.9904 237.797C75.5025 237.812 75.0168 237.727 74.5631 237.546C74.1094 237.366 73.6973 237.096 73.3522 236.75C73.0071 236.405 72.7361 235.993 72.5561 235.539C72.3761 235.086 72.2907 234.6 72.3053 234.112C72.3053 233.059 72.6499 232.198 73.3582 231.489C73.6999 231.14 74.1102 230.866 74.5632 230.683C75.0162 230.5 75.5021 230.413 75.9904 230.427C76.6796 230.427 77.3018 230.59 77.8569 230.925C78.4025 231.25 78.8141 231.69 79.0917 232.265L78.0675 232.849C77.8856 232.466 77.6081 232.179 77.2348 231.949C76.8598 231.722 76.4285 231.606 75.9904 231.614C75.6618 231.606 75.3349 231.665 75.0303 231.788C74.7256 231.912 74.4497 232.097 74.2197 232.332C73.7602 232.81 73.5209 233.404 73.5209 234.112C73.5118 234.44 73.5693 234.766 73.6899 235.071C73.8105 235.376 73.9918 235.653 74.2227 235.885C74.4536 236.118 74.7293 236.301 75.0332 236.424C75.337 236.547 75.6627 236.607 75.9904 236.601C76.4594 236.601 76.8806 236.486 77.2539 236.266C77.6272 236.046 77.9144 235.749 78.1154 235.376L79.1395 235.979C78.834 236.545 78.3766 237.016 77.8186 237.337C77.2607 237.658 76.6243 237.818 75.9809 237.797H75.9904ZM83.5521 237.797C83.0635 237.813 82.5767 237.729 82.1219 237.549C81.667 237.37 81.2538 237.099 80.9076 236.754C80.5614 236.409 80.2897 235.996 80.109 235.542C79.9284 235.087 79.8428 234.601 79.8574 234.112C79.8574 233.059 80.2116 232.198 80.9103 231.489C81.2524 231.141 81.6628 230.867 82.1157 230.684C82.5686 230.501 83.0543 230.414 83.5426 230.427C84.2413 230.427 84.8635 230.59 85.4091 230.925C85.9642 231.25 86.3662 231.69 86.6534 232.265L85.6196 232.849C85.445 232.471 85.1574 232.156 84.7965 231.949C84.4215 231.722 83.9902 231.606 83.5521 231.614C83.2235 231.606 82.8967 231.665 82.592 231.788C82.2873 231.912 82.0114 232.097 81.7814 232.332C81.3123 232.81 81.0826 233.404 81.0826 234.112C81.0735 234.439 81.1307 234.764 81.2508 235.068C81.3708 235.373 81.5512 235.649 81.7811 235.882C82.0109 236.114 82.2855 236.298 82.5883 236.422C82.891 236.545 83.2156 236.606 83.5426 236.601C83.9738 236.604 84.3981 236.493 84.7716 236.277C85.1452 236.062 85.4545 235.751 85.6675 235.376L86.7013 235.979C86.3957 236.545 85.9383 237.016 85.3804 237.337C84.8224 237.658 84.186 237.818 83.5426 237.797H83.5521ZM93.727 236.735C93.3846 237.08 92.9756 237.353 92.5247 237.535C92.0739 237.718 91.5906 237.807 91.1043 237.797C90.6179 237.807 90.1347 237.718 89.6838 237.535C89.233 237.353 88.824 237.08 88.4816 236.735C88.1347 236.393 87.8614 235.985 87.6787 235.534C87.4959 235.082 87.4076 234.599 87.4191 234.112C87.4191 233.069 87.7733 232.198 88.4816 231.489C88.824 231.144 89.233 230.872 89.6838 230.689C90.1347 230.506 90.6179 230.417 91.1043 230.427C91.5896 230.419 92.0716 230.507 92.5221 230.688C92.9725 230.869 93.3822 231.138 93.727 231.48C94.0795 231.82 94.3576 232.23 94.5438 232.683C94.7299 233.136 94.8201 233.622 94.8086 234.112C94.8086 235.146 94.4448 236.027 93.727 236.735ZM91.1043 236.61C91.4329 236.619 91.7598 236.559 92.0644 236.436C92.3691 236.312 92.645 236.127 92.8751 235.892C93.3537 235.414 93.5834 234.82 93.5834 234.112C93.5834 233.404 93.3441 232.81 92.8751 232.332C92.645 232.097 92.3691 231.912 92.0644 231.788C91.7598 231.665 91.4329 231.606 91.1043 231.614C90.4151 231.614 89.8312 231.853 89.3526 232.332C88.8741 232.81 88.6348 233.404 88.6348 234.112C88.6348 234.82 88.8741 235.414 89.3526 235.892C89.8312 236.371 90.4055 236.61 91.1043 236.61ZM101.078 230.609H102.303V237.615H101.078V236.601C100.844 236.987 100.509 237.303 100.11 237.514C99.7102 237.725 99.2607 237.823 98.8096 237.797C97.9864 237.797 97.326 237.539 96.8282 237.032C96.3114 236.448 96.0464 235.684 96.0912 234.907V230.599H97.3068V234.84C97.3068 235.414 97.4599 235.854 97.7662 236.18C98.0821 236.476 98.5033 236.63 99.0489 236.63C99.6519 236.63 100.15 236.438 100.523 236.074C100.896 235.691 101.078 235.108 101.078 234.323V230.609ZM107.644 230.417C108.468 230.417 109.128 230.685 109.626 231.212C110.123 231.719 110.363 232.428 110.363 233.318V237.615H109.147V233.385C109.147 232.81 108.994 232.37 108.688 232.064C108.518 231.901 108.317 231.774 108.096 231.692C107.875 231.609 107.64 231.573 107.405 231.585C106.802 231.585 106.314 231.777 105.941 232.16C105.558 232.542 105.376 233.117 105.376 233.902V237.615H104.16V230.609H105.376V231.614C105.611 231.229 105.946 230.915 106.346 230.706C106.745 230.497 107.194 230.401 107.644 230.427V230.417ZM115.876 231.786H114.019V235.586C114.019 235.931 114.086 236.18 114.211 236.323C114.354 236.467 114.565 236.543 114.842 236.553L115.886 236.524V237.615C114.814 237.759 114.038 237.673 113.541 237.367C113.043 237.041 112.804 236.448 112.804 235.586V231.786H111.416V230.609H112.804V229.01L114.019 228.647V230.609H115.886V231.786H115.876Z" fill="black" fill-opacity="0.53"/>
<path d="M143.194 37.8047H52.5396C40.9254 37.8047 31.5103 47.2198 31.5103 58.8339C31.5103 70.448 40.9254 79.8631 52.5396 79.8631H143.194C154.808 79.8631 164.223 70.448 164.223 58.8339C164.223 47.2198 154.808 37.8047 143.194 37.8047Z" fill="white" fill-opacity="0.78"/>
<path d="M143.194 94.814H52.5396C40.9254 94.814 31.5103 104.229 31.5103 115.843C31.5103 127.457 40.9254 136.872 52.5396 136.872H143.194C154.808 136.872 164.223 127.457 164.223 115.843C164.223 104.229 154.808 94.814 143.194 94.814Z" fill="white" fill-opacity="0.78"/>
<path fill-rule="evenodd" clip-rule="evenodd" d="M126.577 116.695C126.577 112.55 124.548 109.277 120.672 109.277C116.785 109.277 114.44 112.55 114.44 116.657C114.44 121.538 117.216 123.998 121.198 123.998C122.772 124.041 124.331 123.679 125.725 122.945V119.701C124.615 120.256 123.332 120.6 121.724 120.6C120.136 120.6 118.728 120.045 118.556 118.131H126.539C126.539 117.92 126.577 117.078 126.577 116.695ZM118.499 115.164C118.499 113.326 119.628 112.56 120.662 112.56C121.657 112.56 122.72 113.326 122.72 115.154H118.508L118.499 115.164ZM108.132 109.277C106.534 109.277 105.5 110.023 104.936 110.54L104.715 109.535H101.126V128.42L105.213 127.559L105.223 122.974C106.042 123.634 107.061 123.996 108.113 123.998C111.042 123.998 113.703 121.663 113.703 116.532C113.684 111.842 110.994 109.277 108.132 109.277ZM107.156 120.438C106.189 120.438 105.625 120.093 105.223 119.672L105.204 113.661C105.451 113.394 105.754 113.185 106.092 113.049C106.429 112.913 106.793 112.854 107.156 112.876C108.64 112.876 109.674 114.522 109.674 116.647C109.674 118.82 108.659 120.438 107.156 120.438ZM95.4977 108.32L99.604 107.458V104.166L95.4977 105.027V108.32Z" fill="#635BFF"/>
<path d="M99.604 109.555H95.4977V123.721H99.604V109.555Z" fill="#635BFF"/>
<path fill-rule="evenodd" clip-rule="evenodd" d="M91.1043 110.751L90.8458 109.555H87.3139V123.721H91.401V114.121C92.3582 112.876 93.995 113.096 94.5023 113.278V109.545C93.9854 109.354 92.071 109 91.1043 110.751ZM82.9395 106.042L78.9577 106.884L78.9385 119.854C78.9385 122.247 80.7572 124.018 83.1693 124.018C84.5093 124.018 85.4952 123.779 86.0312 123.482V120.199C85.5048 120.409 82.93 121.156 82.93 118.763V113.01H86.0312V109.564H82.93L82.9395 106.042ZM71.8937 113.661C71.8937 113.029 72.4201 112.8 73.2816 112.8C74.5259 112.8 76.0957 113.163 77.3401 113.824V110.024C76.0474 109.518 74.6697 109.265 73.2816 109.277C69.9698 109.277 67.7683 111 67.7683 113.862C67.7683 118.332 73.9708 117.614 73.9708 119.548C73.9708 120.285 73.3199 120.534 72.401 120.534C71.0514 120.534 69.3189 119.979 67.9406 119.232V123.089C69.472 123.74 71.0035 124.008 72.401 124.008C75.799 124.008 78.1441 122.343 78.1441 119.442C78.1249 114.618 71.8937 115.48 71.8937 113.661Z" fill="#635BFF"/>
<path fill-rule="evenodd" clip-rule="evenodd" d="M73.9516 51.3008C76.1244 51.3008 78.1249 52.4877 77.8474 55.4166C77.5123 58.9199 75.6458 60.8534 72.7073 60.8534H70.1325C69.7688 60.8534 69.5869 61.1597 69.4912 61.7819L68.9935 64.9502C68.9169 65.4287 68.668 65.668 68.3139 65.668H65.9209C65.538 65.668 65.404 65.4287 65.4902 64.8736L67.462 52.1622C67.5577 51.5401 67.797 51.3008 68.2277 51.3008H73.9516ZM70.0559 58.1159H72.0086C73.2242 58.068 74.0378 57.2161 74.1144 55.6942C74.1622 54.7466 73.5305 54.067 72.5159 54.0766H70.6877L70.0559 58.1159ZM84.3562 64.6917C84.5763 64.5003 84.7965 64.395 84.7678 64.6343L84.6816 65.2277C84.6433 65.534 84.7678 65.7063 85.0549 65.7063H87.1798C87.534 65.7063 87.7159 65.5532 87.802 64.998L89.1133 56.7471C89.1803 56.3355 89.0751 56.1345 88.7592 56.1345H86.4333C86.2227 56.1345 86.1174 56.2494 86.06 56.5748L85.9738 57.0821C85.9355 57.3502 85.8111 57.3884 85.6962 57.13C85.3038 56.1824 84.2892 55.7612 82.8821 55.7899C79.599 55.8665 77.3879 58.3648 77.1486 61.5617C76.9667 64.0408 78.7375 65.9839 81.073 65.9839C81.6836 66.0228 82.2953 65.9282 82.8656 65.7067C83.4359 65.4852 83.9511 65.1421 84.3753 64.7013H84.3657L84.3562 64.6917ZM82.5758 63.4282C82.2551 63.4418 81.9355 63.3832 81.6405 63.2567C81.3455 63.1302 81.0826 62.9391 80.8713 62.6975C80.66 62.4559 80.5057 62.1699 80.4197 61.8607C80.3336 61.5515 80.3181 61.2269 80.3743 60.9109C80.502 60.2174 80.865 59.5892 81.4021 59.1323C81.9392 58.6754 82.6174 58.4178 83.3224 58.403C84.7295 58.403 85.7154 59.5325 85.5048 60.9109C85.3815 61.6037 85.0226 62.2327 84.4889 62.6915C83.9551 63.1502 83.2794 63.4104 82.5758 63.4282ZM93.2675 56.1058H91.1234C90.6831 56.1058 90.5013 56.4408 90.6448 56.8524L93.3249 64.7109L90.6927 68.4439C90.4725 68.7597 90.6448 69.0469 90.9511 69.0469H93.3728C93.5139 69.0633 93.6566 69.0386 93.784 68.9757C93.9114 68.9129 94.0179 68.8146 94.0907 68.6927L102.322 56.8524C102.581 56.4887 102.466 56.1058 102.045 56.1058H99.7476C99.3647 56.1058 99.202 56.259 98.9819 56.5844L95.536 61.5809L94.0045 56.5748C93.9184 56.2685 93.6982 56.1058 93.2866 56.1058H93.2675Z" fill="#113984"/>
<path fill-rule="evenodd" clip-rule="evenodd" d="M110.889 51.3104C113.062 51.3104 115.062 52.4877 114.785 55.4262C114.45 58.9199 112.583 60.8534 109.645 60.863H107.07C106.706 60.863 106.524 61.1597 106.429 61.7819L105.931 64.9597C105.854 65.4383 105.606 65.668 105.251 65.668H102.858C102.476 65.668 102.342 65.4287 102.428 64.8831L104.399 52.1622C104.495 51.5401 104.735 51.3008 105.165 51.3008H110.889V51.3104ZM106.993 58.1063H108.937C110.162 58.068 110.966 57.2257 111.042 55.6942C111.1 54.7466 110.468 54.067 109.453 54.0766L107.625 54.0862L106.993 58.1063ZM121.294 64.7013C121.514 64.5003 121.734 64.395 121.696 64.6439L121.619 65.2277C121.581 65.5436 121.705 65.7063 121.992 65.7063H124.117C124.472 65.7063 124.653 65.5532 124.74 64.998L126.051 56.7567C126.108 56.3355 126.013 56.1345 125.697 56.1345H123.361C123.151 56.1345 123.045 56.259 122.997 56.5748L122.902 57.0821C122.863 57.3502 122.739 57.398 122.634 57.13C122.232 56.192 121.217 55.7612 119.81 55.7899C116.527 55.8665 114.316 58.3648 114.086 61.5617C113.895 64.0408 115.665 65.9839 118.001 65.9839C119.695 65.9839 120.451 65.4862 121.303 64.7013H121.294ZM119.513 63.4282C119.194 63.4415 118.875 63.383 118.581 63.2571C118.287 63.1312 118.024 62.941 117.813 62.7005C117.602 62.46 117.448 62.1753 117.361 61.8673C117.274 61.5593 117.257 61.2357 117.312 60.9204C117.438 60.2252 117.8 59.5948 118.337 59.136C118.874 58.6772 119.554 58.4183 120.26 58.403C121.667 58.403 122.653 59.5325 122.442 60.9204C122.315 61.6108 121.955 62.2365 121.422 62.6931C120.889 63.1496 120.215 63.4091 119.513 63.4282ZM129.315 65.7255H126.864C126.822 65.7275 126.779 65.7199 126.739 65.7032C126.7 65.6865 126.664 65.6612 126.636 65.629C126.607 65.5969 126.587 65.5588 126.575 65.5175C126.563 65.4762 126.561 65.4328 126.568 65.3905L128.721 51.6932C128.737 51.5982 128.789 51.5128 128.865 51.4539C128.942 51.3965 129.037 51.3582 129.133 51.3582H131.583C131.626 51.3559 131.669 51.3633 131.709 51.3799C131.749 51.3965 131.784 51.4218 131.813 51.4539C131.841 51.4863 131.862 51.5245 131.874 51.566C131.885 51.6074 131.888 51.6509 131.88 51.6932L129.726 65.3905C129.707 65.485 129.655 65.5699 129.58 65.6309C129.505 65.6919 129.411 65.7253 129.315 65.7255Z" fill="#009EE3"/>
</g>
</g>
</g>
<defs>
<clipPath id="clip0_1_639">
<rect width="380" height="298" fill="white"/>
</clipPath>
<clipPath id="clip1_1_639">
<rect width="380" height="298" fill="white"/>
</clipPath>
<clipPath id="clip2_1_639">
<rect width="380" height="285.239" fill="white" transform="translate(0 6.38037)"/>
</clipPath>
</defs>
</svg>
