<svg width="341" height="32" viewBox="0 0 341 32" fill="none" xmlns="http://www.w3.org/2000/svg">
<path d="M8.77966 9.04014C8.3084 9.52646 7.74211 9.91062 7.11603 10.1687C6.48994 10.4268 5.81746 10.5533 5.14039 10.5404C4.4617 10.5547 3.78734 10.4288 3.1595 10.1707C2.53165 9.91253 1.96378 9.52767 1.49141 9.04014C1.00794 8.56519 0.626436 7.99665 0.370151 7.36925C0.113867 6.74185 -0.0117886 6.06878 0.000869579 5.39118C0.000869579 3.95869 0.504154 2.73914 1.49141 1.75189C1.96378 1.26436 2.53165 0.879499 3.1595 0.621365C3.78734 0.363231 4.4617 0.237375 5.14039 0.251655C5.81746 0.238712 6.48994 0.36522 7.11603 0.623314C7.74211 0.881408 8.3084 1.26556 8.77966 1.75189C9.26598 2.22315 9.65014 2.78943 9.90824 3.41552C10.1663 4.0416 10.2929 4.7141 10.2799 5.39118C10.2799 6.82366 9.78627 8.03353 8.77966 9.04014ZM2.39157 8.14C2.74917 8.5038 3.17764 8.79031 3.65047 8.98177C4.1233 9.17323 4.63042 9.26557 5.14039 9.25308C6.22443 9.25308 7.13424 8.88528 7.85049 8.14C8.21244 7.78103 8.49773 7.3523 8.68906 6.87979C8.8804 6.40729 8.97378 5.90085 8.96356 5.39118C8.96356 4.29745 8.59577 3.37796 7.86017 2.64236C7.5096 2.27667 7.08672 1.98798 6.61846 1.79468C6.15021 1.60138 5.64684 1.50769 5.14039 1.5196C4.63162 1.51017 4.12624 1.60424 3.65493 1.79609C3.18363 1.98794 2.75621 2.27357 2.39866 2.63564C2.04111 2.99772 1.76088 3.42868 1.57497 3.90236C1.38906 4.37604 1.30137 4.88256 1.31719 5.39118C1.30374 5.89871 1.39281 6.40375 1.57908 6.87606C1.76534 7.34838 2.04496 7.77827 2.40123 8.14H2.39157ZM16.6971 3.27148H17.936V10.3565H16.6971V9.33051C16.4605 9.72141 16.1221 10.0406 15.7179 10.2537C15.3138 10.4668 14.8593 10.5659 14.4031 10.5404C13.5707 10.5404 12.9029 10.279 12.4093 9.76606C11.8841 9.17741 11.6127 8.40512 11.6543 7.61734V3.26181H12.8739V7.54959C12.8739 8.13032 13.0287 8.57555 13.3481 8.90463C13.6578 9.20468 14.0837 9.35954 14.6354 9.35954C15.2452 9.35954 15.7485 9.16596 16.126 8.79816C16.5035 8.41101 16.6874 7.82059 16.6874 7.02692V3.27148H16.6971ZM21.0526 4.462C21.4494 3.58121 22.185 3.13598 23.2594 3.13598V4.43296C22.6943 4.38971 22.1338 4.56269 21.6914 4.91691C21.2655 5.26535 21.0429 5.82673 21.0429 6.60104V10.3565H19.8137V3.27148H21.0429V4.462H21.0526ZM31.651 1.44216C30.4024 1.33569 29.783 1.87772 29.783 3.05855V3.27148H31.651V4.462H29.783V10.3565H28.5441V4.45232H27.4116V3.27148H28.5441V3.05855C28.5441 2.10034 28.8054 1.37441 29.3378 0.890462C29.8798 0.396835 30.6444 0.183902 31.651 0.251655V1.44216ZM37.4778 3.27148H38.7167V10.3565H37.4778V9.33051C37.2413 9.72141 36.9028 10.0406 36.4987 10.2537C36.0945 10.4668 35.64 10.5659 35.1838 10.5404C34.3514 10.5404 33.6836 10.279 33.1803 9.76606C32.6586 9.1759 32.3908 8.40378 32.435 7.61734V3.26181H33.6643V7.54959C33.6643 8.13032 33.8191 8.57555 34.1385 8.90463C34.4482 9.20468 34.8741 9.35954 35.4258 9.35954C36.0356 9.35954 36.5389 9.16596 36.9164 8.79816C37.2939 8.41101 37.4778 7.82059 37.4778 7.02692V3.27148ZM40.5944 10.3565V0H41.8236V10.3565H40.5944ZM43.711 10.3565V0H44.9402V10.3565H43.711ZM54.2223 4.45232H52.3349V8.30454C52.3349 8.65298 52.4027 8.90463 52.5285 9.04982C52.6737 9.195 52.8867 9.27243 53.1673 9.28211L54.2223 9.25308V10.3565C53.1383 10.5017 52.3543 10.4146 51.851 10.1048C51.3574 9.77574 51.1057 9.17565 51.1057 8.30454V4.462H49.7023V3.27148H51.1057V1.6551L52.3349 1.2873V3.27148H54.2223V4.462V4.45232ZM56.1872 7.37536C56.313 8.01417 56.5937 8.49812 57.0583 8.85624C57.5483 9.21541 58.1449 9.39948 58.7521 9.37891C59.6909 9.37891 60.3685 9.03046 60.7847 8.34326L61.8494 8.93368C61.5189 9.45596 61.0548 9.88035 60.5051 10.1629C59.9554 10.4454 59.3401 10.5757 58.7231 10.5404C58.2182 10.5589 57.7148 10.476 57.2427 10.2964C56.7705 10.1169 56.3392 9.84435 55.9742 9.49505C55.6278 9.14202 55.3566 8.72242 55.1769 8.2616C54.9973 7.80078 54.9129 7.30833 54.9289 6.81398C54.9085 6.31999 54.9906 5.82713 55.17 5.36643C55.3494 4.90573 55.6223 4.48717 55.9715 4.13711C56.3206 3.78706 56.7385 3.51308 57.1987 3.33246C57.6589 3.15183 58.1516 3.06846 58.6456 3.08759C59.6813 3.08759 60.5233 3.45539 61.1718 4.19099C61.5655 4.61445 61.8566 5.12267 62.0228 5.67647C62.1889 6.23026 62.2256 6.81481 62.1301 7.38504H56.1872V7.37536ZM58.636 4.24906C57.9778 4.24906 57.4261 4.44264 56.9905 4.81044C56.555 5.17824 56.2936 5.68155 56.1872 6.301H60.9202C60.8234 5.62347 60.5524 5.12017 60.1265 4.77172C59.7081 4.42504 59.1793 4.23963 58.636 4.24906ZM69.4377 3.27148H70.6766V10.3565H69.4377V9.13693C69.156 9.58598 68.7605 9.95239 68.2912 10.1989C67.822 10.4454 67.2958 10.5633 66.7663 10.5404C65.7693 10.5404 64.9273 10.1823 64.2207 9.46601C63.8787 9.11576 63.6102 8.70078 63.4307 8.24539C63.2512 7.78999 63.1644 7.30335 63.1754 6.81398C63.1754 5.76866 63.5238 4.89755 64.2207 4.17163C64.5448 3.82198 64.9391 3.54468 65.3778 3.35788C65.8164 3.17108 66.2896 3.07897 66.7663 3.08759C67.2958 3.06471 67.822 3.18253 68.2912 3.42905C68.7605 3.67556 69.156 4.04199 69.4377 4.49103V3.27148ZM66.9211 9.34987C67.2543 9.35382 67.585 9.29078 67.8933 9.1645C68.2017 9.03821 68.4816 8.85125 68.7163 8.61472C68.951 8.37819 69.1358 8.09691 69.2598 7.78757C69.3837 7.47824 69.4442 7.14715 69.4377 6.81398C69.4377 6.09774 69.1957 5.49764 68.7214 5.0137C68.4886 4.77323 68.2083 4.58369 67.8984 4.45707C67.5885 4.33045 67.2558 4.26951 66.9211 4.27809C66.2049 4.27809 65.6145 4.52007 65.1305 5.0137C64.6466 5.49764 64.4046 6.09774 64.4046 6.81398C64.3981 7.14715 64.4586 7.47824 64.5825 7.78757C64.7065 8.09691 64.8912 8.37819 65.126 8.61472C65.3607 8.85125 65.6406 9.03821 65.9489 9.1645C66.2573 9.29078 66.5879 9.35382 66.9211 9.34987ZM80.2007 3.08759C80.9943 3.08759 81.6331 3.33924 82.1268 3.8619C82.6107 4.37488 82.8624 5.07177 82.8624 5.94288V10.3565H81.6331V5.99127C81.6331 5.43957 81.488 5.02338 81.2073 4.71365C80.9169 4.4136 80.5394 4.25874 80.0748 4.25874C79.5425 4.25874 79.1069 4.44264 78.7972 4.80076C78.4875 5.1492 78.3229 5.69122 78.3229 6.41714V10.3565H77.0937V5.99127C77.0937 5.43957 76.9582 5.02338 76.6775 4.71365C76.5417 4.56237 76.374 4.44311 76.1866 4.36444C75.9991 4.28578 75.7966 4.24968 75.5935 4.25874C75.0708 4.25874 74.6353 4.44264 74.2868 4.80076C73.9481 5.15888 73.7738 5.7009 73.7738 6.41714V10.3565H72.5446V3.27148H73.7738V4.22002C73.9927 3.85812 74.3051 3.56193 74.6781 3.36264C75.0512 3.16334 75.471 3.06833 75.8935 3.08759C76.842 3.08759 77.539 3.48442 77.9745 4.28778C78.2004 3.90335 78.5274 3.58821 78.9199 3.37661C79.3123 3.16501 79.7553 3.06505 80.2007 3.08759ZM88.7375 1.97451C88.6278 1.97607 88.519 1.95544 88.4175 1.91386C88.3161 1.87227 88.2241 1.8106 88.1471 1.73253C88.0693 1.65734 88.0077 1.56703 87.9661 1.46717C87.9245 1.3673 87.9037 1.25998 87.9051 1.1518C87.9051 0.929182 87.9825 0.735597 88.1471 0.571055C88.2222 0.48983 88.3136 0.425422 88.4154 0.38205C88.5171 0.338677 88.6269 0.317328 88.7375 0.319407C88.8466 0.318086 88.9547 0.339819 89.0547 0.383187C89.1548 0.426554 89.2446 0.490572 89.3182 0.571055C89.4828 0.735597 89.5602 0.929182 89.5602 1.1518C89.5602 1.38409 89.4828 1.57767 89.3182 1.73253C89.243 1.81032 89.1527 1.87191 89.0529 1.91352C88.953 1.95513 88.8457 1.97588 88.7375 1.97451ZM88.118 10.3565V3.27148H89.3376V10.3565H88.1084H88.118ZM92.28 5.17824C92.28 5.45893 92.4155 5.68155 92.6962 5.85577C92.9672 6.01063 93.2963 6.14613 93.6834 6.24292C94.0706 6.33971 94.4578 6.45586 94.8449 6.58169C95.2321 6.70752 95.5708 6.93013 95.8418 7.23986C96.1129 7.53023 96.2484 7.92706 96.2484 8.41101C96.2484 9.0595 95.9967 9.57248 95.5031 9.95964C95.0094 10.3468 94.3706 10.5404 93.5963 10.5404C92.9188 10.5404 92.3187 10.3855 91.8251 10.0855C91.3411 9.78542 90.983 9.3789 90.7797 8.88528L91.8444 8.27551C91.9606 8.61427 92.1735 8.88527 92.4832 9.07885C92.793 9.27243 93.1608 9.36922 93.5963 9.36922C94.0028 9.36922 94.3416 9.30147 94.6029 9.14661C94.7302 9.07221 94.8346 8.96423 94.9045 8.83448C94.9745 8.70473 95.0075 8.55823 94.9998 8.41101C94.9998 8.14 94.8643 7.92706 94.5932 7.76252C94.2842 7.57796 93.9477 7.444 93.5963 7.36568C93.2092 7.26889 92.822 7.14306 92.4349 7.00756C92.0477 6.88173 91.7186 6.65912 91.4476 6.35907C91.1652 6.03951 91.0163 5.62377 91.0314 5.1976C91.0314 4.57815 91.2734 4.07484 91.7476 3.678C92.2316 3.29085 92.822 3.08759 93.5479 3.08759C94.1287 3.08759 94.632 3.21341 95.0772 3.47474C95.5321 3.73607 95.8709 4.0942 96.0935 4.55879L95.0578 5.13952C94.8062 4.52975 94.3029 4.2297 93.5479 4.2297C93.1898 4.2297 92.8994 4.31681 92.6478 4.49103C92.5312 4.56283 92.4357 4.66426 92.3711 4.78499C92.3065 4.90571 92.2751 5.0414 92.28 5.17824ZM107.128 3.27148H108.357V10.3565H107.128V9.13693C106.845 9.58745 106.448 9.95481 105.977 10.2014C105.506 10.448 104.978 10.565 104.446 10.5404C103.449 10.5404 102.607 10.1823 101.911 9.46601C101.567 9.11656 101.296 8.70194 101.115 8.24651C100.934 7.79108 100.846 7.30403 100.856 6.81398C100.856 5.76866 101.204 4.89755 101.911 4.17163C102.234 3.8232 102.626 3.54663 103.063 3.35987C103.5 3.17311 103.971 3.08034 104.446 3.08759C104.978 3.06297 105.506 3.17995 105.977 3.42655C106.448 3.67315 106.845 4.04052 107.128 4.49103V3.27148ZM104.601 9.34987C104.934 9.35382 105.265 9.29078 105.573 9.1645C105.882 9.03821 106.162 8.85125 106.396 8.61472C106.631 8.37819 106.816 8.09691 106.94 7.78757C107.064 7.47824 107.124 7.14715 107.118 6.81398C107.118 6.09774 106.886 5.49764 106.402 5.0137C106.169 4.77323 105.888 4.58369 105.579 4.45707C105.269 4.33045 104.936 4.26951 104.601 4.27809C103.895 4.27809 103.295 4.52007 102.811 5.0137C102.327 5.49764 102.094 6.09774 102.094 6.81398C102.088 7.14633 102.148 7.4766 102.271 7.78529C102.395 8.09398 102.579 8.37482 102.812 8.61122C103.046 8.84762 103.325 9.03478 103.632 9.16165C103.939 9.28852 104.269 9.35252 104.601 9.34987ZM110.225 10.3565V0H111.464V10.3565H110.225ZM121.694 3.27148H122.982L120.784 10.3565H119.526L117.861 5.11049L116.206 10.3565H114.948L112.751 3.27148H114.038L115.587 8.65299L117.271 3.27148H118.462L120.136 8.67234L121.685 3.27148H121.694ZM129.844 3.27148H131.073V10.3565H129.844V9.13693C129.562 9.58745 129.164 9.95481 128.693 10.2014C128.222 10.448 127.694 10.565 127.163 10.5404C126.176 10.5404 125.324 10.1823 124.627 9.46601C124.285 9.11576 124.017 8.70078 123.837 8.24539C123.658 7.78999 123.571 7.30335 123.582 6.81398C123.582 5.76866 123.93 4.89755 124.627 4.17163C124.95 3.8232 125.343 3.54663 125.78 3.35987C126.217 3.17311 126.688 3.08034 127.163 3.08759C127.694 3.06297 128.222 3.17995 128.693 3.42655C129.164 3.67315 129.562 4.04052 129.844 4.49103V3.27148ZM127.327 9.34987C127.661 9.35382 127.991 9.29078 128.3 9.1645C128.608 9.03821 128.888 8.85125 129.123 8.61472C129.357 8.37819 129.542 8.09691 129.666 7.78757C129.79 7.47824 129.851 7.14715 129.844 6.81398C129.844 6.09774 129.602 5.49764 129.118 5.0137C128.885 4.77323 128.605 4.58369 128.295 4.45707C127.985 4.33045 127.652 4.26951 127.318 4.27809C126.611 4.27809 126.011 4.52007 125.537 5.0137C125.053 5.49764 124.811 6.09774 124.811 6.81398C124.804 7.14715 124.865 7.47824 124.989 7.78757C125.113 8.09691 125.298 8.37819 125.532 8.61472C125.767 8.85125 126.047 9.03821 126.355 9.1645C126.664 9.29078 126.994 9.35382 127.327 9.34987ZM137.897 3.27148H139.213L136.31 10.792C136.073 11.5121 135.637 12.1501 135.051 12.631C134.517 13.0458 133.848 13.2461 133.174 13.1924V12.0406C134.045 12.1084 134.683 11.6244 135.08 10.5888L135.216 10.3274L132.119 3.26181H133.445L135.855 8.82721L137.887 3.27148H137.897ZM140.859 5.17824C140.859 5.45893 140.994 5.68155 141.275 5.85577C141.546 6.01063 141.875 6.14613 142.262 6.24292C142.649 6.33971 143.036 6.45586 143.424 6.58169C143.811 6.70752 144.15 6.93013 144.421 7.23986C144.692 7.53023 144.827 7.92706 144.827 8.41101C144.827 9.0595 144.575 9.57248 144.082 9.95964C143.588 10.3468 142.949 10.5404 142.175 10.5404C141.497 10.5404 140.897 10.3855 140.404 10.0855C139.92 9.78542 139.562 9.3789 139.358 8.88528L140.423 8.27551C140.539 8.61427 140.752 8.88527 141.062 9.07885C141.372 9.27243 141.739 9.36922 142.175 9.36922C142.581 9.36922 142.92 9.30147 143.182 9.14661C143.309 9.07221 143.413 8.96423 143.483 8.83448C143.553 8.70473 143.586 8.55823 143.578 8.41101C143.578 8.14 143.443 7.92706 143.172 7.76252C142.863 7.57796 142.526 7.444 142.175 7.36568C141.788 7.26889 141.401 7.14306 141.014 7.00756C140.626 6.88173 140.297 6.65912 140.026 6.35907C139.744 6.03951 139.595 5.62377 139.61 5.1976C139.61 4.57815 139.852 4.07484 140.326 3.678C140.81 3.29085 141.401 3.08759 142.127 3.08759C142.707 3.08759 143.211 3.21341 143.656 3.47474C144.111 3.73607 144.45 4.0942 144.672 4.55879L143.637 5.13952C143.385 4.52975 142.882 4.2297 142.127 4.2297C141.768 4.2297 141.478 4.31681 141.226 4.49103C141.11 4.56283 141.014 4.66426 140.95 4.78499C140.885 4.90571 140.854 5.0414 140.859 5.17824ZM155.706 3.27148H156.935V10.3565H155.706V9.13693C155.424 9.58745 155.027 9.95481 154.555 10.2014C154.084 10.448 153.556 10.565 153.025 10.5404C152.028 10.5404 151.186 10.1823 150.489 9.46601C150.146 9.11656 149.875 8.70194 149.694 8.24651C149.513 7.79108 149.424 7.30403 149.434 6.81398C149.434 5.76866 149.783 4.89755 150.489 4.17163C150.812 3.8232 151.205 3.54663 151.642 3.35987C152.079 3.17311 152.55 3.08034 153.025 3.08759C153.556 3.06297 154.084 3.17995 154.555 3.42655C155.027 3.67315 155.424 4.04052 155.706 4.49103V3.27148ZM153.18 9.34987C153.513 9.35382 153.844 9.29078 154.152 9.1645C154.46 9.03821 154.74 8.85125 154.975 8.61472C155.21 8.37819 155.395 8.09691 155.519 7.78757C155.642 7.47824 155.703 7.14715 155.696 6.81398C155.696 6.09774 155.464 5.49764 154.98 5.0137C154.747 4.77323 154.467 4.58369 154.157 4.45707C153.847 4.33045 153.515 4.26951 153.18 4.27809C152.473 4.27809 151.873 4.52007 151.389 5.0137C150.905 5.49764 150.673 6.09774 150.673 6.81398C150.667 7.14633 150.727 7.4766 150.85 7.78529C150.973 8.09398 151.157 8.37482 151.391 8.61122C151.625 8.84762 151.903 9.03478 152.211 9.16165C152.518 9.28852 152.848 9.35252 153.18 9.34987ZM163.769 3.27148H165.104L162.268 10.3565H160.817L157.981 3.27148H159.316L161.543 9.04014L163.769 3.27148ZM171.735 3.27148H172.964V10.3565H171.735V9.13693C171.452 9.58745 171.055 9.95481 170.584 10.2014C170.113 10.448 169.585 10.565 169.053 10.5404C168.066 10.5404 167.214 10.1823 166.518 9.46601C166.176 9.11576 165.907 8.70078 165.728 8.24539C165.548 7.78999 165.461 7.30335 165.472 6.81398C165.472 5.76866 165.821 4.89755 166.518 4.17163C166.841 3.8232 167.233 3.54663 167.67 3.35987C168.107 3.17311 168.578 3.08034 169.053 3.08759C169.585 3.06297 170.113 3.17995 170.584 3.42655C171.055 3.67315 171.452 4.04052 171.735 4.49103V3.27148ZM169.218 9.34987C169.551 9.35382 169.882 9.29078 170.19 9.1645C170.499 9.03821 170.778 8.85125 171.013 8.61472C171.248 8.37819 171.433 8.09691 171.557 7.78757C171.68 7.47824 171.741 7.14715 171.735 6.81398C171.735 6.09774 171.493 5.49764 171.009 5.0137C170.776 4.77323 170.495 4.58369 170.186 4.45707C169.876 4.33045 169.543 4.26951 169.208 4.27809C168.502 4.27809 167.902 4.52007 167.427 5.0137C166.943 5.49764 166.701 6.09774 166.701 6.81398C166.695 7.14715 166.755 7.47824 166.879 7.78757C167.003 8.09691 167.188 8.37819 167.423 8.61472C167.658 8.85125 167.937 9.03821 168.246 9.1645C168.554 9.29078 168.885 9.35382 169.218 9.34987ZM175.461 1.97451C175.35 1.9774 175.239 1.95741 175.136 1.91579C175.033 1.87416 174.939 1.81179 174.861 1.73253C174.783 1.65734 174.721 1.56703 174.68 1.46717C174.638 1.3673 174.617 1.25998 174.619 1.1518C174.619 0.929182 174.706 0.735597 174.861 0.571055C174.937 0.488588 175.03 0.42345 175.133 0.380034C175.237 0.336618 175.349 0.315942 175.461 0.319407C175.57 0.318086 175.678 0.339819 175.778 0.383187C175.878 0.426554 175.968 0.490572 176.042 0.571055C176.206 0.735597 176.284 0.929182 176.284 1.1518C176.284 1.38409 176.206 1.57767 176.042 1.73253C175.966 1.81032 175.876 1.87191 175.776 1.91352C175.676 1.95513 175.569 1.97588 175.461 1.97451ZM174.841 10.3565V3.27148H176.071V10.3565H174.841ZM177.948 10.3565V0H179.187V10.3565H177.948ZM186.94 3.27148H188.169V10.3565H186.94V9.13693C186.658 9.58745 186.261 9.95481 185.789 10.2014C185.318 10.448 184.79 10.565 184.259 10.5404C183.262 10.5404 182.42 10.1823 181.713 9.46601C181.372 9.11576 181.103 8.70078 180.923 8.24539C180.744 7.78999 180.657 7.30335 180.668 6.81398C180.668 5.76866 181.017 4.89755 181.723 4.17163C182.046 3.8232 182.439 3.54663 182.876 3.35987C183.313 3.17311 183.784 3.08034 184.259 3.08759C184.789 3.06471 185.315 3.18253 185.784 3.42905C186.253 3.67556 186.649 4.04199 186.93 4.49103V3.27148H186.94ZM184.414 9.34987C184.747 9.35382 185.078 9.29078 185.386 9.1645C185.695 9.03821 185.974 8.85125 186.209 8.61472C186.444 8.37819 186.629 8.09691 186.753 7.78757C186.876 7.47824 186.937 7.14715 186.93 6.81398C186.93 6.09774 186.698 5.49764 186.214 5.0137C185.981 4.77323 185.701 4.58369 185.391 4.45707C185.081 4.33045 184.749 4.26951 184.414 4.27809C183.698 4.27809 183.107 4.52007 182.623 5.0137C182.139 5.49764 181.897 6.09774 181.897 6.81398C181.891 7.14715 181.951 7.47824 182.075 7.78757C182.199 8.09691 182.384 8.37819 182.619 8.61472C182.854 8.85125 183.133 9.03821 183.442 9.1645C183.75 9.29078 184.081 9.35382 184.414 9.34987ZM193.948 3.08759C194.945 3.08759 195.787 3.4457 196.484 4.17163C196.828 4.51863 197.099 4.93145 197.28 5.38543C197.461 5.83941 197.549 6.32527 197.539 6.81398C197.548 7.30403 197.46 7.79108 197.279 8.24651C197.098 8.70194 196.827 9.11656 196.484 9.46601C196.159 9.81172 195.766 10.0859 195.329 10.2709C194.892 10.4559 194.422 10.5477 193.948 10.5404C193.417 10.565 192.888 10.448 192.417 10.2014C191.946 9.95481 191.549 9.58745 191.267 9.13693V10.3565H190.037V0.43555H191.267V4.49103C191.549 4.04052 191.946 3.67315 192.417 3.42655C192.888 3.17995 193.417 3.06297 193.948 3.08759ZM193.793 9.34987C194.125 9.35836 194.456 9.29828 194.764 9.17338C195.072 9.04849 195.351 8.86146 195.583 8.62395C196.067 8.14 196.3 7.53023 196.3 6.81398C196.3 6.09774 196.058 5.48797 195.583 5.0137C195.352 4.77397 195.073 4.58483 194.765 4.45822C194.457 4.3316 194.126 4.27027 193.793 4.27809C193.458 4.26951 193.125 4.33045 192.816 4.45707C192.506 4.58369 192.225 4.77323 191.993 5.0137C191.509 5.49764 191.267 6.09774 191.267 6.81398C191.26 7.14798 191.321 7.47987 191.445 7.78985C191.57 8.09984 191.756 8.38157 191.991 8.61824C192.227 8.85491 192.508 9.04166 192.818 9.16736C193.127 9.29306 193.459 9.35513 193.793 9.34987ZM199.01 10.3565V0H200.239V10.3565H199.01ZM202.988 7.37536C203.114 8.01417 203.404 8.49812 203.859 8.85624C204.349 9.21541 204.946 9.39948 205.553 9.37891C206.492 9.37891 207.169 9.03046 207.595 8.34326L208.64 8.93368C208.311 9.45447 207.848 9.87792 207.3 10.1603C206.752 10.4428 206.139 10.574 205.524 10.5404C205.019 10.5589 204.515 10.476 204.043 10.2964C203.571 10.1169 203.14 9.84435 202.775 9.49505C202.429 9.14202 202.157 8.72242 201.978 8.2616C201.798 7.80078 201.714 7.30833 201.73 6.81398C201.709 6.31999 201.791 5.82713 201.971 5.36643C202.15 4.90573 202.423 4.48717 202.772 4.13711C203.121 3.78706 203.539 3.51308 203.999 3.33246C204.46 3.15183 204.952 3.06846 205.446 3.08759C206.482 3.08759 207.324 3.45539 207.982 4.19099C208.374 4.61532 208.663 5.12394 208.828 5.67769C208.992 6.23145 209.028 6.81555 208.931 7.38504H202.988V7.37536ZM205.437 4.24906C204.778 4.24906 204.227 4.44264 203.791 4.81044C203.365 5.17824 203.094 5.68155 202.988 6.301H207.731C207.662 5.70921 207.375 5.16412 206.927 4.77172C206.509 4.42504 205.98 4.23963 205.437 4.24906ZM217.787 4.462H215.9V8.30454C215.9 8.65298 215.967 8.90463 216.093 9.04982C216.238 9.195 216.451 9.27243 216.742 9.28211L217.787 9.25308V10.3565C216.713 10.5017 215.919 10.4146 215.416 10.1048C214.922 9.77574 214.67 9.17565 214.67 8.30454V4.462H213.267V3.27148H214.67V1.6551L215.9 1.2873V3.27148H217.787V4.462ZM224.872 9.46601C224.526 9.81545 224.112 10.0909 223.656 10.2756C223.2 10.4603 222.712 10.5503 222.22 10.5404C221.728 10.5503 221.239 10.4603 220.784 10.2756C220.328 10.0909 219.914 9.81545 219.568 9.46601C219.217 9.12086 218.941 8.70745 218.756 8.25131C218.571 7.79517 218.482 7.30599 218.494 6.81398C218.494 5.75898 218.852 4.87819 219.568 4.16195C219.914 3.81297 220.328 3.53785 220.784 3.35319C221.24 3.16854 221.728 3.07818 222.22 3.08759C222.711 3.07913 223.198 3.16897 223.654 3.35183C224.109 3.53468 224.523 3.80684 224.872 4.15227C225.228 4.49618 225.51 4.91029 225.698 5.36844C225.886 5.82659 225.977 6.3188 225.966 6.81398C225.966 7.85931 225.598 8.74977 224.872 9.46601ZM222.22 9.33051C222.552 9.34025 222.882 9.2817 223.19 9.15849C223.498 9.03527 223.777 8.85003 224.011 8.61427C224.494 8.13032 224.727 7.53023 224.727 6.81398C224.727 6.09774 224.485 5.48797 224.001 5.0137C223.517 4.52975 222.936 4.28778 222.22 4.28778C221.891 4.28195 221.564 4.34332 221.259 4.46814C220.955 4.59296 220.679 4.77859 220.449 5.0137C219.965 5.49764 219.723 6.09774 219.723 6.81398C219.714 7.14533 219.772 7.47511 219.894 7.78333C220.016 8.09154 220.199 8.37178 220.432 8.60708C220.666 8.84237 220.945 9.02781 221.252 9.15216C221.559 9.27651 221.888 9.33719 222.22 9.33051ZM234.493 3.08759C235.325 3.08759 235.983 3.34892 236.487 3.88126C236.99 4.39425 237.242 5.11049 237.242 6.01063V10.3565H236.003V6.07838C236.003 5.49764 235.848 5.05241 235.538 4.74269C235.228 4.42328 234.793 4.25874 234.251 4.25874C233.631 4.25874 233.138 4.45232 232.76 4.83948C232.383 5.22663 232.189 5.80737 232.189 6.60104V10.3565H230.96V0.43555H232.189V4.28778C232.428 3.89715 232.768 3.57898 233.174 3.3675C233.58 3.15602 234.036 3.05925 234.493 3.08759ZM239.826 7.37536C239.952 8.01417 240.242 8.49812 240.697 8.85624C241.187 9.21541 241.784 9.39948 242.391 9.37891C243.33 9.37891 244.007 9.03046 244.433 8.34326L245.488 8.93368C245.158 9.45596 244.694 9.88035 244.144 10.1629C243.594 10.4454 242.979 10.5757 242.362 10.5404C241.857 10.5589 241.354 10.476 240.881 10.2964C240.409 10.1169 239.978 9.84435 239.613 9.49505C239.267 9.14202 238.995 8.72242 238.816 8.2616C238.636 7.80078 238.552 7.30833 238.568 6.81398C238.547 6.31999 238.629 5.82713 238.809 5.36643C238.988 4.90573 239.261 4.48717 239.61 4.13711C239.959 3.78706 240.377 3.51308 240.837 3.33246C241.298 3.15183 241.79 3.06846 242.284 3.08759C243.32 3.08759 244.162 3.45539 244.82 4.19099C245.212 4.61532 245.502 5.12394 245.666 5.67769C245.83 6.23145 245.866 6.81555 245.769 7.38504H239.826V7.37536ZM242.275 4.24906C241.617 4.24906 241.065 4.44264 240.629 4.81044C240.203 5.17824 239.932 5.68155 239.826 6.301H244.569C244.5 5.70921 244.214 5.16412 243.765 4.77172C243.349 4.42722 242.824 4.24195 242.284 4.24906H242.275ZM247.23 10.3468V0.0193547H248.46V10.3662H247.23V10.3468ZM254.257 3.08759C255.244 3.08759 256.096 3.4457 256.793 4.17163C257.136 4.51944 257.405 4.93261 257.584 5.38656C257.764 5.84051 257.85 6.32595 257.838 6.81398C257.849 7.30335 257.763 7.78999 257.583 8.24539C257.404 8.70078 257.135 9.11576 256.793 9.46601C256.468 9.81172 256.075 10.0859 255.639 10.2709C255.202 10.4559 254.731 10.5477 254.257 10.5404C253.726 10.565 253.198 10.448 252.727 10.2014C252.256 9.95481 251.859 9.58745 251.576 9.13693V13.1924H250.347V3.27148H251.576V4.49103C251.859 4.04052 252.256 3.67315 252.727 3.42655C253.198 3.17995 253.726 3.06297 254.257 3.08759ZM254.102 9.34987C254.436 9.35382 254.766 9.29078 255.075 9.1645C255.383 9.03821 255.663 8.85125 255.898 8.61472C256.132 8.37819 256.317 8.09691 256.441 7.78757C256.565 7.47824 256.625 7.14715 256.619 6.81398C256.623 6.47988 256.561 6.14828 256.434 5.83897C256.308 5.52966 256.121 5.24899 255.883 5.0137C255.654 4.77423 255.377 4.58517 255.07 4.45853C254.764 4.33188 254.434 4.27044 254.102 4.27809C253.768 4.26951 253.435 4.33045 253.125 4.45707C252.815 4.58369 252.535 4.77323 252.302 5.0137C251.818 5.49764 251.576 6.09774 251.576 6.81398C251.57 7.14715 251.63 7.47824 251.754 7.78757C251.878 8.09691 252.063 8.37819 252.298 8.61472C252.532 8.85125 252.812 9.03821 253.121 9.1645C253.429 9.29078 253.759 9.35382 254.093 9.34987H254.102ZM267.808 3.27148H269.124L266.23 10.792C265.989 11.5145 265.545 12.1526 264.952 12.631C264.42 13.0472 263.791 13.2408 263.084 13.1924V12.0406C263.956 12.1084 264.594 11.6244 265.001 10.5888L265.127 10.3274L262.029 3.26181H263.355L265.766 8.82721L267.798 3.27148H267.808ZM275.861 9.46601C275.514 9.81545 275.101 10.0909 274.645 10.2756C274.189 10.4603 273.7 10.5503 273.209 10.5404C272.717 10.5503 272.228 10.4603 271.772 10.2756C271.316 10.0909 270.903 9.81545 270.557 9.46601C270.206 9.12086 269.929 8.70745 269.745 8.25131C269.56 7.79517 269.471 7.30599 269.482 6.81398C269.47 6.32136 269.559 5.83145 269.742 5.37395C269.925 4.91644 270.199 4.50088 270.547 4.15244C270.895 3.80401 271.311 3.52996 271.769 3.34692C272.226 3.16387 272.716 3.07565 273.209 3.08759C273.699 3.07913 274.187 3.16897 274.642 3.35183C275.098 3.53468 275.512 3.80684 275.861 4.15227C276.217 4.49618 276.498 4.91029 276.687 5.36844C276.875 5.82659 276.966 6.3188 276.954 6.81398C276.954 7.85931 276.587 8.74977 275.861 9.46601ZM273.209 9.33051C273.539 9.33892 273.867 9.27971 274.173 9.15654C274.479 9.03336 274.757 8.84882 274.99 8.61427C275.473 8.13032 275.715 7.53023 275.715 6.81398C275.715 6.09774 275.473 5.48797 274.99 5.0137C274.506 4.52975 273.925 4.28778 273.209 4.28778C272.88 4.28195 272.553 4.34332 272.248 4.46814C271.944 4.59296 271.668 4.77859 271.437 5.0137C270.953 5.49764 270.711 6.09774 270.711 6.81398C270.702 7.14533 270.76 7.47511 270.882 7.78333C271.004 8.09154 271.188 8.37178 271.421 8.60708C271.655 8.84237 271.933 9.02781 272.241 9.15216C272.548 9.27651 272.877 9.33719 273.209 9.33051ZM283.294 3.27148H284.523V10.3565H283.294V9.33051C283.058 9.72141 282.719 10.0406 282.315 10.2537C281.911 10.4668 281.456 10.5659 281 10.5404C280.168 10.5404 279.5 10.279 278.997 9.76606C278.475 9.1759 278.207 8.40378 278.251 7.61734V3.26181H279.481V7.54959C279.481 8.13032 279.635 8.57555 279.945 8.90463C280.265 9.20468 280.69 9.35954 281.242 9.35954C281.852 9.35954 282.346 9.16596 282.723 8.79816C283.11 8.41101 283.294 7.82059 283.294 7.02692V3.27148ZM295.935 9.46601C295.589 9.81545 295.175 10.0909 294.719 10.2756C294.263 10.4603 293.775 10.5503 293.283 10.5404C292.791 10.5503 292.302 10.4603 291.846 10.2756C291.391 10.0909 290.977 9.81545 290.631 9.46601C290.28 9.12086 290.004 8.70745 289.819 8.25131C289.634 7.79517 289.545 7.30599 289.556 6.81398C289.544 6.32136 289.633 5.83145 289.816 5.37395C289.999 4.91644 290.273 4.50088 290.621 4.15244C290.97 3.80401 291.385 3.52996 291.843 3.34692C292.3 3.16387 292.79 3.07565 293.283 3.08759C293.774 3.07913 294.261 3.16897 294.716 3.35183C295.172 3.53468 295.586 3.80684 295.935 4.15227C296.291 4.49618 296.573 4.91029 296.761 5.36844C296.949 5.82659 297.04 6.3188 297.029 6.81398C297.029 7.85931 296.661 8.74977 295.935 9.46601ZM293.283 9.33051C293.613 9.33892 293.941 9.27971 294.247 9.15654C294.554 9.03336 294.831 8.84882 295.064 8.61427C295.548 8.13032 295.79 7.53023 295.79 6.81398C295.79 6.09774 295.548 5.48797 295.064 5.0137C294.832 4.7774 294.555 4.59106 294.248 4.46621C293.942 4.34135 293.614 4.28062 293.283 4.28778C292.954 4.28195 292.627 4.34332 292.322 4.46814C292.018 4.59296 291.742 4.77859 291.512 5.0137C291.028 5.49764 290.786 6.09774 290.786 6.81398C290.776 7.14533 290.834 7.47511 290.956 7.78333C291.078 8.09154 291.262 8.37178 291.495 8.60708C291.729 8.84237 292.008 9.02781 292.315 9.15216C292.622 9.27651 292.951 9.33719 293.283 9.33051ZM303.368 3.27148H304.597V10.3565H303.368V9.33051C303.132 9.72141 302.793 10.0406 302.389 10.2537C301.985 10.4668 301.53 10.5659 301.074 10.5404C300.242 10.5404 299.574 10.279 299.071 9.76606C298.549 9.1759 298.281 8.40378 298.325 7.61734V3.26181H299.555V7.54959C299.555 8.13032 299.71 8.57555 300.019 8.90463C300.339 9.20468 300.765 9.35954 301.316 9.35954C301.926 9.35954 302.42 9.16596 302.797 8.79816C303.184 8.41101 303.368 7.82059 303.368 7.02692V3.27148ZM310.337 4.462H308.45V8.30454C308.45 8.65298 308.517 8.90463 308.643 9.04982C308.788 9.195 309.001 9.27243 309.282 9.28211L310.337 9.25308V10.3565C309.253 10.5017 308.469 10.4146 307.966 10.1048C307.472 9.77574 307.22 9.17565 307.22 8.30454V4.462H305.817V3.27148H307.22V1.6551L308.45 1.2873V3.27148H310.337V4.462ZM323.733 3.27148H325.02L322.823 10.3565H321.565L319.9 5.11049L318.245 10.3565H316.987L314.789 3.27148H316.077L317.635 8.65299L319.309 3.27148H320.5L322.174 8.67234L323.723 3.27148H323.733ZM326.917 1.97451C326.806 1.9774 326.695 1.95741 326.592 1.91579C326.489 1.87416 326.395 1.81179 326.317 1.73253C326.239 1.65734 326.178 1.56703 326.136 1.46717C326.094 1.3673 326.074 1.25998 326.075 1.1518C326.075 0.929182 326.153 0.735597 326.317 0.571055C326.393 0.488588 326.486 0.42345 326.59 0.380034C326.693 0.336618 326.805 0.315942 326.917 0.319407C327.026 0.318086 327.134 0.339819 327.234 0.383187C327.334 0.426554 327.424 0.490572 327.498 0.571055C327.653 0.735597 327.74 0.929182 327.74 1.1518C327.74 1.38409 327.653 1.57767 327.498 1.73253C327.423 1.81032 327.332 1.87191 327.232 1.91352C327.133 1.95513 327.025 1.97588 326.917 1.97451ZM326.288 10.3565V3.27148H327.527V10.3565H326.288ZM333.257 4.45232H331.379V8.30454C331.379 8.65298 331.437 8.90463 331.573 9.04982C331.718 9.195 331.931 9.27243 332.212 9.28211L333.257 9.25308V10.3565C332.192 10.5017 331.398 10.4146 330.895 10.1048C330.392 9.77574 330.14 9.17565 330.14 8.30454V4.462H328.737V3.27148H330.14V1.6551L331.379 1.2873V3.27148H333.247V4.462L333.257 4.45232ZM338.251 3.08759C339.084 3.08759 339.751 3.34892 340.255 3.88126C340.748 4.39425 341 5.11049 341 6.01063V10.3565H339.771V6.07838C339.771 5.49764 339.616 5.05241 339.296 4.74269C338.987 4.42328 338.561 4.25874 338.009 4.25874C337.399 4.25874 336.896 4.45232 336.519 4.83948C336.141 5.22663 335.957 5.80737 335.957 6.60104V10.3565H334.718V0.43555H335.957V4.28778C336.195 3.89867 336.534 3.58147 336.938 3.37007C337.342 3.15868 337.796 3.06104 338.251 3.08759ZM6.26315 21.6615H7.50206V28.7465H6.27281V27.5269C5.99036 27.9775 5.59326 28.3448 5.12217 28.5914C4.65107 28.838 4.12292 28.955 3.59175 28.9304C2.59482 28.9304 1.75276 28.5723 1.05587 27.856C0.712181 27.5066 0.4418 27.0919 0.260625 26.6365C0.0794504 26.1811 -0.0088592 25.694 0.000869579 25.204C0.000869579 24.1587 0.358987 23.2876 1.05587 22.5616C1.37891 22.2132 1.77161 21.9366 2.2085 21.7499C2.64538 21.5631 3.11668 21.4703 3.59175 21.4776C4.12292 21.453 4.65107 21.57 5.12217 21.8166C5.59326 22.0632 5.99036 22.4305 6.27281 22.881V21.6615H6.26315ZM3.74662 27.7399C4.07983 27.7438 4.41042 27.6808 4.7188 27.5545C5.02717 27.4282 5.30705 27.2413 5.54178 27.0047C5.77651 26.7682 5.9613 26.4869 6.08522 26.1776C6.20914 25.8682 6.26966 25.5372 6.26315 25.204C6.26315 24.4877 6.03084 23.8877 5.54689 23.4037C5.31402 23.1632 5.03379 22.9737 4.72391 22.8471C4.41403 22.7205 4.08126 22.6595 3.74662 22.6681C3.04006 22.6681 2.43996 22.9101 1.9657 23.4037C1.48175 23.8877 1.23977 24.4877 1.23977 25.204C1.23327 25.5372 1.29376 25.8682 1.41768 26.1776C1.5416 26.4869 1.72642 26.7682 1.96115 27.0047C2.19587 27.2413 2.47572 27.4282 2.7841 27.5545C3.09248 27.6808 3.42307 27.7438 3.75628 27.7399H3.74662ZM12.9029 21.4776C13.7353 21.4776 14.4031 21.7389 14.9064 22.2713C15.4001 22.7843 15.6517 23.5005 15.6517 24.4006V28.7465H14.4225V24.4684C14.4225 23.8876 14.2676 23.4424 13.9482 23.1327C13.6385 22.8133 13.2126 22.6487 12.6609 22.6487C12.0512 22.6487 11.5478 22.8423 11.1704 23.2295C10.7929 23.6166 10.609 24.1974 10.609 24.9911V28.7465H9.37009V21.6615H10.609V22.6778C10.8467 22.2887 11.1857 21.9715 11.5898 21.7601C11.9938 21.5487 12.4477 21.451 12.9029 21.4776ZM22.1657 21.6615H23.4917L20.588 29.182C20.3501 29.9038 19.9101 30.5421 19.3201 31.021C18.778 31.4372 18.1586 31.6308 17.452 31.5824V30.4306C18.3231 30.4984 18.9523 30.0144 19.3588 28.9788L19.4943 28.7174L16.397 21.6518H17.723L20.1331 27.2172L22.1657 21.6615ZM28.3699 22.852H26.4922V26.6945C26.4922 27.043 26.5502 27.2946 26.6857 27.4398C26.8309 27.585 27.0438 27.6624 27.3245 27.6721L28.3699 27.6431V28.7465C27.3052 28.8917 26.5115 28.8046 26.0082 28.4948C25.5049 28.1658 25.2533 27.5657 25.2533 26.6945V22.852H23.8498V21.6615H25.2533V20.0451L26.4922 19.6773V21.6615H28.3602V22.852H28.3699ZM33.3642 21.4776C34.1966 21.4776 34.8645 21.7389 35.3581 22.2713C35.8614 22.7843 36.113 23.5005 36.113 24.4006V28.7465H34.8838V24.4684C34.8838 23.8876 34.7289 23.4424 34.4095 23.1327C34.0998 22.8133 33.6739 22.6487 33.1222 22.6487C32.5125 22.6487 32.0092 22.8423 31.6317 23.2295C31.2542 23.6166 31.0703 24.1974 31.0703 24.9911V28.7465H29.8314V18.8256H31.0703V22.6778C31.308 22.2887 31.6471 21.9715 32.0511 21.7601C32.4551 21.5487 32.909 21.451 33.3642 21.4776ZM38.4553 20.3645C38.3457 20.3661 38.2369 20.3454 38.1354 20.3039C38.0339 20.2623 37.9419 20.2006 37.8649 20.1225C37.7871 20.0473 37.7255 19.957 37.6839 19.8572C37.6423 19.7573 37.6216 19.65 37.623 19.5418C37.623 19.3192 37.7004 19.1256 37.8649 18.9611C37.9411 18.8786 38.0341 18.8135 38.1376 18.77C38.2412 18.7266 38.3528 18.7059 38.465 18.7094C38.5741 18.7081 38.6822 18.7298 38.7823 18.7732C38.8824 18.8166 38.9721 18.8806 39.0458 18.9611C39.2006 19.1256 39.278 19.3192 39.278 19.5418C39.278 19.7741 39.2006 19.9677 39.0458 20.1225C38.9706 20.2003 38.8803 20.2619 38.7804 20.3035C38.6805 20.3451 38.5732 20.3659 38.465 20.3645H38.4553ZM37.8359 28.7465V21.6615H39.0651V28.7465H37.8359ZM44.4756 21.4776C45.3177 21.4776 45.9759 21.7389 46.4792 22.2713C46.9825 22.7843 47.2341 23.5005 47.2341 24.4006V28.7465H45.9952V24.4684C45.9952 23.8876 45.8404 23.4424 45.5306 23.1327C45.2209 22.8133 44.7854 22.6487 44.2434 22.6487C43.6239 22.6487 43.1303 22.8423 42.7528 23.2295C42.3656 23.6166 42.1817 24.1974 42.1817 24.9911V28.7465H40.9525V21.6615H42.1817V22.6778C42.4203 22.2872 42.7608 21.969 43.1667 21.7575C43.5726 21.546 44.0285 21.4493 44.4853 21.4776H44.4756ZM54.8321 21.6615H56.0517V28.4464C56.0517 29.4918 55.7032 30.3048 54.987 30.8855C54.2699 31.4709 53.3668 31.7799 52.4414 31.7566C51.7281 31.7794 51.0202 31.6265 50.3798 31.3114C49.7991 31.021 49.3732 30.5952 49.0828 30.0338L50.1572 29.424C50.5443 30.2177 51.3187 30.6145 52.4705 30.6145C53.2061 30.6145 53.7771 30.4209 54.1933 30.0338C54.6192 29.6466 54.8321 29.1143 54.8321 28.4464V27.4398C54.5537 27.891 54.1607 28.2603 53.6932 28.5103C53.2256 28.7602 52.7002 28.8818 52.1704 28.8626C51.691 28.8703 51.2152 28.7779 50.7736 28.5913C50.3319 28.4046 49.9341 28.1278 49.6055 27.7786C49.2656 27.4349 48.998 27.0265 48.8184 26.5777C48.6389 26.1289 48.5511 25.6486 48.5602 25.1653C48.5489 24.6817 48.6357 24.2008 48.8153 23.7516C48.995 23.3025 49.2638 22.8944 49.6055 22.552C49.9349 22.2045 50.3331 21.9295 50.7748 21.7445C51.2164 21.5596 51.6917 21.4686 52.1704 21.4776C53.3319 21.4776 54.2224 21.9422 54.8321 22.881V21.6615ZM50.5153 26.9559C50.9993 27.4398 51.5994 27.6818 52.3156 27.6818C52.6495 27.6912 52.9817 27.6322 53.2919 27.5085C53.6021 27.3847 53.8838 27.1988 54.1195 26.9622C54.3552 26.7256 54.54 26.4433 54.6626 26.1326C54.7851 25.8219 54.8428 25.4894 54.8321 25.1556C54.8405 24.8256 54.7813 24.4973 54.6581 24.1911C54.535 23.8848 54.3504 23.607 54.1159 23.3747C53.6319 22.8907 53.0318 22.6487 52.3156 22.6487C51.9817 22.6389 51.6493 22.6983 51.3395 22.8233C51.0296 22.9482 50.749 23.1359 50.5153 23.3747C50.279 23.6061 50.0927 23.8836 49.9678 24.1899C49.843 24.4962 49.7822 24.8249 49.7894 25.1556C49.7894 25.8815 50.0314 26.4816 50.5153 26.9559ZM67.3373 21.6615H68.5666V28.7465H67.3373V27.5269C67.0549 27.9775 66.6578 28.3448 66.1867 28.5914C65.7156 28.838 65.1874 28.955 64.6563 28.9304C63.669 28.9304 62.8173 28.5723 62.1204 27.856C61.7784 27.5058 61.5098 27.0908 61.3303 26.6354C61.1508 26.18 61.064 25.6934 61.075 25.204C61.075 24.1587 61.4235 23.2876 62.1204 22.5616C62.4434 22.2132 62.8361 21.9366 63.273 21.7499C63.7099 21.5631 64.1812 21.4703 64.6563 21.4776C65.1874 21.453 65.7156 21.57 66.1867 21.8166C66.6578 22.0632 67.0549 22.4305 67.3373 22.881V21.6615ZM64.8208 27.7399C65.154 27.7438 65.4846 27.6808 65.793 27.5545C66.1014 27.4282 66.3812 27.2413 66.6159 27.0047C66.8507 26.7682 67.0355 26.4869 67.1594 26.1776C67.2833 25.8682 67.3438 25.5372 67.3373 25.204C67.3373 24.4877 67.0953 23.8877 66.6114 23.4037C66.3785 23.1632 66.0983 22.9737 65.7884 22.8471C65.4785 22.7205 65.1458 22.6595 64.8111 22.6681C64.1046 22.6681 63.5045 22.9101 63.0302 23.4037C62.5463 23.8877 62.3043 24.4877 62.3043 25.204C62.2978 25.5372 62.3583 25.8682 62.4822 26.1776C62.6061 26.4869 62.7909 26.7682 63.0257 27.0047C63.2604 27.2413 63.5402 27.4282 63.8486 27.5545C64.157 27.6808 64.4876 27.7438 64.8208 27.7399ZM73.9674 21.4776C74.7998 21.4776 75.4677 21.7389 75.971 22.2713C76.4646 22.7843 76.7162 23.5005 76.7162 24.4006V28.7465H75.487V24.4684C75.487 23.8876 75.3322 23.4424 75.0127 23.1327C74.703 22.8133 74.2771 22.6487 73.7254 22.6487C73.1157 22.6487 72.622 22.8423 72.2349 23.2295C71.8574 23.6166 71.6735 24.1974 71.6735 24.9911V28.7465H70.4346V21.6615H71.6735V22.6778C71.9112 22.2887 72.2502 21.9715 72.6543 21.7601C73.0583 21.5487 73.5122 21.451 73.9674 21.4776ZM84.3142 18.8256H85.5434V28.7465H84.3142V27.5269C84.0318 27.9775 83.6347 28.3448 83.1636 28.5914C82.6925 28.838 82.1643 28.955 81.6331 28.9304C80.6362 28.9304 79.7941 28.5723 79.0876 27.856C78.7456 27.5058 78.477 27.0908 78.2975 26.6354C78.118 26.18 78.0312 25.6934 78.0422 25.204C78.0422 24.1587 78.3907 23.2876 79.0973 22.5616C79.4203 22.2132 79.813 21.9366 80.2499 21.7499C80.6868 21.5631 81.1581 21.4703 81.6331 21.4776C82.1627 21.4547 82.6889 21.5725 83.1581 21.8191C83.6273 22.0656 84.0229 22.432 84.3045 22.881V18.8159L84.3142 18.8256ZM81.788 27.7302C82.1219 27.7382 82.454 27.6782 82.7641 27.5541C83.0742 27.43 83.3558 27.2442 83.592 27.008C83.8282 26.7718 84.014 26.4901 84.1381 26.1801C84.2623 25.87 84.3222 25.5379 84.3142 25.204C84.3142 24.4877 84.0722 23.878 83.5883 23.4037C83.3554 23.1632 83.0752 22.9737 82.7653 22.8471C82.4554 22.7205 82.1227 22.6595 81.788 22.6681C81.0814 22.6681 80.4814 22.9101 79.9974 23.4037C79.5135 23.8877 79.2811 24.4877 79.2811 25.204C79.2747 25.5363 79.3349 25.8666 79.4582 26.1753C79.5815 26.484 79.7655 26.7648 79.9991 27.0012C80.2328 27.2376 80.5115 27.4248 80.8188 27.5517C81.126 27.6785 81.4556 27.7425 81.788 27.7399V27.7302ZM91.8251 25.7654C91.9412 26.4042 92.2316 26.8881 92.6865 27.2462C93.1511 27.5947 93.7125 27.7689 94.39 27.7689C95.3192 27.7689 96.0064 27.4205 96.4226 26.7333L97.4776 27.3237C97.1479 27.8445 96.6854 28.2679 96.1375 28.5504C95.5897 28.8328 94.9764 28.964 94.361 28.9304C93.8559 28.9512 93.3519 28.8692 92.8794 28.6896C92.4069 28.5099 91.9758 28.2362 91.6121 27.8851C91.264 27.5328 90.991 27.1136 90.8096 26.6527C90.6283 26.1919 90.5424 25.699 90.5571 25.204C90.5367 24.71 90.6188 24.2171 90.7982 23.7564C90.9777 23.2957 91.2506 22.8772 91.5997 22.5271C91.9489 22.1771 92.3667 21.9031 92.8269 21.7225C93.2871 21.5418 93.7798 21.4585 94.2739 21.4776C95.3095 21.4776 96.1612 21.8454 96.8097 22.581C97.2017 23.0053 97.491 23.5139 97.6555 24.0677C97.8199 24.6215 97.8551 25.2056 97.7583 25.775H91.8251V25.7654ZM94.2739 22.6391C93.606 22.6391 93.064 22.8326 92.6284 23.2004C92.1929 23.5682 91.9219 24.0716 91.8251 24.691H96.5581C96.4965 24.0992 96.2129 23.5527 95.7644 23.1617C95.346 22.815 94.8172 22.6296 94.2739 22.6391ZM103.904 21.6615H105.24L102.404 28.7465H100.952L98.1164 21.6615H99.4521L101.678 27.4301L103.904 21.6615ZM106.866 25.7654C106.992 26.4042 107.282 26.8881 107.737 27.2462C108.227 27.6054 108.824 27.7895 109.431 27.7689C110.37 27.7689 111.047 27.4205 111.473 26.7333L112.528 27.3237C112.198 27.846 111.734 28.2704 111.184 28.5529C110.634 28.8354 110.019 28.9657 109.402 28.9304C108.897 28.9489 108.394 28.866 107.922 28.6864C107.449 28.5069 107.018 28.2344 106.653 27.8851C106.307 27.532 106.036 27.1124 105.856 26.6516C105.676 26.1908 105.592 25.6983 105.608 25.204C105.587 24.71 105.67 24.2171 105.849 23.7564C106.028 23.2957 106.301 22.8772 106.65 22.5271C107 22.1771 107.417 21.9031 107.878 21.7225C108.338 21.5418 108.831 21.4585 109.325 21.4776C110.36 21.4776 111.202 21.8454 111.86 22.581C112.252 23.0053 112.542 23.5139 112.706 24.0677C112.871 24.6215 112.906 25.2056 112.809 25.775H106.866V25.7654ZM109.325 22.6391C108.657 22.6391 108.115 22.8326 107.679 23.2004C107.244 23.5682 106.973 24.0716 106.866 24.691H111.609C111.545 24.0978 111.258 23.5511 110.805 23.1617C110.39 22.8172 109.865 22.632 109.325 22.6391ZM115.5 22.852C115.906 21.9712 116.642 21.526 117.716 21.526V22.823C117.154 22.7822 116.598 22.955 116.158 23.3069C115.722 23.6554 115.5 24.2167 115.5 24.9911V28.7465H114.271V21.6615H115.5V22.852ZM124.017 21.6615H125.343L122.44 29.182C122.201 29.9033 121.761 30.5414 121.172 31.021C120.63 31.4372 120.01 31.6308 119.304 31.5824V30.4306C120.175 30.4984 120.804 30.0144 121.21 28.9788L121.336 28.7174L118.249 21.6518H119.565L121.985 27.2172L124.017 21.6615ZM130.221 22.852H128.344V26.6945C128.344 27.043 128.402 27.2946 128.537 27.4398C128.683 27.585 128.895 27.6624 129.176 27.6721L130.221 27.6431V28.7465C129.147 28.8917 128.353 28.8046 127.86 28.4948C127.357 28.1658 127.105 27.5657 127.105 26.6945V22.852H125.701V21.6615H127.105V20.0451L128.344 19.6773V21.6615H130.221V22.852ZM135.216 21.4776C136.048 21.4776 136.716 21.7389 137.21 22.2713C137.713 22.7843 137.965 23.5005 137.965 24.4006V28.7465H136.735V24.4684C136.735 23.8876 136.571 23.4424 136.261 23.1327C135.951 22.8133 135.526 22.6487 134.974 22.6487C134.364 22.6487 133.861 22.8423 133.483 23.2295C133.106 23.6166 132.922 24.1974 132.922 24.9911V28.7465H131.683V18.8256H132.922V22.6778C133.16 22.2887 133.499 21.9715 133.903 21.7601C134.307 21.5487 134.761 21.451 135.216 21.4776ZM140.307 20.3645C140.197 20.3661 140.088 20.3454 139.987 20.3039C139.886 20.2623 139.794 20.2006 139.717 20.1225C139.639 20.0473 139.577 19.957 139.536 19.8572C139.494 19.7573 139.473 19.65 139.475 19.5418C139.475 19.3192 139.552 19.1256 139.717 18.9611C139.792 18.8798 139.883 18.8154 139.985 18.7721C140.087 18.7287 140.196 18.7073 140.307 18.7094C140.416 18.7081 140.524 18.7298 140.624 18.7732C140.724 18.8166 140.814 18.8806 140.888 18.9611C141.052 19.1256 141.13 19.3192 141.13 19.5418C141.13 19.7741 141.052 19.9677 140.888 20.1225C140.812 20.2003 140.722 20.2619 140.622 20.3035C140.522 20.3451 140.415 20.3659 140.307 20.3645ZM139.687 28.7465V21.6615H140.917V28.7465H139.687ZM146.327 21.4776C147.16 21.4776 147.828 21.7389 148.331 22.2713C148.834 22.7843 149.086 23.5005 149.086 24.4006V28.7465H147.847V24.4684C147.847 23.8876 147.692 23.4424 147.382 23.1327C147.073 22.8133 146.637 22.6487 146.085 22.6487C145.476 22.6487 144.982 22.8423 144.604 23.2295C144.217 23.6166 144.033 24.1974 144.033 24.9911V28.7465H142.804V21.6615H144.033V22.6778C144.271 22.2887 144.61 21.9715 145.014 21.7601C145.418 21.5487 145.872 21.451 146.327 21.4776ZM156.684 21.6615H157.903V28.4464C157.903 29.4918 157.555 30.3048 156.839 30.8855C156.121 31.4709 155.218 31.7799 154.293 31.7566C153.58 31.7794 152.872 31.6265 152.231 31.3114C151.651 31.021 151.225 30.5952 150.934 30.0338L151.999 29.424C152.396 30.2177 153.161 30.6145 154.322 30.6145C155.058 30.6145 155.629 30.4209 156.045 30.0338C156.471 29.6466 156.684 29.1143 156.684 28.4464V27.4398C156.405 27.8903 156.011 28.2591 155.544 28.5089C155.077 28.7588 154.552 28.8808 154.022 28.8626C153.543 28.8703 153.067 28.7779 152.625 28.5913C152.184 28.4046 151.786 28.1278 151.457 27.7786C151.115 27.4357 150.846 27.0277 150.665 26.5788C150.484 26.1299 150.394 25.6493 150.402 25.1653C150.392 24.681 150.48 24.1997 150.662 23.7505C150.843 23.3013 151.114 22.8936 151.457 22.552C151.787 22.2045 152.185 21.9295 152.626 21.7445C153.068 21.5596 153.543 21.4686 154.022 21.4776C155.184 21.4776 156.074 21.9422 156.684 22.881V21.6615ZM152.367 26.9559C152.851 27.4398 153.441 27.6818 154.167 27.6818C154.501 27.6912 154.833 27.6322 155.144 27.5085C155.454 27.3847 155.735 27.1988 155.971 26.9622C156.207 26.7256 156.392 26.4433 156.514 26.1326C156.637 25.8219 156.694 25.4894 156.684 25.1556C156.692 24.8256 156.633 24.4973 156.51 24.1911C156.387 23.8848 156.202 23.607 155.968 23.3747C155.484 22.8907 154.883 22.6487 154.167 22.6487C153.833 22.6389 153.501 22.6983 153.191 22.8233C152.881 22.9482 152.601 23.1359 152.367 23.3747C152.131 23.6061 151.944 23.8836 151.819 24.1899C151.695 24.4962 151.634 24.8249 151.641 25.1556C151.641 25.8815 151.883 26.4816 152.367 26.9559Z" fill="black" fill-opacity="0.53"/>
</svg>
