<svg width="42" height="42" viewBox="0 0 42 42" fill="none" xmlns="http://www.w3.org/2000/svg">
<path d="M20.9988 37.6603C17.7042 37.66 14.4835 36.683 11.744 34.8525C9.00437 33.0219 6.86899 30.42 5.60804 27.3758C4.34708 24.3316 4.01715 20.9818 4.65999 17.75C5.30281 14.5184 6.88952 11.5498 9.2195 9.21984C11.5494 6.88994 14.518 5.30323 17.7497 4.66039C20.9813 4.01757 24.3312 4.34749 27.3753 5.60844C30.4196 6.8694 33.0215 9.00471 34.8522 11.7445C36.6826 14.4839 37.6596 17.7046 37.6599 20.9992C37.6546 25.4164 35.8976 29.6512 32.7741 32.7745C29.6507 35.8979 25.416 37.655 20.9988 37.6603Z" fill="#CB5A4B" stroke="black" stroke-width="1.68"/>
<path d="M17.4999 29.5572C16.5721 29.5535 15.6835 29.1831 15.0279 28.5268C14.3722 27.8705 14.0026 26.9814 13.9999 26.0537V15.9457C13.9999 15.3314 14.1616 14.7278 14.4688 14.1958C14.776 13.6637 15.2179 13.2219 15.7499 12.9147C16.282 12.6075 16.8855 12.4458 17.4999 12.4458C18.1143 12.4458 18.7178 12.6075 19.2499 12.9147L27.9999 17.9687C28.5319 18.2759 28.9737 18.7177 29.2808 19.2498C29.588 19.7819 29.7497 20.3854 29.7497 20.9997C29.7497 21.6141 29.588 22.2176 29.2808 22.7497C28.9737 23.2817 28.5319 23.7236 27.9999 24.0307L19.2499 29.0847C18.7183 29.3935 18.1146 29.5564 17.4999 29.5572Z" fill="white"/>
</svg>
