<svg width="20" height="20" viewBox="0 0 20 20" fill="none" xmlns="http://www.w3.org/2000/svg">
<path d="M17.9687 9.45984L9.53571 2.14064C9.47097 2.08484 9.38838 2.05359 9.30133 2.05359H7.32588C7.16071 2.05359 7.08481 2.25895 7.20981 2.36609L15.0268 9.1518H1.96428C1.86606 9.1518 1.78571 9.23216 1.78571 9.33037V10.6697C1.78571 10.7679 1.86606 10.8482 1.96428 10.8482H15.0245L7.20758 17.6339C7.08258 17.7433 7.15847 17.9464 7.32365 17.9464H9.36606C9.40847 17.9464 9.45088 17.9308 9.48213 17.9018L17.9687 10.5402C18.046 10.473 18.108 10.39 18.1504 10.2968C18.1929 10.2036 18.2149 10.1024 18.2149 10C18.2149 9.89761 18.1929 9.7964 18.1504 9.70322C18.108 9.61003 18.046 9.52703 17.9687 9.45984Z" fill="white"/>
</svg>
