<svg width="28" height="28" viewBox="0 0 28 28" fill="none" xmlns="http://www.w3.org/2000/svg">
<path d="M27 5.94689C26.0438 6.35939 25.0031 6.65626 23.9313 6.77189C25.0441 6.11075 25.8775 5.06626 26.275 3.83439C25.2307 4.4556 24.0867 4.89121 22.8938 5.12189C22.3952 4.58885 21.7921 4.1642 21.1222 3.87441C20.4523 3.58462 19.7299 3.4359 19 3.43751C16.0469 3.43751 13.6719 5.83126 13.6719 8.76876C13.6719 9.18126 13.7219 9.59376 13.8031 9.99064C9.38126 9.75939 5.43751 7.64689 2.81564 4.41251C2.3379 5.2285 2.08755 6.15759 2.09064 7.10314C2.09064 8.95314 3.03126 10.5844 4.46564 11.5438C3.62034 11.5105 2.79483 11.2781 2.05626 10.8656V10.9313C2.05626 13.5219 3.88751 15.6688 6.32814 16.1625C5.86988 16.2815 5.39847 16.3424 4.92501 16.3438C4.57814 16.3438 4.25001 16.3094 3.91876 16.2625C4.59376 18.375 6.55939 19.9094 8.90001 19.9594C7.06876 21.3938 4.77501 22.2375 2.28439 22.2375C1.83751 22.2375 1.42501 22.2219 0.996887 22.1719C3.35939 23.6875 6.16251 24.5625 9.18126 24.5625C18.9813 24.5625 24.3438 16.4438 24.3438 9.39689C24.3438 9.16564 24.3438 8.93439 24.3281 8.70314C25.3656 7.94376 26.275 7.00314 27 5.94689Z" fill="white"/>
</svg>
