<svg width="48" height="40" viewBox="0 0 48 40" fill="none" xmlns="http://www.w3.org/2000/svg">
<g opacity="0.9" clip-path="url(#clip0_1_593)">
<path d="M26.2 18.1902V13.7402L33.99 21.5302L26.2 29.3202V24.7602C22.27 24.6902 18.1 25.8102 15.34 28.7602C14.8 29.1302 13.6 31.2902 14.12 29.6502C15.08 25.3202 17.8 21.1802 21.98 19.3802C23.31 18.7802 24.74 18.4002 26.19 18.1902H26.2Z" fill="white" stroke="black" stroke-opacity="0.15" stroke-width="2"/>
<path d="M26.2 18.1902V13.7402L33.99 21.5302L26.2 29.3202V24.7602C22.27 24.6902 18.1 25.8102 15.34 28.7602C14.8 29.1302 13.6 31.2902 14.12 29.6502C15.08 25.3202 17.8 21.1802 21.98 19.3802C23.31 18.7802 24.74 18.4002 26.19 18.1902H26.2Z" fill="white"/>
</g>
<defs>
<clipPath id="clip0_1_593">
<rect width="48" height="40" fill="white"/>
</clipPath>
</defs>
</svg>
