<svg width="814" height="290" viewBox="0 0 814 290" fill="none" xmlns="http://www.w3.org/2000/svg">
<g clip-path="url(#clip0_1_412)">
<g clip-path="url(#clip1_1_412)">
<g clip-path="url(#clip2_1_412)">
<path d="M462.218 0H46.5306C26.3616 0 10.0114 16.3502 10.0114 36.5192V253.239C10.0114 273.408 26.3616 289.758 46.5306 289.758H462.218C482.387 289.758 498.737 273.408 498.737 253.239V36.5192C498.737 16.3502 482.387 0 462.218 0Z" fill="#F29E7D"/>
<path d="M54.2285 201.305C56.1892 201.305 57.8505 201.961 59.193 203.285C59.8488 203.916 60.3668 204.676 60.7142 205.517C61.0617 206.358 61.231 207.262 61.2117 208.172C61.2117 210.104 60.5355 211.726 59.193 213.05C58.5422 213.698 57.7667 214.208 56.9134 214.548C56.0602 214.888 55.1468 215.052 54.2285 215.03H50.6355V221.752H46.5982V201.305H54.2285ZM54.2285 211.263C55.0881 211.263 55.7932 210.973 56.3534 210.393C56.9329 209.785 57.2033 209.041 57.2033 208.172C57.2033 207.274 56.9232 206.53 56.363 205.95C56.0875 205.664 55.7555 205.438 55.3881 205.287C55.0206 205.136 54.6257 205.062 54.2285 205.072H50.6355V211.263H54.2285ZM73.7872 207.148H77.554V221.752H73.7872V220.033C73.2177 220.738 72.4893 221.298 71.6617 221.667C70.834 222.037 69.9306 222.205 69.0255 222.158C68.0787 222.164 67.1414 221.97 66.2755 221.587C65.4097 221.204 64.6351 220.641 64.003 219.936C62.6237 218.447 61.8788 216.479 61.9264 214.45C61.9264 212.287 62.6218 210.461 64.003 208.983C64.6308 208.271 65.4039 207.702 66.2703 207.314C67.1367 206.925 68.0761 206.727 69.0255 206.733C71.0731 206.733 72.6571 207.448 73.7872 208.867V207.148ZM66.833 217.425C67.2125 217.803 67.6655 218.099 68.1638 218.295C68.6621 218.491 69.1953 218.583 69.7306 218.565C70.8896 218.565 71.8555 218.188 72.6281 217.425C73.4008 216.652 73.7872 215.657 73.7872 214.45C73.7872 213.243 73.4008 212.258 72.6281 211.495C72.2523 211.11 71.8005 210.809 71.3016 210.609C70.8027 210.41 70.2676 210.317 69.7306 210.335C69.1935 210.317 68.6585 210.41 68.1595 210.609C67.6606 210.809 67.2088 211.11 66.833 211.495C66.4512 211.883 66.1532 212.346 65.9572 212.854C65.7611 213.363 65.6713 213.906 65.6933 214.45C65.6933 215.657 66.0796 216.652 66.833 217.425ZM90.4966 207.148H94.5339L89.212 221.752C88.4393 223.858 87.4348 225.374 86.1695 226.311C84.82 227.295 83.1575 227.752 81.4947 227.595V224.08C82.5089 224.099 83.3009 223.887 83.8901 223.433C84.5695 222.872 85.0671 222.122 85.3196 221.279L79.3312 207.138H83.4458L87.2513 216.952L90.4869 207.138L90.4966 207.148ZM114.73 207.148H118.497V221.752H114.73V220.033C114.161 220.738 113.432 221.298 112.605 221.667C111.777 222.037 110.873 222.205 109.968 222.158C109.022 222.164 108.084 221.97 107.218 221.587C106.353 221.204 105.578 220.641 104.946 219.936C103.567 218.447 102.822 216.479 102.869 214.45C102.869 212.287 103.565 210.461 104.946 208.983C105.574 208.271 106.347 207.702 107.213 207.314C108.08 206.925 109.019 206.727 109.968 206.733C112.016 206.733 113.6 207.448 114.73 208.867V207.148ZM107.776 217.425C108.155 217.803 108.608 218.099 109.106 218.296C109.605 218.492 110.138 218.583 110.673 218.565C111.216 218.584 111.757 218.491 112.261 218.29C112.765 218.089 113.222 217.785 113.603 217.398C113.984 217.011 114.279 216.549 114.472 216.042C114.664 215.534 114.749 214.992 114.72 214.45C114.72 213.243 114.334 212.258 113.561 211.495C113.186 211.11 112.734 210.809 112.235 210.609C111.736 210.41 111.201 210.317 110.664 210.335C110.128 210.318 109.595 210.412 109.098 210.611C108.601 210.811 108.151 211.112 107.776 211.495C107.394 211.883 107.096 212.346 106.9 212.854C106.704 213.363 106.614 213.906 106.636 214.45C106.636 215.657 107.022 216.652 107.776 217.425ZM125.277 211.292C125.277 211.678 125.528 212.006 126.04 212.258C126.562 212.489 127.199 212.702 127.933 212.905C128.689 213.084 129.432 213.316 130.155 213.6C130.942 213.897 131.619 214.429 132.094 215.123C132.569 215.818 132.82 216.641 132.811 217.483C132.811 218.99 132.251 220.149 131.121 220.96C129.89 221.795 128.425 222.215 126.939 222.158C123.944 222.158 121.897 220.999 120.805 218.681L124.08 216.845C124.505 218.101 125.461 218.738 126.939 218.738C128.291 218.738 128.967 218.323 128.967 217.483C128.967 217.097 128.696 216.787 128.165 216.556C127.571 216.262 126.946 216.035 126.301 215.88C125.557 215.686 124.823 215.445 124.08 215.145C123.34 214.856 122.686 214.384 122.177 213.774C121.658 213.086 121.392 212.24 121.423 211.379C121.423 209.939 121.945 208.809 122.998 207.998C124.139 207.139 125.54 206.696 126.968 206.742C128.102 206.724 129.221 207.004 130.213 207.554C131.186 208.079 131.989 208.869 132.531 209.833L129.305 211.581C129.116 211.123 128.79 210.734 128.372 210.467C127.953 210.201 127.463 210.071 126.968 210.094C126.485 210.094 126.079 210.2 125.741 210.413C125.432 210.635 125.277 210.925 125.277 211.292ZM152.205 207.138H156.243L150.931 221.752C150.158 223.858 149.153 225.374 147.888 226.311C146.539 227.295 144.876 227.752 143.213 227.595V224.08C144.227 224.099 145.019 223.887 145.609 223.433C146.288 222.872 146.786 222.122 147.038 221.279L141.05 207.138H145.164L148.97 216.952L152.205 207.138ZM169.91 219.936C169.192 220.659 168.335 221.229 167.39 221.611C166.445 221.993 165.433 222.179 164.414 222.158C163.395 222.178 162.383 221.992 161.438 221.61C160.494 221.228 159.636 220.659 158.918 219.936C158.197 219.219 157.628 218.363 157.246 217.42C156.864 216.478 156.677 215.467 156.697 214.45C156.674 213.435 156.86 212.427 157.242 211.487C157.624 210.547 158.195 209.695 158.918 208.983C159.633 208.251 160.491 207.674 161.437 207.287C162.384 206.9 163.401 206.711 164.424 206.733C166.577 206.733 168.413 207.486 169.91 208.983C170.641 209.69 171.219 210.541 171.606 211.481C171.994 212.422 172.182 213.433 172.16 214.45C172.16 216.614 171.407 218.439 169.91 219.946V219.936ZM161.584 217.338C161.953 217.711 162.394 218.005 162.881 218.201C163.368 218.397 163.889 218.491 164.414 218.478C164.942 218.484 165.466 218.384 165.955 218.184C166.443 217.983 166.886 217.685 167.257 217.309C167.627 216.933 167.918 216.486 168.112 215.995C168.306 215.503 168.398 214.978 168.384 214.45C168.399 213.922 168.308 213.397 168.116 212.905C167.923 212.413 167.633 211.965 167.263 211.588C166.894 211.211 166.451 210.913 165.963 210.711C165.475 210.509 164.952 210.407 164.424 210.413C163.892 210.396 163.364 210.49 162.87 210.688C162.377 210.886 161.931 211.184 161.558 211.563C161.186 211.943 160.897 212.395 160.708 212.892C160.52 213.389 160.437 213.919 160.464 214.45C160.464 215.609 160.85 216.575 161.584 217.348V217.338ZM184.446 207.148H188.213V221.752H184.446V220.11C183.538 221.482 182.08 222.158 180.1 222.158C179.361 222.181 178.627 222.05 177.942 221.774C177.256 221.498 176.636 221.083 176.12 220.554C175.087 219.492 174.575 218.004 174.575 216.111V207.148H178.342V215.648C178.342 216.614 178.602 217.367 179.134 217.898C179.417 218.157 179.749 218.357 180.111 218.486C180.472 218.616 180.856 218.672 181.239 218.652C182.205 218.652 182.987 218.362 183.577 217.753C184.156 217.145 184.446 216.237 184.446 215.03V207.148ZM215.421 207.148H219.42L214.784 221.752H211.181L208.496 212.905L205.811 221.752H202.218L197.572 207.148H201.571L204.053 216.111L206.719 207.148H210.283L212.939 216.14L215.421 207.148ZM223.322 205.39C223.018 205.393 222.717 205.335 222.435 205.22C222.154 205.105 221.899 204.935 221.684 204.72C221.469 204.505 221.299 204.25 221.184 203.968C221.069 203.687 221.011 203.386 221.013 203.082C221.013 202.464 221.236 201.923 221.69 201.44C221.9 201.217 222.154 201.039 222.435 200.918C222.717 200.796 223.02 200.734 223.327 200.734C223.633 200.734 223.937 200.796 224.218 200.918C224.5 201.039 224.753 201.217 224.964 201.44C225.19 201.65 225.37 201.904 225.493 202.186C225.616 202.469 225.68 202.774 225.68 203.082C225.68 203.39 225.616 203.695 225.493 203.978C225.37 204.26 225.19 204.514 224.964 204.724C224.751 204.943 224.496 205.117 224.213 205.233C223.931 205.349 223.627 205.406 223.322 205.4V205.39ZM221.458 221.752V207.148H225.225V221.752H221.458ZM232.034 211.292C232.034 211.678 232.285 212.006 232.797 212.258C233.319 212.489 233.956 212.702 234.69 212.905C235.434 213.079 236.168 213.31 236.912 213.6C237.699 213.897 238.376 214.429 238.851 215.123C239.326 215.818 239.576 216.641 239.568 217.483C239.568 218.99 239.007 220.149 237.877 220.96C236.647 221.795 235.181 222.215 233.695 222.158C230.701 222.158 228.653 220.999 227.562 218.681L230.836 216.845C231.261 218.101 232.217 218.738 233.695 218.738C235.047 218.738 235.724 218.323 235.724 217.483C235.724 217.097 235.453 216.787 234.932 216.556C234.331 216.268 233.704 216.041 233.058 215.88C232.314 215.686 231.58 215.445 230.836 215.145C230.097 214.856 229.442 214.384 228.934 213.774C228.415 213.086 228.149 212.24 228.18 211.379C228.18 209.939 228.702 208.809 229.755 207.998C230.898 207.137 232.303 206.694 233.734 206.742C234.865 206.726 235.98 207.005 236.969 207.554C237.942 208.079 238.746 208.869 239.288 209.833L236.062 211.581C235.873 211.124 235.549 210.736 235.133 210.47C234.716 210.204 234.228 210.073 233.734 210.094C233.251 210.094 232.836 210.2 232.498 210.413C232.188 210.635 232.034 210.925 232.034 211.292ZM250.115 206.733C251.718 206.733 253.032 207.274 254.065 208.346C255.108 209.408 255.64 210.896 255.64 212.789V221.752H251.873V213.252C251.873 212.277 251.602 211.533 251.081 211.031C250.802 210.763 250.471 210.554 250.109 210.418C249.747 210.282 249.362 210.221 248.975 210.239C248.009 210.239 247.227 210.548 246.638 211.147C246.058 211.755 245.768 212.654 245.768 213.861V221.752H242.002V201.305H245.768V208.78C246.676 207.419 248.125 206.733 250.115 206.733Z" fill="#141414"/>
</g>
</g>
</g>
<g clip-path="url(#clip3_1_412)">
<mask id="mask0_1_412" style="mask-type:luminance" maskUnits="userSpaceOnUse" x="0" y="0" width="175" height="175">
<path d="M174.143 0H0V174.143H174.143V0Z" fill="white"/>
</mask>
<g mask="url(#mask0_1_412)">
<path d="M87.7165 94.8188L88.3615 147.062" stroke="#1D3A40" stroke-width="0.805556"/>
<path d="M71.5017 54.1892C59.635 57.9366 60.8561 69.5122 64.4876 76.8681C69.0467 86.1034 87.6341 100.587 87.6341 100.587C87.6341 100.587 111.519 86.8862 116.118 77.3196C119.643 69.9873 118.513 57.5756 107.274 53.7055C93.6828 49.0254 88.3596 60.3083 88.3596 60.3083C88.3596 60.3083 80.3862 51.3836 71.5017 54.1892Z" fill="#1D3A40"/>
<path d="M68.9216 53.8668C57.0549 57.6142 58.2761 69.1898 61.9075 76.5458C66.4667 85.781 87.3921 99.4585 87.3921 99.4585C87.3921 99.4585 108.668 85.1965 112.409 77.481C116.47 69.1054 116.057 57.3549 104.694 53.8668C92.9833 50.2723 87.3921 61.1147 87.3921 61.1147C87.3921 61.1147 77.8061 51.0612 68.9216 53.8668Z" fill="#CD7FF5"/>
<path d="M68.9216 53.8668C57.0549 57.6142 58.2761 69.1898 61.9075 76.5458C66.4667 85.781 87.3921 99.4585 87.3921 99.4585C87.3921 99.4585 108.668 85.1965 112.409 77.481C116.47 69.1054 116.057 57.3549 104.694 53.8668C92.9833 50.2723 87.3921 61.1147 87.3921 61.1147C87.3921 61.1147 77.8061 51.0612 68.9216 53.8668Z" stroke="#1D3A40" stroke-width="0.700833"/>
<path d="M105.564 56.6887C105.65 56.6939 104.899 55.2062 104.899 55.2062C104.899 55.2062 103.512 54.2826 103.507 54.3685C103.501 54.4545 104.989 53.7036 104.989 53.7036C104.989 53.7036 105.913 52.3165 105.827 52.3113C105.741 52.3062 106.492 53.7939 106.492 53.7939C106.492 53.7939 107.879 54.7175 107.884 54.6315C107.889 54.5456 106.401 55.2964 106.401 55.2964C106.401 55.2964 105.478 56.6835 105.564 56.6887Z" fill="white"/>
<path d="M105.564 56.6887C105.65 56.6939 104.899 55.2062 104.899 55.2062C104.899 55.2062 103.512 54.2826 103.507 54.3685C103.501 54.4545 104.989 53.7036 104.989 53.7036C104.989 53.7036 105.913 52.3165 105.827 52.3113C105.741 52.3062 106.492 53.7939 106.492 53.7939C106.492 53.7939 107.879 54.7175 107.884 54.6315C107.889 54.5456 106.401 55.2964 106.401 55.2964C106.401 55.2964 105.478 56.6835 105.564 56.6887Z" stroke="#1D3A40" stroke-width="0.292281"/>
<path d="M59.0394 104.876L59.551 146.311" stroke="#1D3A40" stroke-width="0.638893"/>
<path d="M45.7234 72.6531C36.3119 75.6252 37.2804 84.8058 40.1605 90.6398C43.7764 97.9643 58.5181 109.451 58.5181 109.451C58.5181 109.451 77.4609 98.5852 81.1087 90.9979C83.9046 85.1826 83.0081 75.3389 74.0943 72.2694C63.3154 68.5577 59.0935 77.5062 59.0935 77.5062C59.0935 77.5062 52.7698 70.4279 45.7234 72.6531Z" fill="#1D3A40"/>
<path d="M43.6771 72.3971C34.2656 75.3692 35.2341 84.5499 38.1142 90.3839C41.7301 97.7084 58.3261 108.556 58.3261 108.556C58.3261 108.556 75.2003 97.2448 78.1672 91.1256C81.3879 84.4829 81.0604 75.1636 72.048 72.3971C62.7605 69.5463 58.3261 78.1455 58.3261 78.1455C58.3261 78.1455 50.7235 70.172 43.6771 72.3971Z" fill="#57BFA0"/>
<path d="M43.6771 72.3971C34.2656 75.3692 35.2341 84.5499 38.1142 90.3839C41.7301 97.7084 58.3261 108.556 58.3261 108.556C58.3261 108.556 75.2003 97.2448 78.1672 91.1256C81.3879 84.4829 81.0604 75.1636 72.048 72.3971C62.7605 69.5463 58.3261 78.1455 58.3261 78.1455C58.3261 78.1455 50.7235 70.172 43.6771 72.3971Z" stroke="#1D3A40" stroke-width="0.555833"/>
<path d="M37.74 87.5384C37.7878 87.4969 36.6281 87.1022 36.6281 87.1022C36.6281 87.1022 35.4247 87.3311 35.4662 87.3788C35.5077 87.4266 35.9024 86.2669 35.9024 86.2669C35.9024 86.2669 35.6736 85.0635 35.6258 85.105C35.578 85.1465 36.7377 85.5412 36.7377 85.5412C36.7377 85.5412 37.9411 85.3124 37.8996 85.2646C37.8581 85.2168 37.4634 86.3765 37.4634 86.3765C37.4634 86.3765 37.6922 87.58 37.74 87.5384Z" fill="white"/>
<path d="M37.74 87.5384C37.7878 87.4969 36.6281 87.1022 36.6281 87.1022C36.6281 87.1022 35.4247 87.3311 35.4662 87.3788C35.5077 87.4266 35.9024 86.2669 35.9024 86.2669C35.9024 86.2669 35.6736 85.0635 35.6258 85.105C35.578 85.1465 36.7377 85.5412 36.7377 85.5412C36.7377 85.5412 37.9411 85.3124 37.8996 85.2646C37.8581 85.2168 37.4634 86.3765 37.4634 86.3765C37.4634 86.3765 37.6922 87.58 37.74 87.5384Z" stroke="#1D3A40" stroke-width="0.214856"/>
<path d="M111.635 97.1439L111.982 125.247" stroke="#1D3A40" stroke-width="0.433337"/>
<path d="M102.614 75.2875C96.2308 77.3033 96.8877 83.5302 98.8412 87.4872C101.294 92.4551 111.292 100.246 111.292 100.246C111.292 100.246 124.141 92.8762 126.615 87.7301C128.511 83.7858 127.903 77.1091 121.857 75.0273C114.546 72.5097 111.683 78.5791 111.683 78.5791C111.683 78.5791 107.394 73.7782 102.614 75.2875Z" fill="#1D3A40"/>
<path d="M101.226 75.1145C94.843 77.1304 95.4999 83.3572 97.4534 87.3142C99.9059 92.2822 111.162 99.6397 111.162 99.6397C111.162 99.6397 122.607 91.9677 124.62 87.8173C126.804 83.3118 126.582 76.9909 120.469 75.1145C114.17 73.1809 111.162 79.0134 111.162 79.0134C111.162 79.0134 106.006 73.6053 101.226 75.1145Z" fill="white"/>
<path d="M101.226 75.1145C94.843 77.1304 95.4999 83.3572 97.4534 87.3142C99.9059 92.2822 111.162 99.6397 111.162 99.6397C111.162 99.6397 122.607 91.9677 124.62 87.8173C126.804 83.3118 126.582 76.9909 120.469 75.1145C114.17 73.1809 111.162 79.0134 111.162 79.0134C111.162 79.0134 106.006 73.6053 101.226 75.1145Z" stroke="#1D3A40" stroke-width="0.377"/>
<path d="M103.254 92.8835C103.243 92.8638 103.02 93.2388 103.02 93.2388C103.02 93.2388 103.012 93.6747 103.032 93.6637C103.051 93.6528 102.676 93.4303 102.676 93.4303C102.676 93.4303 102.24 93.4217 102.251 93.4414C102.262 93.4611 102.485 93.0861 102.485 93.0861C102.485 93.0861 102.493 92.6502 102.474 92.6612C102.454 92.6721 102.829 92.8946 102.829 92.8946C102.829 92.8946 103.265 92.9032 103.254 92.8835Z" fill="white"/>
<path d="M103.254 92.8835C103.243 92.8638 103.02 93.2388 103.02 93.2388C103.02 93.2388 103.012 93.6747 103.032 93.6637C103.051 93.6528 102.676 93.4303 102.676 93.4303C102.676 93.4303 102.24 93.4217 102.251 93.4414C102.262 93.4611 102.485 93.0861 102.485 93.0861C102.485 93.0861 102.493 92.6502 102.474 92.6612C102.454 92.6721 102.829 92.8946 102.829 92.8946C102.829 92.8946 103.265 92.9032 103.254 92.8835Z" stroke="#1D3A40" stroke-width="0.0764735"/>
</g>
</g>
<g clip-path="url(#clip4_1_412)">
<g clip-path="url(#clip5_1_412)">
<g clip-path="url(#clip6_1_412)">
<path d="M767.416 0.000977367H555.313C535.124 0.000977367 518.757 16.3676 518.757 36.5568V251.56C518.757 271.75 535.124 288.116 555.313 288.116H767.416C787.605 288.116 803.972 271.75 803.972 251.56V36.5568C803.972 16.3676 787.605 0.000977367 767.416 0.000977367Z" fill="white"/>
<path d="M551.271 99.5459V93.5226L565.261 79.1361C568.384 75.8586 569.941 73.1321 569.941 70.9471C569.971 70.2407 569.854 69.5358 569.597 68.8771C569.341 68.2183 568.95 67.62 568.45 67.1201C567.95 66.6202 567.352 66.2295 566.693 65.973C566.035 65.7164 565.33 65.5994 564.623 65.6295C561.539 65.6295 559.257 67.2248 557.778 70.425L550.991 66.4417C552.15 63.7849 554.089 61.5428 556.55 60.0122C558.967 58.533 561.617 57.7885 564.498 57.7885C568.007 57.7135 571.416 58.9671 574.04 61.2981C576.689 63.5992 578.004 66.7124 578.004 70.657C578.004 74.9111 575.771 79.2715 571.285 83.7576L563.27 91.7726H578.652V99.5459H551.291H551.271ZM611.379 85.1015V92.5847H607V99.5459H598.868V92.5847H579.493V85.1015L593.125 58.6103H601.779L588.214 85.1015H598.849V75.3945H606.99V85.1015H611.37H611.379ZM627.071 74.3407C626.146 75.2468 625.047 75.957 623.841 76.4288C622.635 76.9006 621.346 77.1243 620.052 77.0865C617.248 77.0865 614.889 76.1486 612.975 74.2827C612.064 73.3938 611.346 72.3278 610.864 71.1505C610.381 69.9732 610.146 68.7095 610.171 67.4375C610.171 64.7497 611.109 62.468 612.975 60.5923C613.905 59.6727 615.011 58.9503 616.227 58.4685C617.443 57.9867 618.744 57.7555 620.052 57.7885C622.856 57.7885 625.205 58.7264 627.071 60.5923C627.987 61.4766 628.71 62.5418 629.192 63.7202C629.675 64.8986 629.907 66.1645 629.875 67.4375C629.904 68.7187 629.67 69.9922 629.188 71.1795C628.706 72.3668 627.985 73.4426 627.071 74.3407ZM614.309 93.3485L640.984 63.6959L644.551 65.6875L617.818 95.3982L614.309 93.3485ZM617.354 70.1253C617.697 70.4725 618.107 70.746 618.559 70.9288C619.011 71.1117 619.496 71.2002 619.984 71.1888C620.478 71.2041 620.969 71.117 621.427 70.933C621.886 70.7489 622.301 70.472 622.647 70.1196C622.993 69.7672 623.262 69.347 623.438 68.8854C623.614 68.4238 623.692 67.9308 623.668 67.4375C623.682 66.9506 623.597 66.4658 623.418 66.0129C623.239 65.56 622.969 65.1485 622.625 64.8036C622.281 64.4587 621.87 64.1877 621.418 64.0072C620.965 63.8267 620.481 63.7405 619.994 63.7539C618.93 63.7539 618.06 64.1019 617.354 64.8077C616.688 65.5181 616.33 66.4637 616.358 67.4375C616.358 68.4913 616.687 69.3905 617.354 70.1253ZM646.833 97.4382C645.916 98.3599 644.821 99.0841 643.613 99.5663C642.406 100.049 641.113 100.278 639.814 100.242C637.01 100.242 634.67 99.3139 632.795 97.4382C631.885 96.5505 631.168 95.486 630.686 94.3105C630.203 93.1349 629.967 91.8731 629.991 90.6027C629.991 87.9053 630.929 85.6236 632.795 83.7576C633.711 82.8359 634.807 82.1117 636.014 81.6295C637.221 81.1473 638.514 80.9173 639.814 80.9538C642.618 80.9538 644.957 81.8819 646.833 83.7576C647.743 84.6465 648.462 85.7125 648.944 86.8898C649.426 88.0671 649.662 89.3307 649.637 90.6027C649.637 93.2905 648.699 95.5722 646.833 97.4382ZM637.184 93.2809C637.527 93.6281 637.937 93.9015 638.389 94.0844C638.841 94.2673 639.326 94.3558 639.814 94.3444C640.298 94.36 640.779 94.2684 641.224 94.0762C641.669 93.8839 642.065 93.5959 642.385 93.2325C642.726 92.8851 642.994 92.474 643.175 92.0227C643.355 91.5714 643.445 91.0889 643.439 90.6027C643.439 89.5392 643.091 88.6691 642.385 87.9633C642.065 87.5999 641.669 87.3119 641.224 87.1196C640.779 86.9274 640.298 86.8358 639.814 86.8514C638.76 86.8514 637.88 87.2285 637.184 87.9633C636.853 88.3162 636.594 88.731 636.423 89.1839C636.252 89.6368 636.173 90.1189 636.188 90.6027C636.188 91.6469 636.517 92.5461 637.184 93.2905V93.2809ZM551.61 139.225H553.998V157.14H551.61V139.234V139.225ZM563.212 144.02C564.71 144.02 565.919 144.503 566.818 145.451C567.727 146.389 568.172 147.675 568.172 149.289V157.15H565.948V149.415C565.948 148.38 565.658 147.578 565.107 147.017C564.8 146.719 564.434 146.487 564.033 146.338C563.632 146.188 563.204 146.123 562.777 146.147C562.281 146.125 561.786 146.207 561.323 146.386C560.86 146.566 560.44 146.84 560.089 147.191C559.412 147.868 559.064 148.932 559.064 150.362V157.14H556.84V144.349H559.064V146.186C559.494 145.483 560.107 144.91 560.838 144.528C561.568 144.147 562.389 143.971 563.212 144.02ZM576.525 157.478C575.634 157.507 574.746 157.352 573.917 157.024C573.088 156.695 572.335 156.201 571.704 155.57C571.074 154.94 570.579 154.186 570.251 153.357C569.922 152.528 569.768 151.641 569.796 150.749C569.796 148.835 570.434 147.24 571.72 145.963C572.344 145.326 573.093 144.825 573.92 144.49C574.746 144.156 575.633 143.996 576.525 144.02C577.782 144.02 578.923 144.329 579.928 144.939C580.907 145.506 581.692 146.355 582.181 147.375L580.315 148.438C579.988 147.755 579.462 147.185 578.807 146.805C578.119 146.39 577.328 146.179 576.525 146.195C575.249 146.195 574.176 146.631 573.305 147.501C572.883 147.927 572.551 148.435 572.33 148.993C572.109 149.552 572.004 150.149 572.02 150.749C572.005 151.346 572.112 151.939 572.333 152.493C572.554 153.047 572.885 153.551 573.306 153.974C573.727 154.397 574.229 154.73 574.782 154.953C575.336 155.177 575.928 155.286 576.525 155.274C577.315 155.315 578.101 155.127 578.787 154.733C579.473 154.338 580.03 153.754 580.392 153.05L582.287 154.152C581.736 155.161 580.921 156 579.928 156.579C578.896 157.18 577.72 157.491 576.525 157.478ZM585.971 146.505C586.696 144.91 588.03 144.117 589.954 144.117V146.447C588.944 146.375 587.943 146.686 587.15 147.317C586.358 147.955 585.971 148.961 585.971 150.362V157.14H583.747V144.349H585.971V146.495V146.505ZM592.226 151.774C592.449 152.915 592.971 153.804 593.793 154.433C594.624 155.061 595.649 155.38 596.857 155.38C598.549 155.38 599.777 154.752 600.541 153.514L602.436 154.578C601.199 156.512 599.313 157.478 596.809 157.478C595.897 157.513 594.988 157.363 594.136 157.038C593.283 156.712 592.506 156.217 591.849 155.583C591.223 154.947 590.732 154.191 590.407 153.36C590.081 152.529 589.927 151.641 589.954 150.749C589.915 149.857 590.061 148.967 590.383 148.135C590.705 147.303 591.197 146.546 591.827 145.914C592.457 145.281 593.211 144.786 594.042 144.46C594.873 144.134 595.763 143.984 596.654 144.02C598.53 144.02 600.058 144.687 601.237 146.012C601.943 146.778 602.465 147.696 602.761 148.694C603.058 149.693 603.122 150.747 602.948 151.774H592.236H592.226ZM596.654 146.118C595.572 146.078 594.514 146.444 593.686 147.143C592.892 147.833 592.376 148.788 592.236 149.831H600.773C600.663 148.761 600.151 147.773 599.342 147.066C598.588 146.438 597.635 146.102 596.654 146.118ZM615.392 144.349H617.615V157.14H615.392V154.945C614.882 155.757 614.166 156.419 613.316 156.864C612.467 157.309 611.515 157.521 610.557 157.478C609.7 157.491 608.85 157.325 608.061 156.99C607.272 156.656 606.561 156.16 605.975 155.535C605.357 154.903 604.871 154.155 604.545 153.333C604.22 152.511 604.062 151.633 604.08 150.749C604.08 148.874 604.708 147.288 605.975 145.992C606.556 145.361 607.264 144.86 608.052 144.52C608.839 144.18 609.69 144.01 610.548 144.02C612.675 144.02 614.28 144.861 615.382 146.553V144.349H615.392ZM610.828 155.332C611.431 155.34 612.029 155.227 612.587 154.999C613.145 154.771 613.651 154.433 614.076 154.005C614.501 153.578 614.835 153.069 615.06 152.51C615.284 151.951 615.394 151.352 615.382 150.749C615.382 149.454 614.957 148.371 614.086 147.501C613.665 147.064 613.158 146.721 612.598 146.491C612.037 146.261 611.434 146.151 610.828 146.166C609.552 146.166 608.479 146.611 607.609 147.501C606.738 148.371 606.303 149.454 606.303 150.749C606.292 151.349 606.4 151.946 606.623 152.503C606.846 153.061 607.177 153.568 607.599 153.995C608.021 154.422 608.524 154.76 609.078 154.99C609.633 155.22 610.228 155.336 610.828 155.332ZM622.111 147.81C622.111 148.293 622.362 148.7 622.856 149.009C623.349 149.299 623.948 149.541 624.644 149.724C625.35 149.898 626.046 150.101 626.742 150.333C627.448 150.556 628.038 150.952 628.54 151.513C629.024 152.064 629.275 152.77 629.275 153.64C629.275 154.8 628.821 155.728 627.922 156.424C626.933 157.159 625.721 157.532 624.489 157.478C623.37 157.512 622.263 157.227 621.299 156.657C620.449 156.155 619.784 155.392 619.404 154.481L621.318 153.389C621.521 153.998 621.908 154.481 622.478 154.839C623.039 155.197 623.706 155.38 624.489 155.38C625.224 155.38 625.833 155.245 626.307 154.974C626.791 154.684 627.023 154.239 627.023 153.64C627.023 153.147 626.781 152.751 626.288 152.461C625.73 152.128 625.123 151.887 624.489 151.745C623.793 151.552 623.097 151.349 622.391 151.107C621.704 150.874 621.088 150.468 620.603 149.927C620.095 149.349 619.829 148.598 619.858 147.829C619.858 146.718 620.284 145.809 621.144 145.093C622.065 144.36 623.217 143.979 624.393 144.02C625.427 144.02 626.355 144.262 627.158 144.736C627.956 145.178 628.598 145.857 628.995 146.679L627.129 147.733C626.665 146.64 625.756 146.089 624.393 146.089C623.755 146.089 623.223 146.244 622.778 146.553C622.333 146.843 622.111 147.259 622.111 147.81ZM632.359 151.774C632.582 152.915 633.094 153.804 633.916 154.433C634.757 155.061 635.772 155.38 636.991 155.38C638.673 155.38 639.901 154.752 640.665 153.514L642.569 154.578C641.312 156.512 639.446 157.478 636.933 157.478C636.021 157.513 635.111 157.363 634.259 157.038C633.407 156.712 632.629 156.217 631.973 155.583C631.347 154.947 630.856 154.191 630.53 153.36C630.204 152.529 630.051 151.641 630.078 150.749C630.038 149.857 630.184 148.967 630.507 148.135C630.829 147.303 631.321 146.546 631.95 145.914C632.58 145.281 633.334 144.786 634.165 144.46C634.996 144.134 635.886 143.984 636.778 144.02C638.663 144.02 640.191 144.687 641.361 146.012C642.068 146.777 642.592 147.694 642.89 148.693C643.188 149.692 643.254 150.746 643.082 151.774H632.35H632.359ZM636.788 146.118C635.705 146.078 634.647 146.444 633.819 147.143C633.021 147.831 632.502 148.787 632.359 149.831H640.906C640.792 148.76 640.278 147.772 639.466 147.066C638.714 146.441 637.765 146.105 636.788 146.118ZM651.696 142.019C651.498 142.022 651.302 141.986 651.119 141.911C650.936 141.836 650.771 141.725 650.633 141.584C650.342 141.294 650.188 140.946 650.188 140.539C650.188 140.124 650.333 139.776 650.623 139.486C650.913 139.186 651.271 139.031 651.706 139.031C652.112 139.031 652.46 139.186 652.75 139.486C653.04 139.776 653.185 140.124 653.185 140.539C653.185 140.946 653.04 141.294 652.75 141.584C652.46 141.874 652.112 142.019 651.696 142.019ZM650.575 157.15V144.349H652.798V157.14H650.575V157.15ZM661.799 144.02C663.308 144.02 664.507 144.503 665.406 145.451C666.314 146.389 666.759 147.675 666.759 149.289V157.15H664.536V149.415C664.536 148.38 664.255 147.578 663.694 147.017C663.388 146.72 663.024 146.489 662.625 146.34C662.226 146.19 661.8 146.124 661.374 146.147C660.252 146.147 659.363 146.495 658.677 147.191C658 147.868 657.652 148.932 657.652 150.362V157.14H655.428V144.349H657.652V146.186C658.082 145.481 658.697 144.907 659.43 144.525C660.162 144.144 660.985 143.969 661.809 144.02H661.799ZM557.401 190.351C556.51 190.379 555.622 190.224 554.793 189.896C553.964 189.568 553.211 189.073 552.58 188.442C551.95 187.812 551.455 187.059 551.127 186.23C550.799 185.4 550.644 184.513 550.672 183.621C550.672 181.707 551.31 180.112 552.586 178.836C553.211 178.197 553.962 177.695 554.791 177.36C555.619 177.026 556.508 176.867 557.401 176.892C558.658 176.892 559.799 177.202 560.804 177.811C561.783 178.378 562.568 179.227 563.057 180.247L561.181 181.311C560.854 180.627 560.329 180.057 559.673 179.677C558.988 179.264 558.201 179.053 557.401 179.068C556.115 179.068 555.042 179.503 554.172 180.373C553.751 180.8 553.421 181.308 553.202 181.867C552.983 182.425 552.878 183.022 552.896 183.621C552.881 184.218 552.988 184.811 553.209 185.365C553.43 185.92 553.761 186.423 554.182 186.846C554.603 187.269 555.105 187.602 555.658 187.826C556.212 188.049 556.805 188.158 557.401 188.146C558.252 188.146 559.016 187.953 559.702 187.566C560.379 187.15 560.901 186.599 561.259 185.922L563.154 187.025C562.606 188.032 561.794 188.871 560.804 189.451C559.772 190.052 558.596 190.363 557.401 190.351ZM575.21 188.407C574.585 189.037 573.838 189.533 573.016 189.865C572.193 190.197 571.311 190.359 570.424 190.341C569.537 190.359 568.656 190.197 567.833 189.865C567.01 189.533 566.264 189.037 565.639 188.407C565.005 187.784 564.506 187.038 564.172 186.215C563.837 185.392 563.675 184.51 563.695 183.621C563.695 181.726 564.343 180.141 565.639 178.836C566.263 178.204 567.009 177.707 567.832 177.373C568.655 177.039 569.537 176.875 570.424 176.892C571.312 176.876 572.194 177.04 573.016 177.374C573.839 177.708 574.585 178.205 575.21 178.836C575.851 179.454 576.357 180.199 576.697 181.022C577.036 181.846 577.202 182.731 577.182 183.621C577.2 184.512 577.034 185.396 576.695 186.22C576.356 187.043 575.85 187.788 575.21 188.407ZM570.424 188.175C571.701 188.175 572.774 187.74 573.644 186.87C574.514 186 574.949 184.917 574.949 183.621C574.949 182.326 574.514 181.243 573.644 180.373C573.225 179.947 572.723 179.612 572.169 179.387C571.615 179.163 571.022 179.054 570.424 179.068C569.167 179.068 568.104 179.503 567.234 180.373C566.364 181.243 565.919 182.326 565.919 183.621C565.919 184.917 566.354 186 567.224 186.87C568.094 187.74 569.158 188.175 570.415 188.175H570.424ZM585.41 176.892C586.909 176.892 588.117 177.376 589.016 178.323C589.916 179.261 590.37 180.547 590.37 182.162V190.022H588.146V182.287C588.146 181.253 587.856 180.45 587.296 179.889C586.99 179.592 586.626 179.362 586.226 179.212C585.827 179.062 585.401 178.997 584.975 179.019C584.479 178.997 583.984 179.079 583.521 179.259C583.059 179.438 582.638 179.712 582.287 180.063C581.611 180.74 581.263 181.804 581.263 183.235V190.012H579.039V177.221H581.263V179.058C581.692 178.355 582.306 177.782 583.036 177.4C583.767 177.019 584.587 176.843 585.41 176.892ZM601.489 177.221H603.906L598.781 190.012H596.171L591.047 177.221H593.464L597.476 187.634L601.489 177.221ZM606.071 184.646C606.294 185.787 606.816 186.677 607.638 187.305C608.469 187.933 609.494 188.253 610.702 188.253C612.394 188.253 613.622 187.624 614.386 186.387L616.281 187.45C615.034 189.384 613.158 190.351 610.654 190.351C609.741 190.387 608.83 190.237 607.975 189.912C607.121 189.586 606.342 189.091 605.685 188.456C605.06 187.819 604.571 187.062 604.247 186.231C603.923 185.401 603.771 184.513 603.799 183.621C603.76 182.73 603.906 181.839 604.228 181.007C604.55 180.175 605.042 179.418 605.672 178.786C606.302 178.153 607.056 177.658 607.887 177.332C608.718 177.006 609.608 176.857 610.499 176.892C612.375 176.892 613.903 177.559 615.082 178.884C615.788 179.65 616.31 180.568 616.606 181.567C616.903 182.565 616.967 183.619 616.793 184.646H606.071ZM610.499 178.99C609.417 178.951 608.359 179.316 607.531 180.015C606.737 180.705 606.221 181.66 606.081 182.703H614.618C614.508 181.634 613.996 180.646 613.187 179.938C612.433 179.311 611.48 178.975 610.499 178.99ZM620.893 179.377C621.618 177.782 622.952 176.989 624.876 176.989V179.319C623.866 179.247 622.865 179.558 622.072 180.189C621.28 180.827 620.893 181.833 620.893 183.235V190.012H618.669V177.221H620.893V179.367V179.377ZM627.738 180.673C627.738 181.175 627.98 181.572 628.482 181.881C628.966 182.171 629.565 182.413 630.271 182.597C630.967 182.771 631.663 182.974 632.369 183.206C633.062 183.427 633.681 183.835 634.158 184.385C634.651 184.936 634.902 185.642 634.902 186.512C634.902 187.672 634.448 188.601 633.549 189.297C632.56 190.032 631.348 190.404 630.116 190.351C628.994 190.382 627.885 190.098 626.916 189.529C626.066 189.027 625.402 188.264 625.021 187.353L626.945 186.261C627.139 186.87 627.525 187.353 628.096 187.711C628.703 188.084 629.405 188.272 630.116 188.253C630.851 188.253 631.451 188.117 631.934 187.846C632.417 187.556 632.649 187.112 632.649 186.512C632.649 186.019 632.398 185.623 631.905 185.333C631.35 185.001 630.747 184.76 630.116 184.617C629.41 184.428 628.71 184.215 628.018 183.979C627.331 183.747 626.714 183.34 626.23 182.8C625.721 182.222 625.455 181.471 625.485 180.702C625.485 179.59 625.911 178.681 626.762 177.965C627.682 177.232 628.834 176.852 630.01 176.892C631.054 176.892 631.973 177.134 632.775 177.608C633.574 178.05 634.216 178.729 634.612 179.551L632.746 180.605C632.292 179.512 631.373 178.961 630.01 178.961C629.382 178.961 628.85 179.116 628.405 179.425C627.96 179.715 627.728 180.131 627.728 180.682L627.738 180.673ZM637.774 174.891C637.339 174.891 636.981 174.746 636.691 174.456C636.401 174.166 636.256 173.818 636.256 173.412C636.256 172.996 636.401 172.648 636.691 172.358C636.981 172.058 637.339 171.903 637.764 171.903C638.18 171.903 638.528 172.058 638.818 172.358C639.108 172.648 639.253 172.996 639.253 173.412C639.253 173.818 639.108 174.166 638.818 174.456C638.528 174.746 638.18 174.891 637.764 174.891H637.774ZM636.643 190.022V177.221H638.866V190.012H636.643V190.022ZM652.295 188.407C651.67 189.037 650.924 189.533 650.101 189.865C649.278 190.197 648.397 190.359 647.51 190.341C646.623 190.359 645.741 190.197 644.918 189.865C644.096 189.533 643.349 189.037 642.724 188.407C642.092 187.784 641.595 187.037 641.262 186.214C640.93 185.391 640.769 184.509 640.79 183.621C640.79 181.726 641.428 180.141 642.724 178.836C643.348 178.204 644.095 177.707 644.917 177.373C645.74 177.039 646.622 176.875 647.51 176.892C649.385 176.892 650.99 177.54 652.295 178.836C652.937 179.454 653.443 180.199 653.782 181.022C654.122 181.846 654.287 182.731 654.268 183.621C654.286 184.512 654.12 185.396 653.78 186.22C653.441 187.043 652.936 187.788 652.295 188.407ZM647.51 188.175C648.786 188.175 649.869 187.74 650.739 186.87C651.609 186 652.044 184.917 652.044 183.621C652.044 182.326 651.609 181.243 650.739 180.373C650.319 179.946 649.815 179.61 649.26 179.385C648.704 179.161 648.109 179.053 647.51 179.068C646.253 179.068 645.189 179.503 644.319 180.373C643.449 181.243 643.004 182.326 643.004 183.621C643.004 184.917 643.439 186 644.309 186.87C645.18 187.74 646.243 188.175 647.51 188.175ZM662.496 176.892C663.994 176.892 665.203 177.376 666.102 178.323C667.011 179.261 667.455 180.547 667.455 182.162V190.022H665.232V182.287C665.232 181.253 664.942 180.45 664.391 179.889C664.083 179.591 663.718 179.36 663.317 179.21C662.916 179.06 662.488 178.995 662.06 179.019C661.565 178.997 661.069 179.079 660.607 179.259C660.144 179.438 659.724 179.712 659.373 180.063C658.696 180.74 658.348 181.804 658.348 183.235V190.012H656.124V177.221H658.348V179.058C658.778 178.355 659.391 177.782 660.121 177.4C660.852 177.019 661.673 176.843 662.496 176.892ZM671.719 180.673C671.719 181.175 671.961 181.572 672.464 181.881C672.947 182.171 673.556 182.413 674.252 182.597C674.948 182.771 675.644 182.974 676.35 183.206C677.043 183.427 677.662 183.835 678.139 184.385C678.632 184.936 678.883 185.642 678.883 186.512C678.883 187.672 678.429 188.601 677.53 189.297C676.541 190.032 675.329 190.404 674.097 190.351C672.978 190.381 671.873 190.096 670.907 189.529C670.053 189.029 669.385 188.265 669.002 187.353L670.926 186.261C671.12 186.87 671.506 187.353 672.077 187.711C672.684 188.084 673.386 188.272 674.097 188.253C674.832 188.253 675.432 188.117 675.915 187.846C676.399 187.556 676.631 187.112 676.631 186.512C676.631 186.019 676.379 185.623 675.886 185.333C675.331 185.001 674.728 184.76 674.097 184.617C673.401 184.424 672.696 184.221 671.999 183.979C671.312 183.747 670.695 183.34 670.211 182.8C669.703 182.222 669.436 181.471 669.466 180.702C669.466 179.59 669.892 178.681 670.743 177.965C671.663 177.232 672.815 176.852 673.991 176.892C675.035 176.892 675.954 177.134 676.756 177.608C677.555 178.05 678.197 178.729 678.593 179.551L676.737 180.605C676.273 179.512 675.354 178.961 673.991 178.961C673.363 178.961 672.831 179.116 672.386 179.425C671.941 179.715 671.709 180.131 671.709 180.682L671.719 180.673ZM695.213 177.221H697.437V190.012H695.213V188.175C694.784 188.882 694.169 189.458 693.437 189.841C692.704 190.224 691.881 190.401 691.056 190.351C690.391 190.38 689.727 190.27 689.108 190.026C688.488 189.783 687.926 189.413 687.459 188.939C686.517 187.878 686.031 186.489 686.106 185.072V177.221H688.329V184.956C688.329 185.99 688.61 186.793 689.17 187.373C689.731 187.953 690.505 188.224 691.491 188.224C692.603 188.224 693.502 187.885 694.179 187.199C694.865 186.503 695.203 185.439 695.203 184.008V177.221H695.213ZM701.952 180.673C701.952 181.175 702.194 181.572 702.687 181.881C703.189 182.171 703.779 182.413 704.485 182.597C705.181 182.771 705.877 182.974 706.583 183.206C707.276 183.427 707.895 183.835 708.372 184.385C708.865 184.936 709.116 185.642 709.116 186.512C709.116 187.672 708.662 188.601 707.762 189.297C706.773 190.032 705.561 190.404 704.33 190.351C703.208 190.382 702.099 190.098 701.13 189.529C700.28 189.027 699.615 188.264 699.235 187.353L701.159 186.261C701.352 186.87 701.739 187.353 702.31 187.711C702.916 188.084 703.618 188.272 704.33 188.253C705.065 188.253 705.664 188.117 706.148 187.846C706.631 187.556 706.863 187.112 706.863 186.512C706.863 186.019 706.612 185.623 706.119 185.333C705.564 185.001 704.961 184.76 704.33 184.617C703.634 184.424 702.928 184.221 702.232 183.979C701.544 183.747 700.928 183.34 700.444 182.8C699.935 182.222 699.669 181.471 699.699 180.702C699.699 179.59 700.125 178.681 700.975 177.965C701.896 177.232 703.048 176.852 704.224 176.892C705.268 176.892 706.187 177.134 706.989 177.608C707.788 178.05 708.43 178.729 708.826 179.551L706.96 180.605C706.506 179.512 705.587 178.961 704.224 178.961C703.595 178.961 703.064 179.116 702.609 179.425C702.174 179.715 701.952 180.131 701.952 180.682V180.673ZM711.988 174.891C711.552 174.891 711.195 174.746 710.905 174.456C710.615 174.166 710.47 173.818 710.47 173.412C710.47 172.996 710.615 172.648 710.905 172.358C711.195 172.058 711.552 171.903 711.978 171.903C712.394 171.903 712.742 172.058 713.032 172.358C713.322 172.648 713.467 172.996 713.467 173.412C713.467 173.818 713.322 174.166 713.032 174.456C712.742 174.746 712.394 174.891 711.978 174.891H711.988ZM710.856 190.022V177.221H713.08V190.012H710.856V190.022ZM722.081 176.892C723.58 176.892 724.788 177.376 725.688 178.323C726.596 179.261 727.041 180.547 727.041 182.162V190.022H724.817V182.287C724.817 181.253 724.537 180.45 723.976 179.889C723.67 179.592 723.306 179.362 722.907 179.212C722.508 179.062 722.082 178.997 721.656 179.019C720.534 179.019 719.645 179.367 718.958 180.063C718.282 180.74 717.934 181.804 717.934 183.235V190.012H715.71V177.221H717.934V179.058C718.364 178.353 718.979 177.779 719.711 177.398C720.444 177.016 721.267 176.841 722.091 176.892H722.081ZM740.006 177.221H742.211V189.48C742.211 191.375 741.563 192.845 740.287 193.879C738.992 194.942 737.359 195.504 735.685 195.465C734.399 195.501 733.125 195.222 731.972 194.653C730.959 194.154 730.132 193.345 729.613 192.342L731.566 191.25C732.262 192.681 733.654 193.396 735.733 193.396C737.067 193.396 738.102 193.048 738.856 192.342C739.629 191.646 740.006 190.699 740.006 189.48V187.663C739.501 188.476 738.789 189.142 737.944 189.592C737.098 190.042 736.149 190.26 735.191 190.225C734.327 190.241 733.468 190.076 732.671 189.742C731.873 189.407 731.155 188.91 730.56 188.282C729.944 187.659 729.46 186.918 729.136 186.105C728.812 185.291 728.655 184.42 728.675 183.544C728.675 181.688 729.303 180.112 730.56 178.836C731.156 178.206 731.876 177.708 732.675 177.374C733.475 177.039 734.335 176.875 735.201 176.892C736.154 176.854 737.101 177.068 737.944 177.513C738.788 177.957 739.499 178.617 740.006 179.425V177.221ZM732.204 186.793C733.074 187.663 734.157 188.098 735.453 188.098C736.748 188.098 737.831 187.663 738.701 186.793C739.571 185.922 740.006 184.84 740.006 183.544C740.006 182.268 739.571 181.185 738.701 180.315C738.277 179.889 737.769 179.554 737.211 179.331C736.652 179.108 736.054 179.002 735.453 179.019C734.157 179.019 733.074 179.445 732.204 180.315C731.334 181.185 730.899 182.268 730.899 183.544C730.899 184.84 731.334 185.922 732.204 186.793ZM553.302 213.554C553.302 214.038 553.553 214.444 554.046 214.753C554.539 215.043 555.139 215.285 555.835 215.469C556.541 215.643 557.237 215.846 557.933 216.078C558.639 216.3 559.228 216.697 559.722 217.257C560.224 217.809 560.466 218.514 560.466 219.384C560.466 220.545 560.012 221.473 559.112 222.169C558.123 222.904 556.911 223.276 555.68 223.223C554.56 223.256 553.454 222.971 552.49 222.401C551.64 221.899 550.975 221.136 550.595 220.226L552.509 219.133C552.712 219.742 553.099 220.226 553.669 220.583C554.273 220.954 554.972 221.142 555.68 221.125C556.415 221.125 557.024 220.989 557.498 220.719C557.981 220.429 558.213 219.984 558.213 219.384C558.213 218.891 557.972 218.495 557.478 218.205C556.921 217.873 556.314 217.631 555.68 217.489C554.984 217.296 554.288 217.093 553.582 216.851C552.895 216.618 552.278 216.212 551.794 215.672C551.285 215.094 551.019 214.343 551.049 213.574C551.049 212.462 551.474 211.553 552.335 210.838C553.255 210.104 554.407 209.724 555.584 209.765C556.618 209.765 557.546 210.006 558.349 210.48C559.147 210.922 559.789 211.601 560.186 212.423L558.32 213.477C557.856 212.385 556.947 211.834 555.584 211.834C554.945 211.834 554.414 211.988 553.969 212.298C553.524 212.588 553.302 213.003 553.302 213.554ZM576.158 209.765C577.589 209.765 578.749 210.229 579.638 211.166C580.097 211.676 580.451 212.272 580.678 212.919C580.905 213.566 581.002 214.252 580.963 214.937V222.884H578.739V215.005C578.739 214.019 578.478 213.255 577.966 212.704C577.703 212.431 577.385 212.218 577.033 212.078C576.681 211.938 576.304 211.874 575.926 211.892C574.959 211.892 574.205 212.211 573.625 212.858C573.054 213.487 572.774 214.463 572.774 215.778V222.884H570.55V215.005C570.55 214.019 570.299 213.255 569.806 212.704C569.558 212.43 569.252 212.216 568.911 212.075C568.57 211.935 568.202 211.872 567.833 211.892C566.895 211.892 566.112 212.211 565.484 212.858C564.865 213.506 564.565 214.483 564.565 215.778V222.884H562.342V210.093H564.565V211.805C564.959 211.155 565.521 210.622 566.191 210.263C566.861 209.905 567.615 209.732 568.375 209.765C569.147 209.72 569.915 209.902 570.585 210.288C571.255 210.675 571.798 211.249 572.145 211.94C572.551 211.245 573.14 210.675 573.847 210.291C574.555 209.908 575.354 209.725 576.158 209.765ZM593.88 210.093H596.103V222.884H593.88V220.69C593.37 221.501 592.654 222.164 591.804 222.609C590.955 223.054 590.003 223.265 589.045 223.223C588.188 223.236 587.338 223.069 586.549 222.735C585.76 222.4 585.049 221.904 584.463 221.279C583.845 220.648 583.359 219.899 583.034 219.077C582.708 218.256 582.55 217.377 582.568 216.494C582.568 214.618 583.196 213.032 584.463 211.737C585.044 211.106 585.752 210.604 586.54 210.264C587.327 209.925 588.178 209.754 589.036 209.765C591.163 209.765 592.768 210.606 593.87 212.298V210.093H593.88ZM589.326 221.076C589.929 221.084 590.527 220.971 591.085 220.743C591.643 220.515 592.149 220.177 592.574 219.75C592.999 219.322 593.333 218.814 593.557 218.254C593.782 217.695 593.891 217.096 593.88 216.494C593.88 215.198 593.445 214.115 592.574 213.245C592.155 212.81 591.649 212.467 591.09 212.237C590.531 212.008 589.93 211.896 589.326 211.911C588.04 211.911 586.967 212.356 586.097 213.245C585.227 214.115 584.791 215.198 584.791 216.494C584.78 217.095 584.889 217.692 585.112 218.25C585.335 218.808 585.668 219.316 586.091 219.743C586.513 220.17 587.017 220.508 587.573 220.737C588.129 220.966 588.725 221.082 589.326 221.076ZM600.928 212.249C601.672 210.654 602.997 209.861 604.93 209.861V212.191C603.913 212.115 602.905 212.425 602.107 213.061C601.334 213.699 600.937 214.705 600.937 216.107V222.884H598.714V210.093H600.937V212.24L600.928 212.249ZM613.593 212.249H610.19V219.181C610.19 219.81 610.316 220.264 610.548 220.535C610.809 220.796 611.196 220.922 611.708 220.941C612.211 220.941 612.849 220.931 613.593 220.893V222.884C611.66 223.145 610.229 222.991 609.32 222.43C608.421 221.85 607.966 220.767 607.966 219.181V212.249H605.433V210.093H607.966V207.173L610.19 206.516V210.093H613.593V212.24V212.249ZM631.77 210.093H633.993V222.884H631.77V220.69C631.259 221.503 630.541 222.166 629.69 222.611C628.839 223.056 627.885 223.267 626.926 223.223C626.069 223.236 625.219 223.069 624.429 222.735C623.64 222.4 622.93 221.904 622.343 221.279C621.725 220.648 621.239 219.899 620.914 219.077C620.589 218.256 620.43 217.377 620.448 216.494C620.43 215.614 620.588 214.74 620.913 213.923C621.239 213.106 621.725 212.363 622.343 211.737C622.926 211.105 623.635 210.602 624.424 210.262C625.214 209.923 626.066 209.753 626.926 209.765C627.884 209.721 628.836 209.932 629.685 210.377C630.535 210.822 631.251 211.485 631.76 212.298V210.093H631.77ZM627.206 221.076C627.809 221.084 628.407 220.971 628.965 220.743C629.523 220.515 630.029 220.177 630.454 219.75C630.879 219.322 631.214 218.814 631.438 218.254C631.662 217.695 631.772 217.096 631.76 216.494C631.76 215.198 631.325 214.115 630.455 213.245C630.035 212.81 629.53 212.467 628.97 212.237C628.411 212.008 627.811 211.896 627.206 211.911C625.93 211.911 624.857 212.356 623.987 213.245C623.117 214.115 622.681 215.198 622.681 216.494C622.67 217.094 622.779 217.69 623.001 218.248C623.224 218.805 623.556 219.312 623.977 219.739C624.399 220.167 624.902 220.505 625.457 220.735C626.011 220.964 626.606 221.08 627.206 221.076ZM645.421 210.093H647.645V222.884H645.421V221.047C644.993 221.752 644.38 222.327 643.649 222.711C642.919 223.094 642.097 223.271 641.274 223.223C639.775 223.223 638.566 222.749 637.667 221.811C636.725 220.75 636.239 219.361 636.314 217.944V210.093H638.537V217.828C638.537 218.862 638.828 219.665 639.379 220.245C639.949 220.825 640.723 221.096 641.709 221.096C642.821 221.096 643.72 220.757 644.396 220.071C645.073 219.375 645.421 218.311 645.421 216.88V210.093ZM657.226 212.24H653.823V219.181C653.823 219.81 653.949 220.264 654.181 220.535C654.442 220.796 654.819 220.922 655.341 220.941C655.844 220.941 656.482 220.931 657.226 220.893V222.884C655.293 223.145 653.862 222.991 652.953 222.43C652.054 221.85 651.599 220.767 651.599 219.181V212.249H649.066V210.093H651.599V207.173L653.823 206.516V210.093H657.226V212.24ZM669.244 221.279C668.619 221.909 667.872 222.405 667.049 222.737C666.227 223.07 665.345 223.231 664.458 223.213C663.571 223.231 662.69 223.07 661.867 222.737C661.044 222.405 660.298 221.909 659.672 221.279C659.041 220.656 658.543 219.91 658.211 219.086C657.878 218.263 657.718 217.381 657.739 216.494C657.739 214.599 658.377 213.013 659.672 211.708C660.297 211.077 661.044 210.58 661.866 210.246C662.689 209.912 663.571 209.748 664.458 209.765C666.334 209.765 667.939 210.412 669.244 211.708C669.885 212.326 670.391 213.071 670.731 213.894C671.07 214.718 671.235 215.603 671.216 216.494C671.234 217.384 671.068 218.269 670.729 219.092C670.39 219.916 669.884 220.66 669.244 221.279ZM664.458 221.047C665.744 221.047 666.817 220.612 667.687 219.742C668.558 218.872 668.993 217.789 668.993 216.494C668.993 215.198 668.558 214.115 667.687 213.245C667.267 212.818 666.764 212.482 666.208 212.258C665.653 212.033 665.057 211.925 664.458 211.94C663.201 211.94 662.138 212.375 661.268 213.245C660.398 214.115 659.953 215.198 659.953 216.494C659.953 217.789 660.388 218.872 661.258 219.742C662.128 220.612 663.192 221.047 664.458 221.047ZM686.889 209.765C688.32 209.765 689.48 210.229 690.369 211.166C690.83 211.675 691.185 212.271 691.414 212.918C691.643 213.565 691.741 214.252 691.703 214.937V222.884H689.48V215.005C689.48 214.019 689.219 213.255 688.706 212.704C688.442 212.431 688.122 212.217 687.769 212.077C687.415 211.937 687.036 211.874 686.657 211.892C685.699 211.892 684.936 212.211 684.356 212.858C683.795 213.487 683.514 214.463 683.514 215.778V222.884H681.291V215.005C681.291 214.019 681.039 213.255 680.546 212.704C680.298 212.43 679.993 212.216 679.652 212.075C679.31 211.935 678.942 211.872 678.574 211.892C677.636 211.892 676.853 212.211 676.215 212.858C675.606 213.506 675.296 214.483 675.296 215.778V222.884H673.073V210.093H675.296V211.805C675.69 211.155 676.252 210.622 676.922 210.263C677.592 209.905 678.346 209.732 679.106 209.765C679.878 209.72 680.646 209.902 681.316 210.288C681.986 210.675 682.529 211.249 682.876 211.94C683.282 211.245 683.871 210.675 684.578 210.291C685.286 209.908 686.085 209.725 686.889 209.765ZM704.611 210.093H706.834V222.884H704.611V220.69C704.101 221.501 703.385 222.164 702.535 222.609C701.686 223.054 700.734 223.265 699.776 223.223C698.919 223.236 698.069 223.069 697.28 222.735C696.491 222.4 695.78 221.904 695.194 221.279C694.576 220.648 694.09 219.899 693.765 219.077C693.439 218.256 693.281 217.377 693.299 216.494C693.28 215.614 693.439 214.74 693.764 213.923C694.09 213.106 694.576 212.363 695.194 211.737C695.776 211.105 696.485 210.602 697.275 210.262C698.065 209.923 698.917 209.753 699.776 209.765C700.734 209.721 701.687 209.932 702.536 210.377C703.385 210.822 704.101 211.485 704.611 212.298V210.093ZM700.067 221.076C700.669 221.084 701.267 220.971 701.825 220.743C702.383 220.515 702.89 220.177 703.314 219.75C703.739 219.322 704.074 218.814 704.298 218.254C704.522 217.695 704.632 217.096 704.62 216.494C704.62 215.198 704.176 214.115 703.305 213.245C702.886 212.81 702.38 212.467 701.821 212.237C701.262 212.008 700.661 211.896 700.057 211.911C698.781 211.911 697.707 212.356 696.837 213.245C695.967 214.115 695.532 215.198 695.532 216.494C695.52 217.094 695.629 217.69 695.852 218.248C696.074 218.805 696.406 219.312 696.828 219.739C697.25 220.167 697.753 220.505 698.307 220.735C698.862 220.964 699.457 221.08 700.057 221.076H700.067ZM716.406 212.249H713.003V219.181C713.003 219.81 713.119 220.264 713.36 220.535C713.612 220.796 713.999 220.922 714.511 220.941C715.023 220.941 715.652 220.931 716.406 220.893V222.884C714.463 223.145 713.032 222.991 712.133 222.43C711.224 221.85 710.779 220.767 710.779 219.181V212.249H708.236V210.093H710.779V207.173L713.003 206.516V210.093H716.406V212.24V212.249ZM719.403 207.763C718.968 207.763 718.61 207.618 718.32 207.328C718.03 207.038 717.885 206.69 717.885 206.284C717.885 205.868 718.03 205.52 718.32 205.23C718.61 204.93 718.968 204.776 719.393 204.776C719.809 204.776 720.157 204.93 720.447 205.23C720.737 205.52 720.882 205.868 720.882 206.284C720.882 206.69 720.737 207.038 720.447 207.328C720.157 207.618 719.809 207.763 719.393 207.763H719.403ZM718.272 222.894V210.093H720.496V222.884H718.272V222.894ZM733.925 221.279C733.3 221.909 732.553 222.405 731.73 222.737C730.908 223.07 730.026 223.231 729.139 223.213C727.263 223.213 725.659 222.575 724.353 221.279C723.72 220.657 723.221 219.911 722.886 219.088C722.552 218.265 722.39 217.382 722.41 216.494C722.41 214.599 723.058 213.013 724.353 211.708C724.978 211.077 725.724 210.579 726.547 210.245C727.369 209.911 728.251 209.747 729.139 209.765C730.027 209.749 730.908 209.912 731.731 210.246C732.553 210.58 733.3 211.078 733.925 211.708C734.566 212.326 735.072 213.071 735.411 213.894C735.751 214.718 735.916 215.603 735.897 216.494C735.915 217.384 735.749 218.269 735.41 219.092C735.071 219.916 734.565 220.66 733.925 221.279ZM729.139 221.047C730.415 221.047 731.498 220.612 732.368 219.742C733.238 218.872 733.664 217.789 733.664 216.494C733.679 215.893 733.571 215.295 733.349 214.737C733.126 214.178 732.793 213.671 732.368 213.245C731.948 212.818 731.444 212.482 730.889 212.258C730.334 212.033 729.738 211.925 729.139 211.94C727.882 211.94 726.819 212.375 725.949 213.245C725.078 214.115 724.634 215.198 724.634 216.494C724.634 217.789 725.069 218.872 725.939 219.742C726.809 220.612 727.873 221.047 729.139 221.047ZM744.125 209.765C745.624 209.765 746.832 210.248 747.731 211.195C748.63 212.133 749.085 213.419 749.085 215.034V222.894H746.861V215.159C746.861 214.125 746.571 213.322 746.02 212.762C745.713 212.463 745.347 212.232 744.946 212.082C744.545 211.932 744.117 211.867 743.69 211.892C743.194 211.87 742.699 211.951 742.236 212.131C741.773 212.311 741.353 212.585 741.002 212.936C740.325 213.612 739.977 214.676 739.977 216.107V222.884H737.754V210.093H739.977V211.93C740.407 211.227 741.02 210.654 741.751 210.272C742.482 209.891 743.302 209.715 744.125 209.765ZM753.349 213.545C753.349 214.048 753.59 214.444 754.083 214.753C754.586 215.043 755.176 215.285 755.882 215.469C756.578 215.643 757.274 215.846 757.98 216.078C758.673 216.299 759.292 216.708 759.768 217.257C760.261 217.809 760.513 218.514 760.513 219.384C760.513 220.545 760.058 221.473 759.159 222.169C758.17 222.904 756.958 223.276 755.727 223.223C754.604 223.255 753.495 222.97 752.527 222.401C751.677 221.899 751.012 221.136 750.632 220.226L752.556 219.133C752.749 219.742 753.136 220.226 753.706 220.583C754.267 220.941 754.944 221.125 755.727 221.125C756.462 221.125 757.061 220.989 757.545 220.719C758.028 220.429 758.26 219.984 758.26 219.384C758.26 218.891 758.009 218.495 757.516 218.205C756.961 217.874 756.357 217.632 755.727 217.489C755.031 217.296 754.325 217.093 753.629 216.851C752.938 216.62 752.318 216.214 751.831 215.672C751.327 215.092 751.064 214.341 751.096 213.574C751.096 212.462 751.521 211.553 752.372 210.838C753.293 210.104 754.444 209.724 755.621 209.765C756.665 209.765 757.583 210.006 758.386 210.48C759.184 210.922 759.826 211.601 760.223 212.423L758.357 213.477C757.902 212.385 756.984 211.834 755.621 211.834C754.992 211.834 754.46 211.988 754.006 212.298C753.571 212.588 753.349 213.003 753.349 213.554V213.545Z" fill="#2D0A09"/>
</g>
</g>
</g>
<defs>
<clipPath id="clip0_1_412">
<rect width="488.33" height="289.52" fill="white" transform="translate(10.0082) scale(1.00082)"/>
</clipPath>
<clipPath id="clip1_1_412">
<rect width="488.33" height="289.52" fill="white" transform="translate(10.0082) scale(1.00082)"/>
</clipPath>
<clipPath id="clip2_1_412">
<rect width="488.324" height="289.52" fill="white" transform="translate(10.0114) scale(1.00082)"/>
</clipPath>
<clipPath id="clip3_1_412">
<rect width="174" height="174" fill="white" transform="scale(1.00082)"/>
</clipPath>
<clipPath id="clip4_1_412">
<rect width="284.98" height="287.88" fill="white" transform="translate(518.757) scale(1.00082)"/>
</clipPath>
<clipPath id="clip5_1_412">
<rect width="284.98" height="287.88" fill="white" transform="translate(518.757) scale(1.00082)"/>
</clipPath>
<clipPath id="clip6_1_412">
<rect width="284.98" height="287.878" fill="white" transform="translate(518.757 0.000977367) scale(1.00082)"/>
</clipPath>
</defs>
</svg>
