<svg width="97" height="18" viewBox="0 0 97 18" fill="none" xmlns="http://www.w3.org/2000/svg">
<path d="M9.78964 0.00182176V2.51498H6.20496V13.3274H3.57493V2.51498H0V0.00182176H9.79936H9.78964ZM11.4943 9.56739C11.8255 10.7655 12.7217 11.3597 14.173 11.3597C15.1179 11.3597 15.829 11.0383 16.316 10.4051L18.2837 11.5545C17.8248 12.2183 17.2031 12.7532 16.4782 13.108C15.7534 13.4627 14.9496 13.6255 14.1438 13.5807C13.4471 13.6147 12.7508 13.5061 12.0976 13.2615C11.4444 13.017 10.8479 12.6416 10.3448 12.1585C9.87557 11.6862 9.50813 11.1227 9.26519 10.5028C9.02226 9.88286 8.90901 9.21973 8.93243 8.55434C8.9136 7.89044 9.03048 7.22969 9.27592 6.61254C9.52137 5.99538 9.89019 5.43483 10.3598 4.96519C10.8295 4.49555 11.39 4.12672 12.0072 3.88127C12.6243 3.63583 13.2851 3.51894 13.949 3.53776C15.3419 3.53776 16.4914 4.02481 17.3875 4.98916C17.8407 5.46516 18.1954 6.02603 18.4311 6.63954C18.6668 7.25305 18.7789 7.90709 18.761 8.56408C18.761 8.87579 18.7318 9.21672 18.6636 9.56739H11.4943ZM11.4553 7.66792H16.3063C16.2093 7.09291 15.8955 6.57698 15.4296 6.22626C15.0028 5.90609 14.4826 5.73497 13.949 5.73922C13.2866 5.73922 12.7411 5.91455 12.3125 6.26522C11.8664 6.6136 11.5618 7.112 11.4553 7.66792ZM27.6252 3.81051H30.0799V13.3176H27.6252V12.1974C27.255 12.6564 26.7812 13.0211 26.2427 13.2615C25.7043 13.5019 25.1165 13.6113 24.5276 13.5807C23.9114 13.5839 23.3014 13.4572 22.7374 13.2088C22.1735 12.9604 21.6682 12.5959 21.2547 12.139C20.3591 11.1673 19.8769 9.88512 19.9104 8.56408C19.9104 7.15165 20.3585 5.973 21.2547 5.00865C22.1703 4.03456 23.2613 3.54751 24.5276 3.54751C25.8621 3.54751 26.8947 4.00533 27.6252 4.93072V3.81051ZM23.1054 10.5025C23.5925 10.9896 24.2256 11.2428 24.9854 11.2428C25.3388 11.2554 25.691 11.1945 26.0195 11.0638C26.3481 10.9331 26.6459 10.7355 26.8941 10.4837C27.1423 10.2318 27.3355 9.93113 27.4613 9.60068C27.5872 9.27024 27.643 8.91724 27.6252 8.56408C27.6252 7.7848 27.372 7.13216 26.8655 6.64512C26.6221 6.39484 26.3292 6.19801 26.0055 6.0672C25.6818 5.93638 25.3344 5.87444 24.9854 5.88533C24.6344 5.87837 24.2858 5.94336 23.9608 6.07628C23.6359 6.2092 23.3416 6.40724 23.0961 6.6582C22.8507 6.90916 22.6592 7.20772 22.5334 7.5355C22.4077 7.86328 22.3504 8.21332 22.3651 8.56408C22.3651 9.34335 22.6087 9.99599 23.1054 10.5123V10.5025ZM42.8308 3.53776C43.9218 3.53776 44.779 3.89818 45.4316 4.60927C46.094 5.32036 46.4252 6.26522 46.4252 7.46335V13.3176H43.9705V7.62896C44.0009 7.14761 43.8516 6.6721 43.5516 6.29444C43.4016 6.13464 43.2182 6.00989 43.0145 5.92907C42.8108 5.84825 42.5917 5.81336 42.373 5.82688C41.8177 5.82688 41.3794 6.00222 41.0579 6.37237C40.756 6.74253 40.6001 7.27828 40.6001 7.96988V13.3274H38.1454V7.62896C38.1758 7.14761 38.0266 6.6721 37.7266 6.29444C37.5776 6.13594 37.3958 6.01195 37.1939 5.93118C36.992 5.85041 36.7748 5.81481 36.5576 5.82688C36.0024 5.82688 35.5641 6.00222 35.2329 6.37237C34.9212 6.74253 34.7653 7.27828 34.7653 7.96988V13.3274H32.3106V3.81051H34.7653V4.81384C35.3303 3.96638 36.2167 3.54751 37.4051 3.54751C38.574 3.54751 39.4312 3.99559 39.9962 4.91124C40.312 4.46225 40.7373 4.10134 41.2316 3.86269C41.726 3.62404 42.273 3.51555 42.821 3.54751L42.8308 3.53776ZM58.3383 0.00182176C58.9338 -0.0152743 59.5265 0.0881036 60.0811 0.30575C60.6356 0.523396 61.1404 0.850819 61.5652 1.26838C61.9901 1.68594 62.3262 2.18504 62.5534 2.7357C62.7805 3.28636 62.8941 3.87725 62.8873 4.4729C62.8941 5.06855 62.7805 5.65943 62.5534 6.21009C62.3262 6.76076 61.9901 7.25985 61.5652 7.67741C61.1404 8.09498 60.6356 8.4224 60.0811 8.64004C59.5265 8.85769 58.9338 8.96107 58.3383 8.94397H56.0005V13.3274H53.3705V0.00182176H58.3383ZM58.3383 6.48926C58.9033 6.48926 59.3611 6.29444 59.7313 5.91455C60.1014 5.52491 60.2865 5.03787 60.2865 4.4729C60.2865 3.88844 60.0917 3.4014 59.7313 3.03125C59.5524 2.84312 59.3359 2.69472 59.0959 2.5957C58.856 2.49669 58.5978 2.44927 58.3383 2.45652H56.0005V6.48926H58.3383ZM71.0794 3.81051H73.5342V13.3176H71.0794V12.1974C70.7092 12.6564 70.2354 13.0211 69.697 13.2615C69.1585 13.5019 68.5707 13.6113 67.9818 13.5807C67.3656 13.5839 66.7556 13.4572 66.1917 13.2088C65.6277 12.9604 65.1224 12.5959 64.7089 12.139C63.8097 11.1688 63.3241 9.88647 63.3549 8.56408C63.3549 7.15165 63.803 5.973 64.7089 5.00865C65.6245 4.03456 66.7155 3.54751 67.9818 3.54751C69.3163 3.54751 70.3489 4.00533 71.0794 4.93072V3.81051ZM66.5499 10.5025C67.0467 10.9896 67.6799 11.2428 68.4397 11.2428C68.793 11.2554 69.1452 11.1945 69.4737 11.0638C69.8023 10.9331 70.1001 10.7355 70.3483 10.4837C70.5965 10.2318 70.7897 9.93113 70.9155 9.60068C71.0414 9.27024 71.0972 8.91724 71.0794 8.56408C71.0794 7.7848 70.8262 7.13216 70.3197 6.64512C70.0763 6.39484 69.7834 6.19801 69.4597 6.0672C69.136 5.93638 68.7886 5.87444 68.4397 5.88533C68.0892 5.87427 67.7403 5.9361 67.415 6.06688C67.0897 6.19767 66.7952 6.39457 66.5499 6.64512C66.0629 7.13216 65.8096 7.77506 65.8096 8.56408C65.8096 9.34335 66.0629 9.99599 66.5499 10.5123V10.5025ZM83.0413 3.81051H85.4473V12.8696C85.4473 14.3307 84.9602 15.4606 83.9862 16.2302C83.0121 17.0094 81.8432 17.3893 80.4794 17.3893C79.4469 17.3893 78.541 17.1945 77.7519 16.8049C76.9824 16.4153 76.3883 15.8308 75.9694 15.071L78.0637 13.8729C78.5507 14.7496 79.3787 15.1976 80.5573 15.1976C81.3269 15.1976 81.9308 15.0028 82.3789 14.5937C82.827 14.1846 83.0413 13.6099 83.0413 12.8598V11.837C82.6913 12.3076 82.2312 12.6851 81.7013 12.9365C81.1714 13.1878 80.588 13.3053 80.0022 13.2787C79.3706 13.2936 78.7429 13.1766 78.1592 12.935C77.5755 12.6935 77.0486 12.3328 76.6123 11.876C76.1711 11.4148 75.8253 10.8711 75.5946 10.2761C75.3639 9.68099 75.253 9.04625 75.268 8.40822C75.2577 7.77722 75.3721 7.15039 75.6047 6.56372C75.8373 5.97706 76.1835 5.4421 76.6233 4.98957C77.0632 4.53703 77.5881 4.17584 78.1679 3.9267C78.7478 3.67755 79.3711 3.54538 80.0022 3.53776C81.3074 3.53776 82.3205 4.02481 83.0413 4.98916V3.81051ZM78.4631 10.298C78.9696 10.7753 79.6125 11.0188 80.382 11.0188C80.7325 11.0395 81.0834 10.9865 81.4122 10.8633C81.7409 10.7401 82.0402 10.5494 82.2908 10.3034C82.5413 10.0575 82.7376 9.76175 82.8668 9.43533C82.9961 9.10891 83.0555 8.75902 83.0413 8.40822C83.0441 8.06137 82.9767 7.71754 82.8432 7.3974C82.7097 7.07727 82.5129 6.78744 82.2644 6.54538C82.016 6.30332 81.7212 6.11403 81.3977 5.98888C81.0742 5.86373 80.7287 5.80531 80.382 5.81715C79.6027 5.81715 78.9696 6.0704 78.4631 6.56719C77.9663 7.05423 77.7228 7.65818 77.7228 8.41797C77.7228 9.16802 77.9663 9.80117 78.4631 10.298ZM89.7431 9.56739C90.0743 10.7655 90.9607 11.3597 92.4218 11.3597C93.3667 11.3597 94.0777 11.0383 94.555 10.4051L96.5325 11.5545C96.0726 12.2198 95.4494 12.7556 94.7227 13.1104C93.996 13.4653 93.1902 13.6272 92.3828 13.5807C91.6894 13.612 90.9968 13.5021 90.3471 13.2576C89.6974 13.0131 89.1041 12.6392 88.6033 12.1585C88.1306 11.6878 87.7595 11.1251 87.5132 10.5051C87.2669 9.8851 87.1506 9.22113 87.1715 8.55434C87.1526 7.8896 87.2697 7.228 87.5157 6.61017C87.7618 5.99235 88.1315 5.43133 88.6022 4.96155C89.0729 4.49177 89.6346 4.12315 90.2529 3.87831C90.8712 3.63348 91.533 3.51758 92.1977 3.53776C93.5907 3.53776 94.7304 4.02481 95.6363 4.98916C96.552 5.95352 97 7.1419 97 8.56408C97 8.87579 96.9806 9.21672 96.9124 9.56739H89.7431ZM89.7041 7.66792H94.555C94.458 7.09291 94.1443 6.57698 93.6784 6.22626C93.2515 5.90609 92.7313 5.73497 92.1977 5.73922C91.5354 5.73922 90.9899 5.91455 90.5613 6.26522C90.1229 6.58667 89.8404 7.06398 89.7041 7.66792Z" fill="white"/>
</svg>
