<svg width="68" height="90" viewBox="0 0 68 90" fill="none" xmlns="http://www.w3.org/2000/svg">
<g clip-path="url(#clip0_1_582)">
<path fill-rule="evenodd" clip-rule="evenodd" d="M65.6474 8.50684C70.4074 16.659 67.703 27.1482 59.6055 31.9395L53.9701 35.277L57.972 37.0903C63.7637 39.7165 67.6248 45.3832 67.9687 51.7767C68.3126 58.1625 65.0846 64.2199 59.6055 67.4636L25.6055 87.5744C17.5159 92.3657 7.09701 89.6379 2.34482 81.4857C-2.40736 73.3335 0.289189 62.8443 8.38666 58.0531L14.0221 54.7156L10.0202 52.9022C4.2285 50.276 0.36735 44.6094 0.0234418 38.2158C-0.31265 31.8301 2.90758 25.7726 8.38666 22.5289L42.3867 2.41811C50.4763 -2.36534 60.8952 0.35466 65.6474 8.50684Z" fill="#FF0000"/>
<path fill-rule="evenodd" clip-rule="evenodd" d="M25.7931 57.8966V32.1035L47.6781 45.0001L25.7931 57.8966Z" fill="white"/>
</g>
<defs>
<clipPath id="clip0_1_582">
<rect width="68" height="90" fill="white"/>
</clipPath>
</defs>
</svg>
