<svg width="410" height="298" viewBox="0 0 410 298" fill="none" xmlns="http://www.w3.org/2000/svg">
<g clip-path="url(#clip0_1_652)">
<g clip-path="url(#clip1_1_652)">
<g clip-path="url(#clip2_1_652)">
<path d="M15.3897 40.5633C15.3897 30.976 19.1983 21.7815 25.9775 15.0023C32.7567 8.22307 41.9512 4.41455 51.5385 4.41455H358.851C368.437 4.41455 377.63 8.22173 384.409 14.9988C391.188 21.7759 394.997 30.968 395 40.5535V257.475C395 262.222 394.065 266.923 392.248 271.309C390.432 275.694 387.769 279.679 384.412 283.036C381.056 286.393 377.071 289.055 372.685 290.872C368.299 292.689 363.598 293.624 358.851 293.624H51.5385C46.7913 293.624 42.0907 292.689 37.7049 290.872C33.3192 289.055 29.3342 286.393 25.9775 283.036C22.6207 279.679 19.958 275.694 18.1414 271.309C16.3248 266.923 15.3897 262.222 15.3897 257.475V40.5633Z" fill="#DBD1FC"/>
<path d="M62.4708 190.644L61.1846 186.805H52.7077L51.4215 190.644H46.8908L54.3446 169.335H59.5574L67.0405 190.644H62.4805H62.4708ZM54.0328 182.878H59.879L56.9559 174.177L54.0328 182.878ZM68.1903 169.335H72.3898V190.644H68.2V169.335H68.1903ZM93.5041 175.424H97.4308V190.644H93.5041V188.851C92.9105 189.588 92.1506 190.174 91.2868 190.56C90.423 190.946 89.4798 191.122 88.5349 191.073C86.518 191.073 84.7641 190.293 83.3026 188.754C81.8688 187.199 81.0965 185.148 81.1492 183.034C81.1492 180.783 81.8703 178.883 83.3026 177.344C83.9581 176.602 84.7653 176.009 85.6696 175.605C86.574 175.202 87.5544 174.997 88.5446 175.005C90.6785 175.005 92.3251 175.736 93.5139 177.217V175.424H93.5041ZM86.2646 186.142C86.6593 186.535 87.1298 186.843 87.6475 187.047C88.1652 187.251 88.7191 187.348 89.2754 187.331C89.841 187.351 90.4044 187.253 90.9302 187.043C91.456 186.834 91.9327 186.518 92.3301 186.115C92.7275 185.712 93.037 185.231 93.2391 184.703C93.4412 184.174 93.5314 183.609 93.5041 183.044C93.5041 181.777 93.1046 180.754 92.2862 179.965C91.895 179.563 91.4244 179.247 90.9043 179.038C90.3842 178.828 89.8261 178.729 89.2657 178.747C88.7081 178.729 88.153 178.828 87.6362 179.038C87.1193 179.248 86.6521 179.564 86.2646 179.965C85.8682 180.369 85.5582 180.849 85.3539 181.377C85.1495 181.905 85.0549 182.469 85.0759 183.034C85.0759 184.301 85.4656 185.324 86.2646 186.142ZM103.589 179.751C103.589 180.15 103.852 180.491 104.368 180.754C104.924 180.998 105.586 181.222 106.356 181.426C107.135 181.602 107.895 181.845 108.665 182.157C109.492 182.458 110.204 183.009 110.702 183.734C111.2 184.459 111.458 185.321 111.442 186.201C111.442 187.76 110.857 188.968 109.678 189.825C108.397 190.695 106.871 191.131 105.323 191.073C102.195 191.073 100.062 189.864 98.9313 187.448L102.342 185.529C102.78 186.854 103.774 187.506 105.323 187.506C106.726 187.506 107.418 187.078 107.418 186.201C107.418 185.792 107.145 185.47 106.599 185.226C105.975 184.927 105.322 184.692 104.651 184.525C103.871 184.33 103.111 184.067 102.342 183.765C101.562 183.463 100.909 182.985 100.354 182.333C99.8154 181.615 99.5402 180.735 99.5744 179.838C99.5744 178.338 100.11 177.159 101.211 176.301C102.402 175.406 103.863 174.946 105.352 174.996C106.59 174.996 107.72 175.288 108.733 175.853C109.745 176.396 110.58 177.218 111.14 178.221L107.788 180.053C107.593 179.573 107.254 179.165 106.818 178.886C106.382 178.607 105.87 178.47 105.352 178.494C104.846 178.494 104.417 178.611 104.076 178.835C103.745 179.059 103.589 179.361 103.589 179.751ZM115.866 179.751C115.866 180.15 116.138 180.491 116.665 180.754C117.21 180.998 117.873 181.222 118.643 181.426C119.422 181.602 120.182 181.845 120.962 182.157C121.731 182.44 122.374 182.927 122.91 183.619C123.456 184.301 123.729 185.168 123.729 186.201C123.729 187.76 123.144 188.968 121.965 189.825C120.683 190.695 119.157 191.131 117.61 191.073C114.492 191.073 112.348 189.864 111.218 187.448L114.628 185.529C115.067 186.854 116.061 187.506 117.61 187.506C119.013 187.506 119.705 187.078 119.705 186.201C119.705 185.792 119.432 185.47 118.886 185.226C118.262 184.927 117.609 184.692 116.937 184.525C116.168 184.33 115.398 184.067 114.628 183.765C113.849 183.463 113.196 182.985 112.65 182.333C112.105 181.618 111.823 180.737 111.851 179.838C111.851 178.338 112.407 177.159 113.498 176.301C114.689 175.406 116.15 174.946 117.639 174.996C118.876 174.996 120.007 175.288 121.02 175.853C122.032 176.396 122.867 177.218 123.427 178.221L120.075 180.053C119.88 179.573 119.541 179.165 119.105 178.886C118.668 178.607 118.156 178.47 117.639 178.494C117.132 178.494 116.704 178.611 116.363 178.835C116.031 179.059 115.875 179.361 115.875 179.751H115.866ZM127.285 173.593C126.97 173.594 126.658 173.533 126.366 173.413C126.075 173.293 125.81 173.116 125.587 172.893C125.365 172.671 125.188 172.406 125.068 172.114C124.948 171.823 124.887 171.511 124.888 171.196C124.888 170.543 125.112 169.978 125.58 169.491C125.799 169.259 126.064 169.075 126.357 168.949C126.65 168.823 126.966 168.759 127.285 168.76C127.967 168.76 128.523 169.003 128.99 169.491C129.223 169.709 129.409 169.973 129.536 170.267C129.663 170.56 129.728 170.876 129.728 171.196C129.728 171.515 129.663 171.831 129.536 172.125C129.409 172.418 129.223 172.682 128.99 172.901C128.768 173.125 128.502 173.303 128.209 173.421C127.916 173.54 127.601 173.599 127.285 173.593ZM125.336 190.644V175.424H129.263V190.644H125.336ZM135.45 179.751C135.45 180.15 135.713 180.491 136.239 180.754C136.795 180.998 137.448 181.222 138.227 181.426C138.997 181.602 139.767 181.845 140.536 182.157C141.361 182.459 142.071 183.011 142.567 183.736C143.063 184.461 143.321 185.323 143.304 186.201C143.304 187.76 142.719 188.968 141.55 189.825C140.265 190.697 138.736 191.134 137.185 191.073C134.067 191.073 131.923 189.864 130.793 187.448L134.203 185.529C134.651 186.854 135.645 187.506 137.185 187.506C138.588 187.506 139.289 187.078 139.289 186.201C139.289 185.792 139.016 185.47 138.471 185.226C137.847 184.927 137.194 184.692 136.522 184.525C135.743 184.33 134.973 184.067 134.203 183.765C133.433 183.464 132.752 182.971 132.225 182.333C131.683 181.617 131.405 180.736 131.436 179.838C131.436 178.338 131.982 177.159 133.083 176.301C134.274 175.406 135.735 174.946 137.224 174.996C138.461 174.996 139.582 175.288 140.595 175.853C141.607 176.396 142.442 177.218 143.002 178.221L139.65 180.053C139.455 179.573 139.116 179.165 138.68 178.886C138.243 178.607 137.731 178.47 137.214 178.494C136.707 178.494 136.288 178.611 135.947 178.835C135.616 179.059 135.46 179.361 135.46 179.751H135.45ZM153.184 179.195H149.744V185.529C149.744 186.055 149.871 186.444 150.134 186.688C150.397 186.932 150.787 187.078 151.293 187.117C151.8 187.136 152.433 187.117 153.184 187.087V190.644C150.485 190.946 148.575 190.693 147.454 189.884C146.363 189.075 145.817 187.623 145.817 185.529V179.205H143.167V175.434H145.817V172.355L149.744 171.166V175.434H153.184V179.205V179.195Z" fill="#232720"/>
<path d="M56.342 220.703L55.5236 218.462H51.0318L50.2133 220.703H48.8102L52.542 210.716H54.0328L57.7646 220.703H56.3518H56.342ZM51.4897 217.225H55.0656L53.2728 212.294L51.4897 217.225ZM63.6595 213.571H64.8969V220.703H63.6595V219.67C63.4206 220.065 63.0783 220.387 62.6696 220.602C62.2609 220.817 61.8013 220.916 61.3405 220.888C60.5026 220.888 59.84 220.625 59.3333 220.109C58.8046 219.516 58.5315 218.739 58.5733 217.946V213.561H59.8205V217.877C59.8205 218.462 59.9764 218.91 60.2882 219.241C60.6 219.543 61.0384 219.699 61.5841 219.699C62.2077 219.699 62.7046 219.504 63.0846 219.134C63.4743 218.744 63.6595 218.15 63.6595 217.351V213.571ZM70.6749 214.769H68.7749V218.637C68.7749 218.988 68.8431 219.241 68.9697 219.388C69.1159 219.534 69.3302 219.612 69.6128 219.621L70.6651 219.592V220.703C69.5933 220.849 68.7943 220.761 68.2877 220.45C67.781 220.118 67.5277 219.514 67.5277 218.637V214.769H66.1149V213.571H67.5277V211.943L68.7749 211.573V213.571H70.6651V214.769H70.6749ZM77.7974 219.807C77.4489 220.158 77.0326 220.436 76.5736 220.621C76.1147 220.807 75.6227 220.898 75.1277 220.888C74.6326 220.898 74.1407 220.807 73.6817 220.621C73.2228 220.436 72.8064 220.158 72.4579 219.807C72.1065 219.458 71.8302 219.042 71.6458 218.583C71.4615 218.123 71.3731 217.631 71.3861 217.137C71.3727 216.641 71.4606 216.147 71.6443 215.686C71.8281 215.224 72.1039 214.805 72.455 214.454C72.806 214.103 73.2249 213.827 73.6861 213.644C74.1473 213.46 74.6411 213.372 75.1374 213.386C76.18 213.386 77.0666 213.746 77.7974 214.457C78.1563 214.804 78.4394 215.22 78.6289 215.682C78.8184 216.143 78.9102 216.638 78.8984 217.137C78.8984 218.189 78.5282 219.086 77.7974 219.807ZM75.1277 219.68C75.4622 219.688 75.7949 219.628 76.1051 219.502C76.4152 219.376 76.6961 219.188 76.9302 218.949C77.4174 218.462 77.661 217.858 77.661 217.137C77.661 216.416 77.4174 215.812 76.9302 215.325C76.6961 215.085 76.4152 214.897 76.1051 214.771C75.7949 214.646 75.4622 214.585 75.1277 214.594C74.4261 214.594 73.8318 214.837 73.3446 215.325C72.8574 215.812 72.6236 216.416 72.6236 217.137C72.6236 217.858 72.8574 218.462 73.3446 218.949C73.8318 219.436 74.4261 219.68 75.1277 219.68ZM88.0769 213.376C88.8759 213.376 89.5287 213.629 90.0256 214.155C90.5128 214.672 90.7661 215.373 90.7661 216.26V220.693H89.519V216.299C89.519 215.743 89.3728 215.324 89.0902 215.013C88.7979 214.711 88.4277 214.555 87.9502 214.555C87.4143 214.555 86.9856 214.74 86.6641 215.1C86.3523 215.451 86.1964 215.997 86.1964 216.728V220.693H84.9492V216.299C84.9492 215.743 84.8128 215.324 84.54 215.013C84.4022 214.859 84.2318 214.738 84.0413 214.659C83.8508 214.58 83.645 214.544 83.439 214.555C82.9128 214.555 82.4841 214.74 82.1236 215.1C81.7825 215.461 81.6169 216.007 81.6169 216.728V220.693H80.3697V213.561H81.6169V214.516C81.8364 214.153 82.1494 213.856 82.523 213.655C82.8967 213.455 83.3173 213.358 83.741 213.376C84.7056 213.376 85.3974 213.775 85.8359 214.584C86.0633 214.197 86.3925 213.88 86.7876 213.667C87.1827 213.454 87.6286 213.353 88.0769 213.376ZM98.3954 213.561H99.6328V220.693H98.3954V219.466C98.111 219.919 97.7113 220.289 97.237 220.537C96.7628 220.785 96.2311 220.903 95.6964 220.878C94.6928 220.878 93.8451 220.518 93.1436 219.797C92.7976 219.445 92.5254 219.028 92.343 218.569C92.1606 218.111 92.0717 217.62 92.0815 217.127C92.0815 216.075 92.4323 215.198 93.1436 214.467C93.4688 214.116 93.8641 213.838 94.3039 213.65C94.7437 213.462 95.2181 213.368 95.6964 213.376C96.2311 213.351 96.7628 213.469 97.237 213.717C97.7113 213.965 98.111 214.335 98.3954 214.789V213.561ZM95.8523 219.68C96.1877 219.684 96.5205 219.62 96.831 219.493C97.1414 219.366 97.4231 219.178 97.6594 218.94C97.8957 218.702 98.0818 218.419 98.2065 218.107C98.3313 217.796 98.3922 217.462 98.3856 217.127C98.3856 216.406 98.1518 215.802 97.6646 215.315C97.4302 215.073 97.1481 214.882 96.8361 214.754C96.5242 214.627 96.1892 214.566 95.8523 214.574C95.141 214.574 94.5369 214.818 94.0497 215.315C93.5625 215.802 93.3287 216.406 93.3287 217.127C93.3287 217.848 93.5723 218.452 94.0497 218.949C94.5369 219.436 95.141 219.68 95.8523 219.68ZM105.401 214.759H103.501V218.628C103.501 218.978 103.559 219.232 103.696 219.378C103.842 219.524 104.056 219.602 104.339 219.612L105.391 219.582V220.693C104.319 220.839 103.521 220.752 103.014 220.44C102.507 220.109 102.254 219.505 102.254 218.628V214.759H100.841V213.561H102.254V211.934L103.501 211.563V213.561H105.391V214.759H105.401ZM107.369 217.692C107.496 218.335 107.788 218.832 108.246 219.183C108.714 219.534 109.279 219.709 109.961 219.709C110.896 219.709 111.588 219.358 112.007 218.667L113.069 219.271C112.736 219.793 112.27 220.217 111.719 220.5C111.167 220.783 110.55 220.913 109.932 220.878C109.422 220.898 108.913 220.815 108.436 220.635C107.959 220.454 107.523 220.179 107.155 219.826C106.806 219.471 106.533 219.048 106.352 218.584C106.171 218.12 106.086 217.625 106.103 217.127C106.081 216.629 106.162 216.133 106.342 215.668C106.522 215.204 106.797 214.782 107.149 214.429C107.501 214.076 107.922 213.801 108.386 213.619C108.85 213.438 109.346 213.355 109.844 213.376C110.887 213.376 111.744 213.746 112.397 214.487C112.791 214.914 113.083 215.426 113.248 215.983C113.414 216.541 113.449 217.129 113.352 217.702H107.369V217.692ZM109.844 214.545C109.172 214.545 108.626 214.74 108.188 215.11C107.749 215.48 107.476 215.987 107.369 216.611H112.144C112.082 216.015 111.796 215.465 111.345 215.071C110.923 214.722 110.391 214.536 109.844 214.545ZM122.326 213.376C123.329 213.376 124.177 213.736 124.888 214.467C125.233 214.817 125.504 215.233 125.685 215.69C125.865 216.147 125.952 216.636 125.94 217.127C125.94 218.17 125.59 219.056 124.888 219.797C124.56 220.146 124.162 220.422 123.721 220.608C123.28 220.794 122.805 220.886 122.326 220.878C121.793 220.901 121.263 220.783 120.79 220.535C120.318 220.286 119.92 219.918 119.636 219.466V223.548H118.389V213.561H119.636V214.789C119.92 214.337 120.318 213.968 120.79 213.72C121.263 213.471 121.793 213.353 122.326 213.376ZM122.17 219.68C122.504 219.688 122.837 219.628 123.147 219.502C123.457 219.376 123.738 219.188 123.972 218.949C124.459 218.462 124.703 217.848 124.703 217.127C124.703 216.406 124.459 215.802 123.972 215.315C123.74 215.072 123.46 214.881 123.149 214.754C122.839 214.626 122.505 214.565 122.17 214.574C121.833 214.566 121.498 214.627 121.186 214.754C120.874 214.882 120.592 215.073 120.357 215.315C119.87 215.802 119.636 216.406 119.636 217.127C119.636 217.848 119.88 218.452 120.357 218.949C120.845 219.436 121.449 219.68 122.17 219.68ZM128.659 214.759C129.068 213.873 129.818 213.424 130.89 213.424V214.73C130.325 214.688 129.764 214.862 129.322 215.217C128.883 215.568 128.659 216.133 128.659 216.913V220.693H127.422V213.561H128.659V214.759ZM137.74 219.797C137.391 220.149 136.975 220.426 136.516 220.612C136.057 220.798 135.565 220.888 135.07 220.878C134.575 220.888 134.083 220.798 133.624 220.612C133.165 220.426 132.749 220.149 132.4 219.797C132.046 219.45 131.766 219.034 131.578 218.575C131.39 218.116 131.299 217.623 131.309 217.127C131.309 216.065 131.679 215.178 132.4 214.457C132.749 214.106 133.165 213.828 133.624 213.642C134.083 213.456 134.575 213.366 135.07 213.376C136.113 213.376 136.999 213.736 137.74 214.448C138.097 214.795 138.378 215.212 138.566 215.673C138.754 216.134 138.844 216.629 138.831 217.127C138.831 218.179 138.471 219.076 137.74 219.797ZM135.07 219.67C135.403 219.677 135.734 219.616 136.042 219.491C136.351 219.365 136.63 219.177 136.863 218.939C137.35 218.452 137.594 217.848 137.594 217.127C137.594 216.406 137.35 215.802 136.863 215.315C136.63 215.077 136.351 214.889 136.042 214.764C135.734 214.638 135.403 214.577 135.07 214.584C134.369 214.584 133.774 214.828 133.287 215.315C132.8 215.802 132.556 216.406 132.556 217.127C132.556 217.848 132.8 218.452 133.287 218.939C133.774 219.427 134.359 219.67 135.07 219.67ZM145.691 213.561V220.693H144.453V214.75H141.823V220.693H140.575V214.75H139.435V213.561H140.575V213.347C140.575 211.456 141.618 210.521 143.693 210.521C144.083 210.521 144.58 210.579 145.174 210.706V211.827C144.59 211.758 144.103 211.719 143.703 211.719C143.05 211.719 142.583 211.836 142.271 212.09C141.978 212.323 141.813 212.742 141.813 213.347V213.561H145.701H145.691ZM147.6 220.693V210.268H148.838V220.693H147.6ZM151.605 217.692C151.732 218.335 152.024 218.832 152.482 219.183C152.975 219.545 153.576 219.73 154.187 219.709C155.132 219.709 155.814 219.358 156.243 218.667L157.305 219.271C156.972 219.793 156.506 220.217 155.954 220.5C155.403 220.783 154.786 220.913 154.168 220.878C153.658 220.9 153.149 220.818 152.671 220.637C152.194 220.456 151.758 220.18 151.391 219.826C151.042 219.471 150.769 219.048 150.588 218.584C150.407 218.12 150.322 217.625 150.338 217.127C150.316 216.629 150.398 216.133 150.578 215.668C150.758 215.204 151.033 214.782 151.385 214.429C151.736 214.076 152.158 213.801 152.622 213.619C153.086 213.438 153.582 213.355 154.08 213.376C155.123 213.376 155.97 213.746 156.633 214.487C157.027 214.914 157.319 215.426 157.484 215.983C157.65 216.541 157.685 217.129 157.588 217.702H151.605V217.692ZM154.08 214.545C153.408 214.545 152.862 214.74 152.424 215.11C151.985 215.48 151.712 215.987 151.605 216.611H156.379C156.315 216.013 156.026 215.463 155.571 215.071C155.152 214.724 154.624 214.538 154.08 214.545ZM166.562 213.376C167.565 213.376 168.413 213.736 169.114 214.467C169.461 214.816 169.734 215.232 169.917 215.689C170.099 216.146 170.188 216.635 170.176 217.127C170.186 217.62 170.097 218.111 169.915 218.569C169.733 219.028 169.46 219.445 169.114 219.797C168.788 220.145 168.392 220.421 167.952 220.607C167.513 220.793 167.039 220.886 166.562 220.878C166.027 220.903 165.495 220.785 165.021 220.537C164.547 220.289 164.147 219.919 163.863 219.466V220.693H162.625V210.706H163.863V214.789C164.148 214.336 164.548 213.967 165.022 213.718C165.496 213.47 166.027 213.352 166.562 213.376ZM166.406 219.68C166.74 219.688 167.073 219.628 167.383 219.502C167.693 219.376 167.974 219.188 168.208 218.949C168.695 218.462 168.929 217.848 168.929 217.127C168.937 216.792 168.877 216.459 168.754 216.148C168.63 215.836 168.445 215.553 168.209 215.315C167.974 215.077 167.693 214.888 167.383 214.761C167.073 214.634 166.741 214.57 166.406 214.574C166.069 214.566 165.734 214.627 165.422 214.754C165.11 214.882 164.828 215.073 164.593 215.315C164.106 215.802 163.863 216.406 163.863 217.127C163.855 217.464 163.915 217.798 164.04 218.111C164.165 218.424 164.351 218.708 164.589 218.946C164.827 219.185 165.11 219.373 165.422 219.499C165.735 219.625 166.069 219.687 166.406 219.68ZM176.578 213.561H177.825V220.693H176.578V219.66C176.34 220.054 175.999 220.375 175.592 220.59C175.185 220.804 174.728 220.904 174.269 220.878C173.431 220.878 172.758 220.615 172.252 220.099C171.726 219.505 171.456 218.728 171.502 217.936V213.551H172.739V217.868C172.739 218.452 172.895 218.9 173.216 219.232C173.528 219.534 173.957 219.69 174.512 219.69C175.126 219.69 175.633 219.495 176.013 219.124C176.393 218.735 176.578 218.14 176.578 217.341V213.561ZM180.339 212.255C180.227 212.258 180.116 212.238 180.012 212.196C179.908 212.154 179.814 212.091 179.735 212.012C179.658 211.935 179.598 211.844 179.558 211.743C179.518 211.643 179.498 211.535 179.501 211.427C179.501 211.203 179.579 211.008 179.745 210.842C179.82 210.761 179.912 210.696 180.015 210.652C180.117 210.609 180.228 210.587 180.339 210.589C180.449 210.588 180.558 210.61 180.658 210.653C180.759 210.697 180.849 210.761 180.924 210.842C181.089 211.008 181.167 211.203 181.167 211.427C181.167 211.661 181.089 211.856 180.924 212.012C180.848 212.09 180.757 212.152 180.656 212.194C180.556 212.236 180.448 212.257 180.339 212.255ZM179.715 220.693V213.561H180.953V220.693H179.715ZM182.843 220.693V210.268H184.09V220.693H182.843ZM191.895 210.706H193.132V220.693H191.895V219.466C191.611 219.919 191.211 220.289 190.737 220.537C190.262 220.785 189.731 220.903 189.196 220.878C188.192 220.878 187.345 220.518 186.643 219.797C186.297 219.445 186.025 219.028 185.843 218.569C185.66 218.111 185.571 217.62 185.581 217.127C185.581 216.075 185.932 215.198 186.643 214.467C186.968 214.116 187.364 213.838 187.803 213.65C188.243 213.462 188.718 213.368 189.196 213.376C189.731 213.351 190.262 213.469 190.737 213.717C191.211 213.965 191.611 214.335 191.895 214.789V210.696V210.706ZM189.352 219.68C189.687 219.684 190.02 219.62 190.33 219.493C190.641 219.366 190.923 219.178 191.159 218.94C191.395 218.702 191.581 218.419 191.706 218.107C191.831 217.796 191.892 217.462 191.885 217.127C191.885 216.406 191.651 215.802 191.164 215.315C190.93 215.073 190.648 214.882 190.336 214.754C190.024 214.627 189.689 214.566 189.352 214.574C188.641 214.574 188.036 214.818 187.549 215.315C187.062 215.802 186.828 216.406 186.828 217.127C186.828 217.848 187.072 218.452 187.549 218.949C188.036 219.436 188.641 219.68 189.352 219.68ZM195.636 212.255C195.526 212.257 195.416 212.236 195.314 212.194C195.212 212.152 195.12 212.09 195.042 212.012C194.964 211.936 194.902 211.845 194.86 211.745C194.818 211.644 194.797 211.536 194.798 211.427C194.798 211.203 194.876 211.008 195.042 210.842C195.118 210.761 195.21 210.696 195.312 210.652C195.415 210.609 195.525 210.587 195.636 210.589C195.746 210.588 195.855 210.61 195.956 210.653C196.057 210.697 196.147 210.761 196.221 210.842C196.387 211.008 196.474 211.203 196.474 211.427C196.474 211.661 196.387 211.856 196.231 212.012C196.155 212.09 196.064 212.152 195.964 212.194C195.863 212.236 195.755 212.257 195.646 212.255H195.636ZM195.013 220.693V213.561H196.25V220.693H195.013ZM201.707 213.376C202.535 213.376 203.207 213.639 203.714 214.175C204.22 214.691 204.474 215.412 204.474 216.318V220.693H203.227V216.387C203.227 215.802 203.071 215.354 202.759 215.042C202.447 214.72 202.009 214.555 201.463 214.555C200.839 214.555 200.343 214.75 199.963 215.139C199.573 215.529 199.388 216.114 199.388 216.913V220.693H198.15V213.561H199.388V214.584C199.628 214.191 199.971 213.87 200.379 213.658C200.788 213.445 201.247 213.347 201.707 213.376ZM212.132 213.561H213.35V220.391C213.35 221.453 212.999 222.272 212.278 222.847C211.558 223.439 210.649 223.754 209.716 223.733C208.917 223.733 208.225 223.577 207.65 223.275C207.066 222.983 206.627 222.554 206.335 221.989L207.416 221.375C207.806 222.174 208.586 222.574 209.745 222.574C210.486 222.574 211.07 222.379 211.479 221.989C211.918 221.599 212.132 221.073 212.132 220.391V219.378C211.851 219.833 211.454 220.206 210.982 220.458C210.509 220.71 209.978 220.831 209.443 220.81C208.96 220.818 208.482 220.725 208.037 220.537C207.592 220.349 207.192 220.07 206.861 219.719C206.519 219.373 206.249 218.962 206.069 218.51C205.888 218.058 205.8 217.575 205.809 217.088C205.797 216.601 205.885 216.117 206.066 215.665C206.246 215.213 206.517 214.802 206.861 214.457C207.193 214.108 207.594 213.831 208.038 213.645C208.483 213.458 208.961 213.367 209.443 213.376C210.612 213.376 211.509 213.843 212.123 214.789V213.561H212.132ZM207.777 218.891C208.264 219.378 208.868 219.621 209.589 219.621C210.31 219.621 210.914 219.378 211.402 218.891C211.889 218.403 212.132 217.809 212.132 217.078C212.14 216.745 212.078 216.415 211.953 216.106C211.827 215.798 211.639 215.519 211.402 215.286C210.914 214.798 210.31 214.555 209.589 214.555C208.868 214.555 208.264 214.798 207.777 215.286C207.539 215.519 207.351 215.798 207.226 216.106C207.1 216.415 207.039 216.745 207.046 217.078C207.046 217.809 207.29 218.413 207.777 218.891ZM217.092 219.222L216.166 222.691H215.094L215.659 219.222H217.092ZM223.484 215.48C223.484 215.763 223.62 215.987 223.893 216.162C224.175 216.318 224.507 216.455 224.896 216.552C225.286 216.65 225.676 216.767 226.066 216.893C226.455 217.02 226.787 217.234 227.069 217.556C227.342 217.858 227.478 218.257 227.478 218.735C227.478 219.388 227.225 219.904 226.718 220.294C226.231 220.683 225.588 220.878 224.809 220.878C224.117 220.878 223.523 220.722 223.026 220.42C222.538 220.118 222.178 219.709 221.973 219.212L223.045 218.598C223.152 218.939 223.367 219.212 223.678 219.407C224 219.602 224.37 219.699 224.809 219.699C225.218 219.699 225.559 219.631 225.822 219.485C225.952 219.409 226.058 219.299 226.128 219.167C226.199 219.034 226.231 218.885 226.222 218.735C226.222 218.462 226.085 218.248 225.812 218.082C225.501 217.897 225.162 217.762 224.809 217.682C224.419 217.585 224.029 217.458 223.639 217.322C223.254 217.195 222.908 216.97 222.636 216.669C222.355 216.346 222.209 215.928 222.227 215.5C222.227 214.876 222.47 214.37 222.938 213.97C223.425 213.58 224.029 213.376 224.75 213.376C225.335 213.376 225.851 213.502 226.299 213.766C226.748 214.029 227.089 214.389 227.323 214.857L226.28 215.441C226.027 214.828 225.51 214.526 224.75 214.526C224.399 214.526 224.097 214.613 223.854 214.789C223.736 214.861 223.64 214.963 223.575 215.085C223.51 215.206 223.479 215.343 223.484 215.48ZM229.622 217.692C229.749 218.335 230.041 218.832 230.499 219.183C230.992 219.545 231.593 219.73 232.204 219.709C233.149 219.709 233.831 219.358 234.26 218.667L235.322 219.271C234.988 219.795 234.52 220.22 233.967 220.503C233.414 220.785 232.795 220.915 232.175 220.878C231.667 220.897 231.16 220.814 230.685 220.633C230.209 220.452 229.775 220.178 229.408 219.826C229.059 219.471 228.786 219.048 228.605 218.584C228.424 218.12 228.339 217.625 228.355 217.127C228.335 216.63 228.417 216.134 228.598 215.67C228.779 215.206 229.053 214.785 229.405 214.432C229.756 214.08 230.177 213.804 230.64 213.622C231.104 213.44 231.6 213.357 232.097 213.376C233.139 213.376 233.987 213.746 234.65 214.487C235.044 214.914 235.336 215.426 235.501 215.983C235.667 216.541 235.702 217.129 235.605 217.702H229.622V217.692ZM232.097 214.545C231.425 214.545 230.879 214.74 230.441 215.11C230.002 215.48 229.729 215.987 229.622 216.611H234.396C234.332 216.013 234.043 215.463 233.588 215.071C233.169 214.724 232.641 214.538 232.097 214.545ZM238.313 214.759C238.723 213.873 239.463 213.424 240.545 213.424V214.73C239.979 214.688 239.418 214.862 238.976 215.217C238.537 215.568 238.313 216.133 238.313 216.913V220.693H237.076V213.561H238.313V214.759ZM246.751 213.561H248.096L245.241 220.693H243.779L240.925 213.561H242.269L244.51 219.368L246.751 213.561ZM249.772 212.255C249.66 212.258 249.548 212.238 249.444 212.196C249.341 212.154 249.246 212.091 249.168 212.012C249.089 211.936 249.027 211.845 248.985 211.745C248.944 211.644 248.923 211.536 248.924 211.427C248.924 211.203 249.012 211.008 249.168 210.842C249.244 210.759 249.338 210.694 249.442 210.65C249.546 210.606 249.659 210.586 249.772 210.589C249.882 210.588 249.99 210.61 250.091 210.653C250.192 210.697 250.282 210.761 250.356 210.842C250.522 211.008 250.6 211.203 250.6 211.427C250.6 211.661 250.522 211.856 250.356 212.012C250.281 212.09 250.19 212.152 250.089 212.194C249.989 212.236 249.881 212.257 249.772 212.255ZM249.138 220.693V213.561H250.386V220.693H249.138ZM255.637 220.878C255.14 220.895 254.644 220.809 254.181 220.626C253.719 220.443 253.298 220.168 252.945 219.816C252.593 219.465 252.316 219.045 252.133 218.582C251.949 218.12 251.861 217.625 251.876 217.127C251.876 216.055 252.237 215.178 252.948 214.457C253.297 214.101 253.716 213.821 254.179 213.634C254.642 213.448 255.139 213.36 255.637 213.376C256.339 213.376 256.972 213.541 257.528 213.882C258.093 214.214 258.502 214.662 258.794 215.247L257.742 215.841C257.564 215.456 257.272 215.136 256.904 214.925C256.522 214.694 256.083 214.576 255.637 214.584C255.303 214.575 254.97 214.636 254.66 214.762C254.35 214.887 254.069 215.076 253.835 215.315C253.357 215.802 253.124 216.406 253.124 217.127C253.114 217.461 253.173 217.793 253.296 218.103C253.418 218.413 253.603 218.695 253.838 218.932C254.073 219.169 254.354 219.356 254.663 219.481C254.972 219.606 255.304 219.667 255.637 219.66C256.105 219.66 256.534 219.543 256.914 219.319C257.304 219.095 257.596 218.793 257.791 218.413L258.843 219.027C258.533 219.605 258.067 220.084 257.499 220.411C256.931 220.738 256.283 220.9 255.628 220.878H255.637ZM260.84 217.692C260.967 218.335 261.259 218.832 261.717 219.183C262.211 219.545 262.811 219.73 263.423 219.709C264.368 219.709 265.05 219.358 265.478 218.667L266.541 219.271C266.207 219.795 265.739 220.22 265.186 220.503C264.632 220.785 264.014 220.915 263.393 220.878C262.885 220.897 262.378 220.814 261.903 220.633C261.428 220.452 260.993 220.178 260.626 219.826C260.277 219.471 260.004 219.048 259.824 218.584C259.643 218.12 259.558 217.625 259.574 217.127C259.553 216.63 259.636 216.134 259.817 215.67C259.997 215.206 260.272 214.785 260.623 214.432C260.975 214.08 261.395 213.804 261.859 213.622C262.322 213.44 262.818 213.357 263.315 213.376C264.358 213.376 265.206 213.746 265.868 214.487C266.263 214.914 266.554 215.426 266.72 215.983C266.885 216.541 266.921 217.129 266.823 217.702H260.84V217.692ZM263.306 214.545C262.643 214.545 262.097 214.74 261.649 215.11C261.221 215.48 260.948 215.987 260.84 216.611H265.615C265.55 216.013 265.261 215.463 264.806 215.071C264.387 214.724 263.859 214.538 263.315 214.545H263.306ZM277.765 213.561H279.012V220.693H277.765V219.466C277.481 219.919 277.081 220.289 276.607 220.537C276.133 220.785 275.601 220.903 275.066 220.878C274.072 220.878 273.215 220.518 272.513 219.797C272.169 219.444 271.899 219.026 271.718 218.568C271.537 218.11 271.45 217.62 271.461 217.127C271.461 216.075 271.812 215.198 272.513 214.467C272.839 214.116 273.234 213.838 273.674 213.65C274.113 213.462 274.588 213.368 275.066 213.376C275.601 213.351 276.133 213.469 276.607 213.717C277.081 213.965 277.481 214.335 277.765 214.789V213.561ZM275.232 219.68C275.567 219.684 275.9 219.62 276.21 219.493C276.521 219.366 276.803 219.178 277.039 218.94C277.275 218.702 277.461 218.419 277.586 218.107C277.711 217.796 277.772 217.462 277.765 217.127C277.765 216.406 277.522 215.802 277.034 215.315C276.8 215.073 276.518 214.882 276.206 214.754C275.894 214.627 275.559 214.566 275.222 214.574C274.511 214.574 273.916 214.818 273.429 215.315C272.942 215.802 272.698 216.406 272.698 217.127C272.691 217.462 272.75 217.795 272.874 218.106C272.998 218.418 273.183 218.701 273.418 218.939C273.654 219.178 273.935 219.366 274.245 219.493C274.555 219.62 274.887 219.684 275.222 219.68H275.232ZM284.439 213.376C285.277 213.376 285.95 213.639 286.456 214.175C286.963 214.691 287.216 215.412 287.216 216.318V220.693H285.969V216.387C285.969 215.802 285.813 215.354 285.502 215.042C285.19 214.72 284.751 214.555 284.196 214.555C283.582 214.555 283.085 214.75 282.705 215.139C282.315 215.529 282.13 216.114 282.13 216.913V220.693H280.893V213.561H282.13V214.584C282.37 214.192 282.711 213.873 283.118 213.66C283.524 213.447 283.981 213.349 284.439 213.376ZM294.855 210.706H296.093V220.693H294.855V219.466C294.571 219.919 294.171 220.289 293.697 220.537C293.223 220.785 292.691 220.903 292.156 220.878C291.163 220.878 290.305 220.518 289.604 219.797C289.258 219.445 288.986 219.027 288.804 218.569C288.621 218.11 288.532 217.62 288.542 217.127C288.542 216.075 288.902 215.198 289.604 214.467C289.929 214.116 290.324 213.838 290.764 213.65C291.204 213.462 291.678 213.368 292.156 213.376C292.691 213.351 293.223 213.469 293.697 213.717C294.171 213.965 294.571 214.335 294.855 214.789V210.696V210.706ZM292.322 219.68C292.657 219.684 292.99 219.62 293.301 219.493C293.611 219.366 293.893 219.178 294.129 218.94C294.365 218.702 294.552 218.419 294.676 218.107C294.801 217.796 294.862 217.462 294.855 217.127C294.855 216.406 294.612 215.802 294.125 215.315C293.89 215.073 293.608 214.882 293.296 214.754C292.984 214.627 292.649 214.566 292.312 214.574C291.601 214.574 290.997 214.818 290.519 215.315C290.032 215.802 289.789 216.406 289.789 217.127C289.781 217.462 289.84 217.795 289.964 218.106C290.088 218.418 290.273 218.701 290.508 218.939C290.744 219.178 291.025 219.366 291.335 219.493C291.645 219.62 291.977 219.684 292.312 219.68H292.322ZM52.9805 239.401C52.483 239.417 51.9875 239.331 51.5246 239.149C51.0616 238.966 50.6409 238.69 50.2885 238.339C49.9361 237.987 49.6595 237.567 49.4756 237.105C49.2917 236.642 49.2046 236.147 49.2195 235.65C49.2195 234.578 49.58 233.701 50.2913 232.98C50.6406 232.624 51.0599 232.344 51.5227 232.158C51.9855 231.972 52.4819 231.883 52.9805 231.898C53.682 231.898 54.3154 232.064 54.8708 232.405C55.4359 232.736 55.8549 233.184 56.1374 233.769L55.0851 234.363C54.9074 233.979 54.6146 233.659 54.2472 233.448C53.8655 233.217 53.4264 233.099 52.9805 233.107C52.646 233.098 52.3132 233.158 52.0031 233.284C51.693 233.41 51.4121 233.598 51.1779 233.837C50.7005 234.325 50.4667 234.929 50.4667 235.65C50.4574 235.983 50.5159 236.315 50.6387 236.625C50.7614 236.936 50.946 237.218 51.181 237.455C51.416 237.692 51.6967 237.878 52.006 238.003C52.3154 238.129 52.6469 238.19 52.9805 238.183C53.4482 238.183 53.8769 238.066 54.2569 237.842C54.6467 237.618 54.939 237.316 55.1338 236.936L56.1861 237.55C55.8751 238.126 55.4095 238.605 54.8415 238.932C54.2736 239.259 53.6258 239.421 52.9708 239.401H52.9805ZM63.3379 238.319C62.9894 238.671 62.5731 238.948 62.1141 239.134C61.6552 239.32 61.1633 239.411 60.6682 239.401C60.1731 239.411 59.6812 239.32 59.2222 239.134C58.7633 238.948 58.3469 238.671 57.9984 238.319C57.6453 237.972 57.3671 237.556 57.1811 237.097C56.9951 236.637 56.9052 236.145 56.9169 235.65C56.9169 234.588 57.2774 233.701 57.9984 232.98C58.3469 232.628 58.7633 232.351 59.2222 232.165C59.6812 231.979 60.1731 231.888 60.6682 231.898C61.7205 231.898 62.6072 232.259 63.3379 232.97C63.6968 233.316 63.9799 233.733 64.1694 234.194C64.3589 234.656 64.4507 235.151 64.439 235.65C64.439 236.702 64.0687 237.598 63.3379 238.319ZM60.6682 238.193C61.0027 238.201 61.3354 238.141 61.6456 238.015C61.9557 237.889 62.2366 237.701 62.4708 237.462C62.9579 236.975 63.1918 236.371 63.1918 235.65C63.1918 234.929 62.9482 234.325 62.4708 233.837C62.2366 233.598 61.9557 233.41 61.6456 233.284C61.3354 233.158 61.0027 233.098 60.6682 233.107C59.9667 233.107 59.3723 233.35 58.8851 233.837C58.3979 234.325 58.1543 234.929 58.1543 235.65C58.1543 236.371 58.3979 236.975 58.8851 237.462C59.3723 237.949 59.9569 238.193 60.6682 238.193ZM69.4569 231.898C70.2949 231.898 70.9574 232.161 71.4641 232.697C71.9708 233.214 72.2241 233.935 72.2241 234.841V239.216H70.9769V234.909C70.9769 234.324 70.821 233.876 70.5092 233.564C70.1974 233.243 69.759 233.077 69.2133 233.077C68.5897 233.077 68.0928 233.272 67.7128 233.662C67.3231 234.052 67.1379 234.636 67.1379 235.435V239.216H65.9005V232.083H67.1379V233.107C67.3781 232.713 67.7209 232.393 68.1295 232.18C68.5381 231.967 68.997 231.87 69.4569 231.898ZM77.8364 233.282H75.9364V237.15C75.9364 237.501 76.0046 237.754 76.1313 237.9C76.2774 238.047 76.4918 238.124 76.7841 238.134L77.8364 238.105V239.216C76.7549 239.362 75.9559 239.274 75.459 238.962C74.9523 238.631 74.699 238.027 74.699 237.15V233.282H73.2861V232.083H74.699V230.456L75.9364 230.086V232.083H77.8364V233.282ZM79.8143 236.215C79.941 236.858 80.2333 237.355 80.6913 237.706C81.1846 238.067 81.7851 238.252 82.3964 238.232C83.3415 238.232 84.0236 237.881 84.4523 237.189L85.5143 237.793C85.1805 238.317 84.7127 238.742 84.1594 239.025C83.6061 239.308 82.9874 239.437 82.3672 239.401C81.859 239.42 81.3522 239.336 80.8769 239.155C80.4016 238.975 79.9674 238.7 79.6 238.349C79.2513 237.993 78.9782 237.571 78.7973 237.107C78.6165 236.643 78.5315 236.147 78.5477 235.65C78.5256 235.152 78.6073 234.655 78.7874 234.191C78.9675 233.726 79.2421 233.304 79.5939 232.952C79.9457 232.599 80.3669 232.323 80.8309 232.142C81.2949 231.961 81.7915 231.878 82.2892 231.898C83.3318 231.898 84.1795 232.269 84.842 233.009C85.2366 233.436 85.5279 233.948 85.6934 234.506C85.859 235.063 85.8944 235.651 85.7969 236.225H79.8143V236.215ZM82.2892 233.068C81.6169 233.068 81.0713 233.262 80.6328 233.633C80.1943 234.003 79.9215 234.51 79.8143 235.133H84.5887C84.5242 234.536 84.2351 233.986 83.78 233.594C83.3613 233.247 82.8328 233.06 82.2892 233.068ZM90.8149 231.898C91.6528 231.898 92.3251 232.161 92.8318 232.697C93.3384 233.214 93.5918 233.935 93.5918 234.841V239.216H92.3446V234.909C92.3446 234.324 92.1887 233.876 91.8769 233.564C91.5651 233.243 91.1266 233.077 90.5713 233.077C89.9574 233.077 89.4605 233.272 89.0805 233.662C88.6908 234.052 88.5056 234.636 88.5056 235.435V239.216H87.2682V232.083H88.5056V233.107C88.745 232.715 89.0862 232.396 89.493 232.183C89.8997 231.97 90.3566 231.872 90.8149 231.898ZM99.1943 233.282H97.3041V237.15C97.3041 237.501 97.3723 237.754 97.499 237.9C97.6451 238.047 97.8595 238.124 98.142 238.134L99.2041 238.105V239.216C98.1128 239.362 97.3236 239.274 96.8169 238.962C96.3102 238.631 96.0666 238.027 96.0666 237.15V233.282H94.6538V232.083H96.0666V230.456L97.3041 230.086V232.083H99.2041V233.282H99.1943ZM107.632 239.401C107.136 239.416 106.641 239.329 106.179 239.146C105.718 238.962 105.298 238.687 104.947 238.335C104.595 237.984 104.32 237.564 104.136 237.103C103.953 236.641 103.866 236.146 103.881 235.65C103.881 234.578 104.242 233.701 104.953 232.98C105.301 232.625 105.718 232.345 106.179 232.159C106.641 231.973 107.135 231.884 107.632 231.898C108.344 231.898 108.967 232.064 109.532 232.405C110.097 232.736 110.507 233.184 110.789 233.769L109.747 234.363C109.569 233.979 109.276 233.659 108.909 233.448C108.527 233.217 108.088 233.099 107.642 233.107C107.307 233.098 106.975 233.158 106.665 233.284C106.355 233.41 106.074 233.598 105.839 233.837C105.603 234.074 105.417 234.357 105.295 234.669C105.173 234.981 105.116 235.315 105.128 235.65C105.119 235.982 105.177 236.313 105.299 236.623C105.422 236.933 105.605 237.214 105.839 237.451C106.073 237.688 106.353 237.875 106.661 238.001C106.969 238.126 107.299 238.188 107.632 238.183C108.071 238.186 108.503 238.073 108.883 237.853C109.264 237.634 109.579 237.317 109.795 236.936L110.848 237.55C110.537 238.126 110.071 238.605 109.503 238.932C108.935 239.259 108.287 239.421 107.632 239.401ZM113.323 233.282C113.732 232.395 114.482 231.947 115.554 231.947V233.253C114.988 233.211 114.428 233.385 113.985 233.74C113.547 234.091 113.332 234.656 113.332 235.435V239.216H112.085V232.083H113.323V233.282ZM117.249 236.215C117.376 236.858 117.658 237.355 118.126 237.706C118.619 238.067 119.22 238.252 119.831 238.232C120.776 238.232 121.458 237.881 121.887 237.189L122.939 237.793C122.606 238.316 122.14 238.74 121.589 239.023C121.037 239.305 120.421 239.436 119.802 239.401C119.294 239.42 118.787 239.336 118.312 239.155C117.836 238.975 117.402 238.7 117.035 238.349C116.686 237.993 116.413 237.571 116.232 237.107C116.051 236.643 115.966 236.147 115.983 235.65C115.962 235.152 116.045 234.656 116.225 234.192C116.406 233.729 116.681 233.307 117.032 232.955C117.384 232.602 117.804 232.327 118.268 232.145C118.731 231.963 119.227 231.879 119.724 231.898C120.767 231.898 121.614 232.269 122.277 233.009C122.671 233.436 122.963 233.948 123.128 234.506C123.294 235.063 123.329 235.651 123.232 236.225H117.249V236.215ZM119.714 233.068C119.052 233.068 118.496 233.262 118.058 233.633C117.619 234.003 117.356 234.51 117.249 235.133H122.024C121.954 234.537 121.666 233.989 121.215 233.594C120.794 233.245 120.261 233.058 119.714 233.068ZM130.588 232.083H131.835V239.216H130.588V237.988C130.305 238.44 129.906 238.809 129.434 239.057C128.962 239.305 128.432 239.424 127.899 239.401C126.895 239.401 126.048 239.04 125.336 238.319C124.992 237.967 124.722 237.549 124.541 237.091C124.36 236.632 124.273 236.142 124.284 235.65C124.284 234.597 124.635 233.72 125.336 232.99C125.663 232.638 126.06 232.359 126.501 232.17C126.943 231.982 127.419 231.89 127.899 231.898C129.068 231.898 129.974 232.366 130.598 233.311V232.083H130.588ZM128.055 238.202C128.39 238.206 128.723 238.143 129.034 238.016C129.344 237.889 129.626 237.7 129.862 237.462C130.098 237.224 130.284 236.941 130.409 236.63C130.534 236.318 130.595 235.985 130.588 235.65C130.588 234.929 130.354 234.325 129.867 233.837C129.633 233.595 129.351 233.404 129.039 233.277C128.727 233.15 128.392 233.088 128.055 233.097C127.344 233.097 126.739 233.34 126.252 233.837C125.765 234.325 125.522 234.929 125.522 235.65C125.514 235.985 125.574 236.319 125.698 236.631C125.822 236.943 126.008 237.227 126.245 237.465C126.481 237.704 126.764 237.892 127.075 238.019C127.386 238.145 127.719 238.208 128.055 238.202ZM137.604 233.282H135.704V237.15C135.704 237.501 135.762 237.754 135.898 237.9C136.045 238.047 136.259 238.124 136.542 238.134L137.594 238.105V239.216C136.512 239.362 135.723 239.274 135.216 238.962C134.71 238.631 134.456 238.027 134.456 237.15V233.282H133.044V232.083H134.456V230.456L135.704 230.086V232.083H137.594V233.282H137.604ZM139.698 230.778C139.586 230.781 139.475 230.761 139.371 230.719C139.267 230.677 139.173 230.614 139.094 230.534C139.016 230.459 138.954 230.368 138.912 230.267C138.87 230.167 138.849 230.059 138.851 229.95C138.851 229.726 138.929 229.531 139.094 229.365C139.171 229.282 139.265 229.216 139.369 229.173C139.473 229.129 139.585 229.108 139.698 229.112C139.808 229.11 139.917 229.132 140.018 229.176C140.119 229.22 140.209 229.284 140.283 229.365C140.439 229.531 140.527 229.726 140.527 229.95C140.527 230.183 140.439 230.378 140.283 230.534C140.207 230.613 140.116 230.675 140.016 230.716C139.915 230.758 139.807 230.779 139.698 230.778ZM139.065 239.216V232.083H140.312V239.216H139.065ZM148.224 238.319C147.876 238.671 147.459 238.948 147 239.134C146.541 239.32 146.049 239.411 145.554 239.401C145.059 239.411 144.567 239.32 144.108 239.134C143.649 238.948 143.233 238.671 142.885 238.319C142.531 237.972 142.253 237.556 142.067 237.097C141.881 236.637 141.791 236.145 141.803 235.65C141.803 234.588 142.164 233.701 142.885 232.98C143.233 232.628 143.649 232.351 144.108 232.165C144.567 231.979 145.059 231.888 145.554 231.898C146.607 231.898 147.493 232.259 148.224 232.97C148.583 233.316 148.866 233.733 149.056 234.194C149.245 234.656 149.337 235.151 149.325 235.65C149.325 236.702 148.955 237.598 148.224 238.319ZM145.554 238.193C145.889 238.201 146.222 238.141 146.532 238.015C146.842 237.889 147.123 237.701 147.357 237.462C147.844 236.975 148.088 236.371 148.088 235.65C148.088 234.929 147.844 234.325 147.357 233.837C147.123 233.598 146.842 233.41 146.532 233.284C146.222 233.158 145.889 233.098 145.554 233.107C145.223 233.101 144.894 233.162 144.587 233.288C144.281 233.414 144.003 233.601 143.771 233.837C143.284 234.325 143.041 234.929 143.041 235.65C143.041 236.371 143.284 236.975 143.771 237.462C144.258 237.949 144.853 238.193 145.554 238.193ZM154.343 231.898C155.181 231.898 155.853 232.161 156.35 232.697C156.857 233.214 157.11 233.935 157.11 234.841V239.216H155.863V234.909C155.863 234.324 155.707 233.876 155.395 233.564C155.084 233.243 154.655 233.077 154.099 233.077C153.476 233.077 152.979 233.272 152.599 233.662C152.219 234.052 152.034 234.636 152.034 235.435V239.216H150.787V232.083H152.034V233.107C152.273 232.715 152.614 232.396 153.021 232.183C153.428 231.97 153.885 231.872 154.343 231.898Z" fill="black" fill-opacity="0.53"/>
</g>
</g>
</g>
<g clip-path="url(#clip3_1_652)">
<mask id="mask0_1_652" style="mask-type:luminance" maskUnits="userSpaceOnUse" x="20" y="0" width="176" height="176">
<path d="M196 0H20V176H196V0Z" fill="white"/>
</mask>
<g mask="url(#mask0_1_652)">
<path d="M96.2925 117.714C105.498 100.555 114.703 83.3967 123.909 66.2373" stroke="black" stroke-width="3.10523" stroke-linecap="round" stroke-linejoin="round"/>
<path d="M141.674 65.5269L131.542 68.5277C131.448 68.5512 131.379 68.6204 131.344 68.7137L128.064 78.7639C127.994 78.985 127.691 79.0314 127.564 78.8337L121.573 70.1217C121.527 70.0401 121.434 69.9932 121.34 69.9932L110.767 69.982C110.523 69.982 110.395 69.7139 110.534 69.528L113.419 65.7709L116.978 61.1416C117.036 61.06 117.048 60.9673 117.025 60.874L113.768 50.8121C113.687 50.591 113.907 50.3815 114.128 50.4513L124.097 53.9878C124.19 54.0224 124.283 54.0112 124.364 53.9531L132.926 47.7415C133.112 47.6019 133.38 47.7415 133.38 47.9856L133.112 58.21L133.101 58.5591C133.101 58.6523 133.135 58.7339 133.217 58.792L141.766 65.0147C141.952 65.1544 141.906 65.4571 141.674 65.5269Z" fill="#FFAF45"/>
<path d="M141.674 65.5269L131.542 68.5277C131.448 68.5511 131.379 68.6204 131.344 68.7136L128.064 78.7638C127.994 78.985 127.691 79.0313 127.564 78.8336L121.573 70.1216C121.527 70.0401 121.434 69.9932 121.34 69.9932L110.767 69.982C110.523 69.982 110.395 69.7139 110.534 69.5279L113.419 65.7709C114.338 65.8988 115.198 65.9804 116.164 65.8525C117.455 65.69 118.723 65.3638 119.979 65.0499C122.55 64.4216 125.051 63.5263 127.436 62.3747C128.645 61.8045 129.832 61.2465 130.821 60.339C131.577 59.6297 132.344 58.9192 133.112 58.21L133.101 58.559C133.101 58.6523 133.135 58.7339 133.217 58.7919L141.766 65.0147C141.952 65.1543 141.906 65.4571 141.674 65.5269Z" fill="#FCA929"/>
<path d="M138.253 64.631L130.46 66.8762C130.39 66.8996 130.344 66.946 130.32 67.0158L127.843 74.6695C127.785 74.8437 127.552 74.8789 127.447 74.7275L122.806 68.0507C122.772 67.9926 122.701 67.9463 122.62 67.9463L114.489 67.8999C114.315 67.8882 114.21 67.6905 114.315 67.5391L115.606 65.8642L119.235 61.1761C119.27 61.118 119.282 61.0365 119.27 60.9784L116.711 53.2784C116.653 53.1159 116.816 52.9528 116.99 53.0109L124.679 55.7559C124.749 55.7794 124.819 55.7671 124.877 55.7207L131.437 51.0215C131.588 50.9171 131.786 51.0332 131.786 51.2075L131.623 59.2806C131.612 59.3504 131.647 59.4079 131.693 59.4431L131.705 59.4548L138.311 64.2473C138.463 64.3518 138.427 64.5847 138.253 64.631Z" fill="#FFD55F"/>
<path d="M129.894 79.9571C129.894 80.9609 129.08 81.7746 128.076 81.7746C127.073 81.7746 126.259 80.9609 126.259 79.9571C126.259 78.9534 127.073 78.1396 128.076 78.1396C129.08 78.1396 129.894 78.9534 129.894 79.9571Z" fill="#FFD55F"/>
<path d="M144.628 65.6598C144.628 66.6636 143.814 67.4773 142.81 67.4773C141.807 67.4773 140.993 66.6636 140.993 65.6598C140.993 64.656 141.807 63.8423 142.81 63.8423C143.814 63.8423 144.628 64.656 144.628 65.6598Z" fill="#FFD55F"/>
<path d="M135.856 46.5636C135.856 47.5674 135.042 48.3811 134.038 48.3811C133.034 48.3811 132.22 47.5674 132.22 46.5636C132.22 45.5598 133.034 44.7461 134.038 44.7461C135.042 44.7461 135.856 45.5598 135.856 46.5636Z" fill="#FFD55F"/>
<path d="M115.112 49.3263C115.112 50.3301 114.298 51.1438 113.294 51.1438C112.29 51.1438 111.477 50.3301 111.477 49.3263C111.477 48.3225 112.29 47.5088 113.294 47.5088C114.298 47.5088 115.112 48.3225 115.112 49.3263Z" fill="#FFD55F"/>
<path d="M111.331 70.1188C111.331 71.1225 110.517 71.9363 109.514 71.9363C108.51 71.9363 107.696 71.1225 107.696 70.1188C107.696 69.115 108.51 68.3013 109.514 68.3013C110.517 68.3013 111.331 69.115 111.331 70.1188Z" fill="#FFD55F"/>
<path d="M138.253 64.6313L130.46 66.8764C130.39 66.8999 130.344 66.9462 130.32 67.0161L127.843 74.6697C127.785 74.8439 127.552 74.8791 127.447 74.7278L122.806 68.0509C122.772 67.9929 122.701 67.9465 122.62 67.9465L114.489 67.9002C114.315 67.8884 114.21 67.6907 114.315 67.5394L115.606 65.8644C118.665 65.5271 121.678 64.7239 124.504 63.5377C127.051 62.4559 129.46 61.0719 131.693 59.4434L131.705 59.4551L138.311 64.2476C138.463 64.352 138.427 64.5849 138.253 64.6313Z" fill="#FFCC21"/>
<path d="M112.094 107.538C111.333 109.401 110.06 111 108.803 112.569C110.386 113.95 111.147 116.201 110.743 118.266C110.34 120.316 108.756 122.117 106.769 122.784C107.887 123.98 108.243 125.828 107.669 127.365C107.079 128.887 105.589 130.035 103.958 130.19C107.001 133.73 100.62 137.068 96.428 138.668C95.2793 139.102 94.2855 139.397 93.7111 139.537C90.373 140.329 86.9111 140.499 83.4797 140.655C79.3806 140.856 75.1889 141.028 71.2606 139.863C68.4815 139.04 65.8415 137.503 64.1648 135.143C62.8454 133.327 62.1936 131.106 62.1626 128.855C62.1473 127.256 62.4418 125.657 63.032 124.182C63.8392 122.195 65.1434 120.44 66.7579 119.027C67.9377 117.987 69.2888 117.382 70.6082 116.683C71.0429 116.45 71.4935 116.186 71.9282 115.907C73.0306 115.177 73.7604 114.167 74.6451 113.22C75.6389 112.164 76.726 111.202 77.8436 110.302C80.0946 108.501 82.5633 106.979 85.1253 105.644C90.2956 102.989 95.8226 101.126 101.334 99.3246C103.244 98.6881 105.278 98.3777 106.908 99.5733C108.818 98.9368 111.255 99.8837 112.156 101.685C113.056 103.486 112.855 105.675 112.094 107.538Z" fill="#FFADA9"/>
<path d="M96.428 138.667C95.2793 139.102 94.2855 139.397 93.7111 139.537C90.373 140.329 86.9111 140.499 83.4797 140.654C79.3806 140.856 75.1889 141.028 71.2606 139.863C68.4815 139.04 65.8415 137.503 64.1648 135.143C62.8454 133.326 62.1936 131.106 62.1625 128.855C63.3582 129.491 64.4605 130.206 65.8732 130.641C67.9846 131.292 70.1893 131.65 72.394 131.665C78.1539 131.727 82.3456 129.104 86.01 124.927C88.075 122.552 89.4103 119.648 91.3979 117.21C92.3137 116.077 93.463 114.695 94.9067 114.291C96.4438 113.873 97.7169 113.935 98.9899 112.708C99.1918 113.655 99.6265 114.555 100.232 115.316C98.1205 115.347 95.8847 115.425 94.1148 116.589C92.3448 117.738 91.3668 120.393 92.7021 122.039C90.8857 121.962 89.0688 123.125 88.3701 124.818C87.6714 126.511 88.1378 128.622 89.4883 129.849C88.2463 130.19 86.9416 130.889 86.569 132.116C86.1496 133.482 87.0818 134.957 88.3238 135.655C89.5657 136.338 91.0406 136.432 92.4533 136.494C93.4002 136.54 94.3787 136.587 95.2018 137.037C95.8231 137.363 96.3347 138 96.428 138.667Z" fill="#FA9990"/>
<path d="M95.125 118.038C95.8624 118.217 96.5488 118.819 96.5899 119.577C96.6409 120.519 95.6706 121.263 94.7284 121.317C93.7862 121.371 92.8933 120.932 92.0573 120.493C91.4976 120.199 92.539 118.581 92.8071 118.375C93.4137 117.908 94.3969 117.862 95.125 118.038Z" fill="white"/>
<path d="M102.593 111.491C103.331 111.312 104.217 111.531 104.601 112.185C105.079 112.999 104.558 114.106 103.746 114.587C102.933 115.067 101.938 115.087 100.994 115.081C100.362 115.076 100.545 113.16 100.688 112.854C101.013 112.161 101.865 111.669 102.593 111.491Z" fill="white"/>
<path d="M92.5736 124.314C93.311 124.493 93.9974 125.094 94.0385 125.852C94.0896 126.795 93.1192 127.539 92.177 127.593C91.2348 127.647 90.3419 127.208 89.5059 126.769C88.9462 126.475 89.9876 124.857 90.2557 124.651C90.8623 124.184 91.8456 124.138 92.5736 124.314Z" fill="white"/>
<path d="M90.1923 130.753C90.7062 131.082 91.0717 131.718 90.9051 132.306C90.698 133.036 89.7652 133.348 89.0342 133.143C88.3032 132.937 87.7394 132.371 87.2185 131.819C86.8694 131.449 88.0844 130.49 88.342 130.404C88.9257 130.207 89.6848 130.429 90.1923 130.753Z" fill="white"/>
<path d="M105.155 100.242C105.332 99.9 105.512 99.5216 105.43 99.1456C105.331 98.6898 104.852 98.3888 104.386 98.3688C102.995 98.3102 100.602 100.468 101.425 101.928C102.608 104.03 104.589 101.336 105.155 100.242Z" fill="white"/>
<path d="M90.9139 106.107C92.9802 106.496 95.1479 105.902 96.9378 104.8C98.7277 103.699 100.179 102.12 101.445 100.442C102.251 99.3731 103.316 98.1147 104.628 98.3834C105.3 98.5213 105.838 99.0686 106.108 99.6993C106.378 100.33 106.417 101.036 106.383 101.722C106.215 105.053 104.401 108.145 101.974 110.434C99.5479 112.722 96.5412 114.297 93.4935 115.653" stroke="black" stroke-width="1.55232" stroke-linecap="round" stroke-linejoin="round"/>
<path d="M108.473 112.625C104.91 115.397 100.164 116.592 95.7128 115.837C94.4368 115.621 92.7109 116.958 92.0855 118.091C91.2184 119.662 92.1594 121.752 93.683 122.699C95.2065 123.646 97.1079 123.715 98.899 123.613C101.714 123.453 104.508 122.938 107.194 122.083" stroke="black" stroke-width="1.55232" stroke-linecap="round" stroke-linejoin="round"/>
<path d="M91.3873 122.918C89.9072 123.203 88.9075 124.805 89.0248 126.307C89.1422 127.809 90.1859 129.131 91.4883 129.89C92.7907 130.649 94.3224 130.916 95.8272 131.002C99.0727 131.186 102.36 130.571 105.32 129.225" stroke="black" stroke-width="1.55232" stroke-linecap="round" stroke-linejoin="round"/>
<path d="M88.8706 128.89C88.0885 129.638 87.2695 130.478 87.1252 131.55C86.9874 132.576 87.5253 133.605 88.3009 134.291C89.0765 134.976 90.0615 135.373 91.0436 135.701C92.3243 136.129 93.6372 136.462 94.9666 136.697C95.3063 136.757 95.6759 136.827 95.9029 137.087C96.13 137.346 96.069 137.859 95.7293 137.922" stroke="black" stroke-width="1.55232" stroke-linecap="round" stroke-linejoin="round"/>
<path d="M99.7696 112.419C99.4605 112.92 99.4047 113.764 99.6095 114.316C99.8142 114.868 100.494 115.634 101.056 115.812" stroke="black" stroke-width="1.55232" stroke-linecap="round" stroke-linejoin="round"/>
</g>
</g>
<defs>
<clipPath id="clip0_1_652">
<rect width="380" height="298" fill="white" transform="translate(15)"/>
</clipPath>
<clipPath id="clip1_1_652">
<rect width="380" height="298" fill="white" transform="translate(15)"/>
</clipPath>
<clipPath id="clip2_1_652">
<rect width="380" height="290.359" fill="white" transform="translate(15 3.82031)"/>
</clipPath>
<clipPath id="clip3_1_652">
<rect width="176" height="176" fill="white" transform="translate(20)"/>
</clipPath>
</defs>
</svg>
