<svg width="38" height="38" viewBox="0 0 38 38" fill="none" xmlns="http://www.w3.org/2000/svg">
<g clip-path="url(#clip0_1_42)">
<g clip-path="url(#clip1_1_42)">
<mask id="mask0_1_42" style="mask-type:luminance" maskUnits="userSpaceOnUse" x="0" y="0" width="38" height="38">
<path d="M0.00281413 0H37.9972V37.5643H0.00281413V0Z" fill="white"/>
</mask>
<g mask="url(#mask0_1_42)">
<mask id="mask1_1_42" style="mask-type:luminance" maskUnits="userSpaceOnUse" x="5" y="3" width="28" height="28">
<path d="M5.02093 10.323C5.02093 8.59285 5.70823 6.93356 6.93164 5.71015C8.15504 4.48675 9.81434 3.79944 11.5445 3.79944H25.882C27.6122 3.79944 29.2715 4.48675 30.4949 5.71015C31.7183 6.93356 32.4056 8.59285 32.4056 10.323V24.2304C32.4056 25.9605 31.7183 27.6198 30.4949 28.8432C29.2715 30.0667 27.6122 30.754 25.882 30.754H11.5445C9.81434 30.754 8.15504 30.0667 6.93164 28.8432C5.70823 27.6198 5.02093 25.9605 5.02093 24.2304V10.323Z" fill="white"/>
</mask>
<g mask="url(#mask1_1_42)">
<path d="M5.02093 10.323C5.02093 8.59285 5.70823 6.93356 6.93164 5.71015C8.15504 4.48675 9.81434 3.79944 11.5445 3.79944H25.882C27.6122 3.79944 29.2715 4.48675 30.4949 5.71015C31.7183 6.93356 32.4056 8.59285 32.4056 10.323V24.2304C32.4056 25.9605 31.7183 27.6198 30.4949 28.8432C29.2715 30.0667 27.6122 30.754 25.882 30.754H11.5445C9.81434 30.754 8.15504 30.0667 6.93164 28.8432C5.70823 27.6198 5.02093 25.9605 5.02093 24.2304V10.323Z" fill="#CFEFEE"/>
<path d="M1.7233 11.341V1.86388H11.2004C11.2004 7.09707 6.95649 11.341 1.7233 11.341ZM1.7233 21.8145V12.3303H11.2004C11.2004 17.5634 6.95649 21.8145 1.7233 21.8145ZM1.7233 32.4745V22.9974H11.2004C11.2004 28.2306 6.95649 32.4745 1.7233 32.4745ZM23.4088 11.341V1.86388H32.8859C32.8859 7.09707 28.642 11.341 23.4088 11.341ZM23.4088 21.8145V12.3303H32.8859C32.8859 17.5634 28.642 21.8145 23.4088 21.8145ZM23.4088 32.4745V22.9974H32.8859C32.8859 28.2306 28.642 32.4745 23.4088 32.4745Z" fill="#7CC0BE"/>
</g>
<g filter="url(#filter0_d_1_42)">
<path d="M34.1978 28.2449H3.30043C2.35023 28.2449 1.57993 29.0152 1.57993 29.9654V34.0516C1.57993 35.0018 2.35023 35.7721 3.30043 35.7721H34.1978C35.148 35.7721 35.9183 35.0018 35.9183 34.0516V29.9654C35.9183 29.0152 35.148 28.2449 34.1978 28.2449Z" fill="white"/>
<path d="M4.04599 30.4672H4.24671V31.4709H4.089L3.65888 30.8543V31.4709H3.45815V30.4672H3.6087L4.03882 31.0766V30.4672H4.04599ZM4.51913 30.668C4.50347 30.6689 4.48778 30.6667 4.47303 30.6614C4.45827 30.656 4.44477 30.6478 4.43335 30.637C4.42192 30.6263 4.41283 30.6133 4.40662 30.5989C4.40041 30.5845 4.39723 30.5689 4.39726 30.5533C4.39726 30.5246 4.4116 30.4959 4.4331 30.4744C4.44317 30.4635 4.45537 30.4549 4.46894 30.449C4.48251 30.443 4.49715 30.44 4.51196 30.44C4.52676 30.44 4.54141 30.443 4.55498 30.449C4.56855 30.4549 4.58075 30.4635 4.59081 30.4744C4.60167 30.4845 4.61033 30.4967 4.61626 30.5102C4.62218 30.5238 4.62524 30.5384 4.62524 30.5533C4.62524 30.5681 4.62218 30.5827 4.61626 30.5963C4.61033 30.6098 4.60167 30.622 4.59081 30.6321C4.56931 30.6536 4.5478 30.668 4.51913 30.668ZM4.4116 31.4709V30.754H4.59798V31.4709H4.4116ZM5.32203 30.4672H5.50125V31.4709H5.32203V31.3848C5.29385 31.4201 5.25773 31.4482 5.21662 31.4669C5.17551 31.4856 5.13057 31.4943 5.08546 31.4924C4.99227 31.4924 4.90624 31.4565 4.84172 31.3848C4.77003 31.3131 4.73419 31.2199 4.73419 31.1124C4.73419 31.0049 4.77003 30.9189 4.84172 30.8472C4.91341 30.7755 4.9851 30.7325 5.08546 30.7325C5.18582 30.7325 5.26468 30.7683 5.32203 30.84V30.4672ZM4.97793 31.2558C5.01377 31.2988 5.06395 31.3131 5.1213 31.3131C5.17865 31.3131 5.22883 31.2988 5.26468 31.2558C5.30052 31.2199 5.32203 31.1698 5.32203 31.1124C5.32203 31.0551 5.30052 31.0049 5.26468 30.969C5.22883 30.926 5.17865 30.9117 5.1213 30.9117C5.06395 30.9117 5.01377 30.926 4.97793 30.969C4.94208 31.0049 4.92058 31.0551 4.92058 31.1124C4.92058 31.1698 4.94208 31.2199 4.97793 31.2558ZM6.07475 30.7325C6.14643 30.7325 6.21812 30.7611 6.2683 30.8113C6.31848 30.8687 6.33999 30.9404 6.33999 31.0264V31.4709H6.16794V31.0551C6.16794 31.0049 6.1536 30.969 6.12493 30.9475C6.09846 30.9205 6.06238 30.9051 6.02457 30.9045C5.97438 30.9045 5.93854 30.9189 5.90987 30.9475C5.88119 30.9834 5.86685 31.0192 5.86685 31.0837V31.4709H5.66613V30.4672H5.85252V30.8328C5.89553 30.7611 5.96722 30.7325 6.06758 30.7325H6.07475ZM6.59807 30.668C6.58241 30.6689 6.56672 30.6667 6.55197 30.6614C6.53721 30.656 6.52371 30.6478 6.51229 30.637C6.50086 30.6263 6.49177 30.6133 6.48556 30.5989C6.47935 30.5845 6.47617 30.5689 6.4762 30.5533C6.4762 30.5246 6.49053 30.4959 6.51204 30.4744C6.52211 30.4635 6.53431 30.4549 6.54788 30.449C6.56145 30.443 6.57609 30.44 6.5909 30.44C6.6057 30.44 6.62035 30.443 6.63392 30.449C6.64749 30.4549 6.65969 30.4635 6.66975 30.4744C6.68061 30.4845 6.68927 30.4967 6.6952 30.5102C6.70112 30.5238 6.70418 30.5384 6.70418 30.5533C6.70418 30.5681 6.70112 30.5827 6.6952 30.5963C6.68927 30.6098 6.68061 30.622 6.66975 30.6321C6.64825 30.6536 6.62674 30.668 6.59807 30.668ZM6.49053 31.4709V30.754H6.67692V31.4709H6.49053ZM7.56585 30.7396C7.65187 30.7396 7.71639 30.7611 7.76657 30.8113C7.81675 30.8687 7.84543 30.9404 7.84543 31.0264V31.4709H7.75223V31.0336C7.75223 30.9619 7.73073 30.9189 7.70205 30.883C7.66621 30.8472 7.61603 30.8257 7.55868 30.8257C7.52646 30.8239 7.49427 30.8295 7.46448 30.8419C7.4347 30.8543 7.40809 30.8733 7.38663 30.8974C7.34362 30.9404 7.32211 31.0049 7.32211 31.0981V31.4709H7.22892V30.4672H7.32211V30.8687C7.347 30.8269 7.3829 30.7927 7.42589 30.77C7.46888 30.7472 7.51729 30.7367 7.56585 30.7396ZM8.36158 30.7396C8.46911 30.7396 8.54797 30.7755 8.61965 30.8472C8.65739 30.8897 8.68531 30.94 8.70142 30.9945C8.71752 31.049 8.72143 31.1064 8.71285 31.1626H8.082C8.08917 31.2343 8.12501 31.2916 8.17519 31.3346C8.22962 31.3792 8.2985 31.4021 8.36875 31.3992C8.41885 31.3999 8.46828 31.3876 8.51212 31.3633C8.54797 31.3418 8.58381 31.3131 8.59815 31.2773L8.68417 31.3203C8.64833 31.3705 8.61249 31.4135 8.55514 31.4422C8.49779 31.4709 8.43327 31.4852 8.36875 31.4852C8.25405 31.4852 8.16085 31.4493 8.08917 31.3848C8.05436 31.3489 8.02746 31.3062 8.01017 31.2592C7.99289 31.2123 7.98561 31.1623 7.9888 31.1124C7.9888 31.0049 8.01748 30.9189 8.08917 30.8472C8.12444 30.8111 8.16695 30.7828 8.21389 30.7643C8.26083 30.7458 8.31116 30.7374 8.36158 30.7396ZM8.36158 30.8257C8.28989 30.8257 8.2182 30.8543 8.17519 30.8974C8.12501 30.9404 8.08917 30.9977 8.082 31.0694H8.61965C8.60532 30.9977 8.57664 30.9332 8.53363 30.8902C8.48345 30.8472 8.4261 30.8257 8.36158 30.8257ZM8.86339 31.4709V30.4242H8.96375V31.4709H8.86339ZM9.54442 30.7396C9.59365 30.7384 9.64261 30.7473 9.68824 30.7658C9.73388 30.7843 9.77521 30.812 9.80967 30.8472C9.84485 30.8816 9.87256 30.923 9.89106 30.9686C9.90956 31.0142 9.91846 31.0632 9.9172 31.1124C9.91846 31.1616 9.90956 31.2106 9.89106 31.2562C9.87256 31.3019 9.84485 31.3432 9.80967 31.3777C9.77521 31.4128 9.73388 31.4405 9.68824 31.459C9.64261 31.4775 9.59365 31.4864 9.54442 31.4852C9.41539 31.4852 9.32219 31.435 9.25767 31.3275V31.7576H9.16448V30.754H9.25767V30.8974C9.28585 30.8468 9.32768 30.8052 9.37839 30.7773C9.4291 30.7494 9.48664 30.7364 9.54442 30.7396ZM9.33653 31.3131C9.39388 31.3705 9.4584 31.3992 9.53725 31.3992C9.61611 31.3992 9.68063 31.3705 9.73798 31.3131C9.79533 31.2558 9.824 31.1913 9.824 31.1124C9.824 31.0336 9.79533 30.969 9.73798 30.9117C9.71227 30.8843 9.68116 30.8625 9.64661 30.8477C9.61207 30.8329 9.57484 30.8254 9.53725 30.8257C9.46557 30.8257 9.39388 30.8543 9.33653 30.9117C9.28563 30.9661 9.25731 31.0379 9.25731 31.1124C9.25731 31.1869 9.28563 31.2587 9.33653 31.3131ZM10.1323 30.9404C10.1323 30.9762 10.1466 30.9977 10.1753 31.0192C10.2039 31.0407 10.2398 31.0551 10.2828 31.0622L10.4047 31.0981C10.4477 31.1124 10.4764 31.1339 10.5122 31.1698C10.5409 31.1913 10.5552 31.2343 10.5552 31.2845C10.5552 31.3418 10.5265 31.392 10.4835 31.4278C10.4281 31.4698 10.3593 31.4902 10.29 31.4852C10.2183 31.4852 10.1681 31.4709 10.1179 31.4422C10.0702 31.4157 10.0344 31.3722 10.0176 31.3203L10.0892 31.2773C10.1108 31.3131 10.1323 31.349 10.1609 31.3633C10.2005 31.3853 10.2447 31.3976 10.29 31.3992C10.3402 31.3992 10.376 31.3848 10.4118 31.3705C10.4405 31.349 10.4549 31.3203 10.4549 31.2845C10.4549 31.2486 10.4405 31.2199 10.4118 31.2056C10.3832 31.1841 10.3473 31.1698 10.3115 31.1626L10.1896 31.1268C10.1473 31.1144 10.1097 31.0894 10.0821 31.0551C10.0534 31.0336 10.0391 30.9905 10.0391 30.9404C10.0391 30.883 10.0606 30.8328 10.1108 30.797C10.1538 30.754 10.2111 30.7396 10.2828 30.7396C10.3377 30.7362 10.3925 30.7486 10.4405 30.7755C10.4835 30.8042 10.5122 30.84 10.5337 30.883L10.462 30.926C10.4262 30.8615 10.3688 30.8257 10.2828 30.8257C10.2398 30.8257 10.2111 30.84 10.1753 30.8615C10.1466 30.8758 10.1323 30.9045 10.1323 30.9404ZM11.4513 30.7396C11.5005 30.7384 11.5495 30.7473 11.5951 30.7658C11.6408 30.7843 11.6821 30.812 11.7166 30.8472C11.7517 30.8816 11.7794 30.923 11.7979 30.9686C11.8164 31.0142 11.8253 31.0632 11.8241 31.1124C11.8253 31.1616 11.8164 31.2106 11.7979 31.2562C11.7794 31.3019 11.7517 31.3432 11.7166 31.3777C11.6821 31.4128 11.6408 31.4405 11.5951 31.459C11.5495 31.4775 11.5005 31.4864 11.4513 31.4852C11.3223 31.4852 11.2291 31.435 11.1646 31.3275V31.7576H11.0714V30.754H11.1646V30.8974C11.1927 30.8468 11.2346 30.8052 11.2853 30.7773C11.336 30.7494 11.3935 30.7364 11.4513 30.7396ZM11.2434 31.3131C11.3008 31.3705 11.3653 31.3992 11.4441 31.3992C11.523 31.3992 11.5875 31.3705 11.6449 31.3131C11.7022 31.2558 11.7309 31.1913 11.7309 31.1124C11.7309 31.0336 11.7022 30.969 11.6449 30.9117C11.6192 30.8843 11.588 30.8625 11.5535 30.8477C11.519 30.8329 11.4817 30.8254 11.4441 30.8257C11.3725 30.8257 11.3008 30.8543 11.2434 30.9117C11.1925 30.9661 11.1642 31.0379 11.1642 31.1124C11.1642 31.1869 11.1925 31.2587 11.2434 31.3131ZM12.3116 30.7396C12.4191 30.7396 12.5051 30.7755 12.5696 30.8472C12.6074 30.8897 12.6353 30.94 12.6514 30.9945C12.6675 31.049 12.6714 31.1064 12.6628 31.1626H12.032C12.0419 31.2291 12.0749 31.29 12.1252 31.3346C12.1796 31.3792 12.2485 31.4021 12.3187 31.3992C12.3688 31.3999 12.4183 31.3876 12.4621 31.3633C12.4979 31.3418 12.5338 31.3131 12.5481 31.2773L12.6342 31.3203C12.6055 31.3705 12.5625 31.4135 12.5051 31.4422C12.4478 31.4709 12.3904 31.4852 12.3187 31.4852C12.204 31.4852 12.1108 31.4493 12.0463 31.3848C12.0102 31.3495 11.982 31.307 11.9635 31.2601C11.9449 31.2132 11.9365 31.1628 11.9388 31.1124C11.9388 31.0049 11.9746 30.9189 12.0391 30.8472C12.0744 30.8111 12.1169 30.7828 12.1639 30.7643C12.2108 30.7458 12.2611 30.7374 12.3116 30.7396ZM12.3116 30.8257C12.2399 30.8257 12.1682 30.8543 12.1252 30.8974C12.0749 30.942 12.0419 31.0029 12.032 31.0694H12.5696C12.5659 31.0041 12.5369 30.9429 12.4887 30.8987C12.4405 30.8545 12.3769 30.8309 12.3116 30.8328V30.8257ZM13.4156 31.3777C13.3811 31.4128 13.3398 31.4405 13.2941 31.459C13.2485 31.4775 13.1995 31.4864 13.1503 31.4852C13.0514 31.4852 12.9566 31.4459 12.8867 31.376C12.8168 31.3061 12.7775 31.2113 12.7775 31.1124C12.7763 31.0632 12.7852 31.0142 12.8037 30.9686C12.8222 30.923 12.8499 30.8816 12.8851 30.8472C12.9195 30.812 12.9609 30.7843 13.0065 30.7658C13.0521 30.7473 13.1011 30.7384 13.1503 30.7396C13.1995 30.7384 13.2485 30.7473 13.2941 30.7658C13.3398 30.7843 13.3811 30.812 13.4156 30.8472C13.452 30.881 13.4811 30.9221 13.5008 30.9677C13.5206 31.0134 13.5306 31.0627 13.5303 31.1124C13.5306 31.1622 13.5206 31.2114 13.5008 31.2571C13.4811 31.3028 13.452 31.3438 13.4156 31.3777ZM12.9496 31.3131C13.0069 31.3705 13.0714 31.3992 13.1503 31.3992C13.2292 31.3992 13.2937 31.3705 13.351 31.3131C13.4084 31.2558 13.4371 31.1913 13.4371 31.1124C13.4371 31.0336 13.4084 30.969 13.351 30.9117C13.3253 30.8843 13.2942 30.8625 13.2597 30.8477C13.2251 30.8329 13.1879 30.8254 13.1503 30.8257C13.0786 30.8257 13.0069 30.8543 12.9496 30.9117C12.8987 30.9661 12.8704 31.0379 12.8704 31.1124C12.8704 31.1869 12.8987 31.2587 12.9496 31.3131ZM14.0679 30.7396C14.1171 30.7384 14.1661 30.7473 14.2117 30.7658C14.2574 30.7843 14.2987 30.812 14.3332 30.8472C14.3683 30.8816 14.396 30.923 14.4145 30.9686C14.433 31.0142 14.4419 31.0632 14.4407 31.1124C14.4419 31.1616 14.433 31.2106 14.4145 31.2562C14.396 31.3019 14.3683 31.3432 14.3332 31.3777C14.2987 31.4128 14.2574 31.4405 14.2117 31.459C14.1661 31.4775 14.1171 31.4864 14.0679 31.4852C13.946 31.4852 13.8528 31.435 13.7812 31.3275V31.7576H13.688V30.754H13.7812V30.8974C13.8528 30.7898 13.946 30.7396 14.0679 30.7396ZM13.86 31.3131C13.9174 31.3705 13.9819 31.3992 14.0607 31.3992C14.1396 31.3992 14.2041 31.3705 14.2615 31.3131C14.3188 31.2558 14.3475 31.1913 14.3475 31.1124C14.3475 31.0336 14.3188 30.969 14.2615 30.9117C14.2357 30.8843 14.2046 30.8625 14.1701 30.8477C14.1356 30.8329 14.0983 30.8254 14.0607 30.8257C13.9891 30.8257 13.9174 30.8543 13.86 30.9117C13.8091 30.9661 13.7808 31.0379 13.7808 31.1124C13.7808 31.1869 13.8091 31.2587 13.86 31.3131ZM14.5984 31.4709V30.4242H14.6916V31.4709H14.5984ZM15.2221 30.7396C15.3296 30.7396 15.4156 30.7755 15.4802 30.8472C15.5192 30.8891 15.5484 30.9391 15.5657 30.9936C15.5831 31.0482 15.5881 31.1059 15.5805 31.1626H14.9497C14.9568 31.2343 14.9855 31.2916 15.0429 31.3346C15.0973 31.3792 15.1662 31.4021 15.2364 31.3992C15.2865 31.3999 15.3359 31.3876 15.3798 31.3633C15.4156 31.3418 15.4443 31.3131 15.4658 31.2773L15.5447 31.3203C15.516 31.3705 15.473 31.4135 15.4156 31.4422C15.3655 31.4709 15.3009 31.4852 15.2292 31.4852C15.1217 31.4852 15.0285 31.4493 14.9568 31.3848C14.8851 31.3131 14.8493 31.2199 14.8493 31.1124C14.8493 31.0049 14.8851 30.9189 14.9568 30.8472C14.9913 30.812 15.0326 30.7843 15.0783 30.7658C15.1239 30.7473 15.1728 30.7384 15.2221 30.7396ZM15.2221 30.8257C15.1534 30.8265 15.0872 30.8519 15.0357 30.8974C14.9855 30.9404 14.964 30.9977 14.9497 31.0694H15.4802C15.4764 31.0041 15.4474 30.9429 15.3992 30.8987C15.351 30.8545 15.2874 30.8309 15.2221 30.8328V30.8257ZM16.8494 30.7396C16.9354 30.7396 16.9928 30.7611 17.0501 30.8113C17.076 30.8404 17.0958 30.8745 17.1081 30.9115C17.1204 30.9485 17.1251 30.9876 17.1218 31.0264V31.4709H17.0286V31.0264C17.0286 30.9547 17.0071 30.9117 16.9784 30.883C16.9497 30.8472 16.9067 30.8257 16.8494 30.8257C16.792 30.8257 16.7419 30.8472 16.706 30.8902C16.6702 30.926 16.6558 30.9905 16.6558 31.0766V31.4709H16.5555V31.0264C16.5555 30.9547 16.5411 30.9117 16.5125 30.883C16.4838 30.8472 16.4408 30.8257 16.3906 30.8257C16.3332 30.8257 16.2831 30.8472 16.2472 30.8902C16.2042 30.926 16.1827 30.9905 16.1827 31.0766V31.4709H16.0895V30.754H16.1827V30.8615C16.2044 30.8239 16.2358 30.7927 16.2736 30.7713C16.3114 30.7499 16.3543 30.7389 16.3978 30.7396C16.5053 30.7396 16.577 30.7827 16.62 30.8687C16.6431 30.8269 16.6776 30.7926 16.7195 30.7697C16.7614 30.7468 16.8089 30.7364 16.8566 30.7396H16.8494ZM17.9032 31.3777C17.8687 31.4128 17.8274 31.4405 17.7818 31.459C17.7361 31.4775 17.6872 31.4864 17.6379 31.4852C17.5884 31.4861 17.5391 31.4772 17.4931 31.4589C17.447 31.4406 17.4051 31.4133 17.3697 31.3786C17.3343 31.3439 17.3062 31.3024 17.287 31.2567C17.2679 31.211 17.258 31.162 17.258 31.1124C17.2577 31.0627 17.2677 31.0134 17.2874 30.9677C17.3072 30.9221 17.3362 30.881 17.3727 30.8472C17.4072 30.812 17.4485 30.7843 17.4941 30.7658C17.5398 30.7473 17.5887 30.7384 17.6379 30.7396C17.6872 30.7384 17.7361 30.7473 17.7818 30.7658C17.8274 30.7843 17.8687 30.812 17.9032 30.8472C17.9397 30.881 17.9687 30.9221 17.9885 30.9677C18.0082 31.0134 18.0182 31.0627 18.0179 31.1124C18.0182 31.1622 18.0082 31.2114 17.9885 31.2571C17.9687 31.3028 17.9397 31.3438 17.9032 31.3777ZM17.4372 31.3131C17.4946 31.3705 17.5591 31.3992 17.6379 31.3992C17.7168 31.3992 17.7813 31.3705 17.8387 31.3131C17.896 31.2558 17.9175 31.1913 17.9175 31.1124C17.9203 31.0388 17.8946 30.9669 17.8458 30.9117C17.8193 30.8834 17.787 30.861 17.7512 30.8462C17.7153 30.8314 17.6767 30.8244 17.6379 30.8257C17.5591 30.8257 17.4946 30.8543 17.4372 30.9117C17.3799 30.969 17.3584 31.0336 17.3584 31.1124C17.3584 31.1913 17.3799 31.2558 17.4372 31.3131ZM18.6631 30.754H18.7634L18.4695 31.4709H18.3548L18.0609 30.754H18.1613L18.4122 31.3705L18.6631 30.754ZM19.1792 30.7396C19.2868 30.7396 19.3728 30.7755 19.4373 30.8472C19.475 30.8897 19.503 30.94 19.5191 30.9945C19.5352 31.049 19.5391 31.1064 19.5305 31.1626H18.9068C18.9068 31.2343 18.9427 31.2916 18.9928 31.3346C19.0502 31.3777 19.1147 31.3992 19.1864 31.3992C19.2365 31.3999 19.2859 31.3876 19.3298 31.3633C19.3688 31.3447 19.4013 31.3147 19.423 31.2773L19.5018 31.3203C19.4731 31.3705 19.4301 31.4135 19.3728 31.4422C19.3226 31.4709 19.2581 31.4852 19.1864 31.4852C19.0717 31.4852 18.9857 31.4493 18.914 31.3848C18.8423 31.3131 18.8065 31.2199 18.8065 31.1124C18.8065 31.0049 18.8423 30.9189 18.914 30.8472C18.9484 30.812 18.9898 30.7843 19.0354 30.7658C19.081 30.7473 19.13 30.7384 19.1792 30.7396ZM19.1792 30.8257C19.1105 30.8265 19.0444 30.8519 18.9928 30.8974C18.9427 30.9404 18.914 30.9977 18.9068 31.0694H19.4373C19.4336 31.0041 19.4045 30.9429 19.3563 30.8987C19.3081 30.8545 19.2446 30.8309 19.1792 30.8328V30.8257ZM20.6632 30.754H20.7564V31.4709H20.6632V31.3275C20.6338 31.377 20.5917 31.4177 20.5413 31.4454C20.4908 31.4731 20.4339 31.4869 20.3764 31.4852C20.3272 31.4864 20.2782 31.4775 20.2326 31.459C20.187 31.4405 20.1456 31.4128 20.1112 31.3777C20.076 31.3432 20.0483 31.3019 20.0298 31.2562C20.0113 31.2106 20.0024 31.1616 20.0036 31.1124C20.0024 31.0632 20.0113 31.0142 20.0298 30.9686C20.0483 30.923 20.076 30.8816 20.1112 30.8472C20.1448 30.8129 20.185 30.7857 20.2293 30.7672C20.2736 30.7487 20.3212 30.7394 20.3692 30.7396C20.4983 30.7396 20.5986 30.7898 20.656 30.8974V30.754H20.6632ZM20.1757 31.3131C20.233 31.3705 20.2976 31.3992 20.3764 31.3992C20.4553 31.3992 20.5198 31.3705 20.5771 31.3131C20.6345 31.2558 20.6632 31.1913 20.6632 31.1124C20.6632 31.0336 20.6345 30.969 20.5771 30.9117C20.5514 30.8843 20.5203 30.8625 20.4858 30.8477C20.4512 30.8329 20.414 30.8254 20.3764 30.8257C20.3047 30.8257 20.233 30.8543 20.1757 30.9117C20.1248 30.9661 20.0965 31.0379 20.0965 31.1124C20.0965 31.1869 20.1248 31.2587 20.1757 31.3131ZM21.337 30.7396C21.3863 30.7384 21.4352 30.7473 21.4808 30.7658C21.5265 30.7843 21.5678 30.812 21.6023 30.8472C21.6374 30.8816 21.6652 30.923 21.6837 30.9686C21.7022 31.0142 21.7111 31.0632 21.7098 31.1124C21.7111 31.1616 21.7022 31.2106 21.6837 31.2562C21.6652 31.3019 21.6374 31.3432 21.6023 31.3777C21.5678 31.4128 21.5265 31.4405 21.4808 31.459C21.4352 31.4775 21.3863 31.4864 21.337 31.4852C21.2152 31.4852 21.122 31.435 21.0503 31.3275V31.4709H20.9571V30.4672H21.0503V30.8974C21.122 30.7898 21.2152 30.7396 21.337 30.7396ZM21.1291 31.3131C21.1865 31.3705 21.251 31.3992 21.3299 31.3992C21.4159 31.3992 21.4732 31.3705 21.5306 31.3131C21.5879 31.2558 21.6166 31.1913 21.6166 31.1124C21.6166 31.0336 21.5879 30.969 21.5306 30.9117C21.5049 30.8843 21.4738 30.8625 21.4392 30.8477C21.4047 30.8329 21.3674 30.8254 21.3299 30.8257C21.2582 30.8257 21.1865 30.8543 21.1291 30.9117C21.0803 30.9669 21.0547 31.0388 21.0574 31.1124C21.0574 31.1913 21.0789 31.2558 21.1291 31.3131ZM21.9607 30.8758C22.0037 30.7827 22.0826 30.7396 22.1901 30.7396V30.8328C22.1184 30.8328 22.0682 30.8543 22.0252 30.8902C21.9822 30.9332 21.9607 30.9905 21.9607 31.0694V31.4709H21.8675V30.754H21.9607V30.8758ZM22.8711 31.3777C22.8367 31.4128 22.7953 31.4405 22.7497 31.459C22.7041 31.4775 22.6551 31.4864 22.6059 31.4852C22.507 31.4852 22.4122 31.4459 22.3423 31.376C22.2724 31.3061 22.2331 31.2113 22.2331 31.1124C22.2319 31.0632 22.2408 31.0142 22.2593 30.9686C22.2778 30.923 22.3055 30.8816 22.3406 30.8472C22.4123 30.7755 22.5055 30.7396 22.6059 30.7396C22.6563 30.7374 22.7066 30.7458 22.7536 30.7643C22.8005 30.7828 22.843 30.8111 22.8783 30.8472C22.9135 30.8816 22.9412 30.923 22.9597 30.9686C22.9782 31.0142 22.9871 31.0632 22.9858 31.1124C22.9871 31.1616 22.9782 31.2106 22.9597 31.2562C22.9412 31.3019 22.9135 31.3432 22.8783 31.3777H22.8711ZM22.4052 31.3131C22.4625 31.3705 22.527 31.3992 22.6059 31.3992C22.6919 31.3992 22.7493 31.3705 22.8066 31.3131C22.864 31.2558 22.8926 31.1913 22.8926 31.1124C22.8926 31.0336 22.864 30.969 22.8066 30.9117C22.7809 30.8843 22.7498 30.8625 22.7153 30.8477C22.6807 30.8329 22.6435 30.8254 22.6059 30.8257C22.5342 30.8257 22.4625 30.8543 22.4052 30.9117C22.3543 30.9661 22.326 31.0379 22.326 31.1124C22.326 31.1869 22.3543 31.2587 22.4052 31.3131ZM23.7601 30.754H23.8533V31.4709H23.7601V31.3275C23.7307 31.377 23.6886 31.4177 23.6382 31.4454C23.5877 31.4731 23.5308 31.4869 23.4733 31.4852C23.4241 31.4864 23.3751 31.4775 23.3295 31.459C23.2839 31.4405 23.2425 31.4128 23.2081 31.3777C23.1729 31.3432 23.1452 31.3019 23.1267 31.2562C23.1082 31.2106 23.0993 31.1616 23.1005 31.1124C23.0993 31.0632 23.1082 31.0142 23.1267 30.9686C23.1452 30.923 23.1729 30.8816 23.2081 30.8472C23.2425 30.812 23.2839 30.7843 23.3295 30.7658C23.3751 30.7473 23.4241 30.7384 23.4733 30.7396C23.5952 30.7396 23.6884 30.7898 23.7601 30.8974V30.754ZM23.2798 31.3131C23.3299 31.3705 23.4016 31.3992 23.4805 31.3992C23.5522 31.3992 23.6239 31.3705 23.6812 31.3131C23.7321 31.2587 23.7604 31.1869 23.7604 31.1124C23.7604 31.0379 23.7321 30.9661 23.6812 30.9117C23.6555 30.8843 23.6244 30.8625 23.5898 30.8477C23.5553 30.8329 23.5181 30.8254 23.4805 30.8257C23.4016 30.8257 23.3371 30.8543 23.2798 30.9117C23.2224 30.969 23.1937 31.0336 23.1937 31.1124C23.1937 31.1913 23.2224 31.2558 23.2798 31.3131ZM24.6705 30.4672H24.7637V31.4709H24.6705V31.3275C24.6411 31.377 24.599 31.4177 24.5486 31.4454C24.4982 31.4731 24.4413 31.4869 24.3837 31.4852C24.3345 31.4864 24.2856 31.4775 24.2399 31.459C24.1943 31.4405 24.153 31.4128 24.1185 31.3777C24.0833 31.3432 24.0556 31.3019 24.0371 31.2562C24.0186 31.2106 24.0097 31.1616 24.011 31.1124C24.0097 31.0632 24.0186 31.0142 24.0371 30.9686C24.0556 30.923 24.0833 30.8816 24.1185 30.8472C24.153 30.812 24.1943 30.7843 24.2399 30.7658C24.2856 30.7473 24.3345 30.7384 24.3837 30.7396C24.5128 30.7396 24.606 30.7898 24.6705 30.8974V30.4672ZM24.1902 31.3131C24.2404 31.3705 24.3121 31.3992 24.3909 31.3992C24.4698 31.3992 24.5343 31.3705 24.5916 31.3131C24.6425 31.2587 24.6709 31.1869 24.6709 31.1124C24.6709 31.0379 24.6425 30.9661 24.5916 30.9117C24.5659 30.8843 24.5348 30.8625 24.5003 30.8477C24.4657 30.8329 24.4285 30.8254 24.3909 30.8257C24.3121 30.8257 24.2475 30.8543 24.1902 30.9117C24.1328 30.969 24.1042 31.0336 24.1042 31.1124C24.1042 31.1913 24.1328 31.2558 24.1902 31.3131ZM3.83093 32.5462C3.75924 32.5462 3.70906 32.5533 3.67321 32.582C3.64454 32.6179 3.62303 32.6609 3.62303 32.7326V32.7612H3.83093V32.8544H3.62303V33.4781H3.52984V32.8544H3.40797V32.7612H3.52984V32.7326C3.52984 32.6394 3.55851 32.5677 3.60153 32.5175C3.65888 32.4745 3.73773 32.4458 3.83093 32.4601V32.5462ZM4.49045 33.3849C4.456 33.4201 4.41466 33.4478 4.36903 33.4663C4.32339 33.4848 4.27444 33.4937 4.22521 33.4924C4.17565 33.4934 4.12641 33.4845 4.08035 33.4661C4.03429 33.4478 3.99235 33.4205 3.95697 33.3858C3.92159 33.3511 3.89349 33.3097 3.87431 33.264C3.85513 33.2183 3.84526 33.1692 3.84526 33.1197C3.84401 33.0704 3.85291 33.0215 3.87141 32.9758C3.88991 32.9302 3.91761 32.8889 3.9528 32.8544C4.02448 32.7827 4.11768 32.7469 4.22521 32.7469C4.27444 32.7456 4.32339 32.7545 4.36903 32.773C4.41466 32.7915 4.456 32.8192 4.49045 32.8544C4.52434 32.8895 4.55072 32.9311 4.56798 32.9767C4.58524 33.0223 4.59301 33.071 4.59081 33.1197C4.59207 33.1689 4.58317 33.2179 4.56467 33.2635C4.54617 33.3091 4.51847 33.3505 4.48328 33.3849H4.49045ZM4.02448 33.3204C4.07466 33.3777 4.14635 33.4064 4.22521 33.4064C4.2969 33.4064 4.36858 33.3777 4.42593 33.3204C4.47683 33.2659 4.50515 33.1942 4.50515 33.1197C4.50515 33.0451 4.47683 32.9734 4.42593 32.9189C4.40022 32.8915 4.36911 32.8697 4.33457 32.8549C4.30002 32.8401 4.26279 32.8326 4.22521 32.8329C4.14635 32.8329 4.08183 32.8616 4.02448 32.9189C3.96713 32.9763 3.93846 33.0408 3.93846 33.1197C3.93846 33.1985 3.96713 33.263 4.02448 33.3204ZM4.84889 32.8831C4.86899 32.84 4.90163 32.8039 4.94256 32.7796C4.98348 32.7553 5.03079 32.7439 5.07829 32.7469V32.8401C5.01377 32.8401 4.95642 32.8616 4.91341 32.8974C4.8704 32.9404 4.84889 32.9978 4.84889 33.0767V33.4781H4.7557V32.7612H4.84889V32.8831ZM5.89553 32.7469C6.00306 32.7469 6.08908 32.7827 6.1536 32.8544C6.19261 32.8963 6.22184 32.9463 6.2392 33.0009C6.25655 33.0554 6.2616 33.1131 6.25397 33.1698H5.62312C5.63028 33.2415 5.65896 33.2989 5.71631 33.3419C5.77074 33.3864 5.83962 33.4094 5.90987 33.4064C5.95997 33.4072 6.0094 33.3948 6.05324 33.3706C6.08908 33.3491 6.11776 33.3204 6.13927 33.2845L6.21812 33.3276C6.18945 33.3777 6.14643 33.4208 6.08908 33.4494C6.0389 33.4781 5.97438 33.4924 5.9027 33.4924C5.79517 33.4924 5.70197 33.4566 5.63028 33.3921C5.59419 33.3568 5.56596 33.3143 5.54743 33.2674C5.5289 33.2204 5.52049 33.1701 5.52275 33.1197C5.52149 33.0704 5.53039 33.0215 5.54889 32.9758C5.5674 32.9302 5.5951 32.8889 5.63028 32.8544C5.66474 32.8192 5.70607 32.7915 5.75171 32.773C5.79734 32.7545 5.8463 32.7456 5.89553 32.7469ZM5.89553 32.8329C5.82682 32.8337 5.76067 32.8591 5.70914 32.9046C5.65896 32.9476 5.63745 33.005 5.62312 33.0767H6.1536C6.1536 33.005 6.11776 32.9404 6.06758 32.8974C6.0174 32.8544 5.96005 32.8329 5.89553 32.8329ZM7.02102 32.4745H7.11422V33.4781H7.02819V33.3347C6.9988 33.3842 6.95672 33.4249 6.9063 33.4526C6.85588 33.4804 6.79896 33.4941 6.74144 33.4924C6.69221 33.4937 6.64326 33.4848 6.59762 33.4663C6.55198 33.4478 6.51065 33.4201 6.4762 33.3849C6.44101 33.3505 6.41331 33.3091 6.39481 33.2635C6.37631 33.2179 6.36741 33.1689 6.36867 33.1197C6.36741 33.0704 6.37631 33.0215 6.39481 32.9758C6.41331 32.9302 6.44101 32.8889 6.4762 32.8544C6.51065 32.8192 6.55198 32.7915 6.59762 32.773C6.64326 32.7545 6.69221 32.7456 6.74144 32.7469C6.86331 32.7469 6.9565 32.7971 7.02819 32.9046V32.4745H7.02102ZM6.54072 33.3204C6.5909 33.3777 6.66258 33.4064 6.74144 33.4064C6.81313 33.4064 6.88482 33.3777 6.94217 33.3204C6.99307 33.2659 7.02138 33.1942 7.02138 33.1197C7.02138 33.0451 6.99307 32.9734 6.94217 32.9189C6.91645 32.8915 6.88535 32.8697 6.8508 32.8549C6.81626 32.8401 6.77902 32.8326 6.74144 32.8329C6.66258 32.8329 6.59807 32.8616 6.54072 32.9189C6.48337 32.9763 6.45469 33.0408 6.45469 33.1197C6.45469 33.1985 6.48337 33.263 6.54072 33.3204ZM7.81675 32.7612H7.91712V33.4781H7.81675V33.3634C7.79186 33.4052 7.75596 33.4393 7.71297 33.4621C7.66999 33.4848 7.62157 33.4953 7.57302 33.4924C7.48699 33.4924 7.4153 33.4709 7.36512 33.4208C7.31494 33.3634 7.29343 33.2917 7.29343 33.2057V32.7612H7.38663V33.1985C7.38663 33.2702 7.40097 33.3132 7.43681 33.3491C7.47265 33.3849 7.51567 33.4064 7.58018 33.4064C7.6124 33.4081 7.6446 33.4026 7.67438 33.3902C7.70416 33.3778 7.73077 33.3588 7.75223 33.3347C7.79525 33.2917 7.81675 33.2272 7.81675 33.134V32.7612ZM8.4476 33.4924C8.39838 33.4934 8.34947 33.4844 8.3038 33.4661C8.25814 33.4477 8.21665 33.4202 8.18184 33.3854C8.14703 33.3506 8.11961 33.3091 8.10122 33.2635C8.08283 33.2178 8.07385 33.1689 8.07483 33.1197C8.07357 33.0704 8.08247 33.0215 8.10097 32.9758C8.11947 32.9302 8.14718 32.8889 8.18236 32.8544C8.21681 32.8192 8.25815 32.7915 8.30378 32.773C8.34942 32.7545 8.39838 32.7456 8.4476 32.7469C8.51929 32.7469 8.58381 32.7612 8.64116 32.7971C8.69851 32.8257 8.73435 32.8688 8.76303 32.9333L8.69134 32.9763C8.67021 32.9324 8.63483 32.8971 8.59098 32.8759C8.54797 32.8473 8.50495 32.8329 8.4476 32.8329C8.37592 32.8329 8.30423 32.8616 8.24688 32.9189C8.1967 32.9763 8.16802 33.0408 8.16802 33.1197C8.16704 33.1576 8.17378 33.1953 8.18784 33.2306C8.2019 33.2658 8.22299 33.2978 8.24982 33.3246C8.27664 33.3514 8.30865 33.3725 8.34388 33.3866C8.37912 33.4007 8.41685 33.4074 8.45477 33.4064C8.50325 33.4051 8.55056 33.3912 8.59203 33.366C8.63351 33.3409 8.66773 33.3054 8.69134 33.263L8.7702 33.3061C8.74109 33.3647 8.69647 33.4143 8.64116 33.4494C8.58087 33.4786 8.51459 33.4934 8.4476 33.4924ZM9.51575 32.7612H9.60894V33.4781H9.51575V33.3347C9.48636 33.3842 9.44428 33.4249 9.39386 33.4526C9.34344 33.4804 9.28652 33.4941 9.229 33.4924C9.17977 33.4937 9.13081 33.4848 9.08518 33.4663C9.03954 33.4478 8.99821 33.4201 8.96375 33.3849C8.92857 33.3505 8.90087 33.3091 8.88237 33.2635C8.86386 33.2179 8.85497 33.1689 8.85622 33.1197C8.85497 33.0704 8.86386 33.0215 8.88237 32.9758C8.90087 32.9302 8.92857 32.8889 8.96375 32.8544C8.99821 32.8192 9.03954 32.7915 9.08518 32.773C9.13081 32.7545 9.17977 32.7456 9.229 32.7469C9.35087 32.7469 9.44406 32.7971 9.51575 32.9046V32.7612ZM9.03544 33.3204C9.08562 33.3777 9.15731 33.4064 9.23617 33.4064C9.30785 33.4064 9.37954 33.3777 9.43689 33.3204C9.48779 33.2659 9.51611 33.1942 9.51611 33.1197C9.51611 33.0451 9.48779 32.9734 9.43689 32.9189C9.41118 32.8915 9.38007 32.8697 9.34553 32.8549C9.31098 32.8401 9.27375 32.8326 9.23617 32.8329C9.15731 32.8329 9.09279 32.8616 9.03544 32.9189C8.97809 32.9763 8.94942 33.0408 8.94942 33.1197C8.94942 33.1985 8.97809 33.263 9.03544 33.3204ZM10.1896 32.8544H9.98172V33.2845C9.98172 33.3276 9.98889 33.3562 10.0104 33.3706C10.0247 33.3849 10.0462 33.3992 10.0821 33.3992H10.1896V33.4781C10.0892 33.4924 10.0176 33.4853 9.96738 33.4566C9.9172 33.4279 9.89569 33.3706 9.89569 33.2845V32.8544H9.73798V32.7612H9.88852V32.5892L9.98172 32.5605V32.7612H10.1968V32.8544H10.1896ZM10.4477 32.5892C10.4345 32.6027 10.4164 32.6104 10.3975 32.6107C10.3786 32.6104 10.3606 32.6027 10.3473 32.5892C10.3338 32.5759 10.3261 32.5579 10.3258 32.539C10.3258 32.5247 10.333 32.5032 10.3473 32.4888L10.3975 32.4745C10.4118 32.4745 10.4333 32.4745 10.4477 32.4888L10.462 32.539C10.462 32.5605 10.462 32.5748 10.4477 32.5892ZM10.3473 33.4781V32.7612H10.4405V33.4781H10.3473ZM11.2434 33.3849C11.209 33.4201 11.1676 33.4478 11.122 33.4663C11.0764 33.4848 11.0274 33.4937 10.9782 33.4924C10.9286 33.4934 10.8794 33.4845 10.8333 33.4661C10.7873 33.4478 10.7453 33.4205 10.7099 33.3858C10.6746 33.3511 10.6465 33.3097 10.6273 33.264C10.6081 33.2183 10.5982 33.1692 10.5982 33.1197C10.5979 33.0699 10.6079 33.0206 10.6277 32.975C10.6474 32.9293 10.6764 32.8883 10.7129 32.8544C10.7474 32.8192 10.7887 32.7915 10.8344 32.773C10.88 32.7545 10.9289 32.7456 10.9782 32.7469C11.0274 32.7456 11.0764 32.7545 11.122 32.773C11.1676 32.7915 11.209 32.8192 11.2434 32.8544C11.2799 32.8883 11.3089 32.9293 11.3287 32.975C11.3484 33.0206 11.3585 33.0699 11.3581 33.1197C11.3585 33.1694 11.3484 33.2187 11.3287 33.2644C11.3089 33.31 11.2799 33.3511 11.2434 33.3849ZM10.7774 33.3204C10.8348 33.3777 10.8993 33.4064 10.9782 33.4064C11.057 33.4064 11.1215 33.3777 11.1789 33.3204C11.2362 33.263 11.2578 33.1985 11.2578 33.1197C11.2578 33.0408 11.2362 32.9763 11.1789 32.9189C11.1532 32.8915 11.1221 32.8697 11.0875 32.8549C11.053 32.8401 11.0158 32.8326 10.9782 32.8329C10.8993 32.8329 10.8348 32.8616 10.7774 32.9189C10.7201 32.9763 10.6986 33.0408 10.6986 33.1197C10.6986 33.1985 10.7201 33.263 10.7774 33.3204ZM11.8456 32.7469C11.9388 32.7469 12.0033 32.7684 12.0607 32.8186C12.1072 32.8806 12.1323 32.9561 12.1323 33.0336V33.4781H12.032V33.0408C12.032 32.9691 12.0176 32.9261 11.9818 32.8903C11.9531 32.8544 11.9029 32.8329 11.8384 32.8329C11.7667 32.8329 11.7166 32.8544 11.6735 32.9046C11.6305 32.9476 11.6019 33.0121 11.6019 33.1053V33.4781H11.5158V32.7612H11.609V32.8759C11.6333 32.8352 11.6681 32.8018 11.7097 32.7791C11.7513 32.7564 11.7982 32.7453 11.8456 32.7469ZM13.2865 32.7612H13.3797V33.4781H13.2865V33.3347C13.2571 33.3842 13.215 33.4249 13.1646 33.4526C13.1142 33.4804 13.0573 33.4941 12.9998 33.4924C12.9505 33.4937 12.9016 33.4848 12.8559 33.4663C12.8103 33.4478 12.769 33.4201 12.7345 33.3849C12.6993 33.3505 12.6716 33.3091 12.6531 33.2635C12.6346 33.2179 12.6257 33.1689 12.627 33.1197C12.6257 33.0704 12.6346 33.0215 12.6531 32.9758C12.6716 32.9302 12.6993 32.8889 12.7345 32.8544C12.769 32.8192 12.8103 32.7915 12.8559 32.773C12.9016 32.7545 12.9505 32.7456 12.9998 32.7469C13.1288 32.7469 13.222 32.7971 13.2865 32.9046V32.7612ZM12.8062 33.3204C12.8564 33.3777 12.9281 33.4064 13.0069 33.4064C13.0786 33.4064 13.1503 33.3777 13.2077 33.3204C13.2586 33.2659 13.2869 33.1942 13.2869 33.1197C13.2869 33.0451 13.2586 32.9734 13.2077 32.9189C13.1819 32.8915 13.1508 32.8697 13.1163 32.8549C13.0817 32.8401 13.0445 32.8326 13.0069 32.8329C12.9281 32.8329 12.8636 32.8616 12.8062 32.9189C12.7489 32.9763 12.7202 33.0408 12.7202 33.1197C12.7202 33.1985 12.7489 33.263 12.8062 33.3204ZM13.9174 32.7469C14.0034 32.7469 14.0751 32.7684 14.1253 32.8186C14.1754 32.8759 14.1969 32.9476 14.1969 33.0336V33.4781H14.1038V33.0408C14.1038 32.9691 14.0894 32.9261 14.0536 32.8903C14.0177 32.8544 13.9747 32.8329 13.9102 32.8329C13.8385 32.8329 13.7883 32.8544 13.7453 32.9046C13.7023 32.9476 13.6736 33.0121 13.6736 33.1053V33.4781H13.5804V32.7612H13.6808V32.8759C13.7051 32.8352 13.7399 32.8018 13.7815 32.7791C13.8231 32.7564 13.87 32.7453 13.9174 32.7469ZM14.9998 32.4745H15.093V33.4781H14.9998V33.3347C14.9705 33.3842 14.9284 33.4249 14.878 33.4526C14.8275 33.4804 14.7706 33.4941 14.7131 33.4924C14.6639 33.4937 14.6149 33.4848 14.5693 33.4663C14.5236 33.4478 14.4823 33.4201 14.4479 33.3849C14.4127 33.3505 14.385 33.3091 14.3665 33.2635C14.348 33.2179 14.3391 33.1689 14.3403 33.1197C14.3391 33.0704 14.348 33.0215 14.3665 32.9758C14.385 32.9302 14.4127 32.8889 14.4479 32.8544C14.4815 32.8201 14.5216 32.7929 14.566 32.7745C14.6103 32.756 14.6579 32.7466 14.7059 32.7469C14.835 32.7469 14.9353 32.7971 14.9927 32.9046V32.4745H14.9998ZM14.5124 33.3204C14.5697 33.3777 14.6342 33.4064 14.7131 33.4064C14.7991 33.4064 14.8565 33.3777 14.9138 33.3204C14.9712 33.263 14.9998 33.1985 14.9998 33.1197C14.9998 33.0408 14.9712 32.9763 14.9138 32.9189C14.8881 32.8915 14.857 32.8697 14.8225 32.8549C14.7879 32.8401 14.7507 32.8326 14.7131 32.8329C14.6414 32.8329 14.5697 32.8616 14.5124 32.9189C14.4636 32.9742 14.4379 33.046 14.4407 33.1197C14.4407 33.1985 14.4622 33.263 14.5124 33.3204ZM16.5125 32.7612H16.6128L16.3978 33.4781H16.2902L16.1038 32.9046L15.9174 33.4781H15.8171L15.5949 32.7612H15.6952L15.8673 33.3562L16.0537 32.7612H16.154L16.3404 33.3562L16.5125 32.7612ZM17.3297 33.3849C17.2952 33.4201 17.2539 33.4478 17.2083 33.4663C17.1626 33.4848 17.1137 33.4937 17.0644 33.4924C17.0149 33.4934 16.9656 33.4845 16.9196 33.4661C16.8735 33.4478 16.8316 33.4205 16.7962 33.3858C16.7608 33.3511 16.7327 33.3097 16.7135 33.264C16.6944 33.2183 16.6845 33.1692 16.6845 33.1197C16.6832 33.0704 16.6921 33.0215 16.7106 32.9758C16.7291 32.9302 16.7569 32.8889 16.792 32.8544C16.8637 32.7827 16.9569 32.7469 17.0644 32.7469C17.1137 32.7456 17.1626 32.7545 17.2083 32.773C17.2539 32.7915 17.2952 32.8192 17.3297 32.8544C17.3649 32.8889 17.3926 32.9302 17.4111 32.9758C17.4296 33.0215 17.4385 33.0704 17.4372 33.1197C17.4385 33.1689 17.4296 33.2179 17.4111 33.2635C17.3926 33.3091 17.3649 33.3505 17.3297 33.3849ZM16.8637 33.3204C16.9139 33.3777 16.9856 33.4064 17.0644 33.4064C17.1361 33.4064 17.2078 33.3777 17.2652 33.3204C17.3161 33.2659 17.3444 33.1942 17.3444 33.1197C17.3444 33.0451 17.3161 32.9734 17.2652 32.9189C17.2395 32.8915 17.2083 32.8697 17.1738 32.8549C17.1393 32.8401 17.102 32.8326 17.0644 32.8329C16.9856 32.8329 16.9211 32.8616 16.8637 32.9189C16.8064 32.9763 16.7777 33.0408 16.7777 33.1197C16.7777 33.1985 16.8064 33.263 16.8637 33.3204ZM17.6953 32.8831C17.7383 32.7899 17.81 32.7469 17.9175 32.7469V32.8401C17.853 32.8401 17.8028 32.8616 17.7598 32.8974C17.7168 32.9404 17.6881 32.9978 17.6881 33.0767V33.4781H17.5949V32.7612H17.6953V32.8831ZM18.6272 33.4781H18.4982L18.1398 33.134V33.4781H18.0466V32.4745H18.1398V33.0767L18.4839 32.7612H18.6129L18.2401 33.1053L18.6272 33.4781Z" fill="#141414"/>
<mask id="mask2_1_42" style="mask-type:luminance" maskUnits="userSpaceOnUse" x="27" y="30" width="8" height="4">
<path d="M33.911 30.6106H28.5344C28.0593 30.6106 27.6742 30.9957 27.6742 31.4708V32.4745C27.6742 32.9496 28.0593 33.3347 28.5344 33.3347H33.911C34.3861 33.3347 34.7713 32.9496 34.7713 32.4745V31.4708C34.7713 30.9957 34.3861 30.6106 33.911 30.6106Z" fill="white"/>
</mask>
<g mask="url(#mask2_1_42)">
<path d="M33.911 30.6106H28.5344C28.0593 30.6106 27.6742 30.9957 27.6742 31.4708V32.4745C27.6742 32.9496 28.0593 33.3347 28.5344 33.3347H33.911C34.3861 33.3347 34.7713 32.9496 34.7713 32.4745V31.4708C34.7713 30.9957 34.3861 30.6106 33.911 30.6106Z" fill="#FF4F3C" fill-opacity="0.1"/>
<path d="M29.0434 31.5999H29.1868V32.4028H29.0219V31.7648L28.8785 31.8078L28.8355 31.6716L29.0506 31.5999H29.0434ZM30.1259 31.5999V32.4028H29.9682V31.8795L29.7388 32.2522H29.7245L29.4951 31.8866V32.4028H29.3373V31.5999H29.5022L29.7316 31.9798L29.961 31.5999H30.1259ZM30.7783 31.9296V32.073H30.5847V32.2594H30.4485V32.073H30.2621V31.9296H30.4485V31.7432H30.5919V31.9296H30.7783Z" fill="#D9307D"/>
<mask id="mask3_1_42" style="mask-type:luminance" maskUnits="userSpaceOnUse" x="31" y="31" width="3" height="2">
<path d="M31.7604 31.0407H33.6242V32.9046H31.7604V31.0407Z" fill="white"/>
</mask>
<g mask="url(#mask3_1_42)">
<path d="M32.2335 32.9046L32.0184 32.8616C31.9697 32.8427 31.9256 32.8133 31.8894 32.7756C31.8536 32.7397 31.8177 32.6895 31.8034 32.6465C31.7819 32.5748 31.7675 32.5031 31.7675 32.4314C31.7521 32.0535 31.7641 31.675 31.8034 31.2988C31.8223 31.25 31.8517 31.206 31.8894 31.1697C31.9252 31.1339 31.9754 31.0981 32.0184 31.0837C32.0901 31.0622 32.1618 31.0479 32.2335 31.0479C32.6114 31.0328 32.99 31.0448 33.3662 31.0837C33.4149 31.1026 33.459 31.132 33.4952 31.1697C33.533 31.206 33.5623 31.25 33.5812 31.2988C33.6027 31.3705 33.6171 31.4422 33.6171 31.5139C33.6324 31.8918 33.6204 32.2703 33.5812 32.6465C33.5621 32.6952 33.5332 32.7395 33.4962 32.7765C33.4591 32.8135 33.4149 32.8425 33.3662 32.8616C33.2945 32.8831 33.2228 32.8974 33.1511 32.8974C32.8455 32.9153 32.5391 32.9153 32.2335 32.8974" fill="url(#paint0_radial_1_42)"/>
<path d="M32.2335 32.9046L32.0184 32.8616C31.9697 32.8427 31.9256 32.8133 31.8894 32.7756C31.8536 32.7397 31.8177 32.6895 31.8034 32.6465C31.7819 32.5748 31.7675 32.5031 31.7675 32.4314C31.7521 32.0535 31.7641 31.675 31.8034 31.2988C31.8223 31.25 31.8517 31.206 31.8894 31.1697C31.9252 31.1339 31.9754 31.0981 32.0184 31.0837C32.0901 31.0622 32.1618 31.0479 32.2335 31.0479C32.6114 31.0328 32.99 31.0448 33.3662 31.0837C33.4149 31.1026 33.459 31.132 33.4952 31.1697C33.533 31.206 33.5623 31.25 33.5812 31.2988C33.6027 31.3705 33.6171 31.4422 33.6171 31.5139C33.6324 31.8918 33.6204 32.2703 33.5812 32.6465C33.5621 32.6952 33.5332 32.7395 33.4962 32.7765C33.4591 32.8135 33.4149 32.8425 33.3662 32.8616C33.2945 32.8831 33.2228 32.8974 33.1511 32.8974C32.8455 32.9153 32.5391 32.9153 32.2335 32.8974" fill="url(#paint1_radial_1_42)"/>
<path d="M32.4629 31.9727C32.4629 31.9118 32.4871 31.8535 32.5301 31.8105C32.5731 31.7674 32.6315 31.7433 32.6923 31.7433C32.7531 31.7433 32.8115 31.7674 32.8545 31.8105C32.8975 31.8535 32.9217 31.9118 32.9217 31.9727C32.9217 32.0335 32.8975 32.0919 32.8545 32.1349C32.8115 32.1779 32.7531 32.2021 32.6923 32.2021C32.6315 32.2021 32.5731 32.1779 32.5301 32.1349C32.4871 32.0919 32.4629 32.0335 32.4629 31.9727ZM32.341 31.9727C32.3338 32.0235 32.3375 32.0753 32.3521 32.1245C32.3666 32.1738 32.3915 32.2193 32.4251 32.2581C32.4588 32.2969 32.5004 32.328 32.5471 32.3493C32.5938 32.3706 32.6445 32.3817 32.6959 32.3817C32.7472 32.3817 32.798 32.3706 32.8447 32.3493C32.8914 32.328 32.933 32.2969 32.9666 32.2581C33.0003 32.2193 33.0252 32.1738 33.0397 32.1245C33.0542 32.0753 33.058 32.0235 33.0507 31.9727C33.0507 31.8776 33.013 31.7864 32.9457 31.7192C32.8785 31.652 32.7874 31.6142 32.6923 31.6142C32.5972 31.6142 32.5061 31.652 32.4388 31.7192C32.3716 31.7864 32.3339 31.8776 32.3339 31.9727H32.341ZM32.9862 31.6071C32.9871 31.6184 32.9902 31.6294 32.9954 31.6395C33.0006 31.6496 33.0077 31.6586 33.0164 31.6659C33.0251 31.6732 33.0351 31.6788 33.0459 31.6822C33.0567 31.6856 33.0681 31.6869 33.0794 31.6859C33.0958 31.6831 33.1111 31.6756 33.1233 31.6643C33.1355 31.653 33.1442 31.6384 33.1483 31.6222C33.1523 31.6061 33.1517 31.5891 33.1463 31.5734C33.1409 31.5576 33.1311 31.5438 33.118 31.5335C33.1049 31.5232 33.0891 31.5169 33.0726 31.5154C33.056 31.514 33.0393 31.5173 33.0246 31.5251C33.0099 31.5329 32.9978 31.5448 32.9897 31.5593C32.9816 31.5739 32.9779 31.5905 32.979 31.6071M32.4127 32.539L32.2837 32.5175C32.2545 32.506 32.228 32.4885 32.2058 32.4664C32.1836 32.4442 32.1662 32.4176 32.1546 32.3885L32.1331 32.2594C32.1237 32.0298 32.1309 31.7998 32.1546 31.5712C32.1653 31.5407 32.1824 31.5128 32.2046 31.4893C32.2268 31.4658 32.2538 31.4473 32.2837 31.435L32.4127 31.4135C32.6423 31.4043 32.8723 31.4115 33.1009 31.435C33.1321 31.4465 33.1605 31.4646 33.184 31.4881C33.2075 31.5116 33.2256 31.54 33.2371 31.5712C33.2604 31.8431 33.2604 32.1165 33.2371 32.3885C33.2248 32.4183 33.2063 32.4453 33.1828 32.4675C33.1593 32.4898 33.1314 32.5068 33.1009 32.5175C32.8723 32.5412 32.6423 32.5484 32.4127 32.539ZM32.4127 31.2916C32.3482 31.2916 32.298 31.2988 32.2407 31.3203C32.1953 31.3383 32.1541 31.3654 32.1196 31.4C32.0851 31.4345 32.058 31.4757 32.0399 31.521C32.018 31.5758 32.0058 31.6341 32.0041 31.6931C31.9971 31.9398 32.0091 32.1866 32.0399 32.4315C32.058 32.4768 32.0851 32.518 32.1196 32.5525C32.1541 32.5871 32.1953 32.6142 32.2407 32.6322C32.2932 32.6534 32.349 32.6655 32.4055 32.668C32.6546 32.6751 32.9039 32.6631 33.1511 32.6322C33.1965 32.6142 33.2377 32.5871 33.2722 32.5525C33.3067 32.518 33.3338 32.4768 33.3518 32.4315C33.3714 32.3762 33.3811 32.318 33.3805 32.2594C33.3894 32.0129 33.3798 31.7661 33.3518 31.521C33.3338 31.4757 33.3067 31.4345 33.2722 31.4C33.2377 31.3654 33.1965 31.3383 33.1511 31.3203C33.0959 31.3008 33.0376 31.2911 32.979 31.2916C32.788 31.2805 32.5965 31.2805 32.4055 31.2916" fill="white"/>
</g>
</g>
</g>
<path d="M27.3875 6.50923C27.365 5.98924 27.4481 5.47009 27.6316 4.98304C27.8151 4.49599 28.0953 4.05113 28.4553 3.67525C28.8154 3.29937 29.2477 3.00025 29.7264 2.7959C30.2051 2.59155 30.7202 2.4862 31.2407 2.4862C31.7611 2.4862 32.2762 2.59155 32.7549 2.7959C33.2336 3.00025 33.666 3.29937 34.026 3.67525C34.386 4.05113 34.6662 4.49599 34.8497 4.98304C35.0333 5.47009 35.1163 5.98924 35.0939 6.50923V6.68128C35.051 7.67446 34.6263 8.61274 33.9084 9.30036C33.1905 9.98798 32.2348 10.3718 31.2407 10.3718C30.2466 10.3718 29.2908 9.98798 28.5729 9.30036C27.855 8.61274 27.4303 7.67446 27.3875 6.68128V6.50923Z" fill="#CFEFEE"/>
<path d="M30.6134 6.59527C30.6134 6.62395 30.6421 6.64545 30.6779 6.65262L30.8285 6.7028C30.8973 6.72789 30.9666 6.75179 31.0363 6.77449L31.0865 6.98238L31.0937 7.00389C31.0977 7.01849 31.1047 7.03208 31.1143 7.04378C31.1239 7.05548 31.1358 7.06503 31.1494 7.07179C31.1629 7.07856 31.1777 7.08239 31.1928 7.08305C31.2079 7.0837 31.223 7.08115 31.2371 7.07558L31.2944 7.05407L31.3876 7.01823C31.4306 7.00389 31.4593 6.96088 31.4593 6.91786V6.81033C31.4598 6.76971 31.4598 6.72909 31.4593 6.68847L31.6314 6.55943L31.6815 6.75298L31.7747 7.11859C31.7802 7.13625 31.7898 7.15233 31.8028 7.16546C31.8158 7.17859 31.8318 7.18839 31.8494 7.19402C31.867 7.19966 31.8857 7.20095 31.9039 7.1978C31.9221 7.19465 31.9393 7.18715 31.954 7.17594L32.0256 7.11142L32.1618 7.00389C32.1834 6.97521 32.1977 6.94654 32.1977 6.9107L32.1833 6.13647C32.321 6.02396 32.4482 5.89919 32.5633 5.7637C32.6018 5.72118 32.6333 5.67278 32.6565 5.62032C32.6852 5.54863 32.6852 5.47695 32.6565 5.42676C32.6295 5.38504 32.59 5.35289 32.5437 5.33488C32.4973 5.31686 32.4465 5.3139 32.3984 5.3264C32.3052 5.34074 32.2335 5.39809 32.1762 5.4411L31.8894 5.65616L31.1224 5.45544C31.0937 5.44827 31.0579 5.45544 31.0292 5.47695L30.8786 5.58448L30.807 5.63466C30.7932 5.6469 30.7826 5.66226 30.7761 5.67945C30.7695 5.69664 30.7672 5.71516 30.7693 5.73343C30.7714 5.75171 30.7779 5.76921 30.7882 5.78446C30.7985 5.79971 30.8123 5.81226 30.8285 5.82105L31.1439 5.9931L31.3589 6.1078C31.2767 6.17834 31.1954 6.25003 31.1152 6.32286L30.936 6.27985L30.85 6.25117C30.8069 6.244 30.7568 6.25834 30.7353 6.30135C30.6945 6.3619 30.6562 6.42408 30.6206 6.48774C30.5991 6.51641 30.5991 6.55226 30.6062 6.58093L30.6134 6.59527ZM30.6994 6.54509L30.7496 6.4734L30.8141 6.3587H30.8285L30.9145 6.38021L31.0937 6.42322C31.1295 6.43039 31.1654 6.42322 31.1941 6.40171L31.4808 6.13647C31.4851 6.13134 31.4884 6.12538 31.4904 6.11897C31.4924 6.11255 31.4931 6.1058 31.4924 6.09911C31.4917 6.09242 31.4897 6.08594 31.4865 6.08004C31.4833 6.07415 31.4789 6.06896 31.4736 6.06478L31.1869 5.91424C31.0792 5.85477 30.9717 5.79503 30.8643 5.73502V5.72068L30.936 5.6705L31.0865 5.5558H31.1009L31.8894 5.77086C31.9109 5.77086 31.9253 5.77086 31.9396 5.75653L32.2264 5.52713C32.2837 5.48411 32.3482 5.4411 32.4128 5.42676C32.4701 5.41243 32.5418 5.42676 32.5705 5.47695C32.5848 5.50562 32.5848 5.54863 32.5705 5.59165L32.4916 5.70635C32.3748 5.84485 32.2452 5.97206 32.1045 6.08629C32.0902 6.09346 32.083 6.1078 32.083 6.12213L32.1045 6.92503L32.0973 6.9322L31.9683 7.0469L31.8966 7.11142H31.8751L31.8679 7.10425L31.7747 6.74581L31.703 6.4734C31.7008 6.46639 31.697 6.45996 31.692 6.45457C31.6869 6.44919 31.6808 6.44498 31.6739 6.44224C31.6671 6.4395 31.6597 6.43831 31.6524 6.43874C31.645 6.43917 31.6378 6.44121 31.6314 6.44473L31.5812 6.48774L31.402 6.61678C31.3733 6.63828 31.3589 6.67413 31.3589 6.70997V6.81033C31.3586 6.84857 31.3586 6.8868 31.3589 6.92503C31.3034 6.94238 31.2484 6.96151 31.1941 6.98238L31.1869 6.97522L31.1797 6.94654L31.1295 6.74581C31.1224 6.70997 31.0937 6.6813 31.0579 6.67413L30.8643 6.60244L30.7066 6.55943L30.6994 6.55226V6.53792V6.54509Z" fill="#010101"/>
<path d="M32.6565 8.93226C32.7282 8.93226 32.8357 8.93226 32.9074 8.86774C33.0149 8.79605 33.0293 8.65268 33.0364 8.53081C33.0579 7.97165 33.0579 5.23318 33.0364 4.65968C33.0293 4.53065 33.0077 4.39444 32.9074 4.32275C32.8357 4.2654 32.7353 4.25823 32.6565 4.25106H29.8248C29.6241 4.25106 29.4664 4.41595 29.4592 4.6095C29.4449 5.6418 29.452 8.07918 29.4664 8.53081C29.4736 8.65985 29.4951 8.79605 29.5954 8.86774C29.6671 8.92509 29.7746 8.93226 29.8463 8.93943H29.9037C29.9252 8.93948 29.9467 8.93948 29.9682 8.93943H30.0112C30.8953 8.94816 31.7795 8.94816 32.6636 8.93943L32.6565 8.93226ZM30.9431 4.34426L32.6565 4.35143C32.7282 4.35143 32.7999 4.3586 32.85 4.39444C32.9217 4.45179 32.9361 4.55932 32.9361 4.66685C32.9647 5.23318 32.9647 7.96448 32.9361 8.52364C32.9361 8.624 32.9217 8.7387 32.85 8.79605C32.7999 8.8319 32.7353 8.8319 32.6565 8.83907H30.3625V4.35143H30.9431V4.34426ZM29.8965 7.40532V6.00024C29.8935 5.99263 29.8923 5.98438 29.8932 5.97623C29.8941 5.96808 29.897 5.96027 29.9016 5.95348C29.9062 5.94669 29.9123 5.94113 29.9196 5.93729C29.9268 5.93344 29.9349 5.93143 29.9431 5.93143C29.9513 5.93143 29.9594 5.93344 29.9666 5.93729C29.9739 5.94113 29.9801 5.94669 29.9847 5.95348C29.9893 5.96027 29.9921 5.96808 29.993 5.97623C29.9939 5.98438 29.9927 5.99263 29.9897 6.00024V7.40532C29.9927 7.41293 29.9939 7.42117 29.993 7.42933C29.9921 7.43748 29.9893 7.44529 29.9847 7.45208C29.9801 7.45887 29.9739 7.46443 29.9666 7.46827C29.9594 7.47211 29.9513 7.47412 29.9431 7.47412C29.9349 7.47412 29.9268 7.47211 29.9196 7.46827C29.9123 7.46443 29.9062 7.45887 29.9016 7.45208C29.897 7.44529 29.8941 7.43748 29.8932 7.42933C29.8923 7.42117 29.8935 7.41293 29.8965 7.40532ZM30.0184 7.84978C30.0147 7.85909 30.0082 7.86708 29.9999 7.8727C29.9916 7.87833 29.9818 7.88133 29.9718 7.88133C29.9617 7.88133 29.9519 7.87833 29.9436 7.8727C29.9353 7.86708 29.9289 7.85909 29.9252 7.84978V7.73508C29.9221 7.72746 29.921 7.71922 29.9219 7.71107C29.9228 7.70292 29.9256 7.6951 29.9302 7.68832C29.9348 7.68153 29.941 7.67597 29.9483 7.67212C29.9555 7.66828 29.9636 7.66627 29.9718 7.66627C29.98 7.66627 29.9881 7.66828 29.9953 7.67212C30.0025 7.67597 30.0087 7.68153 30.0133 7.68832C30.0179 7.6951 30.0208 7.70292 30.0217 7.71107C30.0226 7.71922 30.0214 7.72746 30.0184 7.73508V7.84978ZM33.23 6.12211C33.2587 6.12211 33.2802 6.1006 33.2802 6.07193V5.21168C33.2802 5.20509 33.2789 5.19856 33.2763 5.19247C33.2738 5.18639 33.2701 5.18085 33.2655 5.17619C33.2608 5.17153 33.2553 5.16784 33.2492 5.16532C33.2431 5.16279 33.2366 5.1615 33.23 5.1615C33.2234 5.1615 33.2169 5.16279 33.2108 5.16532C33.2047 5.16784 33.1992 5.17153 33.1945 5.17619C33.1898 5.18085 33.1861 5.18639 33.1836 5.19247C33.1811 5.19856 33.1798 5.20509 33.1798 5.21168V6.07193C33.1798 6.1006 33.2013 6.12211 33.23 6.12211ZM33.2371 6.47338C33.2658 6.47338 33.2873 6.45187 33.2873 6.4232V6.32283C33.2904 6.31522 33.2915 6.30698 33.2906 6.29882C33.2897 6.29067 33.2869 6.28286 33.2823 6.27607C33.2777 6.26928 33.2715 6.26372 33.2642 6.25988C33.257 6.25604 33.2489 6.25403 33.2407 6.25403C33.2325 6.25403 33.2245 6.25604 33.2172 6.25988C33.21 6.26372 33.2038 6.26928 33.1992 6.27607C33.1946 6.28286 33.1917 6.29067 33.1908 6.29882C33.19 6.30698 33.1911 6.31522 33.1941 6.32283V6.4232C33.1941 6.45187 33.2156 6.47338 33.2371 6.47338ZM29.28 5.34072C29.3015 5.34072 29.323 5.31921 29.323 5.29053V4.75288C29.3261 4.74526 29.3272 4.73702 29.3263 4.72887C29.3254 4.72072 29.3226 4.7129 29.318 4.70611C29.3134 4.69932 29.3072 4.69377 29.2999 4.68992C29.2927 4.68608 29.2846 4.68407 29.2764 4.68407C29.2682 4.68407 29.2601 4.68608 29.2529 4.68992C29.2456 4.69377 29.2395 4.69932 29.2349 4.70611C29.2303 4.7129 29.2274 4.72072 29.2265 4.72887C29.2256 4.73702 29.2268 4.74526 29.2298 4.75288V5.29053C29.2298 5.31921 29.2513 5.34072 29.28 5.34072ZM29.28 5.67048C29.3158 5.67048 29.3373 5.64897 29.3373 5.6203V5.54861C29.3373 5.5353 29.3321 5.52254 29.3226 5.51313C29.3132 5.50371 29.3005 5.49843 29.2872 5.49843C29.2739 5.49843 29.2611 5.50371 29.2517 5.51313C29.2423 5.52254 29.237 5.5353 29.237 5.54861V5.6203C29.237 5.64897 29.2585 5.67048 29.2872 5.67048H29.28Z" fill="#010101"/>
<path d="M30.8643 7.84262H32.3196C32.3272 7.84566 32.3354 7.84679 32.3436 7.84591C32.3517 7.84503 32.3595 7.84217 32.3663 7.83757C32.3731 7.83297 32.3787 7.82678 32.3825 7.81954C32.3864 7.8123 32.3884 7.80422 32.3884 7.79602C32.3884 7.78782 32.3864 7.77975 32.3825 7.7725C32.3787 7.76526 32.3731 7.75907 32.3663 7.75447C32.3595 7.74987 32.3517 7.74701 32.3436 7.74613C32.3354 7.74525 32.3272 7.74638 32.3196 7.74942H30.8643C30.8567 7.74638 30.8484 7.74525 30.8403 7.74613C30.8321 7.74701 30.8243 7.74987 30.8175 7.75447C30.8107 7.75907 30.8052 7.76526 30.8013 7.7725C30.7975 7.77975 30.7955 7.78782 30.7955 7.79602C30.7955 7.80422 30.7975 7.8123 30.8013 7.81954C30.8052 7.82678 30.8107 7.83297 30.8175 7.83757C30.8243 7.84217 30.8321 7.84503 30.8403 7.84591C30.8484 7.84679 30.8567 7.84566 30.8643 7.84262ZM32.3482 8.16521H30.8715C30.8582 8.16521 30.8454 8.1705 30.836 8.17991C30.8266 8.18932 30.8213 8.20208 30.8213 8.21539C30.8213 8.2287 30.8266 8.24147 30.836 8.25088C30.8454 8.26029 30.8582 8.26557 30.8715 8.26557H32.3482C32.3615 8.26557 32.3743 8.26029 32.3837 8.25088C32.3931 8.24147 32.3984 8.2287 32.3984 8.21539C32.3984 8.20208 32.3931 8.18932 32.3837 8.17991C32.3743 8.1705 32.3615 8.16521 32.3482 8.16521Z" fill="#010101"/>
</g>
</g>
</g>
<defs>
<filter id="filter0_d_1_42" x="0.146181" y="26.8112" width="37.7793" height="10.9682" filterUnits="userSpaceOnUse" color-interpolation-filters="sRGB">
<feFlood flood-opacity="0" result="BackgroundImageFix"/>
<feColorMatrix in="SourceAlpha" type="matrix" values="0 0 0 0 0 0 0 0 0 0 0 0 0 0 0 0 0 0 127 0" result="hardAlpha"/>
<feOffset dx="0.282977" dy="0.282977"/>
<feGaussianBlur stdDeviation="0.848931"/>
<feComposite in2="hardAlpha" operator="out"/>
<feColorMatrix type="matrix" values="0 0 0 0 0 0 0 0 0 0 0 0 0 0 0 0 0 0 0.12 0"/>
<feBlend mode="normal" in2="BackgroundImageFix" result="effect1_dropShadow_1_42"/>
<feBlend mode="normal" in="SourceGraphic" in2="effect1_dropShadow_1_42" result="shape"/>
</filter>
<radialGradient id="paint0_radial_1_42" cx="0" cy="0" r="1" gradientUnits="userSpaceOnUse" gradientTransform="translate(31.8822 32.8616) scale(2.36643)">
<stop offset="0.1" stop-color="#FA8F21"/>
<stop offset="0.8" stop-color="#D82D7E"/>
</radialGradient>
<radialGradient id="paint1_radial_1_42" cx="0" cy="0" r="1" gradientUnits="userSpaceOnUse" gradientTransform="translate(33.0507 32.8042) scale(2.08248)">
<stop offset="0.6" stop-color="#8C3AAA" stop-opacity="0"/>
<stop offset="1" stop-color="#8C3AAA"/>
</radialGradient>
<clipPath id="clip0_1_42">
<rect width="37.5" height="37.07" fill="white" transform="scale(1.01333)"/>
</clipPath>
<clipPath id="clip1_1_42">
<rect width="37.4945" height="37.07" fill="white" transform="translate(0.00281413) scale(1.01333)"/>
</clipPath>
</defs>
</svg>
