<svg width="60" height="41" viewBox="0 0 60 41" fill="none" xmlns="http://www.w3.org/2000/svg">
<g clip-path="url(#clip0_1_1100)">
<mask id="mask0_1_1100" style="mask-type:luminance" maskUnits="userSpaceOnUse" x="0" y="0" width="60" height="34">
<path d="M59.9965 0H0.00350952V33.75H59.9965V0Z" fill="white"/>
</mask>
<g mask="url(#mask0_1_1100)">
<mask id="mask1_1_1100" style="mask-type:luminance" maskUnits="userSpaceOnUse" x="-1" y="-1" width="62" height="35">
<path d="M-0.280365 -0.157707H60.2804V33.9077H-0.280365V-0.157707Z" fill="white"/>
</mask>
<g mask="url(#mask1_1_1100)">
<mask id="mask2_1_1100" style="mask-type:luminance" maskUnits="userSpaceOnUse" x="14" y="1" width="32" height="32">
<path d="M14.229 1.10397H45.771V32.646H14.229V1.10397Z" fill="white"/>
</mask>
<g mask="url(#mask2_1_1100)">
<path d="M36.3526 27.0975C33.1687 27.0975 30.5785 22.8585 30.5785 17.6478C30.5962 15.9678 33.1687 14.5601 36.3526 14.5601C39.5364 14.5601 42.1057 15.9946 42.1267 17.6478C42.1267 22.8585 39.5364 27.0975 36.3526 27.0975Z" fill="white"/>
<path d="M36.3526 27.0975C33.1687 27.0975 30.5785 22.8585 30.5785 17.6478C30.5962 15.9678 33.1687 14.5601 36.3526 14.5601C39.5364 14.5601 42.1057 15.9946 42.1267 17.6478C42.1267 22.8585 39.5364 27.0975 36.3526 27.0975Z" stroke="#7B7B7B" stroke-width="0.536215" stroke-linecap="round" stroke-linejoin="round"/>
<mask id="mask3_1_1100" style="mask-type:alpha" maskUnits="userSpaceOnUse" x="30" y="14" width="13" height="14">
<path d="M36.3526 27.0975C33.1687 27.0975 30.5785 22.8585 30.5785 17.6478C30.5962 15.9678 33.1687 14.5601 36.3526 14.5601C39.5364 14.5601 42.1057 15.9946 42.1267 17.6478C42.1267 22.8585 39.5364 27.0975 36.3526 27.0975Z" fill="white"/>
<path d="M36.3526 27.0975C33.1687 27.0975 30.5785 22.8585 30.5785 17.6478C30.5962 15.9678 33.1687 14.5601 36.3526 14.5601C39.5364 14.5601 42.1057 15.9946 42.1267 17.6478C42.1267 22.8585 39.5364 27.0975 36.3526 27.0975Z" stroke="#7B7B7B" stroke-width="0.536215" stroke-linecap="round" stroke-linejoin="round"/>
</mask>
<g mask="url(#mask3_1_1100)">
<path d="M37.4116 20.0811C37.4116 21.9261 36.0803 23.4217 34.4381 23.4217C32.7958 23.4217 31.4645 21.9261 31.4645 20.0811C31.4645 18.2362 32.7958 16.7406 34.4381 16.7406C36.0803 16.7406 37.4116 18.2362 37.4116 20.0811Z" fill="#5F2C00"/>
<path d="M33.6534 22.5908C33.6534 21.2048 34.6536 20.0811 35.8873 20.0811C36.4512 20.0811 36.9648 20.3177 37.358 20.7049C37.392 20.5026 37.4116 20.2945 37.4116 20.0811C37.4116 19.6965 37.3509 19.3285 37.2443 18.9847C36.8273 18.7863 36.3687 18.6766 35.8873 18.6766C33.9856 18.6766 32.4424 20.389 32.4065 22.5158C32.7783 22.9075 33.239 23.1923 33.7519 23.3287C33.688 23.0953 33.6534 22.8476 33.6534 22.5908Z" fill="#6D3B00"/>
<path d="M33.6534 22.5908C33.6534 22.8476 33.688 23.0953 33.7519 23.3287C33.9725 23.3873 34.2014 23.4216 34.4381 23.4216C34.5101 23.4216 34.5807 23.4152 34.6515 23.4096C34.5251 23.1693 34.4512 22.89 34.4512 22.5908C34.4512 21.6997 35.0941 20.9774 35.8873 20.9774C36.3713 20.9774 36.7986 21.2473 37.0587 21.6595C37.1995 21.3651 37.3008 21.0439 37.358 20.7049C36.9648 20.3177 36.4512 20.0811 35.8873 20.0811C34.6536 20.0811 33.6534 21.2048 33.6534 22.5908Z" fill="#8E5700"/>
<path d="M37.0587 21.6595C36.7986 21.2473 36.3713 20.9775 35.8873 20.9775C35.0942 20.9775 34.4512 21.6997 34.4512 22.5908C34.4512 22.89 34.525 23.1693 34.6515 23.4096C35.6944 23.3261 36.589 22.6416 37.0587 21.6595Z" fill="#B78300"/>
<path d="M36.4655 20.0811C36.4655 21.3391 35.5578 22.3588 34.4381 22.3588C33.3183 22.3588 32.4106 21.3391 32.4106 20.0811C32.4106 18.8233 33.3183 17.8035 34.4381 17.8035C35.5578 17.8035 36.4655 18.8233 36.4655 20.0811Z" fill="#291201"/>
<path d="M34.2128 18.116C34.2128 18.6106 33.8558 19.0116 33.4156 19.0116C32.9752 19.0116 32.6183 18.6106 32.6183 18.116C32.6183 17.6213 32.9752 17.2204 33.4156 17.2204C33.8558 17.2204 34.2128 17.6213 34.2128 18.116Z" fill="white"/>
</g>
<path d="M36.3526 27.0975C33.1687 27.0975 30.5785 22.8585 30.5785 17.6478C30.5962 15.9678 33.1687 14.5601 36.3526 14.5601C39.5364 14.5601 42.1057 15.9946 42.1267 17.6478C42.1267 22.8585 39.5364 27.0975 36.3526 27.0975Z" stroke="#7B7B7B" stroke-width="0.536215" stroke-linecap="round" stroke-linejoin="round"/>
<path d="M23.6727 27.0975C20.4888 27.0975 17.8985 22.8585 17.8985 17.6478C17.9163 15.9678 20.4888 14.5601 23.6727 14.5601C26.8565 14.5601 29.4258 15.9946 29.4468 17.6478C29.4468 22.8585 26.8565 27.0975 23.6727 27.0975Z" fill="white"/>
<path d="M23.6727 27.0975C20.4888 27.0975 17.8985 22.8585 17.8985 17.6478C17.9163 15.9678 20.4888 14.5601 23.6727 14.5601C26.8565 14.5601 29.4258 15.9946 29.4468 17.6478C29.4468 22.8585 26.8565 27.0975 23.6727 27.0975Z" stroke="#7B7B7B" stroke-width="0.536215" stroke-linecap="round" stroke-linejoin="round"/>
<mask id="mask4_1_1100" style="mask-type:alpha" maskUnits="userSpaceOnUse" x="17" y="14" width="13" height="14">
<path d="M23.6727 27.0975C20.4888 27.0975 17.8985 22.8585 17.8985 17.6478C17.9163 15.9678 20.4888 14.5601 23.6727 14.5601C26.8565 14.5601 29.4258 15.9946 29.4468 17.6478C29.4468 22.8585 26.8565 27.0975 23.6727 27.0975Z" fill="white"/>
<path d="M23.6727 27.0975C20.4888 27.0975 17.8985 22.8585 17.8985 17.6478C17.9163 15.9678 20.4888 14.5601 23.6727 14.5601C26.8565 14.5601 29.4258 15.9946 29.4468 17.6478C29.4468 22.8585 26.8565 27.0975 23.6727 27.0975Z" stroke="#7B7B7B" stroke-width="0.536215" stroke-linecap="round" stroke-linejoin="round"/>
</mask>
<g mask="url(#mask4_1_1100)">
<path d="M24.7317 20.0811C24.7317 21.9261 23.4004 23.4217 21.7582 23.4217C20.1159 23.4217 18.7846 21.9261 18.7846 20.0811C18.7846 18.2362 20.1159 16.7406 21.7582 16.7406C23.4004 16.7406 24.7317 18.2362 24.7317 20.0811Z" fill="#5F2C00"/>
<path d="M20.9735 22.5908C20.9735 21.2048 21.9737 20.0811 23.2074 20.0811C23.7713 20.0811 24.2849 20.3177 24.6781 20.7049C24.7121 20.5026 24.7317 20.2945 24.7317 20.0811C24.7317 19.6965 24.671 19.3285 24.5644 18.9847C24.1474 18.7863 23.6888 18.6766 23.2074 18.6766C21.3057 18.6766 19.7625 20.389 19.7266 22.5158C20.0984 22.9075 20.5591 23.1923 21.072 23.3287C21.0081 23.0953 20.9735 22.8476 20.9735 22.5908Z" fill="#6D3B00"/>
<path d="M20.9735 22.5908C20.9735 22.8476 21.0081 23.0953 21.072 23.3287C21.2926 23.3873 21.5215 23.4216 21.7582 23.4216C21.8302 23.4216 21.9008 23.4152 21.9716 23.4096C21.8452 23.1693 21.7713 22.89 21.7713 22.5908C21.7713 21.6997 22.4142 20.9774 23.2074 20.9774C23.6914 20.9774 24.1186 21.2473 24.3788 21.6595C24.5196 21.3651 24.6209 21.0439 24.6781 20.7049C24.2849 20.3177 23.7713 20.0811 23.2074 20.0811C21.9737 20.0811 20.9735 21.2048 20.9735 22.5908Z" fill="#8E5700"/>
<path d="M24.3788 21.6595C24.1186 21.2473 23.6914 20.9775 23.2074 20.9775C22.4142 20.9775 21.7713 21.6997 21.7713 22.5908C21.7713 22.89 21.8451 23.1693 21.9715 23.4096C23.0145 23.3261 23.9091 22.6416 24.3788 21.6595Z" fill="#B78300"/>
<path d="M23.7856 20.0811C23.7856 21.3391 22.8779 22.3588 21.7581 22.3588C20.6384 22.3588 19.7307 21.3391 19.7307 20.0811C19.7307 18.8233 20.6384 17.8035 21.7581 17.8035C22.8779 17.8035 23.7856 18.8233 23.7856 20.0811Z" fill="#291201"/>
<path d="M21.5328 18.116C21.5328 18.6106 21.1759 19.0116 20.7356 19.0116C20.2953 19.0116 19.9384 18.6106 19.9384 18.116C19.9384 17.6213 20.2953 17.2204 20.7356 17.2204C21.1759 17.2204 21.5328 17.6213 21.5328 18.116Z" fill="white"/>
</g>
<path d="M23.6727 27.0975C20.4888 27.0975 17.8985 22.8585 17.8985 17.6478C17.9163 15.9678 20.4888 14.5601 23.6727 14.5601C26.8565 14.5601 29.4258 15.9946 29.4468 17.6478C29.4468 22.8585 26.8565 27.0975 23.6727 27.0975Z" stroke="#7B7B7B" stroke-width="0.536215" stroke-linecap="round" stroke-linejoin="round"/>
</g>
</g>
</g>
</g>
<defs>
<clipPath id="clip0_1_1100">
<rect width="60" height="33.75" fill="white"/>
</clipPath>
</defs>
</svg>
