<svg width="200" height="38" viewBox="0 0 200 38" fill="none" xmlns="http://www.w3.org/2000/svg">
<g clip-path="url(#clip0_1_1081)">
<g clip-path="url(#clip1_1_1081)">
<g clip-path="url(#clip2_1_1081)">
<path d="M19.2777 35.6285C28.313 35.6285 35.6376 28.3038 35.6376 19.2684C35.6376 10.2331 28.313 2.90846 19.2777 2.90846C10.2423 2.90846 2.91766 10.2331 2.91766 19.2684C2.91766 28.3038 10.2423 35.6285 19.2777 35.6285Z" fill="black"/>
<path d="M33.1525 17.0871C33.1525 25.9831 25.9361 33.1434 17.0962 33.1434C8.2564 33.1434 1.03998 25.9831 1.03998 17.0871C1.03998 8.19119 8.2564 1.03083 17.0962 1.03083C25.9361 1.03083 33.1525 8.19119 33.1525 17.0871Z" fill="#E44332" stroke="black" stroke-width="2.06167"/>
<path d="M24.1712 22.0688C23.0793 23.6125 21.5173 24.7614 19.7186 25.3443C17.9198 25.927 15.9808 25.9124 14.191 25.3023C12.4013 24.6923 10.8569 23.5197 9.78855 21.9596C8.72017 20.3996 8.18512 18.5357 8.26329 16.6465C8.34146 14.7573 9.02867 12.9441 10.2223 11.4776C11.4159 10.0111 13.0519 8.97011 14.8858 8.51001C16.7199 8.04993 18.6534 8.19546 20.3979 8.92485C22.1424 9.65425 23.6041 10.9284 24.5648 12.557L17.0179 17.0087L24.1712 22.0688Z" fill="white"/>
<path d="M56.672 28.8633V23.8164H52.2188V15.0955H57.2658V10.3083H52.2188V5.81802H48.9902L46.3554 10.4568L42.5702 12.1267V15.0955H45.8359V21.5527C45.8359 26.3399 47.6172 28.8633 53.295 28.8633H56.672ZM69.2236 29.4571C77.091 29.4571 79.8742 24.5586 79.8742 19.5858C79.8742 14.6131 77.091 9.71457 69.2236 9.71457C61.3563 9.71457 58.6102 14.6131 58.6102 19.5858C58.6102 24.5957 61.3563 29.4571 69.2236 29.4571ZM64.9931 19.5858C64.9931 15.8748 66.1806 14.6873 69.2236 14.6873C72.2666 14.6873 73.4542 15.8748 73.4542 19.5858C73.4542 23.2968 72.2666 24.4844 69.2236 24.4844C66.1806 24.4844 64.9931 23.2968 64.9931 19.5858ZM95.4206 9.71457C92.2663 9.71457 90.151 10.865 88.8893 12.8318V10.3083H82.5063V36.2853H88.8893V26.2656C90.151 28.2696 92.2663 29.4571 95.4206 29.4571C101.507 29.4571 103.919 24.7812 103.919 19.6229C103.919 14.2791 101.507 9.71457 95.4206 9.71457ZM93.2682 24.4844C90.0025 24.4844 88.8893 22.8886 88.8893 19.5858C88.8893 16.283 90.0025 14.6873 93.2682 14.6873C96.4226 14.6873 97.5359 16.1346 97.5359 19.5858C97.5359 23.0371 96.4226 24.4844 93.2682 24.4844ZM132.064 9.71457C128.687 9.71457 126.646 11.3474 125.496 13.8338C124.568 11.2361 122.564 9.71457 119.372 9.71457C116.181 9.71457 114.214 11.1619 113.064 13.4627V10.3083H106.681V28.8633H113.064V20.1425C113.064 16.5057 114.251 14.8729 116.738 14.8729C118.853 14.8729 119.781 16.1717 119.781 18.5468V28.8633H126.052V20.1425C126.052 16.5057 127.203 14.8729 129.726 14.8729C131.841 14.8729 132.769 16.1717 132.769 18.5468V28.8633H139.152V17.5819C139.152 12.7205 136.925 9.71457 132.064 9.71457ZM148.272 29.3458C152.02 29.3458 154.321 27.7129 155.249 25.0039C155.249 26.5254 155.36 27.7871 155.545 28.8633H161.038C160.815 27.3418 160.704 25.709 160.704 23.7422V16.3573C160.704 12.1267 157.809 9.71457 151.946 9.71457C146.082 9.71457 142.668 12.5349 142.483 16.4686H148.68C148.717 14.8358 149.793 13.9451 152.02 13.9451C154.135 13.9451 154.803 14.6131 154.803 15.7264C154.803 16.6913 154.358 17.1366 152.651 17.4335L148.457 18.1757C143.336 19.0292 142.112 20.996 142.112 23.9648C142.112 27.2305 144.561 29.3458 148.272 29.3458ZM150.684 25.1894C149.385 25.1894 148.383 24.5215 148.383 23.2226C148.383 21.9609 149.051 21.33 150.832 20.8847L151.909 20.6249C153.059 20.328 153.913 20.1054 154.803 19.4374V20.1425C154.803 23.4824 153.096 25.1894 150.684 25.1894ZM176.663 28.8633V23.8164H172.21V15.0955H177.257V10.3083H172.21V5.81802H168.981L166.346 10.4568L162.561 12.1267V15.0955H165.827V21.5527C165.827 26.3399 167.608 28.8633 173.286 28.8633H176.663ZM188.993 25.1894C186.618 25.1894 185.171 24.1875 184.799 21.2187H198.716C198.79 20.8105 198.827 20.2538 198.827 19.6601C198.827 14.5018 196.415 9.71457 188.844 9.71457C181.719 9.71457 178.601 14.1678 178.601 19.5487C178.601 24.6328 181.274 29.4571 188.844 29.4571C195.598 29.4571 198.122 26.4512 198.753 23.2597H192.555C192.036 24.373 190.885 25.1894 188.993 25.1894ZM188.919 13.908C191.405 13.908 192.555 15.1697 192.778 17.5077H184.874C185.282 14.8358 186.618 13.908 188.919 13.908Z" fill="black"/>
</g>
</g>
</g>
<defs>
<clipPath id="clip0_1_1081">
<rect width="200" height="37.11" fill="white"/>
</clipPath>
<clipPath id="clip1_1_1081">
<rect width="200" height="37.11" fill="white"/>
</clipPath>
<clipPath id="clip2_1_1081">
<rect width="199.982" height="37.11" fill="white" transform="translate(0.00915527)"/>
</clipPath>
</defs>
</svg>
