<svg width="272" height="29" viewBox="0 0 272 29" fill="none" xmlns="http://www.w3.org/2000/svg">
<path d="M15.5185 22.1138L14.2479 18.3021H5.79033L4.51976 22.1235H0L7.42947 0.902011H12.6088L20.0673 22.1235H15.5088L15.5185 22.1138ZM7.11909 14.3934H12.9385L10.0288 5.72244L7.11909 14.3934ZM21.0372 22.1235V0H24.9459V22.1138H21.0372V22.1235ZM27.6132 22.1235V0H31.5219V22.1138H27.6132V22.1235ZM49.2808 6.54686C50.9297 6.54686 52.3069 7.0997 53.3738 8.20539C54.4601 9.32078 55.013 10.8532 55.013 12.8124V22.1235H51.1043V13.2974C51.1043 12.2887 50.823 11.5225 50.2798 10.9987C49.9913 10.7201 49.6489 10.5033 49.2737 10.3615C48.8985 10.2198 48.4983 10.1561 48.0976 10.1743C47.0889 10.1743 46.2838 10.4944 45.6728 11.1151C45.0715 11.7455 44.7611 12.6864 44.7611 13.9278V22.1235H40.8524V0.902011H44.7611V8.66125C45.7116 7.24519 47.2246 6.54686 49.2808 6.54686ZM68.9505 6.96391H72.8592V22.1235H68.9505V20.3292C68.3606 21.0613 67.6057 21.6434 66.7477 22.0278C65.8896 22.4121 64.9527 22.5879 64.0137 22.5406C63.0323 22.5478 62.0606 22.3466 61.1628 21.9504C60.2649 21.5541 59.4614 20.9718 58.8053 20.2419C57.3722 18.6939 56.5997 16.6478 56.6521 14.5389C56.6521 12.3081 57.3699 10.4071 58.8053 8.87463C59.4567 8.137 60.2587 7.54757 61.1571 7.14603C62.0556 6.74449 63.0296 6.54017 64.0137 6.54686C66.1378 6.54686 67.7769 7.28399 68.9602 8.75824V6.96391H68.9505ZM61.7441 17.6329C62.137 18.0235 62.6053 18.33 63.1207 18.5334C63.636 18.7369 64.1874 18.8331 64.7411 18.8161C65.3041 18.8356 65.865 18.738 66.3884 18.5297C66.9118 18.3213 67.3863 18.0067 67.7818 17.6056C68.1774 17.2045 68.4855 16.7258 68.6867 16.1996C68.8878 15.6734 68.9777 15.1112 68.9505 14.5486C68.9505 13.2877 68.5528 12.2693 67.7381 11.4837C67.3499 11.0849 66.883 10.7712 66.367 10.5625C65.8511 10.3538 65.2974 10.2546 64.7411 10.2713C63.5287 10.2713 62.5298 10.6689 61.7344 11.4837C61.3415 11.8865 61.0348 12.3651 60.833 12.8904C60.6313 13.4157 60.5386 13.9766 60.5608 14.5389C60.5608 15.7997 60.9488 16.8278 61.7441 17.6426V17.6329ZM83.9258 6.54686C85.5747 6.54686 86.9422 7.0997 88.0188 8.20539C89.1051 9.32078 89.6483 10.8532 89.6483 12.8124V22.1235H85.7396V13.2974C85.7396 12.2887 85.468 11.5225 84.9248 10.9987C84.6363 10.7201 84.2939 10.5033 83.9187 10.3615C83.5435 10.2198 83.1432 10.1561 82.7425 10.1743C81.7338 10.1743 80.9191 10.4944 80.3178 11.1151C79.7067 11.7455 79.4061 12.6864 79.4061 13.9278V22.1235H75.4974V6.96391H79.4061V8.66125C80.3566 7.24519 81.8599 6.54686 83.9258 6.54686ZM103.566 0.902011H107.475V22.1235H103.566V20.3292C102.412 21.8035 100.783 22.5406 98.6587 22.5406C96.6219 22.5406 94.8761 21.7744 93.4212 20.2419C91.9846 18.6954 91.2085 16.6491 91.2583 14.5389C91.2583 12.3081 91.976 10.4071 93.4115 8.87463C94.8664 7.32278 96.6122 6.54686 98.649 6.54686C100.783 6.54686 102.412 7.28399 103.566 8.75824V0.902011ZM96.3503 17.6329C96.751 18.0237 97.2263 18.3299 97.7479 18.5332C98.2694 18.7365 98.8266 18.8327 99.3861 18.8161C99.9415 18.8344 100.495 18.7389 101.012 18.5354C101.529 18.3319 101.999 18.0247 102.393 17.6329C102.785 17.2219 103.092 16.7363 103.293 16.2048C103.495 15.6734 103.588 15.1069 103.566 14.5389C103.566 13.2877 103.178 12.2693 102.383 11.4837C101.994 11.0837 101.525 10.7693 101.008 10.5606C100.49 10.3518 99.9343 10.2533 99.3764 10.2713C98.8158 10.259 98.2585 10.3615 97.7389 10.5725C97.2193 10.7835 96.7484 11.0985 96.355 11.4982C95.9617 11.8979 95.6542 12.3738 95.4516 12.8967C95.249 13.4197 95.1554 13.9785 95.1767 14.5389C95.1767 15.7997 95.5647 16.8278 96.3503 17.6426V17.6329ZM113.634 11.2703C113.634 11.6776 113.896 12.0074 114.41 12.2693C114.963 12.5118 115.622 12.7348 116.389 12.9385C117.164 13.1228 117.921 13.3653 118.687 13.666C119.51 13.965 120.219 14.5138 120.714 15.2355C121.21 15.9572 121.468 16.8157 121.451 17.6911C121.451 19.2429 120.869 20.4553 119.696 21.2991C118.42 22.1649 116.901 22.5999 115.36 22.5406C112.247 22.5406 110.123 21.3379 108.998 18.9325L112.393 17.0315C112.829 18.3409 113.818 19.0004 115.36 19.0004C116.747 19.0004 117.446 18.564 117.446 17.6911C117.446 17.2934 117.174 16.9636 116.631 16.7212C116.107 16.4593 115.467 16.2362 114.691 16.0228C113.915 15.8288 113.159 15.5767 112.383 15.2663C111.617 14.9753 110.967 14.4904 110.414 13.8502C109.875 13.1339 109.601 12.2532 109.638 11.3576C109.606 10.6842 109.737 10.0131 110.021 9.40157C110.305 8.79008 110.732 8.2565 111.267 7.84653C112.453 6.95496 113.907 6.49628 115.39 6.54686C116.621 6.54686 117.746 6.82813 118.755 7.39067C119.76 7.93544 120.588 8.75668 121.141 9.75724L117.814 11.571C117.62 11.0933 117.283 10.6875 116.849 10.4096C116.414 10.1317 115.905 9.99525 115.39 10.0191C114.885 10.0191 114.458 10.1355 114.119 10.3586C113.789 10.5817 113.634 10.8823 113.634 11.2703ZM142.78 20.2419C142.035 20.9899 141.147 21.5793 140.168 21.9744C139.19 22.3695 138.141 22.5621 137.086 22.5406C136.03 22.5628 134.98 22.3706 133.999 21.9755C133.019 21.5804 132.129 20.9907 131.383 20.2419C130.634 19.4964 130.044 18.6065 129.649 17.6262C129.254 16.6459 129.062 15.5956 129.085 14.5389C129.085 12.3081 129.851 10.4071 131.383 8.87463C132.125 8.11785 133.013 7.52091 133.994 7.12057C134.975 6.72023 136.027 6.52498 137.086 6.54686C138.144 6.52631 139.194 6.72221 140.173 7.12251C141.153 7.52281 142.039 8.11906 142.78 8.87463C143.537 9.60762 144.134 10.4891 144.535 11.4637C144.935 12.4384 145.13 13.4853 145.107 14.5389C145.129 15.598 144.934 16.6504 144.534 17.6313C144.133 18.6121 143.536 19.5006 142.78 20.2419ZM134.147 17.5456C134.53 17.9332 134.989 18.2382 135.494 18.4417C136 18.6452 136.542 18.743 137.086 18.7289C137.635 18.7369 138.179 18.6339 138.687 18.4259C139.194 18.218 139.655 17.9094 140.04 17.5188C140.425 17.1282 140.727 16.6637 140.928 16.1532C141.129 15.6427 141.224 15.0969 141.208 14.5486C141.225 13.9994 141.131 13.4525 140.931 12.9409C140.731 12.4293 140.429 11.9636 140.043 11.572C139.658 11.1804 139.197 10.8709 138.689 10.6623C138.181 10.4538 137.636 10.3504 137.086 10.3586C136.537 10.3432 135.991 10.4415 135.481 10.6473C134.972 10.8531 134.511 11.162 134.126 11.5545C133.742 11.947 133.443 12.4147 133.248 12.9283C133.053 13.4419 132.966 13.9902 132.993 14.5389C132.993 15.7512 133.381 16.7503 134.147 17.5456ZM155.379 6.54686C157.028 6.54686 158.395 7.0997 159.472 8.20539C160.558 9.32078 161.111 10.8532 161.111 12.8124V22.1235H157.202V13.2974C157.202 12.2887 156.921 11.5225 156.378 10.9987C156.089 10.7201 155.747 10.5033 155.372 10.3615C154.996 10.2198 154.596 10.1561 154.195 10.1743C153.187 10.1743 152.382 10.4944 151.771 11.1151C151.169 11.7455 150.859 12.6864 150.859 13.9278V22.1235H146.95V6.96391H150.869V8.66125C151.809 7.24519 153.323 6.54686 155.379 6.54686ZM173.807 11.2703C173.807 11.6776 174.069 12.0074 174.593 12.2693C175.145 12.5118 175.795 12.7348 176.571 12.9385C177.337 13.1228 178.104 13.3653 178.87 13.666C179.691 13.9667 180.397 14.5161 180.891 15.2377C181.385 15.9592 181.641 16.8169 181.624 17.6911C181.624 19.2429 181.042 20.4553 179.879 21.2991C178.6 22.1662 177.077 22.6013 175.533 22.5406C172.43 22.5406 170.296 21.3379 169.171 18.9325L172.565 17.0315C173.012 18.3409 174.001 19.0004 175.533 19.0004C176.93 19.0004 177.628 18.564 177.628 17.6911C177.628 17.2934 177.357 16.9636 176.814 16.7212C176.189 16.43 175.54 16.1963 174.874 16.0228C174.098 15.8288 173.332 15.5767 172.565 15.2663C171.799 14.9753 171.14 14.4904 170.597 13.8502C170.056 13.1345 169.778 12.2541 169.811 11.3576C169.811 9.86393 170.354 8.69034 171.44 7.84653C172.625 6.95496 174.08 6.49628 175.562 6.54686C176.794 6.54686 177.919 6.82813 178.928 7.39067C179.937 7.93395 180.768 8.75533 181.324 9.75724L177.987 11.571C177.793 11.0933 177.456 10.6875 177.021 10.4096C176.587 10.1317 176.077 9.99525 175.562 10.0191C175.058 10.0191 174.641 10.1355 174.302 10.3586C173.972 10.5817 173.817 10.8823 173.817 11.2703H173.807ZM193.234 6.96391H197.143V22.1235H193.234V20.4262C192.284 21.8325 190.78 22.5406 188.714 22.5406C187.951 22.5617 187.191 22.4243 186.483 22.1372C185.776 21.8501 185.135 21.4194 184.602 20.8723C183.535 19.7667 182.992 18.2342 182.992 16.275V6.96391H186.901V15.79C186.901 16.7987 187.172 17.5747 187.715 18.1178C188.009 18.3867 188.353 18.5947 188.728 18.7295C189.102 18.8644 189.5 18.9235 189.898 18.9034C190.345 18.9251 190.792 18.8525 191.21 18.6904C191.628 18.5284 192.007 18.2804 192.322 17.9626C192.933 17.3419 193.234 16.4011 193.234 15.1499V6.96391ZM208.636 6.54686C210.673 6.54686 212.419 7.32278 213.845 8.87463C215.294 10.3988 216.079 12.4362 216.027 14.5389C216.077 16.6527 215.293 18.7013 213.845 20.2419C213.191 20.9747 212.388 21.559 211.489 21.9555C210.591 22.352 209.618 22.5515 208.636 22.5406C206.512 22.5406 204.873 21.8035 203.719 20.3292V28.1854H199.82V6.95422H203.719V8.74854C204.304 8.01552 205.055 7.43252 205.91 7.04793C206.765 6.66334 207.7 6.48824 208.636 6.53716V6.54686ZM204.902 17.6329C205.296 18.0247 205.766 18.3319 206.283 18.5354C206.8 18.7389 207.353 18.8344 207.909 18.8161C208.472 18.8356 209.033 18.738 209.556 18.5297C210.079 18.3213 210.554 18.0067 210.949 17.6056C211.345 17.2045 211.653 16.7258 211.854 16.1996C212.055 15.6734 212.145 15.1112 212.118 14.5486C212.118 13.2877 211.711 12.2693 210.906 11.4837C210.516 11.0837 210.048 10.7693 209.53 10.5606C209.012 10.3518 208.457 10.2533 207.899 10.2713C206.696 10.2713 205.697 10.6689 204.902 11.4837C204.507 11.8857 204.199 12.364 203.995 12.8893C203.792 13.4146 203.698 13.9759 203.719 14.5389C203.719 15.7997 204.116 16.8278 204.902 17.6426V17.6329ZM226.696 6.54686C228.733 6.54686 230.478 7.32278 231.904 8.87463C232.622 9.62901 233.185 10.5176 233.559 11.4895C233.934 12.4614 234.113 13.4976 234.086 14.5389C234.136 16.6527 233.352 18.7013 231.904 20.2419C231.251 20.9752 230.448 21.5599 229.549 21.9564C228.651 22.353 227.678 22.5522 226.696 22.5406C224.572 22.5406 222.933 21.8035 221.788 20.3292V28.1854H217.879V6.95422H221.788V8.74854C222.942 7.27428 224.572 6.53716 226.696 6.53716V6.54686ZM222.971 17.6329C223.364 18.024 223.832 18.3307 224.348 18.5342C224.863 18.7377 225.414 18.8336 225.968 18.8161C226.531 18.8356 227.092 18.738 227.616 18.5297C228.139 18.3213 228.613 18.0067 229.009 17.6056C229.405 17.2045 229.713 16.7258 229.914 16.1996C230.115 15.6734 230.205 15.1112 230.178 14.5486C230.178 13.2877 229.78 12.2693 228.965 11.4837C228.576 11.0837 228.108 10.7693 227.59 10.5606C227.072 10.3518 226.517 10.2533 225.959 10.2713C225.404 10.2536 224.851 10.3524 224.337 10.5612C223.822 10.77 223.357 11.0842 222.971 11.4837C222.577 11.8857 222.268 12.364 222.065 12.8893C221.861 13.4146 221.767 13.9759 221.788 14.5389C221.788 15.7997 222.176 16.8278 222.971 17.6426V17.6329ZM248.848 20.2419C248.103 20.9911 247.213 21.5812 246.233 21.9763C245.252 22.3714 244.202 22.5634 243.145 22.5406C240.915 22.5406 239.014 21.7744 237.452 20.2419C236.703 19.4964 236.113 18.6065 235.718 17.6262C235.323 16.6459 235.131 15.5956 235.153 14.5389C235.153 12.3081 235.92 10.4071 237.452 8.87463C238.193 8.11785 239.082 7.52091 240.063 7.12057C241.043 6.72023 242.096 6.52498 243.155 6.54686C244.213 6.52631 245.263 6.72221 246.242 7.12251C247.221 7.52281 248.108 8.11906 248.848 8.87463C249.605 9.60762 250.203 10.4891 250.604 11.4637C251.004 12.4384 251.199 13.4853 251.176 14.5389C251.198 15.598 251.003 16.6504 250.602 17.6313C250.202 18.6121 249.605 19.5006 248.848 20.2419ZM240.216 17.5456C240.598 17.932 241.055 18.2363 241.559 18.4398C242.062 18.6432 242.602 18.7416 243.145 18.7289C243.693 18.7356 244.237 18.6316 244.744 18.4231C245.251 18.2147 245.711 17.9061 246.096 17.5158C246.481 17.1255 246.783 16.6615 246.984 16.1516C247.186 15.6418 247.282 15.0965 247.267 14.5486C247.283 13.9998 247.188 13.4535 246.987 12.9425C246.786 12.4315 246.484 11.9664 246.099 11.575C245.714 11.1837 245.254 10.8742 244.747 10.6651C244.239 10.4561 243.694 10.3518 243.145 10.3586C242.597 10.3446 242.052 10.4439 241.543 10.6503C241.035 10.8567 240.575 11.1657 240.192 11.5581C239.809 11.9505 239.511 12.4177 239.316 12.9306C239.122 13.4435 239.035 13.991 239.062 14.5389C239.062 15.7512 239.45 16.7503 240.207 17.5456H240.216ZM256.928 9.57296C257.296 8.60305 257.898 7.87562 258.722 7.39067C259.566 6.90572 260.507 6.66324 261.535 6.66324V11.0278C260.415 10.8737 259.277 11.1322 258.334 11.7552C257.393 12.3857 256.928 13.4235 256.928 14.8783V22.1235H253.019V6.96391H256.928V9.57296ZM272 10.7271H268.576V17.0315C268.576 17.5553 268.702 17.9335 268.964 18.176C269.226 18.4185 269.614 18.564 270.118 18.6028C270.623 18.6222 271.253 18.6125 272 18.5737V22.1235C269.313 22.4145 267.412 22.172 266.297 21.3573C265.211 20.5523 264.668 19.1071 264.668 17.0315V10.7271H262.029V6.96391H264.668V3.90872L268.576 2.72543V6.96391H272V10.7271Z" fill="#232720"/>
</svg>
