<svg width="30" height="30" viewBox="0 0 30 30" fill="none" xmlns="http://www.w3.org/2000/svg">
<path d="M3.75 7.8125C3.75 7.56386 3.84877 7.3254 4.02459 7.14959C4.2004 6.97377 4.43886 6.875 4.6875 6.875H21.5625C21.8111 6.875 22.0496 6.97377 22.2254 7.14959C22.4012 7.3254 22.5 7.56386 22.5 7.8125C22.5 8.06114 22.4012 8.2996 22.2254 8.47541C22.0496 8.65123 21.8111 8.75 21.5625 8.75H4.6875C4.43886 8.75 4.2004 8.65123 4.02459 8.47541C3.84877 8.2996 3.75 8.06114 3.75 7.8125ZM10 15.3912C10 15.1426 10.0988 14.9042 10.2746 14.7283C10.4504 14.5525 10.6889 14.4537 10.9375 14.4537H25.3125C25.5611 14.4537 25.7996 14.5525 25.9754 14.7283C26.1512 14.9042 26.25 15.1426 26.25 15.3912C26.25 15.6399 26.1512 15.8783 25.9754 16.0542C25.7996 16.23 25.5611 16.3287 25.3125 16.3287H10.9375C10.6889 16.3287 10.4504 16.23 10.2746 16.0542C10.0988 15.8783 10 15.6399 10 15.3912ZM10 22.8125C10 22.5639 10.0988 22.3254 10.2746 22.1496C10.4504 21.9738 10.6889 21.875 10.9375 21.875H25.3125C25.5611 21.875 25.7996 21.9738 25.9754 22.1496C26.1512 22.3254 26.25 22.5639 26.25 22.8125C26.25 23.0611 26.1512 23.2996 25.9754 23.4754C25.7996 23.6512 25.5611 23.75 25.3125 23.75H10.9375C10.6889 23.75 10.4504 23.6512 10.2746 23.4754C10.0988 23.2996 10 23.0611 10 22.8125ZM4.6875 13.75C4.93614 13.75 5.1746 13.8488 5.35041 14.0246C5.52623 14.2004 5.625 14.4389 5.625 14.6875V23.4375C5.625 23.6861 5.52623 23.9246 5.35041 24.1004C5.1746 24.2762 4.93614 24.375 4.6875 24.375C4.43886 24.375 4.2004 24.2762 4.02459 24.1004C3.84877 23.9246 3.75 23.6861 3.75 23.4375V14.6875C3.75 14.4389 3.84877 14.2004 4.02459 14.0246C4.2004 13.8488 4.43886 13.75 4.6875 13.75Z" fill="#E5E5E5"/>
</svg>
