<svg width="500" height="97" viewBox="0 0 500 97" fill="none" xmlns="http://www.w3.org/2000/svg">
<g clip-path="url(#clip0_1_1052)">
<g clip-path="url(#clip1_1_1052)">
<g clip-path="url(#clip2_1_1052)">
<path d="M46.6485 96.2197C71.3014 96.2197 91.2866 76.2345 91.2866 51.5815C91.2866 26.9286 71.3014 6.94336 46.6485 6.94336C21.9955 6.94336 2.01031 26.9286 2.01031 51.5815C2.01031 76.2345 21.9955 96.2197 46.6485 96.2197Z" fill="black"/>
<path d="M80.375 45.6305C80.375 67.6152 62.541 85.3089 40.6966 85.3089C18.8524 85.3089 1.01831 67.6152 1.01831 45.6305C1.01831 23.6461 18.8524 5.95215 40.6966 5.95215C62.541 5.95215 80.375 23.6461 80.375 45.6305Z" fill="#E44332" stroke="black" stroke-width="1.98392"/>
<path d="M58.8645 58.4488C56.0742 62.3933 52.0829 65.3295 47.4865 66.8187C42.89 68.3079 37.9352 68.2703 33.3619 66.7115C28.7885 65.1527 24.8422 62.1563 22.1122 58.1698C19.3822 54.1834 18.0149 49.4207 18.2147 44.5931C18.4144 39.7657 20.1704 35.1322 23.2205 31.3849C26.2705 27.6377 30.451 24.9775 35.1374 23.8019C39.8238 22.6262 44.7648 22.998 49.2225 24.8619C53.6802 26.7258 57.4154 29.9816 59.8703 34.1431L40.5854 45.5188L58.8645 58.4488Z" fill="white"/>
<path d="M135.786 73.4054V60.5893H124.478V38.4438H137.294V26.2873H124.478V14.8848H116.279L109.588 26.6643L99.9761 30.9049V38.4438H108.269V54.8409C108.269 66.9973 112.792 73.4054 127.21 73.4054H135.786ZM167.659 74.9131C187.638 74.9131 194.705 62.474 194.705 49.8464C194.705 37.2187 187.638 24.7796 167.659 24.7796C147.681 24.7796 140.708 37.2187 140.708 49.8464C140.708 62.5682 147.681 74.9131 167.659 74.9131ZM156.917 49.8464C156.917 40.4227 159.932 37.4072 167.659 37.4072C175.387 37.4072 178.402 40.4227 178.402 49.8464C178.402 59.27 175.387 62.2855 167.659 62.2855C159.932 62.2855 156.917 59.27 156.917 49.8464ZM234.183 24.7796C226.173 24.7796 220.802 27.7009 217.598 32.6954V26.2873H201.389V92.2526H217.598V66.8088C220.802 71.8976 226.173 74.9131 234.183 74.9131C249.638 74.9131 255.763 63.0394 255.763 49.9406C255.763 36.3706 249.638 24.7796 234.183 24.7796ZM228.718 62.2855C220.425 62.2855 217.598 58.2334 217.598 49.8464C217.598 41.4593 220.425 37.4072 228.718 37.4072C236.728 37.4072 239.555 41.0824 239.555 49.8464C239.555 58.6103 236.728 62.2855 228.718 62.2855ZM327.233 24.7796C318.657 24.7796 313.474 28.9259 310.553 35.2398C308.197 28.6432 303.108 24.7796 295.004 24.7796C286.9 24.7796 281.905 28.4548 278.984 34.2974V26.2873H262.775V73.4054H278.984V51.2599C278.984 42.0248 282 37.8784 288.313 37.8784C293.685 37.8784 296.041 41.1766 296.041 47.2077V73.4054H311.967V51.2599C311.967 42.0248 314.888 37.8784 321.296 37.8784C326.667 37.8784 329.023 41.1766 329.023 47.2077V73.4054H345.232V44.7576C345.232 32.4127 339.578 24.7796 327.233 24.7796ZM368.393 74.6304C377.911 74.6304 383.754 70.4841 386.11 63.6048C386.11 67.4685 386.392 70.6725 386.863 73.4054H400.81C400.245 69.5417 399.962 65.3953 399.962 60.4008V41.6478C399.962 30.9049 392.612 24.7796 377.723 24.7796C362.833 24.7796 354.164 31.9415 353.692 41.9305H369.43C369.524 37.7841 372.257 35.5225 377.911 35.5225C383.283 35.5225 384.979 37.2187 384.979 40.0458C384.979 42.4959 383.848 43.6268 379.513 44.3807L368.864 46.2654C355.86 48.4328 352.75 53.4273 352.75 60.9662C352.75 69.259 358.97 74.6304 368.393 74.6304ZM374.519 64.076C371.22 64.076 368.676 62.3798 368.676 59.0815C368.676 55.8775 370.372 54.2754 374.896 53.1446L377.628 52.485C380.55 51.7311 382.717 51.1657 384.979 49.4694V51.2599C384.979 59.7411 380.644 64.076 374.519 64.076ZM440.489 73.4054V60.5893H429.18V38.4438H441.997V26.2873H429.18V14.8848H420.982L414.291 26.6643L404.679 30.9049V38.4438H412.972V54.8409C412.972 66.9973 417.495 73.4054 431.913 73.4054H440.489ZM471.796 64.076C465.765 64.076 462.09 61.5316 461.147 53.9927H496.486C496.674 52.9561 496.769 51.5426 496.769 50.0348C496.769 36.936 490.643 24.7796 471.419 24.7796C453.326 24.7796 445.41 36.0879 445.41 49.7521C445.41 62.6625 452.195 74.9131 471.419 74.9131C488.57 74.9131 494.978 67.28 496.58 59.1757H480.843C479.523 62.0028 476.602 64.076 471.796 64.076ZM471.608 35.4282C477.921 35.4282 480.843 38.6323 481.408 44.5691H461.336C462.372 37.7841 465.765 35.4282 471.608 35.4282Z" fill="white"/>
</g>
</g>
</g>
<defs>
<clipPath id="clip0_1_1052">
<rect width="500" height="96.22" fill="white"/>
</clipPath>
<clipPath id="clip1_1_1052">
<rect width="500" height="96.22" fill="white"/>
</clipPath>
<clipPath id="clip2_1_1052">
<rect width="499.947" height="96.22" fill="white" transform="translate(0.0263672)"/>
</clipPath>
</defs>
</svg>
