<svg width="82" height="94" viewBox="0 0 82 94" fill="none" xmlns="http://www.w3.org/2000/svg">
<g clip-path="url(#clip0_642_19977)">
<g filter="url(#filter0_bd_642_19977)">
<path d="M82 25.5747V67.4253C82.0002 68.2417 81.7849 69.0438 81.3757 69.7508C80.9665 70.4579 80.3778 71.045 79.6689 71.4532L43.331 92.3784C42.622 92.7857 41.8181 93 40.9999 93C40.1817 93 39.3778 92.7857 38.6687 92.3784L2.33114 71.4532C1.6222 71.045 1.03352 70.4579 0.624306 69.7508C0.21509 69.0438 -0.000231284 68.2417 1.86426e-07 67.4253L1.86426e-07 25.5747C-0.000212368 24.7583 0.215117 23.9563 0.624332 23.2492C1.03355 22.5421 1.62222 21.955 2.33114 21.5468L38.669 0.621544C39.378 0.214325 40.1819 0 41.0001 0C41.8183 0 42.6222 0.214325 43.3313 0.621544L79.6689 21.5468C80.3778 21.955 80.9665 22.5421 81.3757 23.2492C81.7849 23.9563 82.0002 24.7583 82 25.5747Z" fill="#F9BD05"/>
</g>
</g>
<g clip-path="url(#clip1_642_19977)">
<path opacity="0.4" d="M76 28.7248V64.2752C76.0002 64.9687 75.8164 65.6501 75.4671 66.2507C75.1177 66.8513 74.6152 67.3501 74.01 67.6968L42.9899 85.472C42.3846 85.8179 41.6984 86 40.9999 86C40.3014 86 39.6152 85.8179 39.0099 85.472L7.99 67.6968C7.38481 67.3501 6.88228 66.8513 6.53294 66.2507C6.18361 65.6501 5.9998 64.9687 6 64.2752L6 28.7248C5.99982 28.0313 6.18364 27.3499 6.53297 26.7493C6.8823 26.1487 7.38482 25.6499 7.99 25.3032L39.0101 7.52798C39.6154 7.18207 40.3016 7 41.0001 7C41.6986 7 42.3848 7.18207 42.9901 7.52798L74.01 25.3032C74.6152 25.6499 75.1177 26.1487 75.467 26.7493C75.8164 27.3499 76.0002 28.0313 76 28.7248Z" fill="white"/>
<path d="M26.7983 31.774H29.7103V41H26.7983V31.774ZM22.7943 30.5H33.7143V33.076H22.7943V30.5ZM40.3095 41.224C39.0682 41.224 37.9762 40.9953 37.0335 40.538C36.1002 40.0807 35.3722 39.4413 34.8495 38.62C34.3362 37.7987 34.0795 36.842 34.0795 35.75C34.0795 34.658 34.3362 33.7013 34.8495 32.88C35.3722 32.0587 36.1002 31.4193 37.0335 30.962C37.9762 30.5047 39.0682 30.276 40.3095 30.276C41.5602 30.276 42.6522 30.5047 43.5855 30.962C44.5189 31.4193 45.2469 32.0587 45.7695 32.88C46.2922 33.7013 46.5535 34.658 46.5535 35.75C46.5535 36.842 46.2922 37.7987 45.7695 38.62C45.2469 39.4413 44.5189 40.0807 43.5855 40.538C42.6522 40.9953 41.5602 41.224 40.3095 41.224ZM40.3095 38.634C40.9909 38.634 41.5789 38.5173 42.0735 38.284C42.5682 38.0507 42.9462 37.7193 43.2075 37.29C43.4782 36.8607 43.6135 36.3473 43.6135 35.75C43.6135 35.1527 43.4782 34.6393 43.2075 34.21C42.9462 33.7807 42.5682 33.4493 42.0735 33.216C41.5789 32.9827 40.9909 32.866 40.3095 32.866C39.6375 32.866 39.0542 32.9827 38.5595 33.216C38.0649 33.4493 37.6822 33.7807 37.4115 34.21C37.1409 34.6393 37.0055 35.1527 37.0055 35.75C37.0055 36.3473 37.1409 36.8607 37.4115 37.29C37.6822 37.7193 38.0649 38.0507 38.5595 38.284C39.0542 38.5173 39.6375 38.634 40.3095 38.634ZM53.9433 30.5C54.8207 30.5 55.5767 30.6493 56.2113 30.948C56.8553 31.2467 57.3453 31.6713 57.6813 32.222C58.0173 32.7633 58.1853 33.398 58.1853 34.126C58.1853 34.8447 58.0173 35.4793 57.6813 36.03C57.3453 36.5713 56.8553 36.9913 56.2113 37.29C55.5767 37.5887 54.8207 37.738 53.9433 37.738H49.3933V35.414H53.7613C54.228 35.414 54.592 35.302 54.8533 35.078C55.1147 34.8447 55.2453 34.5273 55.2453 34.126C55.2453 33.7153 55.1147 33.398 54.8533 33.174C54.592 32.9407 54.228 32.824 53.7613 32.824H49.6453L50.9473 31.48V41H48.0493V30.5H53.9433ZM14.0054 50.092H17.8274C18.2941 50.092 18.6581 49.9847 18.9194 49.77C19.1808 49.5553 19.3114 49.2567 19.3114 48.874C19.3114 48.482 19.1808 48.1833 18.9194 47.978C18.6581 47.7633 18.2941 47.656 17.8274 47.656H13.5994L14.9014 46.27V56H12.0034V45.5H18.2334C19.0361 45.5 19.7361 45.6447 20.3334 45.934C20.9308 46.214 21.3974 46.606 21.7334 47.11C22.0694 47.6047 22.2374 48.1927 22.2374 48.874C22.2374 49.5367 22.0694 50.12 21.7334 50.624C21.3974 51.128 20.9308 51.52 20.3334 51.8C19.7361 52.08 19.0361 52.22 18.2334 52.22H14.0054V50.092ZM15.5734 51.086H18.8354L22.6014 56H19.2414L15.5734 51.086ZM25.7506 53.984V51.646H32.9886V53.984H25.7506ZM31.3366 45.5L36.1106 56H33.0166L29.0126 46.732H29.8526L25.8346 56H22.7406L27.5146 45.5H31.3366ZM38.7134 46.774H41.6254V56H38.7134V46.774ZM34.7094 45.5H45.6294V48.076H34.7094V45.5ZM55.8544 49.7V51.8H48.1684V49.7H55.8544ZM50.1424 50.75L49.4564 54.964L48.2804 53.648H56.3164V56H46.5584L47.3564 50.75L46.5584 45.5H56.2464V47.852H48.2804L49.4564 46.536L50.1424 50.75ZM63.2316 45.5C64.473 45.5 65.5603 45.7193 66.4936 46.158C67.4363 46.5873 68.1643 47.1987 68.6776 47.992C69.2003 48.776 69.4616 49.6953 69.4616 50.75C69.4616 51.8047 69.2003 52.7287 68.6776 53.522C68.1643 54.306 67.4363 54.9173 66.4936 55.356C65.5603 55.7853 64.473 56 63.2316 56H57.9956V45.5H63.2316ZM60.8796 54.782L59.4936 53.424H63.4556C64.081 53.424 64.6223 53.3167 65.0796 53.102C65.5463 52.878 65.9056 52.5653 66.1576 52.164C66.4096 51.7627 66.5356 51.2913 66.5356 50.75C66.5356 50.1993 66.4096 49.728 66.1576 49.336C65.9056 48.9347 65.5463 48.6267 65.0796 48.412C64.6223 48.188 64.081 48.076 63.4556 48.076H59.4936L60.8796 46.718V54.782Z" fill="black"/>
<path d="M28.4636 69.016C28.4956 68.5947 28.6316 68.2267 28.8716 67.912C29.1116 67.592 29.429 67.344 29.8236 67.168C30.2236 66.9867 30.6743 66.896 31.1756 66.896C31.7196 66.896 32.1756 66.9813 32.5436 67.152C32.9116 67.3227 33.189 67.5493 33.3756 67.832C33.5676 68.1147 33.6636 68.4267 33.6636 68.768C33.6636 69.0773 33.5863 69.3627 33.4316 69.624C33.277 69.88 33.0343 70.1387 32.7036 70.4C32.373 70.6613 31.9383 70.9573 31.3996 71.288L29.2956 72.592L29.2316 72.36H33.8316V73H28.5036V72.408L31.0076 70.808C31.4503 70.5253 31.8103 70.28 32.0876 70.072C32.365 69.864 32.5676 69.6613 32.6956 69.464C32.829 69.2613 32.8956 69.0373 32.8956 68.792C32.8956 68.4187 32.7543 68.1147 32.4716 67.88C32.189 67.6453 31.749 67.528 31.1516 67.528C30.789 67.528 30.4663 67.5893 30.1836 67.712C29.9063 67.8293 29.6823 68 29.5116 68.224C29.3463 68.4427 29.2476 68.7067 29.2156 69.016H28.4636ZM37.3778 73.104C36.7965 73.104 36.2951 72.976 35.8738 72.72C35.4578 72.464 35.1351 72.104 34.9058 71.64C34.6818 71.176 34.5698 70.6293 34.5698 70C34.5698 69.3653 34.6818 68.816 34.9058 68.352C35.1351 67.888 35.4578 67.5307 35.8738 67.28C36.2951 67.024 36.7965 66.896 37.3778 66.896C37.9645 66.896 38.4658 67.024 38.8818 67.28C39.3031 67.5307 39.6258 67.888 39.8498 68.352C40.0738 68.816 40.1858 69.3653 40.1858 70C40.1858 70.6293 40.0738 71.1787 39.8498 71.648C39.6258 72.112 39.3031 72.472 38.8818 72.728C38.4658 72.9787 37.9645 73.104 37.3778 73.104ZM37.3778 72.464C38.0338 72.464 38.5405 72.2507 38.8978 71.824C39.2605 71.392 39.4418 70.784 39.4418 70C39.4418 69.216 39.2605 68.608 38.8978 68.176C38.5405 67.744 38.0338 67.528 37.3778 67.528C36.7271 67.528 36.2205 67.744 35.8578 68.176C35.5005 68.608 35.3218 69.216 35.3218 70C35.3218 70.784 35.5005 71.392 35.8578 71.824C36.2205 72.2507 36.7271 72.464 37.3778 72.464ZM40.948 69.016C40.98 68.5947 41.116 68.2267 41.356 67.912C41.596 67.592 41.9133 67.344 42.308 67.168C42.708 66.9867 43.1587 66.896 43.66 66.896C44.204 66.896 44.66 66.9813 45.028 67.152C45.396 67.3227 45.6733 67.5493 45.86 67.832C46.052 68.1147 46.148 68.4267 46.148 68.768C46.148 69.0773 46.0707 69.3627 45.916 69.624C45.7613 69.88 45.5187 70.1387 45.188 70.4C44.8573 70.6613 44.4227 70.9573 43.884 71.288L41.78 72.592L41.716 72.36H46.316V73H40.988V72.408L43.492 70.808C43.9347 70.5253 44.2947 70.28 44.572 70.072C44.8493 69.864 45.052 69.6613 45.18 69.464C45.3133 69.2613 45.38 69.0373 45.38 68.792C45.38 68.4187 45.2387 68.1147 44.956 67.88C44.6733 67.6453 44.2333 67.528 43.636 67.528C43.2733 67.528 42.9507 67.5893 42.668 67.712C42.3907 67.8293 42.1667 68 41.996 68.224C41.8307 68.4427 41.732 68.7067 41.7 69.016H40.948ZM47.2382 68.8C47.2755 68.4267 47.4115 68.096 47.6462 67.808C47.8862 67.52 48.2035 67.296 48.5982 67.136C48.9982 66.976 49.4595 66.896 49.9822 66.896C50.4889 66.896 50.9209 66.9653 51.2782 67.104C51.6409 67.2373 51.9182 67.4267 52.1102 67.672C52.3022 67.912 52.3982 68.1867 52.3982 68.496C52.3982 68.7627 52.3129 69.008 52.1422 69.232C51.9715 69.4507 51.7102 69.6267 51.3582 69.76C51.0115 69.8933 50.5715 69.96 50.0382 69.96V69.808C50.6409 69.8027 51.1235 69.8613 51.4862 69.984C51.8542 70.1067 52.1209 70.28 52.2862 70.504C52.4515 70.728 52.5342 70.992 52.5342 71.296C52.5342 71.6533 52.4249 71.968 52.2062 72.24C51.9875 72.512 51.6782 72.7253 51.2782 72.88C50.8835 73.0293 50.4169 73.104 49.8782 73.104C49.3235 73.104 48.8382 73.0213 48.4222 72.856C48.0115 72.6853 47.6889 72.4507 47.4542 72.152C47.2195 71.8533 47.0889 71.5093 47.0622 71.12H47.8142C47.8729 71.5467 48.0782 71.88 48.4302 72.12C48.7822 72.3547 49.2675 72.472 49.8862 72.472C50.4835 72.472 50.9449 72.3653 51.2702 72.152C51.6009 71.9387 51.7662 71.6373 51.7662 71.248C51.7662 70.9067 51.6195 70.6453 51.3262 70.464C51.0382 70.2827 50.5822 70.192 49.9582 70.192H49.0622V69.608H49.9582C50.3475 69.608 50.6649 69.56 50.9102 69.464C51.1555 69.368 51.3369 69.24 51.4542 69.08C51.5715 68.9147 51.6302 68.7333 51.6302 68.536C51.6302 68.2373 51.4915 67.9947 51.2142 67.808C50.9422 67.6213 50.5235 67.528 49.9582 67.528C49.3769 67.528 48.9209 67.6427 48.5902 67.872C48.2595 68.096 48.0595 68.4053 47.9902 68.8H47.2382Z" fill="black"/>
</g>
<defs>
<filter id="filter0_bd_642_19977" x="-2.45903" y="-2.45903" width="86.9181" height="97.9181" filterUnits="userSpaceOnUse" color-interpolation-filters="sRGB">
<feFlood flood-opacity="0" result="BackgroundImageFix"/>
<feGaussianBlur in="BackgroundImageFix" stdDeviation="1.22951"/>
<feComposite in2="SourceAlpha" operator="in" result="effect1_backgroundBlur_642_19977"/>
<feColorMatrix in="SourceAlpha" type="matrix" values="0 0 0 0 0 0 0 0 0 0 0 0 0 0 0 0 0 0 127 0" result="hardAlpha"/>
<feOffset dy="0.819675"/>
<feGaussianBlur stdDeviation="0.409838"/>
<feComposite in2="hardAlpha" operator="out"/>
<feColorMatrix type="matrix" values="0 0 0 0 0 0 0 0 0 0 0 0 0 0 0 0 0 0 0.25 0"/>
<feBlend mode="normal" in2="effect1_backgroundBlur_642_19977" result="effect2_dropShadow_642_19977"/>
<feBlend mode="normal" in="SourceGraphic" in2="effect2_dropShadow_642_19977" result="shape"/>
</filter>
<clipPath id="clip0_642_19977">
<rect width="94" height="82" fill="white" transform="matrix(0 -1 1 0 0 94)"/>
</clipPath>
<clipPath id="clip1_642_19977">
<rect width="80" height="70" fill="white" transform="matrix(0 -1 1 0 6 87)"/>
</clipPath>
</defs>
</svg>
