<svg xmlns="http://www.w3.org/2000/svg" width="24" height="24" fill="none">
  <g clip-path="url(#a)">
    <path fill="#3C8CE7" stroke="#fff" d="m22.88 12.04-1.13 1.57c-.1.13-.15.28-.18.43l.5.08-.5-.08c-.02.16-.01.31.03.46l.51 1.84a2.22 2.22 0 0 1-1.6 2.77l-1.85.47a1.04 1.04 0 0 0-.69.58l-.78 1.75a2.26 2.26 0 0 1-2.05 1.32 2.2 2.2 0 0 1-.95-.22l-1.73-.83a1.03 1.03 0 0 0-.92 0L9.82 23a2.23 2.23 0 0 1-3-1.1l-.79-1.74a1.03 1.03 0 0 0-.7-.58l-1.85-.47a2.2 2.2 0 0 1-1.38-1.04 2.24 2.24 0 0 1-.22-1.72l.52-1.84a1.05 1.05 0 0 0-.15-.9l-1.12-1.56a2.23 2.23 0 0 1 .55-3.14l1.58-1.08c.13-.09.24-.2.32-.34l-.43-.25.43.25c.08-.14.13-.3.14-.45l.14-1.9a2.25 2.25 0 0 1 2.45-2.07l1.9.2a1.02 1.02 0 0 0 .86-.32l1.33-1.37a2.24 2.24 0 0 1 3.2 0l1.33 1.37a1.02 1.02 0 0 0 .87.32l1.89-.2a2.24 2.24 0 0 1 1.66.52c.23.2.42.43.55.69l.45-.23-.45.23c.14.26.22.55.24.85l.14 1.9a1.03 1.03 0 0 0 .45.79l1.6 1.08a2.21 2.21 0 0 1 .93 1.46 2.17 2.17 0 0 1-.38 1.68Z"/>
    <path fill="#ECEFF1" fill-rule="evenodd" d="M18.31 7.87c.31.3.31.78 0 1.09l-7.33 7.18a.8.8 0 0 1-1.1 0l-4.2-4.1a.76.76 0 0 1 0-1.1.8.8 0 0 1 1.11 0l3.64 3.57 6.77-6.64a.8.8 0 0 1 1.11 0Z" clip-rule="evenodd"/>
  </g>
  <defs>
    <clipPath id="a">
      <path fill="#fff" d="M0 0h24v24H0z"/>
    </clipPath>
  </defs>
</svg>
